<svg id="Layer_1" data-name="Layer 1" xmlns="http://www.w3.org/2000/svg" viewBox="0 0 1190.55 1190.55"><defs><style>.cls-1{fill:#d34545;}.cls-2{fill:#c16053;}.cls-3{fill:#42210b;}</style></defs><title>male-mouth-Artboard 3 copy</title><path class="cls-1" d="M539.61,674.87s58.25,26.71,138-2"/><path class="cls-2" d="M539.61,674.87c3.28-.21,6.36-.37,9.41-.5l9-.38c5.87-.22,11.58-.4,17.21-.55l33.16-.85,16.51-.45c2.77,0,5.54-.18,8.35-.18l4.2-.11c1.41,0,2.83,0,4.24-.06,2.84,0,5.71,0,8.6-.07,1.44,0,2.91,0,4.37,0s2.94,0,4.43,0c3,.11,6,.1,9.07.31a93.9,93.9,0,0,1,9.49.77,74.31,74.31,0,0,1-15,11.71q-2,1.2-4.08,2.34c-1.37.76-2.78,1.43-4.19,2.1s-2.82,1.34-4.26,1.94-2.9,1.16-4.36,1.7c-2.91,1.13-5.9,2-8.9,2.88-1.51.38-3,.78-4.54,1.12-.76.18-1.52.37-2.29.53l-2.3.43a117.13,117.13,0,0,1-37.37.92A105.93,105.93,0,0,1,572,694.38a91.14,91.14,0,0,1-17.3-7.61,70.36,70.36,0,0,1-8-5.28A43.44,43.44,0,0,1,539.61,674.87Z"/><path class="cls-3" d="M535.11,672.37a56.18,56.18,0,0,0,8.76,3.72c1.52.48,3,1,4.54,1.43L553,678.7c1.53.42,3.1.67,4.65,1s3.09.7,4.67.89l4.7.7,2.35.35,2.37.22,4.74.44,2.36.24,2.38.12c3.17.13,6.33.36,9.5.41l9.51,0c1.59,0,3.17-.08,4.76-.17l4.75-.25,4.75-.22c1.59,0,3.17-.26,4.75-.38l9.48-.89c1.59-.11,3.16-.34,4.73-.57l4.72-.66,9.44-1.29c6.26-1.12,12.53-2.17,18.78-3.35s12.45-2.66,18.7-3.9c-6.14,1.68-12.32,3.23-18.49,4.85-6.22,1.39-12.49,2.6-18.73,3.91-3.15.55-6.3,1-9.46,1.49l-4.73.71c-1.58.25-3.16.49-4.75.62l-9.53,1c-1.59.14-3.17.38-4.77.44l-4.79.25a206.67,206.67,0,0,1-38.28-1.23l-2.38-.29-2.37-.42-4.72-.84c-1.58-.24-3.12-.69-4.68-1s-3.13-.68-4.65-1.17l-4.59-1.41c-1.51-.51-3-1.1-4.5-1.64s-3-1.25-4.4-1.9l-2.13-1.1C536.47,673.19,535.77,672.81,535.11,672.37Z"/><path class="cls-3" d="M683.61,668.37a3.15,3.15,0,0,1,1.67,1,4.45,4.45,0,0,1,1,1.73,4.19,4.19,0,0,1-.65,3.76c-.18-.66-.26-1.23-.38-1.78a14.82,14.82,0,0,0-.39-1.56A21.19,21.19,0,0,0,683.61,668.37Z"/><path class="cls-3" d="M536.81,669.37a22.34,22.34,0,0,0-1.23,3.16c-.13.51-.29,1-.39,1.56s-.19,1.12-.38,1.78a4.19,4.19,0,0,1-.64-3.76,4.43,4.43,0,0,1,1-1.73A3.19,3.19,0,0,1,536.81,669.37Z"/></svg>