<svg id="Layer_1" data-name="Layer 1" xmlns="http://www.w3.org/2000/svg" viewBox="0 0 1190.55 1190.55"><defs><style>.cls-1{fill:#d34545;}.cls-2{fill:#c16053;}.cls-3{fill:#42210b;}</style></defs><title>mouthArtboard 5</title><path class="cls-1" d="M527.37,774.17s58.25,26.71,138-2"/><path class="cls-2" d="M527.37,774.17c3.28-.21,6.36-.36,9.41-.49l9-.39c5.87-.21,11.58-.4,17.2-.54l33.17-.85,16.51-.45c2.77,0,5.54-.18,8.34-.19l4.21-.1c1.41,0,2.82,0,4.24-.06,2.83-.06,5.71,0,8.6-.07,1.44,0,2.91,0,4.37,0s2.94,0,4.42,0c3,.11,6,.09,9.08.3s6.19.29,9.49.77a74,74,0,0,1-15,11.72q-2,1.2-4.08,2.34c-1.37.76-2.78,1.42-4.19,2.1s-2.83,1.34-4.27,1.94-2.89,1.16-4.35,1.7c-2.92,1.13-5.91,2-8.91,2.88-1.5.38-3,.77-4.54,1.12-.76.17-1.51.37-2.28.52l-2.3.43a117.13,117.13,0,0,1-37.37.92,105.13,105.13,0,0,1-18.34-4.16,91.37,91.37,0,0,1-17.3-7.6,72.56,72.56,0,0,1-7.95-5.28A42.3,42.3,0,0,1,527.37,774.17Z"/><path class="cls-3" d="M522.87,771.67a56.78,56.78,0,0,0,8.76,3.73c1.51.47,3,1,4.54,1.42l4.61,1.19c1.53.41,3.1.67,4.65,1s3.09.7,4.67.89l4.7.7,2.35.35,2.37.22,4.73.44,2.37.24L569,782c3.17.14,6.33.36,9.5.42l9.52,0c1.59,0,3.17-.09,4.75-.17l4.76-.26,4.75-.21c1.59,0,3.16-.26,4.74-.39l9.49-.88c1.58-.12,3.15-.34,4.73-.57l4.71-.66,9.45-1.3c6.25-1.12,12.53-2.16,18.78-3.35s12.44-2.66,18.7-3.9c-6.15,1.68-12.33,3.24-18.5,4.86-6.22,1.38-12.48,2.6-18.73,3.91-3.14.55-6.3,1-9.45,1.49l-4.74.71c-1.57.24-3.15.48-4.74.62l-9.53,1c-1.59.14-3.18.38-4.77.43l-4.79.26a206.8,206.8,0,0,1-38.29-1.23l-2.38-.29-2.36-.42-4.72-.85c-1.58-.23-3.13-.68-4.69-1s-3.12-.68-4.65-1.16L536,777.54c-1.52-.51-3-1.1-4.51-1.64s-2.94-1.25-4.39-1.9l-2.13-1.1C524.23,772.5,523.53,772.12,522.87,771.67Z"/><path class="cls-3" d="M671.37,767.67a3.27,3.27,0,0,1,1.67,1,4.36,4.36,0,0,1,1,1.73,4.17,4.17,0,0,1-.64,3.75c-.19-.65-.26-1.22-.38-1.77s-.26-1.06-.39-1.56A22.43,22.43,0,0,0,671.37,767.67Z"/><path class="cls-3" d="M524.57,768.67a21.27,21.27,0,0,0-1.23,3.17,14.22,14.22,0,0,0-.39,1.56c-.12.55-.2,1.12-.38,1.77a4.17,4.17,0,0,1-.65-3.75,4.38,4.38,0,0,1,1-1.73A3.23,3.23,0,0,1,524.57,768.67Z"/></svg>