<svg id="Layer_1" data-name="Layer 1" xmlns="http://www.w3.org/2000/svg" viewBox="0 0 1190.55 1190.55"><title>male-mouth-Artboard 1 copy</title><path d="M608.77,693.47c-1.27-.34-2.59-.46-3.86-.73s-2.51-.62-3.77-1a22.85,22.85,0,0,0-3.84-.83,25.86,25.86,0,0,0-3.93-.26,19.34,19.34,0,0,0-7.68,1.69l0,.16c2.61-.1,5.12-.15,7.64-.09,1.26,0,2.53,0,3.79.06l3.83.16a15.24,15.24,0,0,1,3.79.62,27.55,27.55,0,0,1,3.53,1.51c1.16.51,2.35.94,3.53,1.41s2.35.94,3.59,1.38l.1-.13a13.6,13.6,0,0,0-3.14-2.41A15.87,15.87,0,0,0,608.77,693.47Z"/><path d="M664.15,662.53a26.62,26.62,0,0,0,1.76,8.86,47.81,47.81,0,0,1-10.77,5.32,95,95,0,0,1-12.58,3.49,149.12,149.12,0,0,1-52.58.89,96.36,96.36,0,0,1-12.89-3.1,49.56,49.56,0,0,1-12-5.53,49.7,49.7,0,0,0,11.85,6.07,96.82,96.82,0,0,0,12.86,3.68,151.09,151.09,0,0,0,53.43,1.36,97.05,97.05,0,0,0,13.23-3.06,52.58,52.58,0,0,0,11.84-5.21,9.37,9.37,0,0,0,7.34,3.25S670.4,673.67,664.15,662.53Z"/></svg>