<svg id="Layer_1" data-name="Layer 1" xmlns="http://www.w3.org/2000/svg" width="42cm" height="42cm" viewBox="0 0 1190.55 1190.55"><defs><style>.cls-1{fill:#fff;}.cls-2{fill:gray;}.cls-3{fill:#999;}.cls-4{fill:#b3b3b3;}</style></defs><title>mouth-m-Artboard 1</title><path class="cls-1" d="M627.1,673s-65,3.63-95.59-21.74c0,0-6,42.22,33.92,50.12S627.1,673,627.1,673Z"/><path d="M586.15,688.71c-5.14-.65-10.27-1.54-15.31-2.64A167.18,167.18,0,0,1,549.62,680a154.48,154.48,0,0,1-16.54-7.06l.4-.54a154,154,0,0,0,16.45,7,165.31,165.31,0,0,0,21.1,6.06A173.86,173.86,0,0,0,594.84,689a143.82,143.82,0,0,0,17.06.36l.05.64a146.53,146.53,0,0,1-17.18-.37Q590.45,689.25,586.15,688.71Z"/><polygon points="588.05 701.5 587.36 701.22 604.13 672.64 604.82 672.92 588.05 701.5"/><polygon points="564.22 701.16 563.5 700.93 577.95 669.75 578.66 669.97 564.22 701.16"/><polygon points="546.03 692.49 545.29 692.33 554.52 663.8 555.26 663.96 546.03 692.49"/><path class="cls-2" d="M586.78,680.47c-1.59-.2-3.18-.41-4.74-.64-2.68-.4-5.27-.83-7.69-1.29s-4.89-1-7.22-1.5c-3.11-.71-6.09-1.48-8.84-2.28-2.2-.63-4.34-1.31-6.33-2-2.65-.91-5.21-1.89-7.6-2.91a84.9,84.9,0,0,1-8.05-3.92,55.88,55.88,0,0,1-5.17-3.26l.28-.26.06-.37.13,0,.1.07a54.93,54.93,0,0,0,5.09,3.2,81.88,81.88,0,0,0,8,3.88c2.37,1,4.9,2,7.53,2.88,2,.69,4.1,1.36,6.29,2,2.73.8,5.69,1.56,8.78,2.27,2.32.53,4.74,1,7.18,1.49s5,.88,7.65,1.28c3,.44,6.06.83,9.1,1.16,2.61.29,5.36.54,8.17.75,1.87.15,3.84.28,6,.4,3.1.17,6.2.3,9.21.37,2,.05,3.6.08,5.15.09v.72c-1.56,0-3.2,0-5.16-.09-3-.07-6.14-.2-9.25-.37-2.2-.12-4.18-.25-6.06-.4-2.82-.21-5.58-.47-8.2-.76C589.71,680.83,588.24,680.66,586.78,680.47Z"/><path class="cls-3" d="M564.84,680l-4.77-1.22a1.71,1.71,0,0,1-1.4-2.19l.88-2.38a2.22,2.22,0,0,1,2.65-1.16l4.77,1.21a1.72,1.72,0,0,1,1.4,2.2l-.89,2.38A2.23,2.23,0,0,1,564.84,680Z"/><path class="cls-3" d="M542,672.17l-4.57-1.66a1.65,1.65,0,0,1-1.08-2.31l1.21-2.29a2.31,2.31,0,0,1,2.79-.9l4.57,1.67A1.65,1.65,0,0,1,546,669l-1.22,2.28A2.3,2.3,0,0,1,542,672.17Z"/><path class="cls-3" d="M589.15,684.35l-4.91-.77a1.8,1.8,0,0,1-1.68-2.05l.56-2.45a2.13,2.13,0,0,1,2.47-1.4l4.91.77a1.81,1.81,0,0,1,1.69,2l-.57,2.45A2.11,2.11,0,0,1,589.15,684.35Z"/><path class="cls-3" d="M612.85,686.46l-5-.44a1.87,1.87,0,0,1-1.88-1.94l.32-2.48a2.06,2.06,0,0,1,2.34-1.55l5,.44a1.88,1.88,0,0,1,1.88,1.94l-.33,2.48A2,2,0,0,1,612.85,686.46Z"/><path class="cls-4" d="M564.11,679.19,559.34,678a1.72,1.72,0,0,1-1.4-2.19l.88-2.39a2.24,2.24,0,0,1,2.65-1.16l4.77,1.22a1.72,1.72,0,0,1,1.4,2.19l-.88,2.39A2.24,2.24,0,0,1,564.11,679.19Z"/><path class="cls-4" d="M541.28,671.35l-4.57-1.67a1.65,1.65,0,0,1-1.08-2.31l1.21-2.28a2.3,2.3,0,0,1,2.79-.9l4.57,1.66a1.66,1.66,0,0,1,1.09,2.32l-1.21,2.28A2.32,2.32,0,0,1,541.28,671.35Z"/><path class="cls-4" d="M588.42,683.53l-4.91-.77a1.8,1.8,0,0,1-1.68-2l.56-2.45a2.14,2.14,0,0,1,2.48-1.4l4.9.77a1.81,1.81,0,0,1,1.69,2l-.57,2.45A2.12,2.12,0,0,1,588.42,683.53Z"/><path class="cls-4" d="M612.12,685.64l-5-.45a1.86,1.86,0,0,1-1.88-1.93l.32-2.48a2.06,2.06,0,0,1,2.34-1.55l5,.44a1.88,1.88,0,0,1,1.88,1.93l-.33,2.48A2.05,2.05,0,0,1,612.12,685.64Z"/></svg>