<svg id="Layer_1" data-name="Layer 1" xmlns="http://www.w3.org/2000/svg" viewBox="0 0 1190.55 1190.55"><defs><style>.cls-1{fill:#fff;}</style></defs><title>mouthArtboard 2</title><path class="cls-1" d="M543.74,806.1s0-21.92,6.53-28.1c0,0,62.41-27,106-21.35,0,0,2.91,45-2.9,51.14C653.32,807.79,570.59,799.92,543.74,806.1Z"/><path d="M653.34,808.71C646.78,792,634.5,761,632.57,757c-2.22,3.55-14.6,30-22.81,47.84l-.31.67-22.54-40-24,39.94-13.36-27.6.67-.2L563,804l23.93-39.86,22.45,39.83c1.24-2.7,6-13.12,10.9-23.44,11.41-24.27,11.9-24.35,12.26-24.41l.19,0,.16.12c.74.56,16.37,40.24,21.14,52.38Z"/></svg>