<svg id="Layer_1" data-name="Layer 1" xmlns="http://www.w3.org/2000/svg" viewBox="0 0 1190.55 1190.55"><defs><style>.cls-1{fill:#fff;}</style></defs><title>male-mouth-Artboard 2</title><path class="cls-1" d="M540.57,649.46s74.53,33.36,123.52,19.16c0,0-14.66,49.32-65.69,40S540.57,649.46,540.57,649.46Z"/><path d="M580.6,685.24c-3.56-.9-7.1-1.88-10.59-2.93a193.5,193.5,0,0,1-20.4-7.37l.44-.56a188.31,188.31,0,0,0,20.2,7.29A233.34,233.34,0,0,0,600,688.56a227,227,0,0,0,27.89,2.83,210.87,210.87,0,0,0,22.92-.32l.36.71a214.2,214.2,0,0,1-23.1.32A228.55,228.55,0,0,1,600,689.24C593.47,688.18,587,686.84,580.6,685.24Z"/><polygon points="571.7 698.48 566.73 659.38 567.8 659.49 572.77 698.59 571.7 698.48"/><polygon points="599.87 708.88 598.98 667.94 600.06 668.1 600.96 709.03 599.87 708.88"/><polygon points="625.71 707.53 629.58 671.89 630.65 672.1 626.79 707.74 625.71 707.53"/></svg>