<svg id="Layer_1" data-name="Layer 1" xmlns="http://www.w3.org/2000/svg" viewBox="0 0 1190.55 1190.55"><title>male-mouth-Artboard 1 copy 2</title><path d="M551.61,677.71a10.4,10.4,0,0,0,3.94,6.65,8,8,0,0,0,3.44,1.22,13.18,13.18,0,0,0,3.8-.17,23,23,0,0,0,3.82-1,36,36,0,0,0,3.73-1.52l3.71-1.83c1.25-.63,2.53-1.2,3.8-1.8q3.84-1.76,7.78-3.32c2.62-1,5.25-2.09,7.93-3a50.6,50.6,0,0,1,8.21-2.28c.7-.1,1.41-.24,2.13-.31l2.16-.14a25.46,25.46,0,0,1,4.35.3,27,27,0,0,1,8.31,2.71c1.35.63,2.5,1.32,3.74,2s2.46,1.27,3.7,1.87c5,2.41,10.13,4.52,15.29,6.49a117.9,117.9,0,0,0,15.76,4.95c1.34.29,2.69.55,4,.76.67.08,1.35.2,2,.24l1,.1,1,0a20.37,20.37,0,0,0,4.06-.21,12.32,12.32,0,0,0,3.89-1.22l.2.29a11.57,11.57,0,0,1-3.81,2.07,18.94,18.94,0,0,1-4.27.87,37.23,37.23,0,0,1-8.64-.21,66.76,66.76,0,0,1-8.43-1.64c-2.77-.7-5.49-1.55-8.17-2.51a112.18,112.18,0,0,1-15.5-7.06c-1.25-.68-2.49-1.37-3.71-2.11l-3.58-2.2c-.58-.33-1.14-.73-1.75-1l-1.8-.91c-.6-.31-1.24-.5-1.86-.76-.32-.11-.63-.25-1-.35l-1-.26a19.79,19.79,0,0,0-8.08-.55,12.65,12.65,0,0,0-2,.34,17.94,17.94,0,0,0-2,.48c-.66.19-1.33.38-2,.6l-1.95.74c-5.17,2.08-9.88,5.19-14.78,7.9-1.23.67-2.45,1.36-3.7,2-.62.33-1.24.64-1.88,1s-1.31.62-2,.91a29.18,29.18,0,0,1-8.47,2.42,13.9,13.9,0,0,1-4.58-.21,8.92,8.92,0,0,1-6.7-5.88,11.06,11.06,0,0,1-.62-4.32Z"/></svg>