<svg id="Layer_1" data-name="Layer 1" xmlns="http://www.w3.org/2000/svg" width="42cm" height="42cm" viewBox="0 0 1190.55 1190.55"><defs><style>.cls-1{fill:#fff;}</style></defs><title>mouth-m-Artboard 3</title><path class="cls-1" d="M551,706.06s0-21.92,6.53-28.11c0,0,62.41-27,106-21.35,0,0,2.9,45-2.91,51.14C660.57,707.74,577.84,699.87,551,706.06Z"/><path d="M660.59,708.67C654,692,641.75,661,639.82,656.9c-2.22,3.56-14.6,30-22.81,47.84l-.31.67-22.54-40-24,40-13.36-27.61.68-.2,12.76,26.35,23.92-39.86,22.45,39.83c1.25-2.7,6-13.12,10.9-23.44,11.41-24.26,11.9-24.35,12.26-24.41l.19,0,.17.12c.73.56,16.36,40.24,21.13,52.38Z"/></svg>