<svg id="Layer_1" data-name="Layer 1" xmlns="http://www.w3.org/2000/svg" viewBox="0 0 1190.55 1190.55"><title>male-mouth-Artboard 4</title><path d="M645.71,680.16c-.78-.31-1.55-.6-2.34-.89-1.53-.55-3.08-1-4.64-1.47a68.58,68.58,0,0,0-9.5-1.91,63.83,63.83,0,0,0-19.22.4,61.11,61.11,0,0,0-18,6.2,72.32,72.32,0,0,0-15.36,11.09,72,72,0,0,1,15.8-10.2,60,60,0,0,1,17.9-5.11,61.23,61.23,0,0,1,18.48.59,63.56,63.56,0,0,1,8.93,2.29c1.46.48,2.89,1,4.3,1.61,1,.42,2,.88,3,1.35a41.93,41.93,0,0,0,1.78,15.56c3.83-20.26,9.26-30.39,9.26-30.39A15.22,15.22,0,0,0,645.71,680.16Z"/></svg>