<svg id="Layer_1" data-name="Layer 1" xmlns="http://www.w3.org/2000/svg" viewBox="0 0 1190.55 1190.55"><defs><style>.cls-1{fill:#d34545;}.cls-2{fill:#d36161;}.cls-3{fill:#42210b;}</style></defs><title>male-mouth-Artboard 5</title><path class="cls-1" d="M633.22,694.18c0,.13,0,.26-.05.39-1.79,12.49-5.84,26.63-27.54,26-19.44.67-27.06-13.36-27.21-25.94v-.41c0-1.35,10.43-23.31,20-23.31a13.87,13.87,0,0,1,7.37,2.17,13.9,13.9,0,0,1,7.37-2.17C622.79,670.87,633.6,691.48,633.22,694.18Z"/><path class="cls-2" d="M633.17,694.57c0,12.45-5.84,26.63-27.54,26-19.44.67-27.06-13.36-27.21-25.94,7.85-2,17.27.94,27.41.94S625.34,692.61,633.17,694.57Z"/><path class="cls-3" d="M578.42,694.59a25.35,25.35,0,0,1,6.83-1,63.67,63.67,0,0,1,6.91.3c4.57.4,9.11,1,13.64,1s9.06-.57,13.63-1a61.24,61.24,0,0,1,6.91-.31,25,25,0,0,1,6.83,1,28.39,28.39,0,0,0-6.82-.33c-2.27.11-4.54.4-6.8.7a106.45,106.45,0,0,1-13.76,1.27A108.26,108.26,0,0,1,592,694.94c-2.26-.29-4.53-.58-6.8-.69A28.4,28.4,0,0,0,578.42,694.59Z"/></svg>