<?xml version="1.0" encoding="utf-8"?>
<!-- Generator: Adobe Illustrator 27.4.0, SVG Export Plug-In . SVG Version: 6.00 Build 0)  -->
<svg version="1.1" id="Layer_2" xmlns="http://www.w3.org/2000/svg" xmlns:xlink="http://www.w3.org/1999/xlink" x="0px" y="0px"
	 viewBox="0 0 1190.6 1190.6" style="enable-background:new 0 0 1190.6 1190.6;" xml:space="preserve">
<style type="text/css">
	.st0{fill:none;stroke:#F2D111;stroke-width:0.87;stroke-linecap:round;stroke-linejoin:round;}
	.st1{fill:#F2D111;stroke:#F2D111;stroke-width:0.29;stroke-miterlimit:10;}
	.st2{fill:none;stroke:#F2D111;stroke-width:0.87;stroke-miterlimit:10;}
</style>
<g id="Layer_11">
	<path class="st0" d="M386.5,501.9c0,0,281.3,21.4,389.6-16.4"/>
	<path class="st0" d="M381.2,522.1c0,0,278.4,22.7,395-35.3"/>
	<circle class="st1" cx="404.5" cy="503.2" r="3.8"/>
	<circle class="st1" cx="424.6" cy="505.7" r="3.8"/>
	<circle class="st1" cx="447.3" cy="505.7" r="3.8"/>
	<circle class="st1" cx="472.5" cy="505.7" r="3.8"/>
	<circle class="st1" cx="502.7" cy="508.2" r="3.8"/>
	<circle class="st1" cx="532.9" cy="508.2" r="3.8"/>
	<circle class="st1" cx="558.1" cy="508.2" r="3.8"/>
	<circle class="st1" cx="583.2" cy="508.2" r="3.8"/>
	<circle class="st1" cx="613.5" cy="505.7" r="3.8"/>
	<circle class="st1" cx="646.2" cy="503.2" r="3.8"/>
	<circle class="st1" cx="681.4" cy="500.7" r="3.8"/>
	<circle class="st1" cx="709.1" cy="498.1" r="3.8"/>
	<circle class="st1" cx="735.6" cy="494.4" r="3.8"/>
	<circle class="st1" cx="765.8" cy="489.3" r="3.8"/>
	<circle class="st1" cx="754.5" cy="494.4" r="3.8"/>
	<circle class="st1" cx="721.7" cy="507" r="3.8"/>
	<ellipse transform="matrix(0.1602 -0.9871 0.9871 0.1602 78.7214 1114.009)" class="st1" cx="694" cy="510.7" rx="3.8" ry="3.8"/>
	<circle class="st1" cx="666.3" cy="515.8" r="3.8"/>
	<circle class="st1" cx="636.1" cy="520.8" r="3.8"/>
	<circle class="st1" cx="610.9" cy="523.3" r="3.8"/>
	<circle class="st1" cx="578.2" cy="525.8" r="3.8"/>
	<circle class="st1" cx="550.5" cy="525.8" r="3.8"/>
	<circle class="st1" cx="517.8" cy="525.8" r="3.8"/>
	<circle class="st1" cx="446" cy="549.8" r="2.5"/>
	<circle class="st1" cx="446" cy="519.6" r="2.5"/>
	<circle class="st1" cx="447.3" cy="563.6" r="3.8"/>
	<circle class="st1" cx="447.3" cy="535.9" r="3.8"/>
	
		<ellipse transform="matrix(0.1602 -0.9871 0.9871 0.1602 -109.5873 922.8891)" class="st1" cx="487.6" cy="525.8" rx="3.8" ry="3.8"/>
	<circle class="st1" cx="459.9" cy="525.8" r="3.8"/>
	<circle class="st1" cx="429.7" cy="523.3" r="3.8"/>
	<circle class="st1" cx="402" cy="523.3" r="3.8"/>
	<ellipse class="st1" cx="446" cy="863.2" rx="2.5" ry="3"/>
	<ellipse class="st1" cx="446" cy="827" rx="2.5" ry="3"/>
	<ellipse class="st1" cx="466.2" cy="854.2" rx="2.5" ry="3"/>
	<ellipse class="st1" cx="461.1" cy="815" rx="2.5" ry="3"/>
	<ellipse class="st1" cx="447.3" cy="879.8" rx="3.8" ry="4.5"/>
	<ellipse class="st1" cx="447.3" cy="846.6" rx="3.8" ry="4.5"/>
	<ellipse class="st1" cx="469.9" cy="873.8" rx="3.8" ry="4.5"/>
	<ellipse class="st1" cx="464.9" cy="834.6" rx="3.8" ry="4.5"/>
	<line class="st2" x1="446" y1="510.2" x2="446.7" y2="882.8"/>
	<path class="st2" d="M447.3,505.7c0,0,8.8,324.3,22.7,368.1"/>
</g>
</svg>
