<svg xmlns="http://www.w3.org/2000/svg" viewBox="0 0 741.85 731.01"><defs><style>.cls-1,.cls-4{fill:none;}.cls-1,.cls-2,.cls-3,.cls-4{stroke:#f2d111;}.cls-1{stroke-linecap:round;stroke-linejoin:round;}.cls-1,.cls-3,.cls-4{stroke-width:0.87px;}.cls-2,.cls-3{fill:#f2d111;}.cls-2,.cls-3,.cls-4{stroke-miterlimit:10;}.cls-2{stroke-width:0.29px;}</style></defs><g id="Layer_11" data-name="Layer 11"><path class="cls-1" d="M126.17,153s356.09,27.09,493.17-20.71"/><path class="cls-1" d="M119.44,178.47s352.37,28.68,500-44.62"/><circle class="cls-2" cx="148.87" cy="154.57" r="4.78"/><circle class="cls-2" cx="174.37" cy="157.75" r="4.78"/><circle class="cls-2" cx="203.05" cy="157.75" r="4.78"/><circle class="cls-2" cx="234.92" cy="157.75" r="4.78"/><circle class="cls-2" cx="273.17" cy="160.94" r="4.78"/><circle class="cls-2" cx="311.42" cy="160.94" r="4.78"/><circle class="cls-2" cx="343.29" cy="160.94" r="4.78"/><circle class="cls-2" cx="375.16" cy="160.94" r="4.78"/><circle class="cls-2" cx="413.41" cy="157.75" r="4.78"/><circle class="cls-2" cx="454.84" cy="154.57" r="4.78"/><circle class="cls-2" cx="499.46" cy="151.38" r="4.78"/><circle class="cls-2" cx="534.52" cy="148.19" r="4.78"/><circle class="cls-2" cx="567.99" cy="143.41" r="4.78"/><circle class="cls-2" cx="606.23" cy="137.04" r="4.78"/><circle class="cls-2" cx="591.89" cy="143.41" r="4.78"/><circle class="cls-2" cx="550.46" cy="159.35" r="4.78"/><circle class="cls-2" cx="515.4" cy="164.13" r="4.78"/><circle class="cls-2" cx="480.34" cy="170.5" r="4.78"/><circle class="cls-2" cx="442.09" cy="176.88" r="4.78"/><circle class="cls-2" cx="410.22" cy="180.06" r="4.78"/><circle class="cls-2" cx="368.79" cy="183.25" r="4.78"/><circle class="cls-2" cx="333.73" cy="183.25" r="4.78"/><circle class="cls-2" cx="292.29" cy="183.25" r="4.78"/><circle class="cls-2" cx="201.46" cy="213.53" r="3.19"/><circle class="cls-2" cx="201.46" cy="175.28" r="3.19"/><circle class="cls-2" cx="203.05" cy="231.06" r="4.78"/><circle class="cls-2" cx="203.05" cy="196" r="4.78"/><circle class="cls-2" cx="254.05" cy="183.25" r="4.78"/><circle class="cls-2" cx="218.99" cy="183.25" r="4.78"/><circle class="cls-2" cx="180.74" cy="180.06" r="4.78"/><circle class="cls-2" cx="145.68" cy="180.06" r="4.78"/><ellipse class="cls-2" cx="201.46" cy="610.3" rx="3.19" ry="3.82"/><ellipse class="cls-2" cx="201.46" cy="564.47" rx="3.19" ry="3.82"/><ellipse class="cls-2" cx="226.96" cy="598.84" rx="3.19" ry="3.82"/><ellipse class="cls-2" cx="220.58" cy="549.2" rx="3.19" ry="3.82"/><ellipse class="cls-2" cx="203.05" cy="631.31" rx="4.78" ry="5.73"/><ellipse class="cls-2" cx="203.05" cy="589.3" rx="4.78" ry="5.73"/><ellipse class="cls-2" cx="231.74" cy="623.67" rx="4.78" ry="5.73"/><ellipse class="cls-2" cx="225.36" cy="574.02" rx="4.78" ry="5.73"/><line class="cls-3" x1="201.46" y1="163.48" x2="202.31" y2="635.12"/><path class="cls-4" d="M203.05,157.75s11.16,410.54,28.69,465.92"/></g></svg>