<?xml version="1.0" encoding="UTF-8"?>
<!DOCTYPE svg PUBLIC "-//W3C//DTD SVG 1.1//EN" "http://www.w3.org/Graphics/SVG/1.1/DTD/svg11.dtd">
<svg xmlns="http://www.w3.org/2000/svg" version="1.1" width="1191px" height="1191px" style="shape-rendering:geometricPrecision; text-rendering:geometricPrecision; image-rendering:optimizeQuality; fill-rule:evenodd; clip-rule:evenodd" xmlns:xlink="http://www.w3.org/1999/xlink">
<g><path style="opacity:1" fill="#9a572a" d="M 770.5,367.5 C 771.167,367.5 771.833,367.5 772.5,367.5C 775.358,368.166 778.358,368.833 781.5,369.5C 782.833,370.5 782.833,371.5 781.5,372.5C 784.603,374.704 787.937,375.037 791.5,373.5C 793.945,374.312 796.278,375.312 798.5,376.5C 800.747,377.906 801.08,379.739 799.5,382C 801.518,386.132 803.351,390.298 805,394.5C 807.152,392.188 809.152,392.522 811,395.5C 811.309,396.766 811.809,397.933 812.5,399C 810.381,399.342 810.047,400.175 811.5,401.5C 809.29,400.545 808.957,399.045 810.5,397C 808.536,396.376 806.869,396.876 805.5,398.5C 804.41,397.273 803.076,396.44 801.5,396C 802.167,395.333 802.833,394.667 803.5,394C 802.333,392.833 801.167,391.667 800,390.5C 799.667,390.833 799.333,391.167 799,391.5C 797.686,390.687 796.519,389.687 795.5,388.5C 794.914,388.709 794.414,389.043 794,389.5C 792.211,386.709 790.878,383.709 790,380.5C 789.667,381.167 789.333,381.833 789,382.5C 787.599,380.808 785.766,380.141 783.5,380.5C 782.807,384.278 781.64,384.278 780,380.5C 779.333,381.167 778.667,381.833 778,382.5C 774.752,380.673 771.919,378.34 769.5,375.5C 768.417,376.365 768.251,377.365 769,378.5C 770.957,379.889 772.79,381.389 774.5,383C 773.852,384.44 773.519,385.94 773.5,387.5C 771.5,387.5 769.5,387.5 767.5,387.5C 767.918,386.778 768.584,386.278 769.5,386C 769.899,384.706 769.899,383.206 769.5,381.5C 765.266,380.139 760.933,379.139 756.5,378.5C 759.624,377.251 762.624,375.751 765.5,374C 767.437,371.914 769.104,369.748 770.5,367.5 Z"/></g>
<g><path style="opacity:1" fill="#995629" d="M 398.5,367.5 C 402.924,367.652 407.257,368.319 411.5,369.5C 411.452,372.292 412.785,374.125 415.5,375C 412.833,375.667 412.833,376.333 415.5,377C 415.167,377.333 414.833,377.667 414.5,378C 416.94,379.303 419.44,380.47 422,381.5C 422.772,381.355 423.439,381.022 424,380.5C 424.992,383.664 426.825,386.164 429.5,388C 429.167,388.333 428.833,388.667 428.5,389C 431.695,390.695 434.028,393.195 435.5,396.5C 435,396.833 434.5,397.167 434,397.5C 430.526,395.897 427.026,394.731 423.5,394C 426.797,396.295 429.797,398.962 432.5,402C 431.944,402.383 431.611,402.883 431.5,403.5C 430.833,403.5 430.167,403.5 429.5,403.5C 428.833,402.167 427.833,401.167 426.5,400.5C 424.159,398.171 421.492,396.171 418.5,394.5C 414.191,393.339 410.191,391.672 406.5,389.5C 409.254,387.618 412.254,385.951 415.5,384.5C 412.572,383.1 409.239,381.767 405.5,380.5C 403.617,381.024 401.784,381.691 400,382.5C 397.929,381.333 396.429,381.999 395.5,384.5C 394.232,383.572 392.899,383.405 391.5,384C 392.167,384.333 392.833,384.667 393.5,385C 390.574,385.218 387.74,385.718 385,386.5C 384.184,385.177 383.017,384.511 381.5,384.5C 381.297,382.956 380.63,381.622 379.5,380.5C 382.059,376.884 385.393,375.384 389.5,376C 390.823,375.184 391.489,374.017 391.5,372.5C 392.947,369.608 395.281,367.942 398.5,367.5 Z"/></g>
<g><path style="opacity:0.004" fill="#b67b52" d="M 812.5,374.5 C 813.833,375.167 813.833,375.167 812.5,374.5 Z"/></g>
<g><path style="opacity:1" fill="#a8693e" d="M 398.5,367.5 C 395.281,367.942 392.947,369.608 391.5,372.5C 390.828,371.733 389.995,371.066 389,370.5C 387.89,372.037 386.39,372.703 384.5,372.5C 384.5,373.5 384.5,374.5 384.5,375.5C 382.856,375.286 381.356,375.62 380,376.5C 379.833,376.167 379.667,375.833 379.5,375.5C 382.362,374.694 382.862,373.361 381,371.5C 378.817,373.376 376.317,374.709 373.5,375.5C 372.913,378.406 371.246,380.072 368.5,380.5C 368.52,382.143 367.853,383.476 366.5,384.5C 367.025,385.192 367.692,385.692 368.5,386C 365.341,388.803 361.841,391.303 358,393.5C 356.16,392.167 355.66,392.334 356.5,394C 355.874,394.75 355.374,395.584 355,396.5C 352.325,398.158 349.825,399.991 347.5,402C 349.962,403.85 349.462,405.017 346,405.5C 345.316,406.784 345.483,407.951 346.5,409C 344.642,411.024 342.975,413.191 341.5,415.5C 342.306,417.776 343.306,420.109 344.5,422.5C 342.228,424.053 340.895,426.219 340.5,429C 340.833,429.333 341.167,429.667 341.5,430C 339.468,432.299 338.801,434.799 339.5,437.5C 337.736,439.13 336.736,441.13 336.5,443.5C 335.691,442.531 334.691,441.698 333.5,441C 334.143,438.483 334.809,435.649 335.5,432.5C 334.167,432.5 332.833,432.5 331.5,432.5C 331.351,431.448 331.517,430.448 332,429.5C 332.893,430.711 333.726,430.711 334.5,429.5C 333.149,426.825 332.815,424.159 333.5,421.5C 334.451,422.326 335.451,422.492 336.5,422C 335.616,420.28 334.283,419.114 332.5,418.5C 332.5,417.833 332.5,417.167 332.5,416.5C 333.75,416.423 334.583,415.756 335,414.5C 335.75,415.126 336.584,415.626 337.5,416C 336.66,417.666 337.16,417.833 339,416.5C 337.855,414.749 337.355,412.916 337.5,411C 338.685,409.647 340.019,408.48 341.5,407.5C 341.291,406.914 340.957,406.414 340.5,406C 341.624,405.751 342.624,405.251 343.5,404.5C 342.652,402.591 342.318,400.591 342.5,398.5C 343.833,398.5 345.167,398.5 346.5,398.5C 346.176,395.306 347.342,394.306 350,395.5C 352.014,393.817 353.68,391.817 355,389.5C 355.333,389.833 355.667,390.167 356,390.5C 356.918,388.368 358.251,387.701 360,388.5C 359.016,386.402 359.349,384.402 361,382.5C 361.333,383.167 361.667,383.833 362,384.5C 362.318,382.939 363.151,381.772 364.5,381C 359.114,381.63 358.614,380.464 363,377.5C 365.438,378.866 365.938,378.366 364.5,376C 366.437,373.909 368.437,372.076 370.5,370.5C 379.535,368.092 388.868,367.092 398.5,367.5 Z"/></g>
<g><path style="opacity:0.985" fill="#b3764d" d="M 370.5,370.5 C 368.437,372.076 366.437,373.909 364.5,376C 365.938,378.366 365.438,378.866 363,377.5C 358.614,380.464 359.114,381.63 364.5,381C 363.151,381.772 362.318,382.939 362,384.5C 361.667,383.833 361.333,383.167 361,382.5C 359.349,384.402 359.016,386.402 360,388.5C 358.251,387.701 356.918,388.368 356,390.5C 355.667,390.167 355.333,389.833 355,389.5C 353.68,391.817 352.014,393.817 350,395.5C 347.342,394.306 346.176,395.306 346.5,398.5C 345.167,398.5 343.833,398.5 342.5,398.5C 342.318,400.591 342.652,402.591 343.5,404.5C 342.624,405.251 341.624,405.751 340.5,406C 340.957,406.414 341.291,406.914 341.5,407.5C 340.019,408.48 338.685,409.647 337.5,411C 337.355,412.916 337.855,414.749 339,416.5C 337.16,417.833 336.66,417.666 337.5,416C 336.584,415.626 335.75,415.126 335,414.5C 334.583,415.756 333.75,416.423 332.5,416.5C 335.411,408.94 338.245,401.273 341,393.5C 344.073,389.939 346.906,386.272 349.5,382.5C 355.757,377.205 362.757,373.205 370.5,370.5 Z"/></g>
<g><path style="opacity:1" fill="#a05a2b" d="M 411.5,369.5 C 425.579,372.876 438.245,378.876 449.5,387.5C 452.474,390.138 455.474,392.805 458.5,395.5C 461.941,401.613 464.941,407.946 467.5,414.5C 465.283,415.227 462.95,415.06 460.5,414C 457.736,410.577 455.402,406.91 453.5,403C 450.144,400.655 446.477,398.822 442.5,397.5C 441.18,399.817 439.514,401.817 437.5,403.5C 438.167,403.833 438.833,404.167 439.5,404.5C 438.349,405.731 437.183,405.731 436,404.5C 435.53,405.577 435.697,406.577 436.5,407.5C 434.251,406.92 432.585,405.587 431.5,403.5C 431.611,402.883 431.944,402.383 432.5,402C 429.797,398.962 426.797,396.295 423.5,394C 427.026,394.731 430.526,395.897 434,397.5C 434.5,397.167 435,396.833 435.5,396.5C 434.028,393.195 431.695,390.695 428.5,389C 428.833,388.667 429.167,388.333 429.5,388C 426.825,386.164 424.992,383.664 424,380.5C 423.439,381.022 422.772,381.355 422,381.5C 419.44,380.47 416.94,379.303 414.5,378C 414.833,377.667 415.167,377.333 415.5,377C 412.833,376.333 412.833,375.667 415.5,375C 412.785,374.125 411.452,372.292 411.5,369.5 Z"/></g>
<g><path style="opacity:0.004" fill="#b67b52" d="M 349.5,382.5 C 348.833,381.167 348.833,381.167 349.5,382.5 Z"/></g>
<g><path style="opacity:0.004" fill="#b67b52" d="M 348.5,382.5 C 347.833,383.167 347.833,383.167 348.5,382.5 Z"/></g>
<g><path style="opacity:0.004" fill="#b67b52" d="M 823.5,383.5 C 822.833,382.167 822.833,382.167 823.5,383.5 Z"/></g>
<g><path style="opacity:0.004" fill="#b67b52" d="M 823.5,383.5 C 824.833,384.167 824.833,384.167 823.5,383.5 Z"/></g>
<g><path style="opacity:1" fill="#a75e2d" d="M 770.5,367.5 C 769.104,369.748 767.437,371.914 765.5,374C 762.624,375.751 759.624,377.251 756.5,378.5C 760.933,379.139 765.266,380.139 769.5,381.5C 769.899,383.206 769.899,384.706 769.5,386C 768.584,386.278 767.918,386.778 767.5,387.5C 766.209,387.263 765.209,387.596 764.5,388.5C 763.833,388.167 763.167,387.833 762.5,387.5C 763.412,386.262 763.579,384.928 763,383.5C 762.667,383.833 762.333,384.167 762,384.5C 761.5,383.333 760.667,382.5 759.5,382C 750.582,381.856 742.248,384.19 734.5,389C 728.229,394.475 721.563,399.475 714.5,404C 710.163,409.399 708.83,408.232 710.5,400.5C 713.076,395.256 716.743,390.923 721.5,387.5C 735.991,376.768 752.325,370.101 770.5,367.5 Z"/></g>
<g><path style="opacity:0.004" fill="#845636" d="M 449.5,386.5 C 450.833,387.167 450.833,387.167 449.5,386.5 Z"/></g>
<g><path style="opacity:0.004" fill="#976039" d="M 721.5,387.5 C 720.833,386.167 720.833,386.167 721.5,387.5 Z"/></g>
<g><path style="opacity:1" fill="#cd7940" d="M 762.5,387.5 C 763.167,387.833 763.833,388.167 764.5,388.5C 764.5,389.167 764.5,389.833 764.5,390.5C 759.038,391.017 753.705,392.184 748.5,394C 746.907,394.949 745.574,396.115 744.5,397.5C 742.973,397.427 741.973,398.094 741.5,399.5C 739.833,400.5 738.5,401.833 737.5,403.5C 736.272,404.306 735.272,405.306 734.5,406.5C 729.326,406.131 726.159,408.797 725,414.5C 723.334,413.66 723.167,414.16 724.5,416C 722.431,416.324 722.098,417.158 723.5,418.5C 722.976,420.453 721.976,422.12 720.5,423.5C 721.767,425.371 721.767,427.204 720.5,429C 724.08,434.19 724.414,439.69 721.5,445.5C 720.818,444.757 720.151,444.091 719.5,443.5C 719.096,442.244 718.429,441.077 717.5,440C 718.426,437.738 719.759,435.738 721.5,434C 720.874,433.25 720.374,432.416 720,431.5C 719.585,433.291 718.585,434.624 717,435.5C 716.508,434.451 716.674,433.451 717.5,432.5C 714.942,430.88 714.942,429.38 717.5,428C 716.167,427.667 714.833,427.333 713.5,427C 714.711,425.887 714.711,424.72 713.5,423.5C 714.189,421.556 714.689,419.556 715,417.5C 716.194,415.475 717.694,415.141 719.5,416.5C 720.395,414.754 721.062,412.92 721.5,411C 719.253,408.767 719.919,407.1 723.5,406C 722.209,403.91 722.876,402.576 725.5,402C 725.043,401.586 724.709,401.086 724.5,400.5C 726.006,397.526 727.672,397.193 729.5,399.5C 730.425,398.359 731.259,398.359 732,399.5C 737.269,394.914 743.102,391.081 749.5,388C 753.821,387.501 758.154,387.334 762.5,387.5 Z"/></g>
<g><path style="opacity:0.004" fill="#b67b52" d="M 458.5,394.5 C 459.833,395.167 459.833,395.167 458.5,394.5 Z"/></g>
<g><path style="opacity:1" fill="#9e5d32" d="M 798.5,376.5 C 800.39,376.297 801.89,376.963 803,378.5C 805.366,381.243 807.2,384.243 808.5,387.5C 809.5,387.5 810.5,387.5 811.5,387.5C 811.5,388.5 811.5,389.5 811.5,390.5C 812.675,390.281 813.675,390.614 814.5,391.5C 813.494,392.396 813.494,393.062 814.5,393.5C 815.451,392.674 816.451,392.508 817.5,393C 816.5,394.667 815.167,396 813.5,397C 816.835,397.78 818.168,399.613 817.5,402.5C 818.035,404.271 818.869,404.604 820,403.5C 821.791,405.513 823.125,405.513 824,403.5C 825.269,404.905 825.769,406.571 825.5,408.5C 827.167,408.5 828.833,408.5 830.5,408.5C 830.657,409.873 830.49,411.207 830,412.5C 829.282,411.549 828.449,411.383 827.5,412C 830.227,415.827 832.394,419.993 834,424.5C 836.081,425.333 838.248,425.333 840.5,424.5C 840.433,425.959 840.766,427.292 841.5,428.5C 840.127,428.343 838.793,428.51 837.5,429C 839.686,429.604 839.852,430.77 838,432.5C 837.692,431.692 837.192,431.025 836.5,430.5C 834.679,431.728 833.679,433.394 833.5,435.5C 834.978,435.238 836.311,435.571 837.5,436.5C 836.528,438.305 835.361,439.972 834,441.5C 833.683,439.699 833.016,439.366 832,440.5C 831.086,442.664 829.919,444.664 828.5,446.5C 829.641,447.425 829.641,448.259 828.5,449C 830.991,449.626 830.991,450.459 828.5,451.5C 829.376,452.251 830.376,452.751 831.5,453C 829.519,453.605 829.185,454.605 830.5,456C 827.878,457.835 825.211,459.668 822.5,461.5C 823.88,463.174 825.213,464.84 826.5,466.5C 826.167,467.167 825.833,467.833 825.5,468.5C 823.154,467.985 820.487,467.652 817.5,467.5C 817.641,465.932 817.974,464.265 818.5,462.5C 817.624,461.749 816.624,461.249 815.5,461C 817.922,459.112 817.922,457.112 815.5,455C 817.155,453.556 817.822,451.722 817.5,449.5C 819.942,449.881 820.609,449.214 819.5,447.5C 820.473,444.865 822.14,442.865 824.5,441.5C 823.833,441.167 823.167,440.833 822.5,440.5C 823.167,439.833 823.833,439.167 824.5,438.5C 822.57,436.298 821.904,433.965 822.5,431.5C 821.209,428.293 822.209,427.126 825.5,428C 826.517,426.951 826.684,425.784 826,424.5C 824.817,425.731 823.651,425.731 822.5,424.5C 824.17,421.965 826.17,419.799 828.5,418C 826.926,416.174 826.093,414.007 826,411.5C 825,410.167 824,410.167 823,411.5C 821.812,410.437 821.312,409.103 821.5,407.5C 820.178,407.67 819.011,407.337 818,406.5C 817.577,407.956 816.744,408.456 815.5,408C 815.957,407.586 816.291,407.086 816.5,406.5C 814.112,405.446 812.445,403.779 811.5,401.5C 810.047,400.175 810.381,399.342 812.5,399C 811.809,397.933 811.309,396.766 811,395.5C 809.152,392.522 807.152,392.188 805,394.5C 803.351,390.298 801.518,386.132 799.5,382C 801.08,379.739 800.747,377.906 798.5,376.5 Z"/></g>
<g><path style="opacity:0.004" fill="#b67b52" d="M 335.5,402.5 C 336.833,403.167 336.833,403.167 335.5,402.5 Z"/></g>
<g><path style="opacity:1" fill="#532f17" d="M 812.5,416.5 C 811.078,416.291 809.745,415.791 808.5,415C 806.864,411.874 804.531,410.374 801.5,410.5C 802.328,411.415 803.328,412.081 804.5,412.5C 805.914,415.59 804.914,416.757 801.5,416C 800.663,414.989 800.33,413.822 800.5,412.5C 796.722,411.807 796.722,410.64 800.5,409C 798.987,406.546 799.654,404.879 802.5,404C 801.747,402.513 800.914,402.346 800,403.5C 798.513,402.747 798.346,401.914 799.5,401C 798.216,400.316 797.049,400.483 796,401.5C 792.311,395.901 791.311,396.235 793,402.5C 794.307,403.772 795.807,404.772 797.5,405.5C 795.922,406.298 794.256,406.798 792.5,407C 792.833,407.333 793.167,407.667 793.5,408C 791.137,408.589 790.137,410.089 790.5,412.5C 787.712,412.132 785.046,411.632 782.5,411C 782.803,414.003 783.469,417.17 784.5,420.5C 782.883,419.962 781.216,419.629 779.5,419.5C 779.822,421.722 779.155,423.556 777.5,425C 779.047,425.333 780.38,424.833 781.5,423.5C 782.228,425.193 783.228,426.693 784.5,428C 782.345,426.979 780.179,426.479 778,426.5C 777.5,427 777,427.5 776.5,428C 779.062,429.268 779.728,431.102 778.5,433.5C 777.304,433.154 777.304,432.654 778.5,432C 776.899,431.727 775.399,431.227 774,430.5C 773.009,431.939 771.676,432.939 770,433.5C 768.839,430.733 767.673,428.067 766.5,425.5C 764.669,426.052 763.003,426.052 761.5,425.5C 762.025,424.808 762.692,424.308 763.5,424C 761.963,422.89 761.297,421.39 761.5,419.5C 759.897,419.688 758.563,419.188 757.5,418C 757.889,416.382 759.222,415.215 761.5,414.5C 760.313,413.481 759.313,412.314 758.5,411C 760.516,410.101 762.183,408.767 763.5,407C 762.216,406.316 761.049,406.483 760,407.5C 758.513,406.747 758.346,405.914 759.5,405C 758.529,403.796 757.529,403.296 756.5,403.5C 756.709,402.914 757.043,402.414 757.5,402C 753.531,399.609 749.198,398.109 744.5,397.5C 745.574,396.115 746.907,394.949 748.5,394C 753.705,392.184 759.038,391.017 764.5,390.5C 774.224,387.671 783.557,388.837 792.5,394C 799.911,397.537 805.911,402.704 810.5,409.5C 811.325,411.801 811.992,414.135 812.5,416.5 Z"/></g>
<g><path style="opacity:1" fill="#4a2913" d="M 406.5,389.5 C 410.191,391.672 414.191,393.339 418.5,394.5C 421.492,396.171 424.159,398.171 426.5,400.5C 424.703,400.935 422.703,400.935 420.5,400.5C 420.5,399.5 420.5,398.5 420.5,397.5C 417.476,397.662 414.809,397.995 412.5,398.5C 414.991,399.541 414.991,400.374 412.5,401C 414.085,401.085 415.418,401.251 416.5,401.5C 414.083,403.494 414.083,405.327 416.5,407C 409.664,408.312 408.997,410.812 414.5,414.5C 412.149,414.98 409.815,415.314 407.5,415.5C 404.41,412.756 401.91,410.09 400,407.5C 399.5,407.667 399,407.833 398.5,408C 399.024,410.93 400.358,413.43 402.5,415.5C 402.043,416.298 401.376,416.631 400.5,416.5C 398.765,414.765 396.765,413.432 394.5,412.5C 391.922,412.615 390.422,413.949 390,416.5C 389.167,415 388,413.833 386.5,413C 387.448,412.517 388.448,412.351 389.5,412.5C 389.587,409.402 389.087,409.068 388,411.5C 387.308,410.975 386.808,410.308 386.5,409.5C 388.392,407.207 390.725,405.374 393.5,404C 392.216,403.316 391.049,403.483 390,404.5C 389.517,403.552 389.351,402.552 389.5,401.5C 388.448,401.649 387.448,401.483 386.5,401C 386.833,400.667 387.167,400.333 387.5,400C 385.131,399.464 383.131,398.297 381.5,396.5C 381.48,400.681 379.146,402.847 374.5,403C 374.982,401.992 375.148,400.825 375,399.5C 375.414,399.957 375.914,400.291 376.5,400.5C 377.106,397.626 378.439,395.293 380.5,393.5C 388.597,388.983 397.264,387.649 406.5,389.5 Z"/></g>
<g><path style="opacity:0.004" fill="#b67b52" d="M 334.5,405.5 C 335.833,406.167 335.833,406.167 334.5,405.5 Z"/></g>
<g><path style="opacity:1" fill="#1a0d03" d="M 733.5,408.5 C 735.167,408.5 736.833,408.5 738.5,408.5C 738.354,410.942 739.187,411.609 741,410.5C 742.667,412.833 744.667,414.833 747,416.5C 747.333,415.833 747.667,415.167 748,414.5C 749.609,419.817 749.109,424.983 746.5,430C 746.016,436.424 746.682,443.09 748.5,450C 748.37,451.059 747.87,451.892 747,452.5C 745.252,450.865 744.085,448.865 743.5,446.5C 742.554,448.075 742.554,449.742 743.5,451.5C 743.081,452.672 742.415,453.672 741.5,454.5C 743.373,453.911 745.04,454.578 746.5,456.5C 745.726,457.711 744.893,457.711 744,456.5C 743.374,458.991 742.541,458.991 741.5,456.5C 740.289,457.274 740.289,458.107 741.5,459C 740.167,459.667 738.833,459.667 737.5,459C 738.337,457.989 738.67,456.822 738.5,455.5C 735.642,455.028 733.642,456.028 732.5,458.5C 729.02,449.748 726.686,440.581 725.5,431C 725.967,422.585 728.633,415.085 733.5,408.5 Z"/></g>
<g><path style="opacity:1" fill="#4f2d15" d="M 812.5,416.5 C 814.032,419.765 815.365,423.098 816.5,426.5C 819.057,437.948 817.224,448.615 811,458.5C 809.951,460.384 808.451,461.718 806.5,462.5C 808.976,460.303 808.976,458.137 806.5,456C 807.257,454.488 808.257,453.154 809.5,452C 808.366,450.984 808.699,450.317 810.5,450C 809.305,448.148 807.638,446.981 805.5,446.5C 804.909,445.849 804.243,445.182 803.5,444.5C 803.709,443.914 804.043,443.414 804.5,443C 802.845,441.556 802.178,439.722 802.5,437.5C 803.5,437.5 804.5,437.5 805.5,437.5C 805.539,440.321 806.205,442.988 807.5,445.5C 808.96,443.578 810.627,442.911 812.5,443.5C 813.23,442.066 814.23,440.9 815.5,440C 814.207,439.51 812.873,439.343 811.5,439.5C 810.13,438.075 809.13,435.741 808.5,432.5C 806.606,433.601 805.939,434.934 806.5,436.5C 805.107,435.137 803.441,434.304 801.5,434C 803.221,433.261 804.887,432.427 806.5,431.5C 805.502,428.972 804.669,428.972 804,431.5C 802.579,428.991 800.912,426.657 799,424.5C 798.333,429.833 797.667,429.833 797,424.5C 795.989,425.337 794.822,425.67 793.5,425.5C 793.884,423.335 793.217,421.668 791.5,420.5C 790.752,422.332 789.752,423.999 788.5,425.5C 789.833,426.5 789.833,427.5 788.5,428.5C 789.167,428.833 789.833,429.167 790.5,429.5C 790,430.5 789.5,431.5 789,432.5C 786.525,428.869 785.025,424.869 784.5,420.5C 783.469,417.17 782.803,414.003 782.5,411C 785.046,411.632 787.712,412.132 790.5,412.5C 790.137,410.089 791.137,408.589 793.5,408C 793.167,407.667 792.833,407.333 792.5,407C 794.256,406.798 795.922,406.298 797.5,405.5C 795.807,404.772 794.307,403.772 793,402.5C 791.311,396.235 792.311,395.901 796,401.5C 797.049,400.483 798.216,400.316 799.5,401C 798.346,401.914 798.513,402.747 800,403.5C 800.914,402.346 801.747,402.513 802.5,404C 799.654,404.879 798.987,406.546 800.5,409C 796.722,410.64 796.722,411.807 800.5,412.5C 800.33,413.822 800.663,414.989 801.5,416C 804.914,416.757 805.914,415.59 804.5,412.5C 803.328,412.081 802.328,411.415 801.5,410.5C 804.531,410.374 806.864,411.874 808.5,415C 809.745,415.791 811.078,416.291 812.5,416.5 Z"/></g>
<g><path style="opacity:1" fill="#ae6f44" d="M 772.5,367.5 C 781.937,367.251 791.27,368.085 800.5,370C 804.672,371.588 808.672,373.421 812.5,375.5C 816.097,377.756 819.431,380.423 822.5,383.5C 824.759,386.938 827.259,390.271 830,393.5C 831.943,399.328 834.276,404.995 837,410.5C 838.49,415.128 839.657,419.794 840.5,424.5C 838.248,425.333 836.081,425.333 834,424.5C 832.394,419.993 830.227,415.827 827.5,412C 828.449,411.383 829.282,411.549 830,412.5C 830.49,411.207 830.657,409.873 830.5,408.5C 828.833,408.5 827.167,408.5 825.5,408.5C 825.769,406.571 825.269,404.905 824,403.5C 823.125,405.513 821.791,405.513 820,403.5C 818.869,404.604 818.035,404.271 817.5,402.5C 818.168,399.613 816.835,397.78 813.5,397C 815.167,396 816.5,394.667 817.5,393C 816.451,392.508 815.451,392.674 814.5,393.5C 813.494,393.062 813.494,392.396 814.5,391.5C 813.675,390.614 812.675,390.281 811.5,390.5C 811.5,389.5 811.5,388.5 811.5,387.5C 810.5,387.5 809.5,387.5 808.5,387.5C 807.2,384.243 805.366,381.243 803,378.5C 801.89,376.963 800.39,376.297 798.5,376.5C 796.278,375.312 793.945,374.312 791.5,373.5C 787.937,375.037 784.603,374.704 781.5,372.5C 782.833,371.5 782.833,370.5 781.5,369.5C 778.358,368.833 775.358,368.166 772.5,367.5 Z"/></g>
<g><path style="opacity:1" fill="#c1703a" d="M 762.5,387.5 C 758.154,387.334 753.821,387.501 749.5,388C 743.102,391.081 737.269,394.914 732,399.5C 731.259,398.359 730.425,398.359 729.5,399.5C 727.672,397.193 726.006,397.526 724.5,400.5C 724.709,401.086 725.043,401.586 725.5,402C 722.876,402.576 722.209,403.91 723.5,406C 719.919,407.1 719.253,408.767 721.5,411C 721.062,412.92 720.395,414.754 719.5,416.5C 717.694,415.141 716.194,415.475 715,417.5C 714.689,419.556 714.189,421.556 713.5,423.5C 714.711,424.72 714.711,425.887 713.5,427C 714.833,427.333 716.167,427.667 717.5,428C 714.942,429.38 714.942,430.88 717.5,432.5C 716.674,433.451 716.508,434.451 717,435.5C 718.585,434.624 719.585,433.291 720,431.5C 720.374,432.416 720.874,433.25 721.5,434C 719.759,435.738 718.426,437.738 717.5,440C 718.429,441.077 719.096,442.244 719.5,443.5C 718.733,444.172 718.066,445.005 717.5,446C 719.426,446.422 720.426,447.589 720.5,449.5C 715.536,445.071 709.869,441.571 703.5,439C 701.876,437.883 700.876,436.383 700.5,434.5C 700.755,422.123 704.089,410.789 710.5,400.5C 708.83,408.232 710.163,409.399 714.5,404C 721.563,399.475 728.229,394.475 734.5,389C 742.248,384.19 750.582,381.856 759.5,382C 760.667,382.5 761.5,383.333 762,384.5C 762.333,384.167 762.667,383.833 763,383.5C 763.579,384.928 763.412,386.262 762.5,387.5 Z"/></g>
<g><path style="opacity:1" fill="#9b592d" d="M 391.5,372.5 C 391.489,374.017 390.823,375.184 389.5,376C 385.393,375.384 382.059,376.884 379.5,380.5C 380.63,381.622 381.297,382.956 381.5,384.5C 379.887,384.056 378.72,383.056 378,381.5C 377.276,383.959 375.943,384.959 374,384.5C 373.333,385.5 373.333,386.5 374,387.5C 375.562,387.259 377.062,387.759 378.5,389C 377.234,389.309 376.067,389.809 375,390.5C 374.667,390.167 374.333,389.833 374,389.5C 374,390.833 374,392.167 374,393.5C 371.915,392.353 370.415,393.02 369.5,395.5C 367.674,395.08 365.674,395.08 363.5,395.5C 363.313,397.564 362.813,399.564 362,401.5C 361.667,401.167 361.333,400.833 361,400.5C 360.024,402.887 358.191,404.054 355.5,404C 359.5,405.667 359.5,407.333 355.5,409C 355.833,409.333 356.167,409.667 356.5,410C 355,411.115 353.333,411.948 351.5,412.5C 350.865,416.635 348.865,419.802 345.5,422C 347.348,423.493 348.181,425.326 348,427.5C 346.933,425.717 345.433,425.217 343.5,426C 344.833,426.667 344.833,427.333 343.5,428C 344.5,428.333 345.5,428.667 346.5,429C 345.382,430.074 344.382,431.24 343.5,432.5C 342.604,431.494 341.938,431.494 341.5,432.5C 342.242,433.287 343.075,433.953 344,434.5C 346.058,433.891 346.891,432.891 346.5,431.5C 347.308,431.808 347.975,432.308 348.5,433C 347.315,434.353 345.981,435.52 344.5,436.5C 341.572,435.079 340.238,436.079 340.5,439.5C 342.912,439.244 344.579,440.244 345.5,442.5C 344.02,444.22 342.686,446.053 341.5,448C 342.124,450.085 343.124,451.918 344.5,453.5C 343.518,454.141 342.518,454.807 341.5,455.5C 340.808,454.975 340.308,454.308 340,453.5C 339.667,453.833 339.333,454.167 339,454.5C 338.873,453.223 339.373,452.057 340.5,451C 339.852,449.56 339.519,448.06 339.5,446.5C 338.5,446.5 337.5,446.5 336.5,446.5C 336.5,445.5 336.5,444.5 336.5,443.5C 336.736,441.13 337.736,439.13 339.5,437.5C 338.801,434.799 339.468,432.299 341.5,430C 341.167,429.667 340.833,429.333 340.5,429C 340.895,426.219 342.228,424.053 344.5,422.5C 343.306,420.109 342.306,417.776 341.5,415.5C 342.975,413.191 344.642,411.024 346.5,409C 345.483,407.951 345.316,406.784 346,405.5C 349.462,405.017 349.962,403.85 347.5,402C 349.825,399.991 352.325,398.158 355,396.5C 355.374,395.584 355.874,394.75 356.5,394C 355.66,392.334 356.16,392.167 358,393.5C 361.841,391.303 365.341,388.803 368.5,386C 367.692,385.692 367.025,385.192 366.5,384.5C 367.853,383.476 368.52,382.143 368.5,380.5C 371.246,380.072 372.913,378.406 373.5,375.5C 376.317,374.709 378.817,373.376 381,371.5C 382.862,373.361 382.362,374.694 379.5,375.5C 379.667,375.833 379.833,376.167 380,376.5C 381.356,375.62 382.856,375.286 384.5,375.5C 384.5,374.5 384.5,373.5 384.5,372.5C 386.39,372.703 387.89,372.037 389,370.5C 389.995,371.066 390.828,371.733 391.5,372.5 Z"/></g>
<g><path style="opacity:1" fill="#4d2b14" d="M 380.5,393.5 C 378.439,395.293 377.106,397.626 376.5,400.5C 375.914,400.291 375.414,399.957 375,399.5C 375.148,400.825 374.982,401.992 374.5,403C 379.146,402.847 381.48,400.681 381.5,396.5C 383.131,398.297 385.131,399.464 387.5,400C 387.167,400.333 386.833,400.667 386.5,401C 387.448,401.483 388.448,401.649 389.5,401.5C 389.351,402.552 389.517,403.552 390,404.5C 391.049,403.483 392.216,403.316 393.5,404C 390.725,405.374 388.392,407.207 386.5,409.5C 386.808,410.308 387.308,410.975 388,411.5C 389.087,409.068 389.587,409.402 389.5,412.5C 388.448,412.351 387.448,412.517 386.5,413C 388,413.833 389.167,415 390,416.5C 390.422,413.949 391.922,412.615 394.5,412.5C 396.765,413.432 398.765,414.765 400.5,416.5C 399.928,417.973 399.095,419.307 398,420.5C 397.667,420.167 397.333,419.833 397,419.5C 393.555,422.556 391.222,421.89 390,417.5C 388.237,417.306 386.403,417.306 384.5,417.5C 384.167,417.833 383.833,418.167 383.5,418.5C 384.665,419.584 385.998,420.417 387.5,421C 385.122,421.974 385.456,422.641 388.5,423C 386.231,424.807 384.397,424.307 383,421.5C 381.85,423.641 380.35,425.474 378.5,427C 379.526,429.776 378.526,431.61 375.5,432.5C 375.103,433.525 374.437,433.692 373.5,433C 374.38,431.644 374.714,430.144 374.5,428.5C 372.219,428.077 370.552,428.744 369.5,430.5C 367.661,429.248 365.828,429.248 364,430.5C 362.17,426.856 360.503,427.19 359,431.5C 358.167,430.5 357.333,429.5 356.5,428.5C 355.83,430.291 355.163,431.958 354.5,433.5C 354.919,419.393 360.253,407.559 370.5,398C 373.48,395.676 376.813,394.176 380.5,393.5 Z"/></g>
<g><path style="opacity:1" fill="#40220e" d="M 422.5,408.5 C 422.33,409.822 422.663,410.989 423.5,412C 421.774,416.119 419.774,420.119 417.5,424C 418.552,425.716 417.886,426.716 415.5,427C 416.214,428.343 415.88,429.676 414.5,431C 414.833,431.333 415.167,431.667 415.5,432C 414.751,433.734 414.251,435.567 414,437.5C 413.29,438.973 412.124,439.64 410.5,439.5C 410.714,441.144 410.38,442.644 409.5,444C 413.769,445.435 414.102,447.101 410.5,449C 411.654,449.914 411.487,450.747 410,451.5C 409.346,450.304 408.846,450.304 408.5,451.5C 409.737,452.281 410.737,453.281 411.5,454.5C 410.726,455.711 409.893,455.711 409,454.5C 408.383,455.449 408.549,456.282 409.5,457C 406.077,456.475 403.577,457.975 402,461.5C 401.667,460.833 401.333,460.167 401,459.5C 400.457,461.631 399.624,463.631 398.5,465.5C 396.307,462.926 394.473,463.259 393,466.5C 391.885,464.215 390.385,462.882 388.5,462.5C 391.185,460.501 393.685,460.501 396,462.5C 397.835,459.124 400.335,456.458 403.5,454.5C 402.96,453.252 402.293,452.085 401.5,451C 401.833,450.667 402.167,450.333 402.5,450C 401.5,449.667 400.5,449.333 399.5,449C 400.458,447.853 400.125,446.853 398.5,446C 400.367,445.289 401.867,445.789 403,447.5C 403.638,446.391 404.138,445.225 404.5,444C 403.004,442.669 401.671,441.169 400.5,439.5C 401.355,438.707 402.189,439.04 403,440.5C 403.492,439.451 403.326,438.451 402.5,437.5C 400.034,436.119 398.034,436.619 396.5,439C 398.595,439.556 398.762,440.056 397,440.5C 395.629,439.419 394.129,438.585 392.5,438C 393.056,437.617 393.389,437.117 393.5,436.5C 397.631,435.891 398.798,433.891 397,430.5C 395.957,434.226 395.457,433.893 395.5,429.5C 397.989,429.702 400.323,429.202 402.5,428C 398.941,425.485 399.608,424.985 404.5,426.5C 405.988,424.729 407.821,423.396 410,422.5C 410.923,423.759 411.757,425.092 412.5,426.5C 414.053,424.735 414.386,422.902 413.5,421C 414.938,420.781 416.271,420.281 417.5,419.5C 418.641,418.575 418.641,417.741 417.5,417C 420.198,414.701 421.865,411.868 422.5,408.5 Z"/></g>
<g><path style="opacity:1" fill="#b86a35" d="M 467.5,414.5 C 467.5,415.5 467.5,416.5 467.5,417.5C 467.719,418.675 467.386,419.675 466.5,420.5C 465.667,419.5 464.833,418.5 464,417.5C 463.383,418.449 463.549,419.282 464.5,420C 461.713,423.304 460.713,426.971 461.5,431C 459.483,436.332 455.816,438.499 450.5,437.5C 451.885,436.449 452.885,435.116 453.5,433.5C 452.855,432.268 452.689,430.935 453,429.5C 448.886,428.937 448.552,427.604 452,425.5C 452.58,422.453 452.247,422.119 451,424.5C 450,423.167 449,421.833 448,420.5C 446.811,422.233 445.644,423.9 444.5,425.5C 442.655,419.823 440.322,414.49 437.5,409.5C 437.167,408.833 436.833,408.167 436.5,407.5C 435.697,406.577 435.53,405.577 436,404.5C 437.183,405.731 438.349,405.731 439.5,404.5C 438.833,404.167 438.167,403.833 437.5,403.5C 439.514,401.817 441.18,399.817 442.5,397.5C 446.477,398.822 450.144,400.655 453.5,403C 455.402,406.91 457.736,410.577 460.5,414C 462.95,415.06 465.283,415.227 467.5,414.5 Z"/></g>
<g><path style="opacity:1" fill="#945226" d="M 811.5,401.5 C 812.445,403.779 814.112,405.446 816.5,406.5C 816.291,407.086 815.957,407.586 815.5,408C 816.744,408.456 817.577,407.956 818,406.5C 819.011,407.337 820.178,407.67 821.5,407.5C 821.312,409.103 821.812,410.437 823,411.5C 824,410.167 825,410.167 826,411.5C 826.093,414.007 826.926,416.174 828.5,418C 826.17,419.799 824.17,421.965 822.5,424.5C 823.651,425.731 824.817,425.731 826,424.5C 826.684,425.784 826.517,426.951 825.5,428C 822.209,427.126 821.209,428.293 822.5,431.5C 820.989,430.498 819.322,429.831 817.5,429.5C 817.737,428.209 817.404,427.209 816.5,426.5C 815.365,423.098 814.032,419.765 812.5,416.5C 811.992,414.135 811.325,411.801 810.5,409.5C 805.911,402.704 799.911,397.537 792.5,394C 783.557,388.837 774.224,387.671 764.5,390.5C 764.5,389.833 764.5,389.167 764.5,388.5C 765.209,387.596 766.209,387.263 767.5,387.5C 769.5,387.5 771.5,387.5 773.5,387.5C 773.519,385.94 773.852,384.44 774.5,383C 772.79,381.389 770.957,379.889 769,378.5C 768.251,377.365 768.417,376.365 769.5,375.5C 771.919,378.34 774.752,380.673 778,382.5C 778.667,381.833 779.333,381.167 780,380.5C 781.64,384.278 782.807,384.278 783.5,380.5C 785.766,380.141 787.599,380.808 789,382.5C 789.333,381.833 789.667,381.167 790,380.5C 790.878,383.709 792.211,386.709 794,389.5C 794.414,389.043 794.914,388.709 795.5,388.5C 796.519,389.687 797.686,390.687 799,391.5C 799.333,391.167 799.667,390.833 800,390.5C 801.167,391.667 802.333,392.833 803.5,394C 802.833,394.667 802.167,395.333 801.5,396C 803.076,396.44 804.41,397.273 805.5,398.5C 806.869,396.876 808.536,396.376 810.5,397C 808.957,399.045 809.29,400.545 811.5,401.5 Z"/></g>
<g><path style="opacity:1" fill="#1e0e03" d="M 437.5,409.5 C 440.322,414.49 442.655,419.823 444.5,425.5C 445.234,426.708 445.567,428.041 445.5,429.5C 445.45,438.383 443.45,447.049 439.5,455.5C 439.709,456.086 440.043,456.586 440.5,457C 439.29,458.039 438.29,459.206 437.5,460.5C 437.5,461.167 437.167,461.5 436.5,461.5C 433.851,463.14 431.184,464.807 428.5,466.5C 427.527,465.209 426.527,465.209 425.5,466.5C 424.833,465.5 424.167,464.5 423.5,463.5C 420.411,466.456 418.744,465.789 418.5,461.5C 414.874,462.139 413.041,460.806 413,457.5C 413.333,457.833 413.667,458.167 414,458.5C 415.047,455.119 416.547,451.953 418.5,449C 418.167,448.667 417.833,448.333 417.5,448C 419.211,445.411 421.045,442.911 423,440.5C 423.804,436.93 422.97,433.763 420.5,431C 422.592,430.047 422.925,428.714 421.5,427C 422.549,426.508 423.549,426.674 424.5,427.5C 425.645,426.224 425.645,424.891 424.5,423.5C 426.498,420.329 428.498,416.662 430.5,412.5C 432.246,410.146 434.579,409.146 437.5,409.5 Z"/></g>
<g><path style="opacity:1" fill="#935024" d="M 406.5,389.5 C 397.264,387.649 388.597,388.983 380.5,393.5C 376.813,394.176 373.48,395.676 370.5,398C 360.253,407.559 354.919,419.393 354.5,433.5C 353.013,446.212 357.013,456.879 366.5,465.5C 365.07,465.421 363.736,465.754 362.5,466.5C 361.808,465.975 361.308,465.308 361,464.5C 360.506,466.134 360.34,467.801 360.5,469.5C 365.652,470.64 365.652,471.806 360.5,473C 361.227,474.399 361.727,475.899 362,477.5C 362.333,476.833 362.667,476.167 363,475.5C 364.333,477.167 365.667,478.833 367,480.5C 368.914,479.324 368.748,478.324 366.5,477.5C 368.187,476.432 369.854,476.599 371.5,478C 370.483,479.049 370.316,480.216 371,481.5C 372.297,479.218 372.797,476.885 372.5,474.5C 374.003,475.59 374.336,476.757 373.5,478C 374.416,478.374 375.25,478.874 376,479.5C 376.249,478.376 376.749,477.376 377.5,476.5C 378.508,481.411 380.342,481.745 383,477.5C 383.72,480.135 384.387,482.802 385,485.5C 385.508,483.096 386.675,482.429 388.5,483.5C 387.975,484.192 387.308,484.692 386.5,485C 387.691,485.698 388.691,486.531 389.5,487.5C 384.496,488.249 379.496,488.249 374.5,487.5C 368.66,484.536 362.66,481.703 356.5,479C 354.34,477.668 352.34,476.168 350.5,474.5C 349.5,472.833 348.167,471.5 346.5,470.5C 347.833,467.833 349.167,465.167 350.5,462.5C 349.448,462.649 348.448,462.483 347.5,462C 347.833,461.667 348.167,461.333 348.5,461C 347.692,460.692 347.025,460.192 346.5,459.5C 347.59,458.391 347.59,457.391 346.5,456.5C 345.808,457.025 345.308,457.692 345,458.5C 344.25,457.874 343.416,457.374 342.5,457C 343.823,456.184 344.489,455.017 344.5,453.5C 343.124,451.918 342.124,450.085 341.5,448C 342.686,446.053 344.02,444.22 345.5,442.5C 344.579,440.244 342.912,439.244 340.5,439.5C 340.238,436.079 341.572,435.079 344.5,436.5C 345.981,435.52 347.315,434.353 348.5,433C 347.975,432.308 347.308,431.808 346.5,431.5C 346.891,432.891 346.058,433.891 344,434.5C 343.075,433.953 342.242,433.287 341.5,432.5C 341.938,431.494 342.604,431.494 343.5,432.5C 344.382,431.24 345.382,430.074 346.5,429C 345.5,428.667 344.5,428.333 343.5,428C 344.833,427.333 344.833,426.667 343.5,426C 345.433,425.217 346.933,425.717 348,427.5C 348.181,425.326 347.348,423.493 345.5,422C 348.865,419.802 350.865,416.635 351.5,412.5C 353.333,411.948 355,411.115 356.5,410C 356.167,409.667 355.833,409.333 355.5,409C 359.5,407.333 359.5,405.667 355.5,404C 358.191,404.054 360.024,402.887 361,400.5C 361.333,400.833 361.667,401.167 362,401.5C 362.813,399.564 363.313,397.564 363.5,395.5C 365.674,395.08 367.674,395.08 369.5,395.5C 370.415,393.02 371.915,392.353 374,393.5C 374,392.167 374,390.833 374,389.5C 374.333,389.833 374.667,390.167 375,390.5C 376.067,389.809 377.234,389.309 378.5,389C 377.062,387.759 375.562,387.259 374,387.5C 373.333,386.5 373.333,385.5 374,384.5C 375.943,384.959 377.276,383.959 378,381.5C 378.72,383.056 379.887,384.056 381.5,384.5C 383.017,384.511 384.184,385.177 385,386.5C 387.74,385.718 390.574,385.218 393.5,385C 392.833,384.667 392.167,384.333 391.5,384C 392.899,383.405 394.232,383.572 395.5,384.5C 396.429,381.999 397.929,381.333 400,382.5C 401.784,381.691 403.617,381.024 405.5,380.5C 409.239,381.767 412.572,383.1 415.5,384.5C 412.254,385.951 409.254,387.618 406.5,389.5 Z"/></g>
<g><path style="opacity:1" fill="#462611" d="M 426.5,400.5 C 427.833,401.167 428.833,402.167 429.5,403.5C 427.4,405.616 425.067,407.283 422.5,408.5C 421.865,411.868 420.198,414.701 417.5,417C 418.641,417.741 418.641,418.575 417.5,419.5C 416.271,420.281 414.938,420.781 413.5,421C 414.386,422.902 414.053,424.735 412.5,426.5C 411.757,425.092 410.923,423.759 410,422.5C 407.821,423.396 405.988,424.729 404.5,426.5C 399.608,424.985 398.941,425.485 402.5,428C 400.323,429.202 397.989,429.702 395.5,429.5C 395.457,433.893 395.957,434.226 397,430.5C 398.798,433.891 397.631,435.891 393.5,436.5C 391.047,434.131 388.381,434.131 385.5,436.5C 385.64,438.256 385.14,439.922 384,441.5C 383.667,440.5 383.333,439.5 383,438.5C 381.334,439.34 381.167,438.84 382.5,437C 379.883,435.918 377.549,434.418 375.5,432.5C 378.526,431.61 379.526,429.776 378.5,427C 380.35,425.474 381.85,423.641 383,421.5C 384.397,424.307 386.231,424.807 388.5,423C 385.456,422.641 385.122,421.974 387.5,421C 385.998,420.417 384.665,419.584 383.5,418.5C 383.833,418.167 384.167,417.833 384.5,417.5C 386.403,417.306 388.237,417.306 390,417.5C 391.222,421.89 393.555,422.556 397,419.5C 397.333,419.833 397.667,420.167 398,420.5C 399.095,419.307 399.928,417.973 400.5,416.5C 401.376,416.631 402.043,416.298 402.5,415.5C 400.358,413.43 399.024,410.93 398.5,408C 399,407.833 399.5,407.667 400,407.5C 401.91,410.09 404.41,412.756 407.5,415.5C 409.815,415.314 412.149,414.98 414.5,414.5C 408.997,410.812 409.664,408.312 416.5,407C 414.083,405.327 414.083,403.494 416.5,401.5C 415.418,401.251 414.085,401.085 412.5,401C 414.991,400.374 414.991,399.541 412.5,398.5C 414.809,397.995 417.476,397.662 420.5,397.5C 420.5,398.5 420.5,399.5 420.5,400.5C 422.703,400.935 424.703,400.935 426.5,400.5 Z"/></g>
<g><path style="opacity:1" fill="#ec9153" d="M 734.5,406.5 C 734.167,407.167 733.833,407.833 733.5,408.5C 728.633,415.085 725.967,422.585 725.5,431C 726.686,440.581 729.02,449.748 732.5,458.5C 732.833,459.167 733.167,459.833 733.5,460.5C 729.172,457.996 725.172,454.996 721.5,451.5C 721.167,450.833 720.833,450.167 720.5,449.5C 720.426,447.589 719.426,446.422 717.5,446C 718.066,445.005 718.733,444.172 719.5,443.5C 720.151,444.091 720.818,444.757 721.5,445.5C 724.414,439.69 724.08,434.19 720.5,429C 721.767,427.204 721.767,425.371 720.5,423.5C 721.976,422.12 722.976,420.453 723.5,418.5C 722.098,417.158 722.431,416.324 724.5,416C 723.167,414.16 723.334,413.66 725,414.5C 726.159,408.797 729.326,406.131 734.5,406.5 Z"/></g>
<g><path style="opacity:1" fill="#482812" d="M 369.5,430.5 C 370.303,431.423 370.47,432.423 370,433.5C 368.301,432.594 366.467,432.261 364.5,432.5C 364.5,433.833 364.5,435.167 364.5,436.5C 366.331,435.948 367.997,435.948 369.5,436.5C 368.737,437.719 367.737,438.719 366.5,439.5C 366.888,441.308 366.888,442.975 366.5,444.5C 367.833,443.167 369.167,443.167 370.5,444.5C 371.672,444.081 372.672,443.415 373.5,442.5C 370.562,439.624 370.395,436.957 373,434.5C 373.651,436.235 373.485,437.902 372.5,439.5C 375.44,440.54 377.274,442.54 378,445.5C 379.009,443.975 379.509,442.308 379.5,440.5C 378.167,440.5 376.833,440.5 375.5,440.5C 375.656,436.865 376.822,436.532 379,439.5C 379.333,439.167 379.667,438.833 380,438.5C 383.124,441.477 382.957,443.977 379.5,446C 379.833,446.333 380.167,446.667 380.5,447C 378.265,447.067 376.098,446.567 374,445.5C 371.031,447.371 370.697,449.704 373,452.5C 373.308,451.692 373.808,451.025 374.5,450.5C 374.109,451.718 374.776,452.552 376.5,453C 376.043,453.414 375.709,453.914 375.5,454.5C 376.905,454.76 378.238,455.093 379.5,455.5C 378.596,456.209 378.263,457.209 378.5,458.5C 375.453,459.145 373.287,458.145 372,455.5C 370.941,458.883 372.108,461.05 375.5,462C 375.043,462.414 374.709,462.914 374.5,463.5C 376.167,465.167 377.833,466.833 379.5,468.5C 380.728,466.102 380.062,464.268 377.5,463C 378.628,460.935 380.294,460.268 382.5,461C 380.699,461.317 380.366,461.984 381.5,463C 384.633,462.954 387.3,463.954 389.5,466C 388.692,466.308 388.025,466.808 387.5,467.5C 389.615,469.615 389.949,471.949 388.5,474.5C 380.702,472.677 373.369,469.677 366.5,465.5C 357.013,456.879 353.013,446.212 354.5,433.5C 355.163,431.958 355.83,430.291 356.5,428.5C 357.333,429.5 358.167,430.5 359,431.5C 360.503,427.19 362.17,426.856 364,430.5C 365.828,429.248 367.661,429.248 369.5,430.5 Z"/></g>
<g><path style="opacity:1" fill="#3e220f" d="M 741.5,399.5 C 743.841,399.992 745.841,401.159 747.5,403C 746.167,404 746.167,405 747.5,406C 749.087,406.862 750.754,407.529 752.5,408C 751.5,408.333 750.5,408.667 749.5,409C 750.905,410.269 752.571,410.769 754.5,410.5C 754.443,412.884 754.777,415.218 755.5,417.5C 757.759,419.485 759.092,421.652 759.5,424C 757.808,425.401 757.141,427.234 757.5,429.5C 759.288,429.215 760.955,429.548 762.5,430.5C 763.174,434.342 764.174,438.342 765.5,442.5C 767.199,442.527 768.533,443.194 769.5,444.5C 769.918,445.222 770.584,445.722 771.5,446C 770.978,446.561 770.645,447.228 770.5,448C 775.899,452.199 776.565,456.866 772.5,462C 772.683,463.684 773.35,463.85 774.5,462.5C 774.256,466.789 772.589,467.456 769.5,464.5C 769.977,463.522 770.643,462.689 771.5,462C 767.624,461.79 765.29,459.79 764.5,456C 765.91,455.632 766.91,454.799 767.5,453.5C 766.009,452.756 764.509,452.09 763,451.5C 762.837,449.324 762.004,447.491 760.5,446C 761.428,445.612 762.095,444.945 762.5,444C 761.777,441.447 760.444,439.28 758.5,437.5C 759.186,435.936 759.019,434.269 758,432.5C 754.996,430.661 752.496,428.327 750.5,425.5C 751.833,424.5 751.833,423.5 750.5,422.5C 753.568,420.506 754.235,417.839 752.5,414.5C 750.058,413.554 748.058,412.054 746.5,410C 748.301,409.683 748.634,409.016 747.5,408C 744.893,407.363 742.56,406.196 740.5,404.5C 739.914,404.709 739.414,405.043 739,405.5C 738.722,404.584 738.222,403.918 737.5,403.5C 738.5,401.833 739.833,400.5 741.5,399.5 Z"/></g>
<g><path style="opacity:1" fill="#cd7a42" d="M 467.5,417.5 C 468.249,418.531 468.915,419.698 469.5,421C 469.167,421.333 468.833,421.667 468.5,422C 469.935,426.718 470.435,431.551 470,436.5C 465.557,439.634 461.057,442.634 456.5,445.5C 454.856,445.286 453.356,445.62 452,446.5C 451.167,445.5 450.333,444.5 449.5,443.5C 448.914,443.709 448.414,444.043 448,444.5C 447.667,440.167 447.333,435.833 447,431.5C 446.722,430.584 446.222,429.918 445.5,429.5C 445.567,428.041 445.234,426.708 444.5,425.5C 445.644,423.9 446.811,422.233 448,420.5C 449,421.833 450,423.167 451,424.5C 452.247,422.119 452.58,422.453 452,425.5C 448.552,427.604 448.886,428.937 453,429.5C 452.689,430.935 452.855,432.268 453.5,433.5C 452.885,435.116 451.885,436.449 450.5,437.5C 455.816,438.499 459.483,436.332 461.5,431C 460.713,426.971 461.713,423.304 464.5,420C 463.549,419.282 463.383,418.449 464,417.5C 464.833,418.5 465.667,419.5 466.5,420.5C 467.386,419.675 467.719,418.675 467.5,417.5 Z"/></g>
<g><path style="opacity:1" fill="#42230f" d="M 805.5,446.5 C 807.638,446.981 809.305,448.148 810.5,450C 808.699,450.317 808.366,450.984 809.5,452C 808.257,453.154 807.257,454.488 806.5,456C 808.976,458.137 808.976,460.303 806.5,462.5C 804.396,464.099 802.396,465.932 800.5,468C 793.323,471.335 785.99,474.168 778.5,476.5C 777.355,474.08 778.022,472.08 780.5,470.5C 779.753,470.264 778.92,469.93 778,469.5C 776.789,467.079 775.623,464.745 774.5,462.5C 773.35,463.85 772.683,463.684 772.5,462C 776.565,456.866 775.899,452.199 770.5,448C 770.645,447.228 770.978,446.561 771.5,446C 770.584,445.722 769.918,445.222 769.5,444.5C 772.999,444.741 773.332,443.908 770.5,442C 772.609,440.859 774.442,439.359 776,437.5C 778.086,439.249 780.419,440.583 783,441.5C 783.772,441.355 784.439,441.022 785,440.5C 785.333,441.833 785.667,443.167 786,444.5C 786.333,444.167 786.667,443.833 787,443.5C 787.833,444.5 788.667,445.5 789.5,446.5C 791.5,444.833 793.5,443.167 795.5,441.5C 795.85,443.268 796.683,445.268 798,447.5C 800.245,445.208 802.745,444.875 805.5,446.5 Z"/></g>
<g><path style="opacity:1" fill="#e58c4e" d="M 445.5,429.5 C 446.222,429.918 446.722,430.584 447,431.5C 447.333,435.833 447.667,440.167 448,444.5C 448.414,444.043 448.914,443.709 449.5,443.5C 450.333,444.5 451.167,445.5 452,446.5C 453.356,445.62 454.856,445.286 456.5,445.5C 454.131,446.69 452.131,448.357 450.5,450.5C 446.677,454.569 442.344,457.902 437.5,460.5C 438.29,459.206 439.29,458.039 440.5,457C 440.043,456.586 439.709,456.086 439.5,455.5C 443.45,447.049 445.45,438.383 445.5,429.5 Z"/></g>
<g><path style="opacity:1" fill="#4a2913" d="M 744.5,397.5 C 749.198,398.109 753.531,399.609 757.5,402C 757.043,402.414 756.709,402.914 756.5,403.5C 757.529,403.296 758.529,403.796 759.5,405C 758.346,405.914 758.513,406.747 760,407.5C 761.049,406.483 762.216,406.316 763.5,407C 762.183,408.767 760.516,410.101 758.5,411C 759.313,412.314 760.313,413.481 761.5,414.5C 759.222,415.215 757.889,416.382 757.5,418C 758.563,419.188 759.897,419.688 761.5,419.5C 761.297,421.39 761.963,422.89 763.5,424C 762.692,424.308 762.025,424.808 761.5,425.5C 763.003,426.052 764.669,426.052 766.5,425.5C 767.673,428.067 768.839,430.733 770,433.5C 771.676,432.939 773.009,431.939 774,430.5C 775.399,431.227 776.899,431.727 778.5,432C 777.304,432.654 777.304,433.154 778.5,433.5C 779.728,431.102 779.062,429.268 776.5,428C 777,427.5 777.5,427 778,426.5C 780.179,426.479 782.345,426.979 784.5,428C 783.228,426.693 782.228,425.193 781.5,423.5C 780.38,424.833 779.047,425.333 777.5,425C 779.155,423.556 779.822,421.722 779.5,419.5C 781.216,419.629 782.883,419.962 784.5,420.5C 785.025,424.869 786.525,428.869 789,432.5C 789.5,431.5 790,430.5 790.5,429.5C 789.833,429.167 789.167,428.833 788.5,428.5C 789.833,427.5 789.833,426.5 788.5,425.5C 789.752,423.999 790.752,422.332 791.5,420.5C 793.217,421.668 793.884,423.335 793.5,425.5C 794.822,425.67 795.989,425.337 797,424.5C 797.667,429.833 798.333,429.833 799,424.5C 800.912,426.657 802.579,428.991 804,431.5C 804.669,428.972 805.502,428.972 806.5,431.5C 804.887,432.427 803.221,433.261 801.5,434C 803.441,434.304 805.107,435.137 806.5,436.5C 805.939,434.934 806.606,433.601 808.5,432.5C 809.13,435.741 810.13,438.075 811.5,439.5C 812.873,439.343 814.207,439.51 815.5,440C 814.23,440.9 813.23,442.066 812.5,443.5C 810.627,442.911 808.96,443.578 807.5,445.5C 806.205,442.988 805.539,440.321 805.5,437.5C 804.5,437.5 803.5,437.5 802.5,437.5C 802.178,439.722 802.845,441.556 804.5,443C 804.043,443.414 803.709,443.914 803.5,444.5C 804.243,445.182 804.909,445.849 805.5,446.5C 802.745,444.875 800.245,445.208 798,447.5C 796.683,445.268 795.85,443.268 795.5,441.5C 793.5,443.167 791.5,444.833 789.5,446.5C 788.667,445.5 787.833,444.5 787,443.5C 786.667,443.833 786.333,444.167 786,444.5C 785.667,443.167 785.333,441.833 785,440.5C 784.439,441.022 783.772,441.355 783,441.5C 780.419,440.583 778.086,439.249 776,437.5C 774.442,439.359 772.609,440.859 770.5,442C 773.332,443.908 772.999,444.741 769.5,444.5C 768.533,443.194 767.199,442.527 765.5,442.5C 764.174,438.342 763.174,434.342 762.5,430.5C 760.955,429.548 759.288,429.215 757.5,429.5C 757.141,427.234 757.808,425.401 759.5,424C 759.092,421.652 757.759,419.485 755.5,417.5C 754.777,415.218 754.443,412.884 754.5,410.5C 752.571,410.769 750.905,410.269 749.5,409C 750.5,408.667 751.5,408.333 752.5,408C 750.754,407.529 749.087,406.862 747.5,406C 746.167,405 746.167,404 747.5,403C 745.841,401.159 743.841,399.992 741.5,399.5C 741.973,398.094 742.973,397.427 744.5,397.5 Z"/></g>
<g><path style="opacity:1" fill="#442510" d="M 375.5,432.5 C 377.549,434.418 379.883,435.918 382.5,437C 381.167,438.84 381.334,439.34 383,438.5C 383.333,439.5 383.667,440.5 384,441.5C 385.14,439.922 385.64,438.256 385.5,436.5C 388.381,434.131 391.047,434.131 393.5,436.5C 393.389,437.117 393.056,437.617 392.5,438C 394.129,438.585 395.629,439.419 397,440.5C 398.762,440.056 398.595,439.556 396.5,439C 398.034,436.619 400.034,436.119 402.5,437.5C 403.326,438.451 403.492,439.451 403,440.5C 402.189,439.04 401.355,438.707 400.5,439.5C 401.671,441.169 403.004,442.669 404.5,444C 404.138,445.225 403.638,446.391 403,447.5C 401.867,445.789 400.367,445.289 398.5,446C 400.125,446.853 400.458,447.853 399.5,449C 400.5,449.333 401.5,449.667 402.5,450C 402.167,450.333 401.833,450.667 401.5,451C 402.293,452.085 402.96,453.252 403.5,454.5C 400.335,456.458 397.835,459.124 396,462.5C 393.685,460.501 391.185,460.501 388.5,462.5C 388.672,460.508 388.005,458.842 386.5,457.5C 386.709,456.914 387.043,456.414 387.5,456C 385.671,455.727 384.171,454.893 383,453.5C 382.517,454.448 382.351,455.448 382.5,456.5C 381.209,456.737 380.209,456.404 379.5,455.5C 378.238,455.093 376.905,454.76 375.5,454.5C 375.709,453.914 376.043,453.414 376.5,453C 374.776,452.552 374.109,451.718 374.5,450.5C 373.808,451.025 373.308,451.692 373,452.5C 370.697,449.704 371.031,447.371 374,445.5C 376.098,446.567 378.265,447.067 380.5,447C 380.167,446.667 379.833,446.333 379.5,446C 382.957,443.977 383.124,441.477 380,438.5C 379.667,438.833 379.333,439.167 379,439.5C 376.822,436.532 375.656,436.865 375.5,440.5C 376.833,440.5 378.167,440.5 379.5,440.5C 379.509,442.308 379.009,443.975 378,445.5C 377.274,442.54 375.44,440.54 372.5,439.5C 373.485,437.902 373.651,436.235 373,434.5C 370.395,436.957 370.562,439.624 373.5,442.5C 372.672,443.415 371.672,444.081 370.5,444.5C 369.167,443.167 367.833,443.167 366.5,444.5C 366.888,442.975 366.888,441.308 366.5,439.5C 367.737,438.719 368.737,437.719 369.5,436.5C 367.997,435.948 366.331,435.948 364.5,436.5C 364.5,435.167 364.5,433.833 364.5,432.5C 366.467,432.261 368.301,432.594 370,433.5C 370.47,432.423 370.303,431.423 369.5,430.5C 370.552,428.744 372.219,428.077 374.5,428.5C 374.714,430.144 374.38,431.644 373.5,433C 374.437,433.692 375.103,433.525 375.5,432.5 Z"/></g>
<g><path style="opacity:1" fill="#bf7c4f" d="M 332.5,418.5 C 334.283,419.114 335.616,420.28 336.5,422C 335.451,422.492 334.451,422.326 333.5,421.5C 332.815,424.159 333.149,426.825 334.5,429.5C 333.726,430.711 332.893,430.711 332,429.5C 331.517,430.448 331.351,431.448 331.5,432.5C 332.833,432.5 334.167,432.5 335.5,432.5C 334.809,435.649 334.143,438.483 333.5,441C 334.691,441.698 335.691,442.531 336.5,443.5C 336.5,444.5 336.5,445.5 336.5,446.5C 337.5,446.5 338.5,446.5 339.5,446.5C 339.519,448.06 339.852,449.56 340.5,451C 339.373,452.057 338.873,453.223 339,454.5C 339.333,454.167 339.667,453.833 340,453.5C 340.308,454.308 340.808,454.975 341.5,455.5C 342.518,454.807 343.518,454.141 344.5,453.5C 344.489,455.017 343.823,456.184 342.5,457C 343.416,457.374 344.25,457.874 345,458.5C 345.308,457.692 345.808,457.025 346.5,456.5C 347.59,457.391 347.59,458.391 346.5,459.5C 347.025,460.192 347.692,460.692 348.5,461C 348.167,461.333 347.833,461.667 347.5,462C 348.448,462.483 349.448,462.649 350.5,462.5C 349.167,465.167 347.833,467.833 346.5,470.5C 335.4,461.107 329.734,448.941 329.5,434C 329.794,429.146 330.294,424.312 331,419.5C 331.383,418.944 331.883,418.611 332.5,418.5 Z"/></g>
<g><path style="opacity:0.004" fill="#e8945b" d="M 450.5,450.5 C 451.833,451.167 451.833,451.167 450.5,450.5 Z"/></g>
<g><path style="opacity:0.004" fill="#fe9d57" d="M 721.5,451.5 C 720.833,452.167 720.833,452.167 721.5,451.5 Z"/></g>
<g><path style="opacity:1" fill="#bc7a4e" d="M 841.5,428.5 C 842.58,442.669 838.746,455.336 830,466.5C 824.912,469.583 820.412,473.417 816.5,478C 814.35,479.411 812.016,480.245 809.5,480.5C 812.51,478.646 815.176,476.313 817.5,473.5C 816.05,472.15 815.383,470.484 815.5,468.5C 813.516,468.383 811.85,469.05 810.5,470.5C 808.29,468.791 808.123,466.791 810,464.5C 810.483,465.448 810.649,466.448 810.5,467.5C 811.833,467.5 813.167,467.5 814.5,467.5C 814.281,466.325 814.614,465.325 815.5,464.5C 815.996,466.398 816.663,467.398 817.5,467.5C 820.487,467.652 823.154,467.985 825.5,468.5C 825.833,467.833 826.167,467.167 826.5,466.5C 825.213,464.84 823.88,463.174 822.5,461.5C 825.211,459.668 827.878,457.835 830.5,456C 829.185,454.605 829.519,453.605 831.5,453C 830.376,452.751 829.376,452.251 828.5,451.5C 830.991,450.459 830.991,449.626 828.5,449C 829.641,448.259 829.641,447.425 828.5,446.5C 829.919,444.664 831.086,442.664 832,440.5C 833.016,439.366 833.683,439.699 834,441.5C 835.361,439.972 836.528,438.305 837.5,436.5C 836.311,435.571 834.978,435.238 833.5,435.5C 833.679,433.394 834.679,431.728 836.5,430.5C 837.192,431.025 837.692,431.692 838,432.5C 839.852,430.77 839.686,429.604 837.5,429C 838.793,428.51 840.127,428.343 841.5,428.5 Z"/></g>
<g><path style="opacity:1" fill="#2e1708" d="M 429.5,403.5 C 430.167,403.5 430.833,403.5 431.5,403.5C 432.585,405.587 434.251,406.92 436.5,407.5C 436.833,408.167 437.167,408.833 437.5,409.5C 434.579,409.146 432.246,410.146 430.5,412.5C 428.498,416.662 426.498,420.329 424.5,423.5C 425.645,424.891 425.645,426.224 424.5,427.5C 423.549,426.674 422.549,426.508 421.5,427C 422.925,428.714 422.592,430.047 420.5,431C 422.97,433.763 423.804,436.93 423,440.5C 421.045,442.911 419.211,445.411 417.5,448C 417.833,448.333 418.167,448.667 418.5,449C 416.547,451.953 415.047,455.119 414,458.5C 413.667,458.167 413.333,457.833 413,457.5C 413.041,460.806 414.874,462.139 418.5,461.5C 418.744,465.789 420.411,466.456 423.5,463.5C 424.167,464.5 424.833,465.5 425.5,466.5C 426.527,465.209 427.527,465.209 428.5,466.5C 428.167,467.167 427.833,467.833 427.5,468.5C 423.777,472.552 420.11,476.552 416.5,480.5C 415.833,480.833 415.167,481.167 414.5,481.5C 410.176,482.757 405.843,482.59 401.5,481C 397.171,478.836 392.838,476.669 388.5,474.5C 389.949,471.949 389.615,469.615 387.5,467.5C 388.025,466.808 388.692,466.308 389.5,466C 387.3,463.954 384.633,462.954 381.5,463C 380.366,461.984 380.699,461.317 382.5,461C 380.294,460.268 378.628,460.935 377.5,463C 380.062,464.268 380.728,466.102 379.5,468.5C 377.833,466.833 376.167,465.167 374.5,463.5C 374.709,462.914 375.043,462.414 375.5,462C 372.108,461.05 370.941,458.883 372,455.5C 373.287,458.145 375.453,459.145 378.5,458.5C 378.263,457.209 378.596,456.209 379.5,455.5C 380.209,456.404 381.209,456.737 382.5,456.5C 382.351,455.448 382.517,454.448 383,453.5C 384.171,454.893 385.671,455.727 387.5,456C 387.043,456.414 386.709,456.914 386.5,457.5C 388.005,458.842 388.672,460.508 388.5,462.5C 390.385,462.882 391.885,464.215 393,466.5C 394.473,463.259 396.307,462.926 398.5,465.5C 399.624,463.631 400.457,461.631 401,459.5C 401.333,460.167 401.667,460.833 402,461.5C 403.577,457.975 406.077,456.475 409.5,457C 408.549,456.282 408.383,455.449 409,454.5C 409.893,455.711 410.726,455.711 411.5,454.5C 410.737,453.281 409.737,452.281 408.5,451.5C 408.846,450.304 409.346,450.304 410,451.5C 411.487,450.747 411.654,449.914 410.5,449C 414.102,447.101 413.769,445.435 409.5,444C 410.38,442.644 410.714,441.144 410.5,439.5C 412.124,439.64 413.29,438.973 414,437.5C 414.251,435.567 414.751,433.734 415.5,432C 415.167,431.667 414.833,431.333 414.5,431C 415.88,429.676 416.214,428.343 415.5,427C 417.886,426.716 418.552,425.716 417.5,424C 419.774,420.119 421.774,416.119 423.5,412C 422.663,410.989 422.33,409.822 422.5,408.5C 425.067,407.283 427.4,405.616 429.5,403.5 Z"/></g>
<g><path style="opacity:0.643" fill="#f0b178" d="M 734.5,461.5 C 738.207,463.688 741.54,466.355 744.5,469.5C 740.296,467.967 736.963,465.3 734.5,461.5 Z"/></g>
<g><path style="opacity:0.165" fill="#f4b97b" d="M 436.5,461.5 C 434.363,464.973 431.363,467.306 427.5,468.5C 427.833,467.833 428.167,467.167 428.5,466.5C 431.184,464.807 433.851,463.14 436.5,461.5 Z"/></g>
<g><path style="opacity:1" fill="#2a1506" d="M 737.5,403.5 C 738.222,403.918 738.722,404.584 739,405.5C 739.414,405.043 739.914,404.709 740.5,404.5C 742.56,406.196 744.893,407.363 747.5,408C 748.634,409.016 748.301,409.683 746.5,410C 748.058,412.054 750.058,413.554 752.5,414.5C 754.235,417.839 753.568,420.506 750.5,422.5C 751.833,423.5 751.833,424.5 750.5,425.5C 752.496,428.327 754.996,430.661 758,432.5C 759.019,434.269 759.186,435.936 758.5,437.5C 760.444,439.28 761.777,441.447 762.5,444C 762.095,444.945 761.428,445.612 760.5,446C 762.004,447.491 762.837,449.324 763,451.5C 764.509,452.09 766.009,452.756 767.5,453.5C 766.91,454.799 765.91,455.632 764.5,456C 765.29,459.79 767.624,461.79 771.5,462C 770.643,462.689 769.977,463.522 769.5,464.5C 772.589,467.456 774.256,466.789 774.5,462.5C 775.623,464.745 776.789,467.079 778,469.5C 778.92,469.93 779.753,470.264 780.5,470.5C 778.022,472.08 777.355,474.08 778.5,476.5C 771.807,481.341 764.474,483.008 756.5,481.5C 756.167,481.5 755.833,481.5 755.5,481.5C 754.396,479.611 753.063,477.945 751.5,476.5C 751.5,474.5 750.5,473.5 748.5,473.5C 746.833,472.5 745.5,471.167 744.5,469.5C 741.54,466.355 738.207,463.688 734.5,461.5C 733.833,461.5 733.5,461.167 733.5,460.5C 733.167,459.833 732.833,459.167 732.5,458.5C 733.642,456.028 735.642,455.028 738.5,455.5C 738.67,456.822 738.337,457.989 737.5,459C 738.833,459.667 740.167,459.667 741.5,459C 740.289,458.107 740.289,457.274 741.5,456.5C 742.541,458.991 743.374,458.991 744,456.5C 744.893,457.711 745.726,457.711 746.5,456.5C 745.04,454.578 743.373,453.911 741.5,454.5C 742.415,453.672 743.081,452.672 743.5,451.5C 742.554,449.742 742.554,448.075 743.5,446.5C 744.085,448.865 745.252,450.865 747,452.5C 747.87,451.892 748.37,451.059 748.5,450C 746.682,443.09 746.016,436.424 746.5,430C 749.109,424.983 749.609,419.817 748,414.5C 747.667,415.167 747.333,415.833 747,416.5C 744.667,414.833 742.667,412.833 741,410.5C 739.187,411.609 738.354,410.942 738.5,408.5C 736.833,408.5 735.167,408.5 733.5,408.5C 733.833,407.833 734.167,407.167 734.5,406.5C 735.272,405.306 736.272,404.306 737.5,403.5 Z"/></g>
<g><path style="opacity:1" fill="#924e22" d="M 816.5,426.5 C 817.404,427.209 817.737,428.209 817.5,429.5C 819.322,429.831 820.989,430.498 822.5,431.5C 821.904,433.965 822.57,436.298 824.5,438.5C 823.833,439.167 823.167,439.833 822.5,440.5C 823.167,440.833 823.833,441.167 824.5,441.5C 822.14,442.865 820.473,444.865 819.5,447.5C 820.609,449.214 819.942,449.881 817.5,449.5C 817.822,451.722 817.155,453.556 815.5,455C 817.922,457.112 817.922,459.112 815.5,461C 816.624,461.249 817.624,461.749 818.5,462.5C 817.974,464.265 817.641,465.932 817.5,467.5C 816.663,467.398 815.996,466.398 815.5,464.5C 814.614,465.325 814.281,466.325 814.5,467.5C 813.167,467.5 811.833,467.5 810.5,467.5C 810.649,466.448 810.483,465.448 810,464.5C 808.123,466.791 808.29,468.791 810.5,470.5C 811.85,469.05 813.516,468.383 815.5,468.5C 815.383,470.484 816.05,472.15 817.5,473.5C 815.176,476.313 812.51,478.646 809.5,480.5C 803.631,485.929 796.631,488.929 788.5,489.5C 788.631,488.761 788.464,488.094 788,487.5C 785.507,488.946 783.673,488.279 782.5,485.5C 779.239,486.509 775.739,487.843 772,489.5C 769.254,487.303 766.087,485.969 762.5,485.5C 760.37,484.289 758.37,482.956 756.5,481.5C 764.474,483.008 771.807,481.341 778.5,476.5C 785.99,474.168 793.323,471.335 800.5,468C 802.396,465.932 804.396,464.099 806.5,462.5C 808.451,461.718 809.951,460.384 811,458.5C 817.224,448.615 819.057,437.948 816.5,426.5 Z"/></g>
<g><path style="opacity:0.51" fill="#cba691" d="M 748.5,473.5 C 750.5,473.5 751.5,474.5 751.5,476.5C 750.167,475.833 749.167,474.833 748.5,473.5 Z"/></g>
<g><path style="opacity:0.004" fill="#b57952" d="M 350.5,474.5 C 349.833,475.167 349.833,475.167 350.5,474.5 Z"/></g>
<g><path style="opacity:1" fill="#904d20" d="M 366.5,465.5 C 373.369,469.677 380.702,472.677 388.5,474.5C 392.838,476.669 397.171,478.836 401.5,481C 405.843,482.59 410.176,482.757 414.5,481.5C 413.448,483.256 411.781,483.923 409.5,483.5C 409.598,485.553 408.931,487.22 407.5,488.5C 404.733,487.068 402.066,487.401 399.5,489.5C 396.388,487.816 393.054,487.15 389.5,487.5C 388.691,486.531 387.691,485.698 386.5,485C 387.308,484.692 387.975,484.192 388.5,483.5C 386.675,482.429 385.508,483.096 385,485.5C 384.387,482.802 383.72,480.135 383,477.5C 380.342,481.745 378.508,481.411 377.5,476.5C 376.749,477.376 376.249,478.376 376,479.5C 375.25,478.874 374.416,478.374 373.5,478C 374.336,476.757 374.003,475.59 372.5,474.5C 372.797,476.885 372.297,479.218 371,481.5C 370.316,480.216 370.483,479.049 371.5,478C 369.854,476.599 368.187,476.432 366.5,477.5C 368.748,478.324 368.914,479.324 367,480.5C 365.667,478.833 364.333,477.167 363,475.5C 362.667,476.167 362.333,476.833 362,477.5C 361.727,475.899 361.227,474.399 360.5,473C 365.652,471.806 365.652,470.64 360.5,469.5C 360.34,467.801 360.506,466.134 361,464.5C 361.308,465.308 361.808,465.975 362.5,466.5C 363.736,465.754 365.07,465.421 366.5,465.5 Z"/></g>
<g><path style="opacity:0.004" fill="#7e4c29" d="M 416.5,480.5 C 417.833,481.167 417.833,481.167 416.5,480.5 Z"/></g>
<g><path style="opacity:0.004" fill="#5b361d" d="M 755.5,481.5 C 754.833,482.167 754.833,482.167 755.5,481.5 Z"/></g>
<g><path style="opacity:0.004" fill="#b67b52" d="M 805.5,484.5 C 806.833,485.167 806.833,485.167 805.5,484.5 Z"/></g>
<g><path style="opacity:0.004" fill="#b67b52" d="M 366.5,485.5 C 367.833,486.167 367.833,486.167 366.5,485.5 Z"/></g>
<g><path style="opacity:0.004" fill="#b67b52" d="M 803.5,485.5 C 804.833,486.167 804.833,486.167 803.5,485.5 Z"/></g>
<g><path style="opacity:0.514" fill="#b6784f" d="M 389.5,487.5 C 393.054,487.15 396.388,487.816 399.5,489.5C 402.066,487.401 404.733,487.068 407.5,488.5C 404.423,488.347 401.589,489.014 399,490.5C 397.105,490.385 395.438,489.718 394,488.5C 387.281,491.179 380.781,490.846 374.5,487.5C 379.496,488.249 384.496,488.249 389.5,487.5 Z"/></g>
<g><path style="opacity:0.024" fill="#b87b52" d="M 762.5,485.5 C 766.087,485.969 769.254,487.303 772,489.5C 775.739,487.843 779.239,486.509 782.5,485.5C 783.673,488.279 785.507,488.946 788,487.5C 788.464,488.094 788.631,488.761 788.5,489.5C 783.158,489.511 777.658,489.844 772,490.5C 768.974,489.238 765.808,488.238 762.5,487.5C 761.45,486.571 761.45,485.905 762.5,485.5 Z"/></g>
</svg>
