<?xml version="1.0" encoding="UTF-8"?>
<!DOCTYPE svg PUBLIC "-//W3C//DTD SVG 1.1//EN" "http://www.w3.org/Graphics/SVG/1.1/DTD/svg11.dtd">
<svg xmlns="http://www.w3.org/2000/svg" version="1.1" width="1191px" height="1191px" style="shape-rendering:geometricPrecision; text-rendering:geometricPrecision; image-rendering:optimizeQuality; fill-rule:evenodd; clip-rule:evenodd" xmlns:xlink="http://www.w3.org/1999/xlink">
<g><path style="opacity:1" fill="#7d5720" d="M 546.5,419.5 C 547.839,426.877 547.839,432.21 546.5,435.5C 545.325,435.281 544.325,435.614 543.5,436.5C 542.855,437.732 542.689,439.065 543,440.5C 541.32,439.397 539.82,439.73 538.5,441.5C 538.26,440.163 537.76,438.497 537,436.5C 536.667,436.833 536.333,437.167 536,437.5C 534.216,434.997 532.549,434.997 531,437.5C 530.667,436.833 530.333,436.167 530,435.5C 528.67,436.582 527.17,437.249 525.5,437.5C 520.489,437.334 515.489,437.501 510.5,438C 504.852,439.329 499.185,440.496 493.5,441.5C 492.342,440.05 492.842,439.05 495,438.5C 496.877,436.209 496.71,434.209 494.5,432.5C 492.289,431.877 490.289,430.877 488.5,429.5C 491.229,427.633 490.896,426.633 487.5,426.5C 487.719,427.675 487.386,428.675 486.5,429.5C 486.968,427.887 486.301,426.387 484.5,425C 485.967,423.902 486.801,422.402 487,420.5C 487.202,422.256 487.702,423.922 488.5,425.5C 489.414,422.489 488.747,419.822 486.5,417.5C 503.884,412.894 521.551,411.394 539.5,413C 542.987,413.989 545.32,416.155 546.5,419.5 Z"/></g>
<g><path style="opacity:0.004" fill="#a27a39" d="M 546.5,416.5 C 547.833,417.167 547.833,417.167 546.5,416.5 Z"/></g>
<g><path style="opacity:0.004" fill="#a27a39" d="M 548.5,419.5 C 549.833,420.167 549.833,420.167 548.5,419.5 Z"/></g>
<g><path style="opacity:0.004" fill="#a27a39" d="M 619.5,419.5 C 620.833,420.167 620.833,420.167 619.5,419.5 Z"/></g>
<g><path style="opacity:1" fill="#77521d" d="M 637.5,412.5 C 646.195,412.327 654.862,412.66 663.5,413.5C 661.609,415.836 661.109,418.502 662,421.5C 663.017,418.972 664.184,418.972 665.5,421.5C 666.451,420.674 667.451,420.508 668.5,421C 668.33,422.57 667.997,424.403 667.5,426.5C 665.516,426.617 663.85,425.95 662.5,424.5C 663.025,423.808 663.692,423.308 664.5,423C 662.833,422.333 661.167,422.333 659.5,423C 660.82,425.317 662.486,427.317 664.5,429C 663.167,430.667 663.167,432.333 664.5,434C 661.793,437.35 662.793,439.017 667.5,439C 666.207,439.49 664.873,439.657 663.5,439.5C 657.247,438.311 650.914,437.811 644.5,438C 642.821,440.565 642.154,443.398 642.5,446.5C 641.518,447.141 640.518,447.807 639.5,448.5C 639.167,448.167 638.833,447.833 638.5,447.5C 639.167,446.833 639.833,446.167 640.5,445.5C 638.293,444.365 635.96,443.699 633.5,443.5C 633.657,444.873 633.49,446.207 633,447.5C 632.667,446.833 632.333,446.167 632,445.5C 631.88,450.392 630.546,450.725 628,446.5C 627.586,446.957 627.086,447.291 626.5,447.5C 624.322,446.343 622.322,445.01 620.5,443.5C 620.414,440.89 621.081,438.224 622.5,435.5C 623.086,435.291 623.586,434.957 624,434.5C 625.03,436.776 626.53,437.443 628.5,436.5C 627.689,435.784 627.022,434.95 626.5,434C 627.167,433.333 627.833,432.667 628.5,432C 627.137,429.492 626.804,426.992 627.5,424.5C 629.375,425.836 630.708,425.336 631.5,423C 629.975,421.991 628.308,421.491 626.5,421.5C 626.343,420.127 626.51,418.793 627,417.5C 627.519,418.516 628.353,419.182 629.5,419.5C 633.076,415.719 636.576,415.719 640,419.5C 642.325,418.503 643.325,416.837 643,414.5C 641.984,415.634 641.317,415.301 641,413.5C 638.373,415.988 635.54,416.155 632.5,414C 633.899,413.405 635.232,413.572 636.5,414.5C 637.298,414.043 637.631,413.376 637.5,412.5 Z"/></g>
<g><path style="opacity:0.004" fill="#a27a39" d="M 705.5,422.5 C 706.833,423.167 706.833,423.167 705.5,422.5 Z"/></g>
<g><path style="opacity:0.004" fill="#a27a39" d="M 708.5,423.5 C 709.833,424.167 709.833,424.167 708.5,423.5 Z"/></g>
<g><path style="opacity:1" fill="#876027" d="M 486.5,417.5 C 488.747,419.822 489.414,422.489 488.5,425.5C 487.702,423.922 487.202,422.256 487,420.5C 486.801,422.402 485.967,423.902 484.5,425C 486.301,426.387 486.968,427.887 486.5,429.5C 487.386,428.675 487.719,427.675 487.5,426.5C 490.896,426.633 491.229,427.633 488.5,429.5C 490.289,430.877 492.289,431.877 494.5,432.5C 496.71,434.209 496.877,436.209 495,438.5C 492.842,439.05 492.342,440.05 493.5,441.5C 492.005,441.989 490.671,442.655 489.5,443.5C 484.468,444.341 479.468,445.341 474.5,446.5C 471.159,444.764 467.492,443.764 463.5,443.5C 463.762,442.022 463.429,440.689 462.5,439.5C 461.457,441.783 460.791,443.783 460.5,445.5C 458.862,444.295 458.529,442.962 459.5,441.5C 458.675,440.614 457.675,440.281 456.5,440.5C 456.5,439.5 456.5,438.5 456.5,437.5C 454.263,438.449 451.929,439.116 449.5,439.5C 449.5,438.5 449.5,437.5 449.5,436.5C 452.794,436.741 455.794,435.908 458.5,434C 456.527,433.505 454.527,433.338 452.5,433.5C 452.326,430.155 453.659,428.988 456.5,430C 456.93,429.08 457.264,428.247 457.5,427.5C 459.826,429.916 461.159,429.25 461.5,425.5C 469.63,422.458 477.963,419.791 486.5,417.5 Z"/></g>
<g><path style="opacity:0.004" fill="#a27a39" d="M 433.5,432.5 C 434.833,433.167 434.833,433.167 433.5,432.5 Z"/></g>
<g><path style="opacity:0.004" fill="#a27a39" d="M 734.5,432.5 C 735.833,433.167 735.833,433.167 734.5,432.5 Z"/></g>
<g><path style="opacity:1" fill="#815b23" d="M 663.5,413.5 C 675.414,415.878 687.081,418.878 698.5,422.5C 697.317,423.504 695.984,424.338 694.5,425C 695.872,425.402 697.205,425.902 698.5,426.5C 698.998,425.397 699.331,424.397 699.5,423.5C 700.149,425.624 700.983,427.624 702,429.5C 703.977,429.342 706.143,429.175 708.5,429C 706.012,430.685 706.345,432.019 709.5,433C 709.043,433.414 708.709,433.914 708.5,434.5C 710.298,437.289 710.798,440.289 710,443.5C 709.117,440.696 707.784,437.696 706,434.5C 705.508,435.549 705.674,436.549 706.5,437.5C 704.342,439.026 704.675,440.526 707.5,442C 705.632,442.004 703.798,441.504 702,440.5C 700.494,442.328 698.827,442.662 697,441.5C 696.293,443.081 695.46,444.581 694.5,446C 695.737,446.232 696.737,446.732 697.5,447.5C 686.133,444.49 674.8,441.823 663.5,439.5C 664.873,439.657 666.207,439.49 667.5,439C 662.793,439.017 661.793,437.35 664.5,434C 663.167,432.333 663.167,430.667 664.5,429C 662.486,427.317 660.82,425.317 659.5,423C 661.167,422.333 662.833,422.333 664.5,423C 663.692,423.308 663.025,423.808 662.5,424.5C 663.85,425.95 665.516,426.617 667.5,426.5C 667.997,424.403 668.33,422.57 668.5,421C 667.451,420.508 666.451,420.674 665.5,421.5C 664.184,418.972 663.017,418.972 662,421.5C 661.109,418.502 661.609,415.836 663.5,413.5 Z"/></g>
<g><path style="opacity:0.992" fill="#9a7234" d="M 461.5,425.5 C 461.159,429.25 459.826,429.916 457.5,427.5C 457.264,428.247 456.93,429.08 456.5,430C 453.659,428.988 452.326,430.155 452.5,433.5C 454.527,433.338 456.527,433.505 458.5,434C 455.794,435.908 452.794,436.741 449.5,436.5C 449.5,437.5 449.5,438.5 449.5,439.5C 451.929,439.116 454.263,438.449 456.5,437.5C 456.5,438.5 456.5,439.5 456.5,440.5C 457.675,440.281 458.675,440.614 459.5,441.5C 458.529,442.962 458.862,444.295 460.5,445.5C 460.791,443.783 461.457,441.783 462.5,439.5C 463.429,440.689 463.762,442.022 463.5,443.5C 467.492,443.764 471.159,444.764 474.5,446.5C 472.786,447.738 470.786,448.405 468.5,448.5C 463.746,449.522 459.079,450.855 454.5,452.5C 450.064,453.414 446.064,455.081 442.5,457.5C 437.886,459.038 433.219,460.372 428.5,461.5C 427.149,459.471 427.482,457.638 429.5,456C 428.333,453.929 428.999,452.429 431.5,451.5C 430.572,450.232 430.405,448.899 431,447.5C 432.674,448.676 434.174,450.01 435.5,451.5C 436.747,449.994 436.747,448.494 435.5,447C 433.236,446.764 431.069,446.264 429,445.5C 428.42,442.453 428.753,442.119 430,444.5C 430.374,443.584 430.874,442.75 431.5,442C 428.813,441.272 426.48,440.105 424.5,438.5C 436.35,432.739 448.683,428.406 461.5,425.5 Z"/></g>
<g><path style="opacity:0.004" fill="#a27a39" d="M 745.5,437.5 C 746.833,438.167 746.833,438.167 745.5,437.5 Z"/></g>
<g><path style="opacity:0.004" fill="#a27a39" d="M 421.5,439.5 C 420.833,438.167 420.833,438.167 421.5,439.5 Z"/></g>
<g><path style="opacity:0.952" fill="#a07738" d="M 740.5,437.5 C 742.216,437.629 743.883,437.962 745.5,438.5C 745.842,439.338 746.508,439.672 747.5,439.5C 751.606,441.088 755.94,443.088 760.5,445.5C 761.659,447.25 763.326,448.25 765.5,448.5C 772.382,452.874 778.882,457.874 785,463.5C 789.087,467.675 790.921,472.675 790.5,478.5C 789.167,479.167 788.167,480.167 787.5,481.5C 786.027,482.74 784.36,483.74 782.5,484.5C 781.346,482.144 780.013,481.977 778.5,484C 778.833,484.333 779.167,484.667 779.5,485C 776.526,487.45 774.359,486.95 773,483.5C 772.023,484.774 771.189,484.774 770.5,483.5C 772.168,481.009 771.834,478.842 769.5,477C 765.256,474.572 760.922,472.406 756.5,470.5C 752.309,467.542 747.642,465.542 742.5,464.5C 739.871,462.837 737.204,461.171 734.5,459.5C 734.859,457.234 734.192,455.401 732.5,454C 734.01,450.275 733.344,446.942 730.5,444C 732.047,443.667 733.38,444.167 734.5,445.5C 735.429,444.311 735.762,442.978 735.5,441.5C 738.95,442.244 740.616,440.91 740.5,437.5 Z"/></g>
<g><path style="opacity:0.004" fill="#a27a39" d="M 747.5,438.5 C 748.833,439.167 748.833,439.167 747.5,438.5 Z"/></g>
<g><path style="opacity:1" fill="#997033" d="M 698.5,422.5 C 713.382,425.286 727.382,430.286 740.5,437.5C 740.616,440.91 738.95,442.244 735.5,441.5C 735.762,442.978 735.429,444.311 734.5,445.5C 733.38,444.167 732.047,443.667 730.5,444C 733.344,446.942 734.01,450.275 732.5,454C 734.192,455.401 734.859,457.234 734.5,459.5C 731.177,458.508 727.844,457.508 724.5,456.5C 719.129,453.709 713.462,451.709 707.5,450.5C 703.952,449.87 700.619,448.87 697.5,447.5C 696.737,446.732 695.737,446.232 694.5,446C 695.46,444.581 696.293,443.081 697,441.5C 698.827,442.662 700.494,442.328 702,440.5C 703.798,441.504 705.632,442.004 707.5,442C 704.675,440.526 704.342,439.026 706.5,437.5C 705.674,436.549 705.508,435.549 706,434.5C 707.784,437.696 709.117,440.696 710,443.5C 710.798,440.289 710.298,437.289 708.5,434.5C 708.709,433.914 709.043,433.414 709.5,433C 706.345,432.019 706.012,430.685 708.5,429C 706.143,429.175 703.977,429.342 702,429.5C 700.983,427.624 700.149,425.624 699.5,423.5C 699.331,424.397 698.998,425.397 698.5,426.5C 697.205,425.902 695.872,425.402 694.5,425C 695.984,424.338 697.317,423.504 698.5,422.5 Z"/></g>
<g><path style="opacity:0.94" fill="#a07738" d="M 424.5,438.5 C 426.48,440.105 428.813,441.272 431.5,442C 430.874,442.75 430.374,443.584 430,444.5C 428.753,442.119 428.42,442.453 429,445.5C 431.069,446.264 433.236,446.764 435.5,447C 436.747,448.494 436.747,449.994 435.5,451.5C 434.174,450.01 432.674,448.676 431,447.5C 430.405,448.899 430.572,450.232 431.5,451.5C 428.999,452.429 428.333,453.929 429.5,456C 427.482,457.638 427.149,459.471 428.5,461.5C 427.833,462.167 427.167,462.833 426.5,463.5C 416.358,467.737 406.691,472.737 397.5,478.5C 396.627,482.494 395.46,482.494 394,478.5C 393.561,482.48 392.061,483.147 389.5,480.5C 387.714,482.021 385.881,482.354 384,481.5C 383.667,482.167 383.333,482.833 383,483.5C 382.722,482.584 382.222,481.918 381.5,481.5C 380.833,480.167 379.833,479.167 378.5,478.5C 378.17,472.16 380.336,466.826 385,462.5C 388.13,460.372 390.963,457.872 393.5,455C 397.919,453.064 401.919,450.564 405.5,447.5C 407.027,447.573 408.027,446.906 408.5,445.5C 413.34,443.566 417.673,441.566 421.5,439.5C 422.609,439.443 423.609,439.11 424.5,438.5 Z"/></g>
<g><path style="opacity:1" fill="#896228" d="M 546.5,419.5 C 547.167,419.833 547.833,420.167 548.5,420.5C 550.409,424.942 550.409,429.276 548.5,433.5C 549.443,438.1 549.777,442.767 549.5,447.5C 549.5,447.833 549.5,448.167 549.5,448.5C 548.675,452.647 548.175,456.981 548,461.5C 547.374,459.009 546.541,459.009 545.5,461.5C 543.863,460.556 542.863,461.223 542.5,463.5C 541.883,463.611 541.383,463.944 541,464.5C 539.582,462.637 537.749,462.137 535.5,463C 533.986,465.347 531.986,467.18 529.5,468.5C 530.167,469.167 530.833,469.833 531.5,470.5C 530.37,471.784 529.037,472.617 527.5,473C 528.615,474.393 529.115,475.893 529,477.5C 527.6,476.252 526.1,475.252 524.5,474.5C 526.477,463.065 526.81,451.732 525.5,440.5C 525.5,439.5 525.5,438.5 525.5,437.5C 527.17,437.249 528.67,436.582 530,435.5C 530.333,436.167 530.667,436.833 531,437.5C 532.549,434.997 534.216,434.997 536,437.5C 536.333,437.167 536.667,436.833 537,436.5C 537.76,438.497 538.26,440.163 538.5,441.5C 539.82,439.73 541.32,439.397 543,440.5C 542.689,439.065 542.855,437.732 543.5,436.5C 544.325,435.614 545.325,435.281 546.5,435.5C 547.839,432.21 547.839,426.877 546.5,419.5 Z"/></g>
<g><path style="opacity:0.004" fill="#a27a39" d="M 408.5,445.5 C 407.833,444.167 407.833,444.167 408.5,445.5 Z"/></g>
<g><path style="opacity:0.004" fill="#a27a39" d="M 760.5,444.5 C 761.833,445.167 761.833,445.167 760.5,444.5 Z"/></g>
<g><path style="opacity:0.004" fill="#a27a39" d="M 405.5,445.5 C 406.833,446.167 406.833,446.167 405.5,445.5 Z"/></g>
<g><path style="opacity:0.004" fill="#a27a39" d="M 762.5,445.5 C 763.833,446.167 763.833,446.167 762.5,445.5 Z"/></g>
<g><path style="opacity:0.004" fill="#a27a39" d="M 405.5,446.5 C 405.5,446.833 405.5,447.167 405.5,447.5C 404.83,447.019 404.83,446.685 405.5,446.5 Z"/></g>
<g><path style="opacity:0.008" fill="#a27a39" d="M 402.5,447.5 C 403.833,448.167 403.833,448.167 402.5,447.5 Z"/></g>
<g><path style="opacity:0.985" fill="#301a0b" d="M 549.5,447.5 C 561.5,447.5 573.5,447.5 585.5,447.5C 585.251,451.822 583.584,452.822 580.5,450.5C 579.692,450.808 579.025,451.308 578.5,452C 579.956,452.423 580.456,453.256 580,454.5C 578.931,454.36 577.764,454.36 576.5,454.5C 578.33,456.905 578.997,459.405 578.5,462C 576.658,463.344 574.992,464.844 573.5,466.5C 573.667,466.833 573.833,467.167 574,467.5C 575.399,466.773 576.899,466.273 578.5,466C 580.051,462.64 580.551,462.807 580,466.5C 578.17,468.158 576.836,470.158 576,472.5C 575.28,470.745 574.113,469.911 572.5,470C 572.247,472.638 572.914,475.304 574.5,478C 572.955,479.641 573.289,480.807 575.5,481.5C 576.748,480.96 577.915,480.293 579,479.5C 578.355,483.716 576.355,484.382 573,481.5C 570.976,483.334 571.142,485.001 573.5,486.5C 574.167,485.833 574.833,485.167 575.5,484.5C 575.303,487.231 576.637,489.397 579.5,491C 578.692,491.308 578.025,491.808 577.5,492.5C 578.912,493.806 580.579,494.64 582.5,495C 581.058,495.377 580.058,496.21 579.5,497.5C 568.806,497.291 558.14,497.625 547.5,498.5C 548.159,481.942 548.826,465.275 549.5,448.5C 549.5,448.167 549.5,447.833 549.5,447.5 Z"/></g>
<g><path style="opacity:0.983" fill="#301a0b" d="M 594.5,447.5 C 602.833,447.5 611.167,447.5 619.5,447.5C 619.746,460.246 620.412,472.913 621.5,485.5C 620.968,489.376 620.968,493.709 621.5,498.5C 610.523,497.649 599.523,497.316 588.5,497.5C 593.14,496.563 594.14,494.23 591.5,490.5C 590.833,490.833 590.167,491.167 589.5,491.5C 588.008,489.844 586.342,488.344 584.5,487C 585.449,486.383 586.282,486.549 587,487.5C 587.5,486.333 588.333,485.5 589.5,485C 587.398,483.267 587.065,481.267 588.5,479C 586.866,478.506 585.199,478.34 583.5,478.5C 583.64,476.876 582.973,475.71 581.5,475C 583.701,474.175 585.534,474.675 587,476.5C 587.833,475.5 588.667,474.5 589.5,473.5C 591.26,476.021 593.593,476.854 596.5,476C 594.957,474.286 593.29,472.786 591.5,471.5C 590.558,471.608 589.725,471.941 589,472.5C 588.833,472.167 588.667,471.833 588.5,471.5C 590.766,470.686 593.1,470.186 595.5,470C 594.167,469.667 592.833,469.333 591.5,469C 591.64,467.403 591.64,465.903 591.5,464.5C 590.311,463.571 588.978,463.238 587.5,463.5C 585.881,457.177 586.881,456.843 590.5,462.5C 591.141,460.704 592.141,459.204 593.5,458C 592.376,457.751 591.376,457.251 590.5,456.5C 592.5,455.833 594.5,455.167 596.5,454.5C 595.265,451.956 594.099,451.956 593,454.5C 590.91,453.848 588.743,453.681 586.5,454C 588.376,452.983 590.376,452.149 592.5,451.5C 593.09,450.201 594.09,449.368 595.5,449C 594.944,448.617 594.611,448.117 594.5,447.5 Z"/></g>
<g><path style="opacity:0.004" fill="#a27a39" d="M 765.5,447.5 C 766.833,448.167 766.833,448.167 765.5,447.5 Z"/></g>
<g><path style="opacity:0.004" fill="#a27a39" d="M 400.5,448.5 C 401.833,449.167 401.833,449.167 400.5,448.5 Z"/></g>
<g><path style="opacity:0.004" fill="#a27a39" d="M 767.5,448.5 C 768.833,449.167 768.833,449.167 767.5,448.5 Z"/></g>
<g><path style="opacity:1" fill="#5ac0bf" d="M 525.5,437.5 C 525.5,438.5 525.5,439.5 525.5,440.5C 525.666,445.844 525.499,451.177 525,456.5C 524.667,455.5 524.333,454.5 524,453.5C 523.667,453.833 523.333,454.167 523,454.5C 522.094,452.388 520.594,451.555 518.5,452C 520.303,453.262 521.636,454.929 522.5,457C 520.953,456.287 519.286,455.454 517.5,454.5C 514.466,454.723 512.133,456.056 510.5,458.5C 509.248,454.631 508.581,450.964 508.5,447.5C 507.5,447.833 506.833,448.5 506.5,449.5C 507.487,453.367 506.987,453.367 505,449.5C 503.746,453.274 502.246,453.774 500.5,451C 499.552,450.517 498.552,450.351 497.5,450.5C 497.719,449.325 497.386,448.325 496.5,447.5C 495.289,448.274 495.289,449.107 496.5,450C 495.667,450.833 494.833,451.667 494,452.5C 492.166,449.562 490.666,446.562 489.5,443.5C 490.671,442.655 492.005,441.989 493.5,441.5C 499.185,440.496 504.852,439.329 510.5,438C 515.489,437.501 520.489,437.334 525.5,437.5 Z"/></g>
<g><path style="opacity:1" fill="#4ca6a5" d="M 525.5,440.5 C 526.81,451.732 526.477,463.065 524.5,474.5C 524.768,476.099 524.434,477.432 523.5,478.5C 522.662,478.158 522.328,477.492 522.5,476.5C 522.785,474.712 522.452,473.045 521.5,471.5C 519.38,472.872 518.38,472.205 518.5,469.5C 516.833,469.5 515.167,469.5 513.5,469.5C 513.649,468.448 513.483,467.448 513,466.5C 511.057,468.715 509.391,468.715 508,466.5C 505.258,467.246 502.758,467.246 500.5,466.5C 498.233,464.335 498.233,462.335 500.5,460.5C 500.291,459.914 499.957,459.414 499.5,459C 496.776,458.73 494.109,458.23 491.5,457.5C 490.914,457.709 490.414,458.043 490,458.5C 487.613,453.201 485.28,453.201 483,458.5C 480.848,456.184 478.348,455.85 475.5,457.5C 474.186,456.687 473.019,455.687 472,454.5C 471.781,455.938 471.281,457.271 470.5,458.5C 468.955,456.457 467.621,454.29 466.5,452C 466.862,450.566 467.528,449.399 468.5,448.5C 470.786,448.405 472.786,447.738 474.5,446.5C 479.468,445.341 484.468,444.341 489.5,443.5C 490.666,446.562 492.166,449.562 494,452.5C 494.833,451.667 495.667,450.833 496.5,450C 495.289,449.107 495.289,448.274 496.5,447.5C 497.386,448.325 497.719,449.325 497.5,450.5C 498.552,450.351 499.552,450.517 500.5,451C 502.246,453.774 503.746,453.274 505,449.5C 506.987,453.367 507.487,453.367 506.5,449.5C 506.833,448.5 507.5,447.833 508.5,447.5C 508.581,450.964 509.248,454.631 510.5,458.5C 512.133,456.056 514.466,454.723 517.5,454.5C 519.286,455.454 520.953,456.287 522.5,457C 521.636,454.929 520.303,453.262 518.5,452C 520.594,451.555 522.094,452.388 523,454.5C 523.333,454.167 523.667,453.833 524,453.5C 524.333,454.5 524.667,455.5 525,456.5C 525.499,451.177 525.666,445.844 525.5,440.5 Z"/></g>
<g><path style="opacity:0.004" fill="#a27a39" d="M 387.5,457.5 C 388.833,458.167 388.833,458.167 387.5,457.5 Z"/></g>
<g><path style="opacity:1" fill="#4fa8a6" d="M 663.5,439.5 C 674.8,441.823 686.133,444.49 697.5,447.5C 700.619,448.87 703.952,449.87 707.5,450.5C 709.075,452.114 709.741,454.114 709.5,456.5C 708.448,456.649 707.448,456.483 706.5,456C 707.731,454.817 707.731,453.651 706.5,452.5C 703.229,453.835 699.896,455.169 696.5,456.5C 694.813,456.24 693.313,455.573 692,454.5C 690.989,455.337 689.822,455.67 688.5,455.5C 688.649,454.448 688.483,453.448 688,452.5C 686.806,454.623 686.14,456.957 686,459.5C 684.684,456.972 683.517,456.972 682.5,459.5C 681.549,458.674 680.549,458.508 679.5,459C 680.711,460.113 680.711,461.28 679.5,462.5C 677.704,463.141 676.204,464.141 675,465.5C 673.129,464.332 671.629,464.832 670.5,467C 673.044,468.099 673.044,469.265 670.5,470.5C 668.56,468.955 667.394,466.955 667,464.5C 666.667,465.5 666.333,466.5 666,467.5C 663.02,461.914 661.52,462.247 661.5,468.5C 656.647,469.031 651.981,470.365 647.5,472.5C 647.167,472.333 646.833,472.167 646.5,472C 650.804,468.425 650.304,467.258 645,468.5C 644.814,465.964 644.314,463.631 643.5,461.5C 642.555,456.595 642.221,451.595 642.5,446.5C 642.154,443.398 642.821,440.565 644.5,438C 650.914,437.811 657.247,438.311 663.5,439.5 Z"/></g>
<g><path style="opacity:0.004" fill="#a27a39" d="M 781.5,458.5 C 780.833,457.167 780.833,457.167 781.5,458.5 Z"/></g>
<g><path style="opacity:0.004" fill="#a27a39" d="M 387.5,458.5 C 386.833,459.167 386.833,459.167 387.5,458.5 Z"/></g>
<g><path style="opacity:0.004" fill="#a27a39" d="M 781.5,458.5 C 782.833,459.167 782.833,459.167 781.5,458.5 Z"/></g>
<g><path style="opacity:0.004" fill="#a27a39" d="M 386.5,459.5 C 385.833,460.167 385.833,460.167 386.5,459.5 Z"/></g>
<g><path style="opacity:1" fill="#439494" d="M 468.5,448.5 C 467.528,449.399 466.862,450.566 466.5,452C 467.621,454.29 468.955,456.457 470.5,458.5C 471.281,457.271 471.781,455.938 472,454.5C 473.019,455.687 474.186,456.687 475.5,457.5C 478.348,455.85 480.848,456.184 483,458.5C 485.28,453.201 487.613,453.201 490,458.5C 490.414,458.043 490.914,457.709 491.5,457.5C 494.109,458.23 496.776,458.73 499.5,459C 499.957,459.414 500.291,459.914 500.5,460.5C 498.233,462.335 498.233,464.335 500.5,466.5C 502.758,467.246 505.258,467.246 508,466.5C 509.391,468.715 511.057,468.715 513,466.5C 513.483,467.448 513.649,468.448 513.5,469.5C 515.167,469.5 516.833,469.5 518.5,469.5C 518.38,472.205 519.38,472.872 521.5,471.5C 522.452,473.045 522.785,474.712 522.5,476.5C 519.551,475.987 516.718,475.987 514,476.5C 512.391,472.551 509.558,470.218 505.5,469.5C 505.5,470.5 505.5,471.5 505.5,472.5C 503.61,472.297 502.11,472.963 501,474.5C 500.085,473.672 499.419,472.672 499,471.5C 498.044,472.894 496.711,473.561 495,473.5C 493.244,472.195 491.577,471.528 490,471.5C 486.836,474.145 485.669,473.145 486.5,468.5C 483.027,469.629 479.693,469.129 476.5,467C 477.167,466.667 477.833,466.333 478.5,466C 475.358,460.228 473.691,460.394 473.5,466.5C 471.136,465.471 468.803,465.471 466.5,466.5C 463.705,464.368 460.539,463.035 457,462.5C 455.559,463.26 454.059,463.926 452.5,464.5C 451.41,463.609 451.41,462.609 452.5,461.5C 451.15,460.05 449.484,459.383 447.5,459.5C 447.5,458.167 447.5,456.833 447.5,455.5C 450.346,455.448 452.68,454.448 454.5,452.5C 459.079,450.855 463.746,449.522 468.5,448.5 Z"/></g>
<g><path style="opacity:1" fill="#543316" d="M 585.5,447.5 C 588.5,447.5 591.5,447.5 594.5,447.5C 594.611,448.117 594.944,448.617 595.5,449C 594.09,449.368 593.09,450.201 592.5,451.5C 590.376,452.149 588.376,452.983 586.5,454C 588.743,453.681 590.91,453.848 593,454.5C 594.099,451.956 595.265,451.956 596.5,454.5C 594.5,455.167 592.5,455.833 590.5,456.5C 591.376,457.251 592.376,457.751 593.5,458C 592.141,459.204 591.141,460.704 590.5,462.5C 586.881,456.843 585.881,457.177 587.5,463.5C 588.978,463.238 590.311,463.571 591.5,464.5C 591.64,465.903 591.64,467.403 591.5,469C 592.833,469.333 594.167,469.667 595.5,470C 593.1,470.186 590.766,470.686 588.5,471.5C 588.667,471.833 588.833,472.167 589,472.5C 589.725,471.941 590.558,471.608 591.5,471.5C 593.29,472.786 594.957,474.286 596.5,476C 593.593,476.854 591.26,476.021 589.5,473.5C 588.667,474.5 587.833,475.5 587,476.5C 585.534,474.675 583.701,474.175 581.5,475C 582.973,475.71 583.64,476.876 583.5,478.5C 585.199,478.34 586.866,478.506 588.5,479C 587.065,481.267 587.398,483.267 589.5,485C 588.333,485.5 587.5,486.333 587,487.5C 586.282,486.549 585.449,486.383 584.5,487C 586.342,488.344 588.008,489.844 589.5,491.5C 590.167,491.167 590.833,490.833 591.5,490.5C 594.14,494.23 593.14,496.563 588.5,497.5C 585.5,497.5 582.5,497.5 579.5,497.5C 580.058,496.21 581.058,495.377 582.5,495C 580.579,494.64 578.912,493.806 577.5,492.5C 578.025,491.808 578.692,491.308 579.5,491C 576.637,489.397 575.303,487.231 575.5,484.5C 574.833,485.167 574.167,485.833 573.5,486.5C 571.142,485.001 570.976,483.334 573,481.5C 576.355,484.382 578.355,483.716 579,479.5C 577.915,480.293 576.748,480.96 575.5,481.5C 573.289,480.807 572.955,479.641 574.5,478C 572.914,475.304 572.247,472.638 572.5,470C 574.113,469.911 575.28,470.745 576,472.5C 576.836,470.158 578.17,468.158 580,466.5C 580.551,462.807 580.051,462.64 578.5,466C 576.899,466.273 575.399,466.773 574,467.5C 573.833,467.167 573.667,466.833 573.5,466.5C 574.992,464.844 576.658,463.344 578.5,462C 578.997,459.405 578.33,456.905 576.5,454.5C 577.764,454.36 578.931,454.36 580,454.5C 580.456,453.256 579.956,452.423 578.5,452C 579.025,451.308 579.692,450.808 580.5,450.5C 583.584,452.822 585.251,451.822 585.5,447.5 Z"/></g>
<g><path style="opacity:1" fill="#815b24" d="M 637.5,412.5 C 637.631,413.376 637.298,414.043 636.5,414.5C 635.232,413.572 633.899,413.405 632.5,414C 635.54,416.155 638.373,415.988 641,413.5C 641.317,415.301 641.984,415.634 643,414.5C 643.325,416.837 642.325,418.503 640,419.5C 636.576,415.719 633.076,415.719 629.5,419.5C 628.353,419.182 627.519,418.516 627,417.5C 626.51,418.793 626.343,420.127 626.5,421.5C 628.308,421.491 629.975,421.991 631.5,423C 630.708,425.336 629.375,425.836 627.5,424.5C 626.804,426.992 627.137,429.492 628.5,432C 627.833,432.667 627.167,433.333 626.5,434C 627.022,434.95 627.689,435.784 628.5,436.5C 626.53,437.443 625.03,436.776 624,434.5C 623.586,434.957 623.086,435.291 622.5,435.5C 621.081,438.224 620.414,440.89 620.5,443.5C 622.322,445.01 624.322,446.343 626.5,447.5C 627.086,447.291 627.586,446.957 628,446.5C 630.546,450.725 631.88,450.392 632,445.5C 632.333,446.167 632.667,446.833 633,447.5C 633.49,446.207 633.657,444.873 633.5,443.5C 635.96,443.699 638.293,444.365 640.5,445.5C 639.833,446.167 639.167,446.833 638.5,447.5C 638.833,447.833 639.167,448.167 639.5,448.5C 640.518,447.807 641.518,447.141 642.5,446.5C 642.221,451.595 642.555,456.595 643.5,461.5C 644.342,470.528 645.342,479.528 646.5,488.5C 645.209,490.831 645.542,492.997 647.5,495C 645.122,497.211 644.122,499.711 644.5,502.5C 643.585,501.672 642.919,500.672 642.5,499.5C 643.991,496.602 644.657,493.769 644.5,491C 643.552,490.517 642.552,490.351 641.5,490.5C 641.778,492.346 641.111,493.68 639.5,494.5C 639.418,491.667 639.252,488.667 639,485.5C 638.167,487.5 637.333,489.5 636.5,491.5C 634.981,490.149 633.648,488.649 632.5,487C 632.833,486.667 633.167,486.333 633.5,486C 631.649,485.163 629.816,484.329 628,483.5C 627.167,484.5 626.333,485.5 625.5,486.5C 624.264,485.754 622.93,485.421 621.5,485.5C 620.412,472.913 619.746,460.246 619.5,447.5C 620.024,440.954 620.024,434.454 619.5,428C 620.99,417.469 626.99,412.303 637.5,412.5 Z"/></g>
<g><path style="opacity:1" fill="#326f6e" d="M 742.5,464.5 C 747.642,465.542 752.309,467.542 756.5,470.5C 758.69,472.442 760.69,474.609 762.5,477C 761.753,478.866 761.419,480.533 761.5,482C 763.657,483.085 763.824,484.251 762,485.5C 760.853,483.269 759.853,480.935 759,478.5C 758.667,479.833 758.333,481.167 758,482.5C 755.24,478.535 753.74,479.201 753.5,484.5C 751.937,483.055 750.604,481.389 749.5,479.5C 747.79,480.687 746.29,480.354 745,478.5C 744.5,478.667 744,478.833 743.5,479C 744.849,480.635 744.682,482.135 743,483.5C 742.935,481.117 742.102,480.45 740.5,481.5C 739.5,480.833 738.5,480.167 737.5,479.5C 736.935,481.51 735.935,483.176 734.5,484.5C 733.898,481.976 733.898,479.809 734.5,478C 733.095,476.731 731.429,476.231 729.5,476.5C 729.587,473.402 729.087,473.068 728,475.5C 727.086,474.346 726.253,474.513 725.5,476C 726.673,479.11 726.173,479.277 724,476.5C 723.667,477.167 723.333,477.833 723,478.5C 721.951,477.483 720.784,477.316 719.5,478C 714.547,482.934 711.88,481.768 711.5,474.5C 709.549,474.227 708.049,474.893 707,476.5C 705.026,473.882 703.193,474.048 701.5,477C 702.973,477.71 703.64,478.876 703.5,480.5C 701.54,479.862 699.707,479.862 698,480.5C 697.667,479.833 697.333,479.167 697,478.5C 695.671,481.327 693.504,483.327 690.5,484.5C 689.571,485.689 689.238,487.022 689.5,488.5C 691.477,489.149 693.31,489.149 695,488.5C 698.312,490.121 698.312,490.455 695,489.5C 694.667,491.5 694.333,493.5 694,495.5C 693.016,493.205 692.183,493.539 691.5,496.5C 692.5,497.333 693.5,498.167 694.5,499C 693.433,501.694 694.433,503.527 697.5,504.5C 694.488,505.002 692.155,506.502 690.5,509C 687.647,510.43 684.647,511.263 681.5,511.5C 681.5,512.5 681.5,513.5 681.5,514.5C 679.712,514.215 678.045,514.548 676.5,515.5C 672.881,520.433 669.548,525.433 666.5,530.5C 665.962,532.117 665.629,533.784 665.5,535.5C 663.284,534.956 661.284,533.956 659.5,532.5C 658.833,529.833 658.167,527.167 657.5,524.5C 658.117,524.389 658.617,524.056 659,523.5C 659.241,520.711 659.908,518.044 661,515.5C 663.273,519.655 664.439,519.322 664.5,514.5C 665.822,514.33 666.989,514.663 668,515.5C 668.333,514.5 668.667,513.5 669,512.5C 669.333,512.833 669.667,513.167 670,513.5C 671.6,512.134 673.433,511.134 675.5,510.5C 677.363,509.274 678.363,507.941 678.5,506.5C 680.529,507.629 680.863,507.129 679.5,505C 685.189,503.718 686.355,500.885 683,496.5C 682.667,496.833 682.333,497.167 682,497.5C 680.491,496.91 678.991,496.244 677.5,495.5C 678.853,494.476 679.52,493.143 679.5,491.5C 680.833,491.5 682.167,491.5 683.5,491.5C 683.302,489.425 683.135,487.425 683,485.5C 684.813,485.253 686.647,484.92 688.5,484.5C 686.007,482.752 686.173,481.086 689,479.5C 690.523,481.62 692.356,481.953 694.5,480.5C 695.228,478.807 696.228,477.307 697.5,476C 697.5,474.333 697.5,472.667 697.5,471C 699,470.833 700.5,470.667 702,470.5C 705.034,471.174 707.7,471.841 710,472.5C 711.586,471.624 713.086,470.624 714.5,469.5C 713.522,466.004 714.356,465.67 717,468.5C 718.075,466.17 719.575,464.837 721.5,464.5C 721.296,465.529 721.796,466.529 723,467.5C 726.476,463.494 730.809,462.827 736,465.5C 737.168,466.509 738.335,467.509 739.5,468.5C 740.15,466.816 741.15,465.483 742.5,464.5 Z"/></g>
<g><path style="opacity:1" fill="#317171" d="M 442.5,457.5 C 443.256,459.763 443.423,462.097 443,464.5C 443.333,464.167 443.667,463.833 444,463.5C 445.049,465.107 446.549,465.773 448.5,465.5C 448.351,464.448 448.517,463.448 449,462.5C 449.824,463.808 450.324,465.308 450.5,467C 451.993,468.368 453.493,468.535 455,467.5C 456.645,469.388 458.478,471.055 460.5,472.5C 460.911,471.738 461.077,470.738 461,469.5C 462.714,470.925 464.047,470.592 465,468.5C 467.448,470.631 469.948,472.631 472.5,474.5C 473.689,474.244 474.856,473.911 476,473.5C 477.706,475.276 479.539,476.942 481.5,478.5C 482.62,477.167 483.953,476.667 485.5,477C 484.521,478.779 484.854,480.445 486.5,482C 485.833,483.333 485.167,484.667 484.5,486C 488.38,487.218 492.047,488.885 495.5,491C 495.324,492.692 494.824,494.192 494,495.5C 493.465,493.729 492.631,493.396 491.5,494.5C 492,495.5 492.5,496.5 493,497.5C 494.525,497.888 496.192,497.888 498,497.5C 501.032,498.092 503.698,499.426 506,501.5C 508.369,499.713 510.869,499.379 513.5,500.5C 515.136,499.696 516.636,498.696 518,497.5C 518.483,498.448 518.649,499.448 518.5,500.5C 518.371,502.216 518.038,503.883 517.5,505.5C 515.965,509.437 514.632,513.437 513.5,517.5C 512.768,516.192 511.934,514.858 511,513.5C 510.692,514.308 510.192,514.975 509.5,515.5C 507.232,514.456 504.899,514.289 502.5,515C 503.337,516.011 503.67,517.178 503.5,518.5C 502.178,518.33 501.011,518.663 500,519.5C 496.772,518.113 493.939,516.113 491.5,513.5C 490.614,514.325 490.281,515.325 490.5,516.5C 488.833,516.5 487.167,516.5 485.5,516.5C 485.785,514.712 485.452,513.045 484.5,511.5C 483.575,512.641 482.741,512.641 482,511.5C 477.903,515.881 476.403,515.215 477.5,509.5C 478.736,508.754 480.07,508.421 481.5,508.5C 481.719,507.325 481.386,506.325 480.5,505.5C 478.131,506.901 475.964,508.568 474,510.5C 473.309,508.109 472.309,508.109 471,510.5C 469.887,509.695 468.721,509.028 467.5,508.5C 469.042,507.837 470.709,507.17 472.5,506.5C 472.228,504.466 471.895,502.466 471.5,500.5C 471.919,499.328 472.585,498.328 473.5,497.5C 471.854,496.608 469.854,496.608 467.5,497.5C 467.167,498.333 466.833,499.167 466.5,500C 467.085,502.134 468.418,503.634 470.5,504.5C 470.167,504.833 469.833,505.167 469.5,505.5C 467.139,504.979 464.806,504.646 462.5,504.5C 461.585,503.672 460.919,502.672 460.5,501.5C 463.132,501.913 464.799,500.58 465.5,497.5C 465.167,496.833 464.833,496.167 464.5,495.5C 464.467,496.989 463.967,498.322 463,499.5C 462.667,498.833 462.333,498.167 462,497.5C 462.158,494.821 462.658,492.154 463.5,489.5C 461.799,489.034 460.299,489.034 459,489.5C 457.787,485.451 455.287,482.451 451.5,480.5C 450.123,483.695 448.123,484.195 445.5,482C 446.167,480.667 447.167,479.667 448.5,479C 444.862,477.495 441.195,477.162 437.5,478C 438.602,475.599 438.769,473.099 438,470.5C 437.667,471.167 437.333,471.833 437,472.5C 435.989,471.663 434.822,471.33 433.5,471.5C 433.65,475.161 432.15,476.161 429,474.5C 428.245,471.503 429.078,469.003 431.5,467C 430.663,465.989 430.33,464.822 430.5,463.5C 429.167,463.5 427.833,463.5 426.5,463.5C 427.167,462.833 427.833,462.167 428.5,461.5C 433.219,460.372 437.886,459.038 442.5,457.5 Z"/></g>
<g><path style="opacity:1" fill="#2d6767" d="M 426.5,463.5 C 427.833,463.5 429.167,463.5 430.5,463.5C 430.33,464.822 430.663,465.989 431.5,467C 429.078,469.003 428.245,471.503 429,474.5C 432.15,476.161 433.65,475.161 433.5,471.5C 434.822,471.33 435.989,471.663 437,472.5C 437.333,471.833 437.667,471.167 438,470.5C 438.769,473.099 438.602,475.599 437.5,478C 441.195,477.162 444.862,477.495 448.5,479C 447.167,479.667 446.167,480.667 445.5,482C 448.123,484.195 450.123,483.695 451.5,480.5C 455.287,482.451 457.787,485.451 459,489.5C 460.299,489.034 461.799,489.034 463.5,489.5C 462.658,492.154 462.158,494.821 462,497.5C 462.333,498.167 462.667,498.833 463,499.5C 463.967,498.322 464.467,496.989 464.5,495.5C 464.833,496.167 465.167,496.833 465.5,497.5C 464.799,500.58 463.132,501.913 460.5,501.5C 460.919,502.672 461.585,503.672 462.5,504.5C 464.806,504.646 467.139,504.979 469.5,505.5C 469.833,505.167 470.167,504.833 470.5,504.5C 468.418,503.634 467.085,502.134 466.5,500C 466.833,499.167 467.167,498.333 467.5,497.5C 469.854,496.608 471.854,496.608 473.5,497.5C 472.585,498.328 471.919,499.328 471.5,500.5C 471.895,502.466 472.228,504.466 472.5,506.5C 470.709,507.17 469.042,507.837 467.5,508.5C 465.932,508.641 464.265,508.974 462.5,509.5C 462.704,508.471 462.204,507.471 461,506.5C 460.667,506.833 460.333,507.167 460,507.5C 458.416,506.139 456.582,505.472 454.5,505.5C 454.297,503.61 454.963,502.11 456.5,501C 453.763,498.73 450.763,498.23 447.5,499.5C 446.167,498.5 444.833,497.5 443.5,496.5C 444.167,495.833 444.833,495.167 445.5,494.5C 443.531,492.579 442.031,492.579 441,494.5C 440.339,490.993 438.505,488.326 435.5,486.5C 434.614,487.325 434.281,488.325 434.5,489.5C 438.172,490.045 437.838,490.378 433.5,490.5C 433.649,491.552 433.483,492.552 433,493.5C 431.382,491.766 429.882,489.933 428.5,488C 428.82,486.347 429.82,485.347 431.5,485C 428.332,484.418 427.999,483.418 430.5,482C 429.566,477.749 427.9,477.416 425.5,481C 426.167,481.333 426.833,481.667 427.5,482C 419.816,483.309 418.149,481.142 422.5,475.5C 421.336,470.775 422.669,469.775 426.5,472.5C 426.833,472.167 427.167,471.833 427.5,471.5C 425.926,470.016 424.593,468.349 423.5,466.5C 424.274,465.289 425.107,465.289 426,466.5C 427.728,465.648 427.895,464.648 426.5,463.5 Z"/></g>
<g><path style="opacity:0.004" fill="#301a0a" d="M 376.5,479.5 C 375.833,478.167 375.833,478.167 376.5,479.5 Z"/></g>
<g><path style="opacity:1" fill="#2c6463" d="M 756.5,470.5 C 760.922,472.406 765.256,474.572 769.5,477C 771.834,478.842 772.168,481.009 770.5,483.5C 766.062,489.375 762.395,495.708 759.5,502.5C 758.178,502.33 757.011,502.663 756,503.5C 754.887,502.695 753.721,502.028 752.5,501.5C 751.115,497.596 749.615,497.596 748,501.5C 745.664,500.708 745.164,499.375 746.5,497.5C 738.386,489.551 737.386,490.051 743.5,499C 742.354,499.645 741.354,500.478 740.5,501.5C 739.784,499.518 738.617,497.851 737,496.5C 736.667,496.833 736.333,497.167 736,497.5C 735.481,496.484 734.647,495.818 733.5,495.5C 732.137,496.198 730.971,496.198 730,495.5C 729.383,496.449 729.549,497.282 730.5,498C 729.167,498.667 727.833,499.333 726.5,500C 729.063,500.763 729.063,501.263 726.5,501.5C 724.359,500.192 722.359,498.692 720.5,497C 720.833,496.667 721.167,496.333 721.5,496C 719.576,494.733 717.91,494.733 716.5,496C 718.628,497.743 719.461,499.909 719,502.5C 717.553,500.597 715.886,498.93 714,497.5C 713.5,498 713,498.5 712.5,499C 713.685,500.353 715.019,501.52 716.5,502.5C 715.557,504.47 716.224,505.97 718.5,507C 718.167,507.333 717.833,507.667 717.5,508C 720.19,510.357 722.523,513.023 724.5,516C 724.167,516.5 723.833,517 723.5,517.5C 722.333,515.833 721.167,514.167 720,512.5C 717.863,514.376 715.863,516.376 714,518.5C 713.667,517.833 713.333,517.167 713,516.5C 712.333,517.833 711.667,517.833 711,516.5C 710.517,515.552 710.351,514.552 710.5,513.5C 711.675,513.719 712.675,513.386 713.5,512.5C 712.311,511.571 710.978,511.238 709.5,511.5C 709.662,513.527 709.495,515.527 709,517.5C 708.282,516.549 707.449,516.383 706.5,517C 707.451,517.718 707.617,518.551 707,519.5C 705.601,518.773 704.101,518.273 702.5,518C 701.874,517.25 701.374,516.416 701,515.5C 700.667,517.5 700.333,519.5 700,521.5C 699.085,520.672 698.419,519.672 698,518.5C 695.667,521.167 693.333,521.167 691,518.5C 689.116,519.977 687.116,521.31 685,522.5C 684.751,521.376 684.251,520.376 683.5,519.5C 681.489,520.253 679.489,521.753 677.5,524C 677.833,524.333 678.167,524.667 678.5,525C 675.894,525.45 674.561,526.95 674.5,529.5C 673.5,529.5 672.5,529.5 671.5,529.5C 671.649,530.552 671.483,531.552 671,532.5C 669.53,531.733 668.03,531.067 666.5,530.5C 669.548,525.433 672.881,520.433 676.5,515.5C 678.045,514.548 679.712,514.215 681.5,514.5C 681.5,513.5 681.5,512.5 681.5,511.5C 684.647,511.263 687.647,510.43 690.5,509C 692.155,506.502 694.488,505.002 697.5,504.5C 694.433,503.527 693.433,501.694 694.5,499C 693.5,498.167 692.5,497.333 691.5,496.5C 692.183,493.539 693.016,493.205 694,495.5C 694.333,493.5 694.667,491.5 695,489.5C 698.312,490.455 698.312,490.121 695,488.5C 693.31,489.149 691.477,489.149 689.5,488.5C 689.238,487.022 689.571,485.689 690.5,484.5C 693.504,483.327 695.671,481.327 697,478.5C 697.333,479.167 697.667,479.833 698,480.5C 699.707,479.862 701.54,479.862 703.5,480.5C 703.64,478.876 702.973,477.71 701.5,477C 703.193,474.048 705.026,473.882 707,476.5C 708.049,474.893 709.549,474.227 711.5,474.5C 711.88,481.768 714.547,482.934 719.5,478C 720.784,477.316 721.951,477.483 723,478.5C 723.333,477.833 723.667,477.167 724,476.5C 726.173,479.277 726.673,479.11 725.5,476C 726.253,474.513 727.086,474.346 728,475.5C 729.087,473.068 729.587,473.402 729.5,476.5C 731.429,476.231 733.095,476.731 734.5,478C 733.898,479.809 733.898,481.976 734.5,484.5C 735.935,483.176 736.935,481.51 737.5,479.5C 738.5,480.167 739.5,480.833 740.5,481.5C 742.102,480.45 742.935,481.117 743,483.5C 744.682,482.135 744.849,480.635 743.5,479C 744,478.833 744.5,478.667 745,478.5C 746.29,480.354 747.79,480.687 749.5,479.5C 750.604,481.389 751.937,483.055 753.5,484.5C 753.74,479.201 755.24,478.535 758,482.5C 758.333,481.167 758.667,479.833 759,478.5C 759.853,480.935 760.853,483.269 762,485.5C 763.824,484.251 763.657,483.085 761.5,482C 761.419,480.533 761.753,478.866 762.5,477C 760.69,474.609 758.69,472.442 756.5,470.5 Z"/></g>
<g><path style="opacity:1" fill="#3b8383" d="M 454.5,452.5 C 452.68,454.448 450.346,455.448 447.5,455.5C 447.5,456.833 447.5,458.167 447.5,459.5C 449.484,459.383 451.15,460.05 452.5,461.5C 451.41,462.609 451.41,463.609 452.5,464.5C 454.059,463.926 455.559,463.26 457,462.5C 460.539,463.035 463.705,464.368 466.5,466.5C 468.803,465.471 471.136,465.471 473.5,466.5C 473.691,460.394 475.358,460.228 478.5,466C 477.833,466.333 477.167,466.667 476.5,467C 479.693,469.129 483.027,469.629 486.5,468.5C 485.669,473.145 486.836,474.145 490,471.5C 491.577,471.528 493.244,472.195 495,473.5C 496.711,473.561 498.044,472.894 499,471.5C 499.419,472.672 500.085,473.672 501,474.5C 502.11,472.963 503.61,472.297 505.5,472.5C 505.5,471.5 505.5,470.5 505.5,469.5C 509.558,470.218 512.391,472.551 514,476.5C 516.718,475.987 519.551,475.987 522.5,476.5C 522.328,477.492 522.662,478.158 523.5,478.5C 522.836,486.168 521.169,493.501 518.5,500.5C 518.649,499.448 518.483,498.448 518,497.5C 516.636,498.696 515.136,499.696 513.5,500.5C 510.869,499.379 508.369,499.713 506,501.5C 503.698,499.426 501.032,498.092 498,497.5C 496.192,497.888 494.525,497.888 493,497.5C 492.5,496.5 492,495.5 491.5,494.5C 492.631,493.396 493.465,493.729 494,495.5C 494.824,494.192 495.324,492.692 495.5,491C 492.047,488.885 488.38,487.218 484.5,486C 485.167,484.667 485.833,483.333 486.5,482C 484.854,480.445 484.521,478.779 485.5,477C 483.953,476.667 482.62,477.167 481.5,478.5C 479.539,476.942 477.706,475.276 476,473.5C 474.856,473.911 473.689,474.244 472.5,474.5C 469.948,472.631 467.448,470.631 465,468.5C 464.047,470.592 462.714,470.925 461,469.5C 461.077,470.738 460.911,471.738 460.5,472.5C 458.478,471.055 456.645,469.388 455,467.5C 453.493,468.535 451.993,468.368 450.5,467C 450.324,465.308 449.824,463.808 449,462.5C 448.517,463.448 448.351,464.448 448.5,465.5C 446.549,465.773 445.049,465.107 444,463.5C 443.667,463.833 443.333,464.167 443,464.5C 443.423,462.097 443.256,459.763 442.5,457.5C 446.064,455.081 450.064,453.414 454.5,452.5 Z"/></g>
<g><path style="opacity:0.004" fill="#301a0a" d="M 805.5,484.5 C 806.833,485.167 806.833,485.167 805.5,484.5 Z"/></g>
<g><path style="opacity:0.004" fill="#301a0a" d="M 807.5,485.5 C 808.833,486.167 808.833,486.167 807.5,485.5 Z"/></g>
<g><path style="opacity:0.004" fill="#301a0a" d="M 357.5,487.5 C 358.833,488.167 358.833,488.167 357.5,487.5 Z"/></g>
<g><path style="opacity:1" fill="#3a7f7e" d="M 724.5,456.5 C 727.844,457.508 731.177,458.508 734.5,459.5C 737.204,461.171 739.871,462.837 742.5,464.5C 741.15,465.483 740.15,466.816 739.5,468.5C 738.335,467.509 737.168,466.509 736,465.5C 730.809,462.827 726.476,463.494 723,467.5C 721.796,466.529 721.296,465.529 721.5,464.5C 719.575,464.837 718.075,466.17 717,468.5C 714.356,465.67 713.522,466.004 714.5,469.5C 713.086,470.624 711.586,471.624 710,472.5C 707.7,471.841 705.034,471.174 702,470.5C 700.5,470.667 699,470.833 697.5,471C 697.5,472.667 697.5,474.333 697.5,476C 696.228,477.307 695.228,478.807 694.5,480.5C 692.356,481.953 690.523,481.62 689,479.5C 686.173,481.086 686.007,482.752 688.5,484.5C 686.647,484.92 684.813,485.253 683,485.5C 683.135,487.425 683.302,489.425 683.5,491.5C 682.167,491.5 680.833,491.5 679.5,491.5C 679.52,493.143 678.853,494.476 677.5,495.5C 678.991,496.244 680.491,496.91 682,497.5C 682.333,497.167 682.667,496.833 683,496.5C 686.355,500.885 685.189,503.718 679.5,505C 680.863,507.129 680.529,507.629 678.5,506.5C 678.363,507.941 677.363,509.274 675.5,510.5C 673.433,511.134 671.6,512.134 670,513.5C 669.667,513.167 669.333,512.833 669,512.5C 668.667,513.5 668.333,514.5 668,515.5C 666.989,514.663 665.822,514.33 664.5,514.5C 664.439,519.322 663.273,519.655 661,515.5C 659.908,518.044 659.241,520.711 659,523.5C 658.617,524.056 658.117,524.389 657.5,524.5C 656.166,519.499 654.833,514.499 653.5,509.5C 655.96,508.117 657.626,506.117 658.5,503.5C 655.659,496.208 657.659,491.875 664.5,490.5C 663.833,489.833 663.167,489.167 662.5,488.5C 663.628,487.738 664.795,487.071 666,486.5C 666.273,484.671 667.107,483.171 668.5,482C 666.833,481 665.167,480 663.5,479C 666.035,478.383 668.368,478.883 670.5,480.5C 671.318,478.892 671.985,477.225 672.5,475.5C 674.365,474.334 676.032,474.667 677.5,476.5C 678.386,475.675 678.719,474.675 678.5,473.5C 679.5,473.5 680.5,473.5 681.5,473.5C 681.612,469.661 682.279,469.661 683.5,473.5C 686.909,474.482 689.242,473.149 690.5,469.5C 688.797,464.965 689.797,464.299 693.5,467.5C 694.5,466.833 695.5,466.167 696.5,465.5C 696.669,466.397 697.002,467.397 697.5,468.5C 701.024,465.96 701.357,462.96 698.5,459.5C 699,459.167 699.5,458.833 700,458.5C 702.753,459.73 705.587,460.73 708.5,461.5C 712.211,458.016 716.211,457.349 720.5,459.5C 722.417,459.246 723.751,458.246 724.5,456.5 Z"/></g>
<g><path style="opacity:0.004" fill="#301a0a" d="M 810.5,487.5 C 811.833,488.167 811.833,488.167 810.5,487.5 Z"/></g>
<g><path style="opacity:1" fill="#458e8c" d="M 707.5,450.5 C 713.462,451.709 719.129,453.709 724.5,456.5C 723.751,458.246 722.417,459.246 720.5,459.5C 716.211,457.349 712.211,458.016 708.5,461.5C 705.587,460.73 702.753,459.73 700,458.5C 699.5,458.833 699,459.167 698.5,459.5C 701.357,462.96 701.024,465.96 697.5,468.5C 697.002,467.397 696.669,466.397 696.5,465.5C 695.5,466.167 694.5,466.833 693.5,467.5C 689.797,464.299 688.797,464.965 690.5,469.5C 689.242,473.149 686.909,474.482 683.5,473.5C 682.279,469.661 681.612,469.661 681.5,473.5C 680.5,473.5 679.5,473.5 678.5,473.5C 678.719,474.675 678.386,475.675 677.5,476.5C 676.032,474.667 674.365,474.334 672.5,475.5C 671.985,477.225 671.318,478.892 670.5,480.5C 668.368,478.883 666.035,478.383 663.5,479C 665.167,480 666.833,481 668.5,482C 667.107,483.171 666.273,484.671 666,486.5C 664.795,487.071 663.628,487.738 662.5,488.5C 663.167,489.167 663.833,489.833 664.5,490.5C 657.659,491.875 655.659,496.208 658.5,503.5C 657.626,506.117 655.96,508.117 653.5,509.5C 651.833,505.5 650.167,501.5 648.5,497.5C 648.324,494.273 647.657,491.273 646.5,488.5C 645.342,479.528 644.342,470.528 643.5,461.5C 644.314,463.631 644.814,465.964 645,468.5C 650.304,467.258 650.804,468.425 646.5,472C 646.833,472.167 647.167,472.333 647.5,472.5C 651.981,470.365 656.647,469.031 661.5,468.5C 661.52,462.247 663.02,461.914 666,467.5C 666.333,466.5 666.667,465.5 667,464.5C 667.394,466.955 668.56,468.955 670.5,470.5C 673.044,469.265 673.044,468.099 670.5,467C 671.629,464.832 673.129,464.332 675,465.5C 676.204,464.141 677.704,463.141 679.5,462.5C 680.711,461.28 680.711,460.113 679.5,459C 680.549,458.508 681.549,458.674 682.5,459.5C 683.517,456.972 684.684,456.972 686,459.5C 686.14,456.957 686.806,454.623 688,452.5C 688.483,453.448 688.649,454.448 688.5,455.5C 689.822,455.67 690.989,455.337 692,454.5C 693.313,455.573 694.813,456.24 696.5,456.5C 699.896,455.169 703.229,453.835 706.5,452.5C 707.731,453.651 707.731,454.817 706.5,456C 707.448,456.483 708.448,456.649 709.5,456.5C 709.741,454.114 709.075,452.114 707.5,450.5 Z"/></g>
<g><path style="opacity:1" fill="#2b6261" d="M 426.5,463.5 C 427.895,464.648 427.728,465.648 426,466.5C 425.107,465.289 424.274,465.289 423.5,466.5C 424.593,468.349 425.926,470.016 427.5,471.5C 427.167,471.833 426.833,472.167 426.5,472.5C 422.669,469.775 421.336,470.775 422.5,475.5C 418.149,481.142 419.816,483.309 427.5,482C 426.833,481.667 426.167,481.333 425.5,481C 427.9,477.416 429.566,477.749 430.5,482C 427.999,483.418 428.332,484.418 431.5,485C 429.82,485.347 428.82,486.347 428.5,488C 429.882,489.933 431.382,491.766 433,493.5C 433.483,492.552 433.649,491.552 433.5,490.5C 437.838,490.378 438.172,490.045 434.5,489.5C 434.281,488.325 434.614,487.325 435.5,486.5C 438.505,488.326 440.339,490.993 441,494.5C 442.031,492.579 443.531,492.579 445.5,494.5C 444.833,495.167 444.167,495.833 443.5,496.5C 444.833,497.5 446.167,498.5 447.5,499.5C 450.763,498.23 453.763,498.73 456.5,501C 454.963,502.11 454.297,503.61 454.5,505.5C 456.582,505.472 458.416,506.139 460,507.5C 460.333,507.167 460.667,506.833 461,506.5C 462.204,507.471 462.704,508.471 462.5,509.5C 464.265,508.974 465.932,508.641 467.5,508.5C 468.721,509.028 469.887,509.695 471,510.5C 472.309,508.109 473.309,508.109 474,510.5C 475.964,508.568 478.131,506.901 480.5,505.5C 481.386,506.325 481.719,507.325 481.5,508.5C 480.07,508.421 478.736,508.754 477.5,509.5C 476.403,515.215 477.903,515.881 482,511.5C 482.741,512.641 483.575,512.641 484.5,511.5C 485.452,513.045 485.785,514.712 485.5,516.5C 487.167,516.5 488.833,516.5 490.5,516.5C 490.281,515.325 490.614,514.325 491.5,513.5C 493.939,516.113 496.772,518.113 500,519.5C 501.011,518.663 502.178,518.33 503.5,518.5C 503.67,517.178 503.337,516.011 502.5,515C 504.899,514.289 507.232,514.456 509.5,515.5C 510.192,514.975 510.692,514.308 511,513.5C 511.934,514.858 512.768,516.192 513.5,517.5C 512.766,518.708 512.433,520.041 512.5,521.5C 510.876,521.36 509.71,522.027 509,523.5C 508.667,523.167 508.333,522.833 508,522.5C 507.667,523.5 507.333,524.5 507,525.5C 506.385,523.884 505.385,522.551 504,521.5C 501.939,523.563 499.606,525.23 497,526.5C 496.692,525.692 496.192,525.025 495.5,524.5C 494.85,526.184 493.85,527.517 492.5,528.5C 492.414,527.504 492.748,526.671 493.5,526C 492.167,525.667 490.833,525.333 489.5,525C 489.018,523.992 488.852,522.825 489,521.5C 487.4,520.134 485.567,519.134 483.5,518.5C 483.709,517.914 484.043,517.414 484.5,517C 482.837,516.735 481.337,517.235 480,518.5C 478.657,517.786 477.324,518.12 476,519.5C 474.812,518.437 474.312,517.103 474.5,515.5C 472.027,515.264 470.36,513.931 469.5,511.5C 467.161,512.418 465.661,514.084 465,516.5C 463.768,513.245 461.768,512.912 459,515.5C 457.812,514.437 457.312,513.103 457.5,511.5C 456.448,511.649 455.448,511.483 454.5,511C 455.336,509.757 455.003,508.59 453.5,507.5C 452.269,508.651 452.269,509.817 453.5,511C 450.766,513.068 449.766,512.568 450.5,509.5C 448.343,508.21 446.01,507.376 443.5,507C 443.833,506.667 444.167,506.333 444.5,506C 441.283,504.146 438.783,504.979 437,508.5C 435.333,507.833 433.667,507.167 432,506.5C 431.667,506.833 431.333,507.167 431,507.5C 430.167,505.833 429.333,504.167 428.5,502.5C 429.035,500.729 429.869,500.396 431,501.5C 432.558,499.232 434.724,498.066 437.5,498C 435.699,497.683 435.366,497.016 436.5,496C 435.975,495.308 435.308,494.808 434.5,494.5C 433.646,495.948 432.646,497.281 431.5,498.5C 430.224,499.645 428.891,499.645 427.5,498.5C 425.461,499.277 424.795,500.443 425.5,502C 424.056,502.781 422.723,502.614 421.5,501.5C 423.631,499.108 423.298,496.775 420.5,494.5C 423.092,492.145 422.925,490.145 420,488.5C 418.706,489.854 418.54,491.188 419.5,492.5C 418.462,494.764 416.962,495.098 415,493.5C 414.055,493.905 413.388,494.572 413,495.5C 412.761,493.239 412.594,491.239 412.5,489.5C 411.41,490.727 410.076,491.56 408.5,492C 409.167,492.667 409.833,493.333 410.5,494C 408.937,494.759 407.937,495.926 407.5,497.5C 405.29,493.428 402.79,489.428 400,485.5C 398.864,483.257 398.03,480.924 397.5,478.5C 406.691,472.737 416.358,467.737 426.5,463.5 Z"/></g>
<g><path style="opacity:1" fill="#6c4713" d="M 549.5,448.5 C 548.826,465.275 548.159,481.942 547.5,498.5C 545.756,508.367 543.423,518.2 540.5,528C 540.833,528.333 541.167,528.667 541.5,529C 539.631,534.135 537.298,538.968 534.5,543.5C 531.825,541.624 532.158,540.124 535.5,539C 534.833,538.333 534.167,537.667 533.5,537C 534.738,537.077 535.738,536.911 536.5,536.5C 535.294,534.851 533.961,533.351 532.5,532C 534.621,529.637 536.955,527.47 539.5,525.5C 538.975,524.808 538.308,524.308 537.5,524C 537.833,523.667 538.167,523.333 538.5,523C 534.544,521.886 534.544,521.053 538.5,520.5C 538.48,518.857 539.147,517.524 540.5,516.5C 538.448,513.597 537.114,513.93 536.5,517.5C 535.252,516.96 534.085,516.293 533,515.5C 531.345,517.747 531.012,520.08 532,522.5C 531.586,522.043 531.086,521.709 530.5,521.5C 529.833,522.5 529.167,523.5 528.5,524.5C 527.735,523.388 526.735,522.721 525.5,522.5C 523.972,522.483 523.472,521.816 524,520.5C 525.084,519.335 525.917,518.002 526.5,516.5C 527.325,515.614 528.325,515.281 529.5,515.5C 529.16,512.856 529.827,510.523 531.5,508.5C 527.486,507.674 525.653,505.341 526,501.5C 526.308,502.308 526.808,502.975 527.5,503.5C 528.5,502.5 529.5,501.5 530.5,500.5C 529.115,499.449 528.115,498.116 527.5,496.5C 529.283,493.327 530.783,489.994 532,486.5C 533.205,485.929 534.372,485.262 535.5,484.5C 533.376,483.542 531.376,482.375 529.5,481C 530.025,480.308 530.692,479.808 531.5,479.5C 532.914,480.624 534.414,481.624 536,482.5C 537.678,481.318 537.512,480.152 535.5,479C 535.799,473.687 538.465,470.187 543.5,468.5C 542.471,468.704 541.471,468.204 540.5,467C 542.81,466.503 545.143,466.337 547.5,466.5C 547.5,465.5 547.5,464.5 547.5,463.5C 545.833,463.5 544.167,463.5 542.5,463.5C 542.863,461.223 543.863,460.556 545.5,461.5C 546.541,459.009 547.374,459.009 548,461.5C 548.175,456.981 548.675,452.647 549.5,448.5 Z"/></g>
<g><path style="opacity:1" fill="#39200e" d="M 378.5,478.5 C 379.833,479.167 380.833,480.167 381.5,481.5C 383.147,494.421 386.814,506.754 392.5,518.5C 388.905,519.697 385.239,520.697 381.5,521.5C 380.947,519.061 380.947,516.727 381.5,514.5C 380.833,513.167 380.167,513.167 379.5,514.5C 378.754,515.736 378.421,517.07 378.5,518.5C 375.405,518.374 373.572,516.707 373,513.5C 370.696,515.431 368.862,517.764 367.5,520.5C 366.777,518.836 367.11,517.169 368.5,515.5C 366.989,513.162 367.323,512.496 369.5,513.5C 370.242,511.65 371.242,510.984 372.5,511.5C 370.516,510.294 368.516,510.294 366.5,511.5C 362.683,509.963 362.017,507.796 364.5,505C 363.451,504.508 362.451,504.674 361.5,505.5C 360.184,502.972 359.017,502.972 358,505.5C 357.626,504.584 357.126,503.75 356.5,503C 358.061,502.682 359.228,501.849 360,500.5C 363.419,503.028 365.586,502.528 366.5,499C 364.068,497.913 364.402,497.413 367.5,497.5C 367.281,498.675 367.614,499.675 368.5,500.5C 369.429,499.311 369.762,497.978 369.5,496.5C 370.552,496.649 371.552,496.483 372.5,496C 371.151,495.228 370.318,494.061 370,492.5C 369.71,494.044 369.044,495.377 368,496.5C 367.667,495.833 367.333,495.167 367,494.5C 365.817,495.731 364.651,495.731 363.5,494.5C 367.371,491.658 367.371,488.991 363.5,486.5C 367.527,483.602 371.86,481.268 376.5,479.5C 377.492,479.672 378.158,479.338 378.5,478.5 Z"/></g>
<g><path style="opacity:1" fill="#265b5a" d="M 752.5,501.5 C 752.22,504.272 752.887,506.772 754.5,509C 752.773,508.24 751.106,507.073 749.5,505.5C 748.833,505.667 748.167,505.833 747.5,506C 748.308,506.308 748.975,506.808 749.5,507.5C 748.478,508.354 747.645,509.354 747,510.5C 745.815,508.441 744.648,508.274 743.5,510C 743.988,511.584 744.988,512.751 746.5,513.5C 745.349,514.731 744.183,514.731 743,513.5C 742.667,514.5 742.333,515.5 742,516.5C 740.938,515.101 739.605,514.101 738,513.5C 735.822,514.893 734.822,516.56 735,518.5C 732.099,517.564 731.932,516.397 734.5,515C 733.584,514.626 732.75,514.126 732,513.5C 731.691,514.766 731.191,515.933 730.5,517C 731.654,517.914 731.487,518.747 730,519.5C 729.586,519.043 729.086,518.709 728.5,518.5C 727.573,520.113 726.739,521.779 726,523.5C 725.779,520.057 724.779,519.724 723,522.5C 722.333,523.5 722.333,524.5 723,525.5C 724.666,524.66 724.833,525.16 723.5,527C 722.584,527.374 721.75,527.874 721,528.5C 719.983,525.972 718.816,525.972 717.5,528.5C 716.719,527.271 716.219,525.938 716,524.5C 715.676,526.569 714.842,526.902 713.5,525.5C 712.692,525.808 712.025,526.308 711.5,527C 714.644,527.919 715.644,529.752 714.5,532.5C 714.264,531.753 713.93,530.92 713.5,530C 711.892,529.342 710.725,529.842 710,531.5C 708.493,529.992 706.827,528.659 705,527.5C 703.984,528.634 703.317,528.301 703,526.5C 702.5,527.5 702,528.5 701.5,529.5C 705.933,533.8 705.266,535.3 699.5,534C 703.166,534.39 703.332,535.557 700,537.5C 698.525,533.847 696.025,532.18 692.5,532.5C 693.902,533.842 693.569,534.676 691.5,535C 692.381,536.793 691.714,537.46 689.5,537C 690.576,535.274 690.743,533.441 690,531.5C 689.586,531.957 689.086,532.291 688.5,532.5C 687.833,531.5 687.167,530.5 686.5,529.5C 684.556,530.189 682.556,530.689 680.5,531C 681.305,533.134 680.638,534.967 678.5,536.5C 677.5,536 676.5,535.5 675.5,535C 676.711,534.107 676.711,533.274 675.5,532.5C 672.61,534.469 669.61,534.802 666.5,533.5C 666.5,534.833 666.5,536.167 666.5,537.5C 669.226,537.264 671.559,538.097 673.5,540C 672.174,542.158 670.507,543.992 668.5,545.5C 668.306,543.737 668.306,541.903 668.5,540C 667.167,539.333 665.833,539.333 664.5,540C 665.566,541.159 665.233,541.992 663.5,542.5C 661.713,539.369 660.379,536.036 659.5,532.5C 661.284,533.956 663.284,534.956 665.5,535.5C 665.629,533.784 665.962,532.117 666.5,530.5C 668.03,531.067 669.53,531.733 671,532.5C 671.483,531.552 671.649,530.552 671.5,529.5C 672.5,529.5 673.5,529.5 674.5,529.5C 674.561,526.95 675.894,525.45 678.5,525C 678.167,524.667 677.833,524.333 677.5,524C 679.489,521.753 681.489,520.253 683.5,519.5C 684.251,520.376 684.751,521.376 685,522.5C 687.116,521.31 689.116,519.977 691,518.5C 693.333,521.167 695.667,521.167 698,518.5C 698.419,519.672 699.085,520.672 700,521.5C 700.333,519.5 700.667,517.5 701,515.5C 701.374,516.416 701.874,517.25 702.5,518C 704.101,518.273 705.601,518.773 707,519.5C 707.617,518.551 707.451,517.718 706.5,517C 707.449,516.383 708.282,516.549 709,517.5C 709.495,515.527 709.662,513.527 709.5,511.5C 710.978,511.238 712.311,511.571 713.5,512.5C 712.675,513.386 711.675,513.719 710.5,513.5C 710.351,514.552 710.517,515.552 711,516.5C 711.667,517.833 712.333,517.833 713,516.5C 713.333,517.167 713.667,517.833 714,518.5C 715.863,516.376 717.863,514.376 720,512.5C 721.167,514.167 722.333,515.833 723.5,517.5C 723.833,517 724.167,516.5 724.5,516C 722.523,513.023 720.19,510.357 717.5,508C 717.833,507.667 718.167,507.333 718.5,507C 716.224,505.97 715.557,504.47 716.5,502.5C 715.019,501.52 713.685,500.353 712.5,499C 713,498.5 713.5,498 714,497.5C 715.886,498.93 717.553,500.597 719,502.5C 719.461,499.909 718.628,497.743 716.5,496C 717.91,494.733 719.576,494.733 721.5,496C 721.167,496.333 720.833,496.667 720.5,497C 722.359,498.692 724.359,500.192 726.5,501.5C 729.063,501.263 729.063,500.763 726.5,500C 727.833,499.333 729.167,498.667 730.5,498C 729.549,497.282 729.383,496.449 730,495.5C 730.971,496.198 732.137,496.198 733.5,495.5C 734.647,495.818 735.481,496.484 736,497.5C 736.333,497.167 736.667,496.833 737,496.5C 738.617,497.851 739.784,499.518 740.5,501.5C 741.354,500.478 742.354,499.645 743.5,499C 737.386,490.051 738.386,489.551 746.5,497.5C 745.164,499.375 745.664,500.708 748,501.5C 749.615,497.596 751.115,497.596 752.5,501.5 Z"/></g>
<g><path style="opacity:1" fill="#381f0e" d="M 790.5,478.5 C 795.372,481.017 800.372,483.351 805.5,485.5C 805.833,486.167 806.167,486.833 806.5,487.5C 805.472,488.787 805.805,489.954 807.5,491C 806.991,492.169 806.158,493.002 805,493.5C 804.661,496.036 804.161,498.536 803.5,501C 805.126,502.819 807.126,504.152 809.5,505C 806.896,505.937 804.896,507.604 803.5,510C 805.145,511.032 805.478,512.199 804.5,513.5C 805.242,514.287 806.075,514.953 807,515.5C 807.935,512.898 809.602,510.898 812,509.5C 810.704,512.743 809.204,516.077 807.5,519.5C 808.348,521.283 809.681,521.783 811.5,521C 810.941,520.275 810.608,519.442 810.5,518.5C 810.733,517.068 811.4,516.568 812.5,517C 811.427,518.25 811.427,519.584 812.5,521C 812.241,522.261 811.574,523.261 810.5,524C 811.738,523.923 812.738,524.089 813.5,524.5C 813.192,525.308 812.692,525.975 812,526.5C 810.686,525.687 809.519,524.687 808.5,523.5C 807.305,525.121 806.305,526.787 805.5,528.5C 803.833,527.833 802.167,527.167 800.5,526.5C 800.027,525.094 799.027,524.427 797.5,524.5C 797.158,523.662 796.492,523.328 795.5,523.5C 789.107,522.487 782.773,520.821 776.5,518.5C 780.266,510.136 783.433,501.469 786,492.5C 786.936,488.886 787.436,485.22 787.5,481.5C 788.167,480.167 789.167,479.167 790.5,478.5 Z"/></g>
<g><path style="opacity:1" fill="#245352" d="M 752.5,501.5 C 753.721,502.028 754.887,502.695 756,503.5C 757.011,502.663 758.178,502.33 759.5,502.5C 756.278,508.721 752.278,514.388 747.5,519.5C 742.397,525.105 737.064,530.605 731.5,536C 721.439,543.025 711.106,549.525 700.5,555.5C 692.455,558.078 684.455,558.078 676.5,555.5C 671.12,553.075 666.786,549.408 663.5,544.5C 663.5,543.833 663.5,543.167 663.5,542.5C 665.233,541.992 665.566,541.159 664.5,540C 665.833,539.333 667.167,539.333 668.5,540C 668.306,541.903 668.306,543.737 668.5,545.5C 670.507,543.992 672.174,542.158 673.5,540C 671.559,538.097 669.226,537.264 666.5,537.5C 666.5,536.167 666.5,534.833 666.5,533.5C 669.61,534.802 672.61,534.469 675.5,532.5C 676.711,533.274 676.711,534.107 675.5,535C 676.5,535.5 677.5,536 678.5,536.5C 680.638,534.967 681.305,533.134 680.5,531C 682.556,530.689 684.556,530.189 686.5,529.5C 687.167,530.5 687.833,531.5 688.5,532.5C 689.086,532.291 689.586,531.957 690,531.5C 690.743,533.441 690.576,535.274 689.5,537C 691.714,537.46 692.381,536.793 691.5,535C 693.569,534.676 693.902,533.842 692.5,532.5C 696.025,532.18 698.525,533.847 700,537.5C 703.332,535.557 703.166,534.39 699.5,534C 705.266,535.3 705.933,533.8 701.5,529.5C 702,528.5 702.5,527.5 703,526.5C 703.317,528.301 703.984,528.634 705,527.5C 706.827,528.659 708.493,529.992 710,531.5C 710.725,529.842 711.892,529.342 713.5,530C 713.93,530.92 714.264,531.753 714.5,532.5C 715.644,529.752 714.644,527.919 711.5,527C 712.025,526.308 712.692,525.808 713.5,525.5C 714.842,526.902 715.676,526.569 716,524.5C 716.219,525.938 716.719,527.271 717.5,528.5C 718.816,525.972 719.983,525.972 721,528.5C 721.75,527.874 722.584,527.374 723.5,527C 724.833,525.16 724.666,524.66 723,525.5C 722.333,524.5 722.333,523.5 723,522.5C 724.779,519.724 725.779,520.057 726,523.5C 726.739,521.779 727.573,520.113 728.5,518.5C 729.086,518.709 729.586,519.043 730,519.5C 731.487,518.747 731.654,517.914 730.5,517C 731.191,515.933 731.691,514.766 732,513.5C 732.75,514.126 733.584,514.626 734.5,515C 731.932,516.397 732.099,517.564 735,518.5C 734.822,516.56 735.822,514.893 738,513.5C 739.605,514.101 740.938,515.101 742,516.5C 742.333,515.5 742.667,514.5 743,513.5C 744.183,514.731 745.349,514.731 746.5,513.5C 744.988,512.751 743.988,511.584 743.5,510C 744.648,508.274 745.815,508.441 747,510.5C 747.645,509.354 748.478,508.354 749.5,507.5C 748.975,506.808 748.308,506.308 747.5,506C 748.167,505.833 748.833,505.667 749.5,505.5C 751.106,507.073 752.773,508.24 754.5,509C 752.887,506.772 752.22,504.272 752.5,501.5 Z"/></g>
<g><path style="opacity:0.999" fill="#7d5821" d="M 397.5,478.5 C 398.03,480.924 398.864,483.257 400,485.5C 402.79,489.428 405.29,493.428 407.5,497.5C 409.058,502.284 411.391,506.618 414.5,510.5C 413.549,511.919 413.216,513.585 413.5,515.5C 414.675,515.281 415.675,515.614 416.5,516.5C 414.958,520.177 413.624,523.511 412.5,526.5C 411.571,525.311 411.238,523.978 411.5,522.5C 409.408,522.439 407.908,521.439 407,519.5C 406.626,520.416 406.126,521.25 405.5,522C 407.615,522.424 408.448,523.591 408,525.5C 406.542,524.253 405.042,524.253 403.5,525.5C 401.019,522.882 399.019,523.215 397.5,526.5C 395.819,523.797 394.153,521.131 392.5,518.5C 386.814,506.754 383.147,494.421 381.5,481.5C 382.222,481.918 382.722,482.584 383,483.5C 383.333,482.833 383.667,482.167 384,481.5C 385.881,482.354 387.714,482.021 389.5,480.5C 392.061,483.147 393.561,482.48 394,478.5C 395.46,482.494 396.627,482.494 397.5,478.5 Z"/></g>
<g><path style="opacity:1" fill="#275c5b" d="M 492.5,528.5 C 490.856,530.96 488.523,532.46 485.5,533C 487.938,534.182 490.271,535.515 492.5,537C 489.8,539.225 486.8,540.725 483.5,541.5C 484.44,537.537 484.607,533.537 484,529.5C 483.667,530.167 483.333,530.833 483,531.5C 478.822,528.408 478.989,526.408 483.5,525.5C 483.154,524.304 482.654,524.304 482,525.5C 481.506,523.866 481.34,522.199 481.5,520.5C 479.723,520.786 478.056,521.453 476.5,522.5C 474.627,522.518 474.294,522.018 475.5,521C 474.285,518.904 473.451,519.071 473,521.5C 472.085,520.672 471.419,519.672 471,518.5C 469.384,519.545 467.717,520.545 466,521.5C 464.415,520.624 463.415,519.291 463,517.5C 461.599,521.405 459.932,525.071 458,528.5C 457.362,527.391 456.862,526.225 456.5,525C 456.739,523.219 457.072,521.386 457.5,519.5C 456.277,518.386 454.944,518.219 453.5,519C 454.956,519.423 455.456,520.256 455,521.5C 453.594,520.332 452.428,520.665 451.5,522.5C 450.48,519.494 448.48,518.327 445.5,519C 448.237,523.597 447.571,524.264 443.5,521C 444.833,520.333 444.833,519.667 443.5,519C 438.441,518.48 437.441,516.313 440.5,512.5C 438.635,511.334 436.968,511.667 435.5,513.5C 436.52,515.432 436.687,517.432 436,519.5C 435.25,518.874 434.416,518.374 433.5,518C 434.196,516.512 433.862,515.012 432.5,513.5C 429.315,515.037 426.648,514.37 424.5,511.5C 424.563,512.66 424.23,513.994 423.5,515.5C 429.019,520.863 428.686,521.529 422.5,517.5C 421.893,517.624 421.56,517.957 421.5,518.5C 419.167,515.833 416.833,513.167 414.5,510.5C 411.391,506.618 409.058,502.284 407.5,497.5C 407.937,495.926 408.937,494.759 410.5,494C 409.833,493.333 409.167,492.667 408.5,492C 410.076,491.56 411.41,490.727 412.5,489.5C 412.594,491.239 412.761,493.239 413,495.5C 413.388,494.572 414.055,493.905 415,493.5C 416.962,495.098 418.462,494.764 419.5,492.5C 418.54,491.188 418.706,489.854 420,488.5C 422.925,490.145 423.092,492.145 420.5,494.5C 423.298,496.775 423.631,499.108 421.5,501.5C 422.723,502.614 424.056,502.781 425.5,502C 424.795,500.443 425.461,499.277 427.5,498.5C 428.891,499.645 430.224,499.645 431.5,498.5C 432.646,497.281 433.646,495.948 434.5,494.5C 435.308,494.808 435.975,495.308 436.5,496C 435.366,497.016 435.699,497.683 437.5,498C 434.724,498.066 432.558,499.232 431,501.5C 429.869,500.396 429.035,500.729 428.5,502.5C 429.333,504.167 430.167,505.833 431,507.5C 431.333,507.167 431.667,506.833 432,506.5C 433.667,507.167 435.333,507.833 437,508.5C 438.783,504.979 441.283,504.146 444.5,506C 444.167,506.333 443.833,506.667 443.5,507C 446.01,507.376 448.343,508.21 450.5,509.5C 449.766,512.568 450.766,513.068 453.5,511C 452.269,509.817 452.269,508.651 453.5,507.5C 455.003,508.59 455.336,509.757 454.5,511C 455.448,511.483 456.448,511.649 457.5,511.5C 457.312,513.103 457.812,514.437 459,515.5C 461.768,512.912 463.768,513.245 465,516.5C 465.661,514.084 467.161,512.418 469.5,511.5C 470.36,513.931 472.027,515.264 474.5,515.5C 474.312,517.103 474.812,518.437 476,519.5C 477.324,518.12 478.657,517.786 480,518.5C 481.337,517.235 482.837,516.735 484.5,517C 484.043,517.414 483.709,517.914 483.5,518.5C 485.567,519.134 487.4,520.134 489,521.5C 488.852,522.825 489.018,523.992 489.5,525C 490.833,525.333 492.167,525.667 493.5,526C 492.748,526.671 492.414,527.504 492.5,528.5 Z"/></g>
<g><path style="opacity:0.004" fill="#a27a39" d="M 623.5,515.5 C 624.833,516.167 624.833,516.167 623.5,515.5 Z"/></g>
<g><path style="opacity:0.924" fill="#2a170a" d="M 363.5,486.5 C 367.371,488.991 367.371,491.658 363.5,494.5C 364.651,495.731 365.817,495.731 367,494.5C 367.333,495.167 367.667,495.833 368,496.5C 369.044,495.377 369.71,494.044 370,492.5C 370.318,494.061 371.151,495.228 372.5,496C 371.552,496.483 370.552,496.649 369.5,496.5C 369.762,497.978 369.429,499.311 368.5,500.5C 367.614,499.675 367.281,498.675 367.5,497.5C 364.402,497.413 364.068,497.913 366.5,499C 365.586,502.528 363.419,503.028 360,500.5C 359.228,501.849 358.061,502.682 356.5,503C 357.126,503.75 357.626,504.584 358,505.5C 359.017,502.972 360.184,502.972 361.5,505.5C 362.451,504.674 363.451,504.508 364.5,505C 362.017,507.796 362.683,509.963 366.5,511.5C 368.516,510.294 370.516,510.294 372.5,511.5C 371.242,510.984 370.242,511.65 369.5,513.5C 367.323,512.496 366.989,513.162 368.5,515.5C 367.11,517.169 366.777,518.836 367.5,520.5C 368.862,517.764 370.696,515.431 373,513.5C 373.572,516.707 375.405,518.374 378.5,518.5C 378.421,517.07 378.754,515.736 379.5,514.5C 380.167,513.167 380.833,513.167 381.5,514.5C 380.947,516.727 380.947,519.061 381.5,521.5C 379.031,522.317 376.365,522.817 373.5,523C 371.416,523.697 369.749,524.864 368.5,526.5C 365.206,528.158 362.206,530.324 359.5,533C 356.783,534.033 354.949,533.2 354,530.5C 353.479,518.156 352.979,505.989 352.5,494C 355.819,491.006 359.486,488.506 363.5,486.5 Z"/></g>
<g><path style="opacity:1" fill="#261408" d="M 806.5,487.5 C 810.317,488.91 813.651,491.076 816.5,494C 816.024,497.003 816.024,500.17 816.5,503.5C 815.889,512.827 815.389,522.16 815,531.5C 813.534,533.325 811.701,533.825 809.5,533C 807.959,531.629 806.625,530.129 805.5,528.5C 806.305,526.787 807.305,525.121 808.5,523.5C 809.519,524.687 810.686,525.687 812,526.5C 812.692,525.975 813.192,525.308 813.5,524.5C 812.738,524.089 811.738,523.923 810.5,524C 811.574,523.261 812.241,522.261 812.5,521C 811.427,519.584 811.427,518.25 812.5,517C 811.4,516.568 810.733,517.068 810.5,518.5C 810.608,519.442 810.941,520.275 811.5,521C 809.681,521.783 808.348,521.283 807.5,519.5C 809.204,516.077 810.704,512.743 812,509.5C 809.602,510.898 807.935,512.898 807,515.5C 806.075,514.953 805.242,514.287 804.5,513.5C 805.478,512.199 805.145,511.032 803.5,510C 804.896,507.604 806.896,505.937 809.5,505C 807.126,504.152 805.126,502.819 803.5,501C 804.161,498.536 804.661,496.036 805,493.5C 806.158,493.002 806.991,492.169 807.5,491C 805.805,489.954 805.472,488.787 806.5,487.5 Z"/></g>
<g><path style="opacity:1" fill="#ab8044" d="M 512.5,521.5 C 512.433,520.041 512.766,518.708 513.5,517.5C 514.632,513.437 515.965,509.437 517.5,505.5C 518.688,504.316 519.855,504.316 521,505.5C 521.833,504.5 522.667,503.5 523.5,502.5C 523.833,502.833 524.167,503.167 524.5,503.5C 521.665,506.671 521.998,509.504 525.5,512C 522.833,513 522.833,514 525.5,515C 524.033,516.098 523.199,517.598 523,519.5C 522.363,517.697 521.197,516.364 519.5,515.5C 522.469,512.145 521.803,510.312 517.5,510C 518.206,513.131 518.873,516.298 519.5,519.5C 518.167,519.833 516.833,520.167 515.5,520.5C 516.167,521.167 516.833,521.833 517.5,522.5C 515.603,523.652 513.936,523.319 512.5,521.5 Z"/></g>
<g><path style="opacity:1" fill="#7b5520" d="M 542.5,463.5 C 544.167,463.5 545.833,463.5 547.5,463.5C 547.5,464.5 547.5,465.5 547.5,466.5C 545.143,466.337 542.81,466.503 540.5,467C 541.471,468.204 542.471,468.704 543.5,468.5C 538.465,470.187 535.799,473.687 535.5,479C 537.512,480.152 537.678,481.318 536,482.5C 534.414,481.624 532.914,480.624 531.5,479.5C 530.692,479.808 530.025,480.308 529.5,481C 531.376,482.375 533.376,483.542 535.5,484.5C 534.372,485.262 533.205,485.929 532,486.5C 530.783,489.994 529.283,493.327 527.5,496.5C 528.115,498.116 529.115,499.449 530.5,500.5C 529.5,501.5 528.5,502.5 527.5,503.5C 526.808,502.975 526.308,502.308 526,501.5C 525.653,505.341 527.486,507.674 531.5,508.5C 529.827,510.523 529.16,512.856 529.5,515.5C 528.325,515.281 527.325,515.614 526.5,516.5C 525.917,518.002 525.084,519.335 524,520.5C 523.472,521.816 523.972,522.483 525.5,522.5C 523.446,523.712 523.446,525.379 525.5,527.5C 520.691,527.891 517.358,530.224 515.5,534.5C 516.647,536.585 515.98,538.085 513.5,539C 516.295,539.961 518.295,541.794 519.5,544.5C 519.167,544.833 518.833,545.167 518.5,545.5C 515.517,541.014 513.85,541.014 513.5,545.5C 512.153,544.829 510.986,544.829 510,545.5C 509.383,544.551 509.549,543.718 510.5,543C 508.892,542.342 507.725,542.842 507,544.5C 506.536,543.906 506.369,543.239 506.5,542.5C 508.703,535.558 510.703,528.558 512.5,521.5C 513.936,523.319 515.603,523.652 517.5,522.5C 516.833,521.833 516.167,521.167 515.5,520.5C 516.833,520.167 518.167,519.833 519.5,519.5C 518.873,516.298 518.206,513.131 517.5,510C 521.803,510.312 522.469,512.145 519.5,515.5C 521.197,516.364 522.363,517.697 523,519.5C 523.199,517.598 524.033,516.098 525.5,515C 522.833,514 522.833,513 525.5,512C 521.998,509.504 521.665,506.671 524.5,503.5C 524.167,503.167 523.833,502.833 523.5,502.5C 522.667,503.5 521.833,504.5 521,505.5C 519.855,504.316 518.688,504.316 517.5,505.5C 518.038,503.883 518.371,502.216 518.5,500.5C 521.169,493.501 522.836,486.168 523.5,478.5C 524.434,477.432 524.768,476.099 524.5,474.5C 526.1,475.252 527.6,476.252 529,477.5C 529.115,475.893 528.615,474.393 527.5,473C 529.037,472.617 530.37,471.784 531.5,470.5C 530.833,469.833 530.167,469.167 529.5,468.5C 531.986,467.18 533.986,465.347 535.5,463C 537.749,462.137 539.582,462.637 541,464.5C 541.383,463.944 541.883,463.611 542.5,463.5 Z"/></g>
<g><path style="opacity:1" fill="#7a551f" d="M 787.5,481.5 C 787.436,485.22 786.936,488.886 786,492.5C 783.433,501.469 780.266,510.136 776.5,518.5C 772.417,524.997 768.084,531.331 763.5,537.5C 762.833,537.5 762.5,537.833 762.5,538.5C 759.795,542.205 756.462,545.205 752.5,547.5C 752.423,546.25 751.756,545.417 750.5,545C 752.167,544.667 753.833,544.333 755.5,544C 754.542,542.853 754.875,541.853 756.5,541C 753.723,538.827 753.89,538.327 757,539.5C 757.957,536.621 757.457,534.121 755.5,532C 756.833,530.16 756.666,529.66 755,530.5C 753.58,528.578 751.747,527.245 749.5,526.5C 752.175,525.828 755.008,525.828 758,526.5C 758.879,524.104 759.546,521.771 760,519.5C 760.677,521.689 761.844,522.022 763.5,520.5C 765.428,523.936 768.095,525.269 771.5,524.5C 770.41,522.997 769.243,522.664 768,523.5C 767.355,522.354 766.522,521.354 765.5,520.5C 766.504,518.323 765.838,517.989 763.5,519.5C 762.304,519.154 762.304,518.654 763.5,518C 762.5,517.5 761.5,517 760.5,516.5C 759.575,517.641 758.741,517.641 758,516.5C 757.085,517.328 756.419,518.328 756,519.5C 753.308,517.353 750.641,517.686 748,520.5C 747.601,520.272 747.435,519.938 747.5,519.5C 752.278,514.388 756.278,508.721 759.5,502.5C 762.395,495.708 766.062,489.375 770.5,483.5C 771.189,484.774 772.023,484.774 773,483.5C 774.359,486.95 776.526,487.45 779.5,485C 779.167,484.667 778.833,484.333 778.5,484C 780.013,481.977 781.346,482.144 782.5,484.5C 784.36,483.74 786.027,482.74 787.5,481.5 Z"/></g>
<g><path style="opacity:1" fill="#875f29" d="M 648.5,497.5 C 650.167,501.5 651.833,505.5 653.5,509.5C 654.833,514.499 656.166,519.499 657.5,524.5C 658.167,527.167 658.833,529.833 659.5,532.5C 660.379,536.036 661.713,539.369 663.5,542.5C 663.5,543.167 663.5,543.833 663.5,544.5C 662.668,545.329 663.001,546.162 664.5,547C 661.998,547.28 660.331,546.113 659.5,543.5C 660.326,542.549 660.492,541.549 660,540.5C 658.812,541.563 658.312,542.897 658.5,544.5C 657.325,544.719 656.325,544.386 655.5,543.5C 654.829,541.493 653.829,539.66 652.5,538C 653.927,536.3 654.76,534.467 655,532.5C 653.647,533.685 652.48,535.019 651.5,536.5C 650.277,537.614 648.944,537.781 647.5,537C 650.028,535.983 650.028,534.816 647.5,533.5C 647.833,532.833 648.167,532.167 648.5,531.5C 646.415,529.918 644.915,527.918 644,525.5C 643.667,525.833 643.333,526.167 643,526.5C 642.453,521.652 641.12,521.318 639,525.5C 638.681,522.379 639.848,519.879 642.5,518C 641.437,516.812 640.103,516.312 638.5,516.5C 638.682,514.409 638.348,512.409 637.5,510.5C 638.376,509.749 639.376,509.249 640.5,509C 639.376,508.751 638.376,508.251 637.5,507.5C 639.503,504.362 641.669,504.029 644,506.5C 646.079,503.676 647.579,500.676 648.5,497.5 Z"/></g>
<g><path style="opacity:0.004" fill="#301a0a" d="M 795.5,523.5 C 794.833,524.167 794.833,524.167 795.5,523.5 Z"/></g>
<g><path style="opacity:0.004" fill="#301a0a" d="M 797.5,524.5 C 796.833,525.167 796.833,525.167 797.5,524.5 Z"/></g>
<g><path style="opacity:0.004" fill="#301a0a" d="M 370.5,525.5 C 371.833,526.167 371.833,526.167 370.5,525.5 Z"/></g>
<g><path style="opacity:0.004" fill="#301a0a" d="M 368.5,526.5 C 369.833,527.167 369.833,527.167 368.5,526.5 Z"/></g>
<g><path style="opacity:0.004" fill="#301a0a" d="M 800.5,526.5 C 799.833,527.167 799.833,527.167 800.5,526.5 Z"/></g>
<g><path style="opacity:1" fill="#234f4d" d="M 498.5,552.5 C 490.128,557.461 481.128,558.795 471.5,556.5C 460.601,551.38 450.268,545.213 440.5,538C 435.998,534.664 431.998,530.831 428.5,526.5C 430.045,525.42 431.545,525.42 433,526.5C 433.945,526.095 434.612,525.428 435,524.5C 435.309,525.766 435.809,526.933 436.5,528C 434.842,528.725 434.342,529.892 435,531.5C 437.075,530.105 438.908,530.438 440.5,532.5C 441.197,530.615 442.197,530.282 443.5,531.5C 444.85,530.05 446.516,529.383 448.5,529.5C 449.138,531.46 449.138,533.293 448.5,535C 450.419,536.934 451.919,536.767 453,534.5C 453.893,535.711 454.726,535.711 455.5,534.5C 454.631,531.237 453.297,530.904 451.5,533.5C 451.167,533.167 450.833,532.833 450.5,532.5C 451.098,531.205 451.598,529.872 452,528.5C 452.333,529.167 452.667,529.833 453,530.5C 454.371,530.757 455.871,530.423 457.5,529.5C 460.55,529.97 460.883,530.803 458.5,532C 463.82,530.552 464.82,532.219 461.5,537C 463.797,537.018 466.131,536.851 468.5,536.5C 467.948,538.331 467.948,539.997 468.5,541.5C 470.891,538.886 473.725,536.886 477,535.5C 477.605,537.481 478.605,537.815 480,536.5C 482.095,539.818 483.429,544.152 484,549.5C 483.203,546.164 484.703,544.164 488.5,543.5C 489.5,544 490.5,544.5 491.5,545C 490.289,545.893 490.289,546.726 491.5,547.5C 492.883,544.924 493.717,545.258 494,548.5C 495.859,549.579 497.359,550.912 498.5,552.5 Z"/></g>
<g><path style="opacity:0.004" fill="#251408" d="M 363.5,530.5 C 364.833,531.167 364.833,531.167 363.5,530.5 Z"/></g>
<g><path style="opacity:0.004" fill="#7d5820" d="M 399.5,530.5 C 398.833,531.167 398.833,531.167 399.5,530.5 Z"/></g>
<g><path style="opacity:0.004" fill="#301a0a" d="M 363.5,531.5 C 362.833,532.167 362.833,532.167 363.5,531.5 Z"/></g>
<g><path style="opacity:0.004" fill="#301a0a" d="M 805.5,531.5 C 806.833,532.167 806.833,532.167 805.5,531.5 Z"/></g>
<g><path style="opacity:0.004" fill="#301a0a" d="M 362.5,532.5 C 361.833,533.167 361.833,533.167 362.5,532.5 Z"/></g>
<g><path style="opacity:1" fill="#674210" d="M 646.5,488.5 C 647.657,491.273 648.324,494.273 648.5,497.5C 647.579,500.676 646.079,503.676 644,506.5C 641.669,504.029 639.503,504.362 637.5,507.5C 638.376,508.251 639.376,508.751 640.5,509C 639.376,509.249 638.376,509.749 637.5,510.5C 638.348,512.409 638.682,514.409 638.5,516.5C 640.103,516.312 641.437,516.812 642.5,518C 639.848,519.879 638.681,522.379 639,525.5C 641.12,521.318 642.453,521.652 643,526.5C 643.333,526.167 643.667,525.833 644,525.5C 644.915,527.918 646.415,529.918 648.5,531.5C 648.167,532.167 647.833,532.833 647.5,533.5C 650.028,534.816 650.028,535.983 647.5,537C 648.944,537.781 650.277,537.614 651.5,536.5C 652.48,535.019 653.647,533.685 655,532.5C 654.76,534.467 653.927,536.3 652.5,538C 653.829,539.66 654.829,541.493 655.5,543.5C 656.325,544.386 657.325,544.719 658.5,544.5C 658.312,542.897 658.812,541.563 660,540.5C 660.492,541.549 660.326,542.549 659.5,543.5C 660.331,546.113 661.998,547.28 664.5,547C 663.001,546.162 662.668,545.329 663.5,544.5C 666.786,549.408 671.12,553.075 676.5,555.5C 676.649,556.552 676.483,557.552 676,558.5C 674.303,554.917 672.137,554.584 669.5,557.5C 667.281,554.426 664.281,553.093 660.5,553.5C 660.5,552.167 660.5,550.833 660.5,549.5C 657.143,549.894 654.81,548.561 653.5,545.5C 652.522,545.977 651.689,546.643 651,547.5C 649,546.833 647,546.167 645,545.5C 645.619,547.602 646.453,549.769 647.5,552C 645.39,553.458 643.39,554.958 641.5,556.5C 641.167,555.5 640.5,554.833 639.5,554.5C 637.75,550.665 635.75,546.999 633.5,543.5C 628.223,528.756 624.223,513.756 621.5,498.5C 620.968,493.709 620.968,489.376 621.5,485.5C 622.93,485.421 624.264,485.754 625.5,486.5C 626.333,485.5 627.167,484.5 628,483.5C 629.816,484.329 631.649,485.163 633.5,486C 633.167,486.333 632.833,486.667 632.5,487C 633.648,488.649 634.981,490.149 636.5,491.5C 637.333,489.5 638.167,487.5 639,485.5C 639.252,488.667 639.418,491.667 639.5,494.5C 641.111,493.68 641.778,492.346 641.5,490.5C 642.552,490.351 643.552,490.517 644.5,491C 644.657,493.769 643.991,496.602 642.5,499.5C 642.919,500.672 643.585,501.672 644.5,502.5C 644.122,499.711 645.122,497.211 647.5,495C 645.542,492.997 645.209,490.831 646.5,488.5 Z"/></g>
<g><path style="opacity:0.004" fill="#a27a39" d="M 763.5,537.5 C 764.833,538.167 764.833,538.167 763.5,537.5 Z"/></g>
<g><path style="opacity:0.008" fill="#6a4713" d="M 762.5,538.5 C 762.833,538.5 763.167,538.5 763.5,538.5C 763.315,539.17 762.981,539.17 762.5,538.5 Z"/></g>
<g><path style="opacity:0.004" fill="#000000" d="M 408.5,540.5 C 407.833,541.167 407.833,541.167 408.5,540.5 Z"/></g>
<g><path style="opacity:1" fill="#704b17" d="M 752.5,547.5 C 751.473,549.194 750.139,550.527 748.5,551.5C 747.833,551.5 747.5,551.833 747.5,552.5C 746.833,552.5 746.5,552.833 746.5,553.5C 743.467,555.016 740.8,557.016 738.5,559.5C 733.475,562.208 728.475,564.875 723.5,567.5C 722.508,567.328 721.842,567.662 721.5,568.5C 720.508,568.328 719.842,568.662 719.5,569.5C 718.508,569.328 717.842,569.662 717.5,570.5C 716.391,570.557 715.391,570.89 714.5,571.5C 717.132,568.832 719.132,565.665 720.5,562C 714.705,555.734 712.705,556.567 714.5,564.5C 713.252,563.96 712.085,563.293 711,562.5C 710.751,563.624 710.251,564.624 709.5,565.5C 708.494,565.062 708.494,564.396 709.5,563.5C 705.202,562.198 702.202,559.531 700.5,555.5C 711.106,549.525 721.439,543.025 731.5,536C 737.064,530.605 742.397,525.105 747.5,519.5C 747.435,519.938 747.601,520.272 748,520.5C 750.641,517.686 753.308,517.353 756,519.5C 756.419,518.328 757.085,517.328 758,516.5C 758.741,517.641 759.575,517.641 760.5,516.5C 761.5,517 762.5,517.5 763.5,518C 762.304,518.654 762.304,519.154 763.5,519.5C 765.838,517.989 766.504,518.323 765.5,520.5C 766.522,521.354 767.355,522.354 768,523.5C 769.243,522.664 770.41,522.997 771.5,524.5C 768.095,525.269 765.428,523.936 763.5,520.5C 761.844,522.022 760.677,521.689 760,519.5C 759.546,521.771 758.879,524.104 758,526.5C 755.008,525.828 752.175,525.828 749.5,526.5C 751.747,527.245 753.58,528.578 755,530.5C 756.666,529.66 756.833,530.16 755.5,532C 757.457,534.121 757.957,536.621 757,539.5C 753.89,538.327 753.723,538.827 756.5,541C 754.875,541.853 754.542,542.853 755.5,544C 753.833,544.333 752.167,544.667 750.5,545C 751.756,545.417 752.423,546.25 752.5,547.5 Z"/></g>
<g><path style="opacity:0.004" fill="#a27a39" d="M 760.5,541.5 C 761.833,542.167 761.833,542.167 760.5,541.5 Z"/></g>
<g><path style="opacity:1" fill="#265655" d="M 492.5,528.5 C 493.85,527.517 494.85,526.184 495.5,524.5C 496.192,525.025 496.692,525.692 497,526.5C 499.606,525.23 501.939,523.563 504,521.5C 505.385,522.551 506.385,523.884 507,525.5C 507.333,524.5 507.667,523.5 508,522.5C 508.333,522.833 508.667,523.167 509,523.5C 509.71,522.027 510.876,521.36 512.5,521.5C 510.703,528.558 508.703,535.558 506.5,542.5C 504.213,546.122 501.547,549.455 498.5,552.5C 497.359,550.912 495.859,549.579 494,548.5C 493.717,545.258 492.883,544.924 491.5,547.5C 490.289,546.726 490.289,545.893 491.5,545C 490.5,544.5 489.5,544 488.5,543.5C 484.703,544.164 483.203,546.164 484,549.5C 483.429,544.152 482.095,539.818 480,536.5C 478.605,537.815 477.605,537.481 477,535.5C 473.725,536.886 470.891,538.886 468.5,541.5C 467.948,539.997 467.948,538.331 468.5,536.5C 466.131,536.851 463.797,537.018 461.5,537C 464.82,532.219 463.82,530.552 458.5,532C 460.883,530.803 460.55,529.97 457.5,529.5C 455.871,530.423 454.371,530.757 453,530.5C 452.667,529.833 452.333,529.167 452,528.5C 451.598,529.872 451.098,531.205 450.5,532.5C 450.833,532.833 451.167,533.167 451.5,533.5C 453.297,530.904 454.631,531.237 455.5,534.5C 454.726,535.711 453.893,535.711 453,534.5C 451.919,536.767 450.419,536.934 448.5,535C 449.138,533.293 449.138,531.46 448.5,529.5C 446.516,529.383 444.85,530.05 443.5,531.5C 442.197,530.282 441.197,530.615 440.5,532.5C 438.908,530.438 437.075,530.105 435,531.5C 434.342,529.892 434.842,528.725 436.5,528C 435.809,526.933 435.309,525.766 435,524.5C 434.612,525.428 433.945,526.095 433,526.5C 431.545,525.42 430.045,525.42 428.5,526.5C 426.196,523.859 423.862,521.192 421.5,518.5C 421.56,517.957 421.893,517.624 422.5,517.5C 428.686,521.529 429.019,520.863 423.5,515.5C 424.23,513.994 424.563,512.66 424.5,511.5C 426.648,514.37 429.315,515.037 432.5,513.5C 433.862,515.012 434.196,516.512 433.5,518C 434.416,518.374 435.25,518.874 436,519.5C 436.687,517.432 436.52,515.432 435.5,513.5C 436.968,511.667 438.635,511.334 440.5,512.5C 437.441,516.313 438.441,518.48 443.5,519C 444.833,519.667 444.833,520.333 443.5,521C 447.571,524.264 448.237,523.597 445.5,519C 448.48,518.327 450.48,519.494 451.5,522.5C 452.428,520.665 453.594,520.332 455,521.5C 455.456,520.256 454.956,519.423 453.5,519C 454.944,518.219 456.277,518.386 457.5,519.5C 457.072,521.386 456.739,523.219 456.5,525C 456.862,526.225 457.362,527.391 458,528.5C 459.932,525.071 461.599,521.405 463,517.5C 463.415,519.291 464.415,520.624 466,521.5C 467.717,520.545 469.384,519.545 471,518.5C 471.419,519.672 472.085,520.672 473,521.5C 473.451,519.071 474.285,518.904 475.5,521C 474.294,522.018 474.627,522.518 476.5,522.5C 478.056,521.453 479.723,520.786 481.5,520.5C 481.34,522.199 481.506,523.866 482,525.5C 482.654,524.304 483.154,524.304 483.5,525.5C 478.989,526.408 478.822,528.408 483,531.5C 483.333,530.833 483.667,530.167 484,529.5C 484.607,533.537 484.44,537.537 483.5,541.5C 486.8,540.725 489.8,539.225 492.5,537C 490.271,535.515 487.938,534.182 485.5,533C 488.523,532.46 490.856,530.96 492.5,528.5 Z"/></g>
<g><path style="opacity:0.004" fill="#a27a39" d="M 760.5,542.5 C 759.833,543.167 759.833,543.167 760.5,542.5 Z"/></g>
<g><path style="opacity:0.004" fill="#230200" d="M 633.5,543.5 C 632.833,544.167 632.833,544.167 633.5,543.5 Z"/></g>
<g><path style="opacity:0.998" fill="#6f4b17" d="M 414.5,510.5 C 416.833,513.167 419.167,515.833 421.5,518.5C 423.862,521.192 426.196,523.859 428.5,526.5C 431.998,530.831 435.998,534.664 440.5,538C 450.268,545.213 460.601,551.38 471.5,556.5C 473.112,558.963 472.612,560.963 470,562.5C 468.505,560.89 468.339,559.224 469.5,557.5C 467.731,556.373 466.397,556.873 465.5,559C 463.343,559.078 461.343,559.245 459.5,559.5C 460.376,560.251 461.376,560.751 462.5,561C 463.696,561.654 463.696,562.154 462.5,562.5C 461.28,561.289 460.113,561.289 459,562.5C 458.751,561.376 458.251,560.376 457.5,559.5C 456.28,560.711 455.113,560.711 454,559.5C 452.233,561.937 450.067,562.604 447.5,561.5C 447.167,561.833 446.833,562.167 446.5,562.5C 447.263,563.719 448.263,564.719 449.5,565.5C 448.757,566.182 448.091,566.849 447.5,567.5C 446.833,567.5 446.167,567.5 445.5,567.5C 437.707,563.101 430.041,558.434 422.5,553.5C 417.807,549.139 413.141,544.805 408.5,540.5C 405.959,536.748 402.959,533.415 399.5,530.5C 399.267,528.938 398.6,527.605 397.5,526.5C 399.019,523.215 401.019,522.882 403.5,525.5C 405.042,524.253 406.542,524.253 408,525.5C 408.448,523.591 407.615,522.424 405.5,522C 406.126,521.25 406.626,520.416 407,519.5C 407.908,521.439 409.408,522.439 411.5,522.5C 411.238,523.978 411.571,525.311 412.5,526.5C 413.624,523.511 414.958,520.177 416.5,516.5C 415.675,515.614 414.675,515.281 413.5,515.5C 413.216,513.585 413.549,511.919 414.5,510.5 Z"/></g>
<g><path style="opacity:1" fill="#593507" d="M 534.5,543.5 C 533.5,546.167 532.5,548.833 531.5,551.5C 529.75,552.659 528.75,554.326 528.5,556.5C 526.068,559.688 523.401,562.688 520.5,565.5C 519.833,565.5 519.5,565.833 519.5,566.5C 517.973,566.427 516.973,567.094 516.5,568.5C 515.833,568.5 515.5,568.833 515.5,569.5C 514.833,569.5 514.5,569.833 514.5,570.5C 513.833,570.5 513.5,570.833 513.5,571.5C 509.055,573.937 504.388,576.103 499.5,578C 490.119,578.78 480.786,578.613 471.5,577.5C 471.423,576.25 470.756,575.417 469.5,575C 472.544,574.641 472.878,573.974 470.5,573C 471.167,572.667 471.833,572.333 472.5,572C 471.541,569.31 472.208,568.976 474.5,571C 473.289,571.893 473.289,572.726 474.5,573.5C 475.425,572.359 476.259,572.359 477,573.5C 477.26,571.382 478.26,569.716 480,568.5C 481.103,572.048 482.27,571.715 483.5,567.5C 482.975,566.808 482.308,566.308 481.5,566C 483.37,564.436 485.37,564.436 487.5,566C 486.289,566.893 486.289,567.726 487.5,568.5C 488.662,565.506 490.329,562.84 492.5,560.5C 491.91,559.201 490.91,558.368 489.5,558C 491.235,557.349 492.902,557.515 494.5,558.5C 495.192,557.975 495.692,557.308 496,556.5C 497.019,557.687 498.186,558.687 499.5,559.5C 500.126,556.761 500.959,553.761 502,550.5C 502.687,552.555 503.854,554.221 505.5,555.5C 505.109,554.109 505.942,553.109 508,552.5C 508.359,555.544 509.026,555.878 510,553.5C 510.414,553.957 510.914,554.291 511.5,554.5C 512.583,553.635 512.749,552.635 512,551.5C 510.757,552.336 509.59,552.003 508.5,550.5C 509.262,550.089 510.262,549.923 511.5,550C 511.167,549.667 510.833,549.333 510.5,549C 512.426,548.578 513.426,547.411 513.5,545.5C 513.85,541.014 515.517,541.014 518.5,545.5C 518.833,545.167 519.167,544.833 519.5,544.5C 518.295,541.794 516.295,539.961 513.5,539C 515.98,538.085 516.647,536.585 515.5,534.5C 517.358,530.224 520.691,527.891 525.5,527.5C 523.446,525.379 523.446,523.712 525.5,522.5C 526.735,522.721 527.735,523.388 528.5,524.5C 529.167,523.5 529.833,522.5 530.5,521.5C 531.086,521.709 531.586,522.043 532,522.5C 531.012,520.08 531.345,517.747 533,515.5C 534.085,516.293 535.252,516.96 536.5,517.5C 537.114,513.93 538.448,513.597 540.5,516.5C 539.147,517.524 538.48,518.857 538.5,520.5C 534.544,521.053 534.544,521.886 538.5,523C 538.167,523.333 537.833,523.667 537.5,524C 538.308,524.308 538.975,524.808 539.5,525.5C 536.955,527.47 534.621,529.637 532.5,532C 533.961,533.351 535.294,534.851 536.5,536.5C 535.738,536.911 534.738,537.077 533.5,537C 534.167,537.667 534.833,538.333 535.5,539C 532.158,540.124 531.825,541.624 534.5,543.5 Z"/></g>
<g><path style="opacity:0.004" fill="#a27a39" d="M 531.5,551.5 C 532.833,552.167 532.833,552.167 531.5,551.5 Z"/></g>
<g><path style="opacity:0.004" fill="#110000" d="M 748.5,551.5 C 749.833,552.167 749.833,552.167 748.5,551.5 Z"/></g>
<g><path style="opacity:0.012" fill="#79541d" d="M 747.5,552.5 C 747.833,552.5 748.167,552.5 748.5,552.5C 748.315,553.17 747.981,553.17 747.5,552.5 Z"/></g>
<g><path style="opacity:0.004" fill="#a27a39" d="M 422.5,553.5 C 421.833,554.167 421.833,554.167 422.5,553.5 Z"/></g>
<g><path style="opacity:0.004" fill="#a27a39" d="M 530.5,553.5 C 531.833,554.167 531.833,554.167 530.5,553.5 Z"/></g>
<g><path style="opacity:0.004" fill="#a27a39" d="M 638.5,554.5 C 637.833,553.167 637.833,553.167 638.5,554.5 Z"/></g>
<g><path style="opacity:0.004" fill="#a27a39" d="M 746.5,553.5 C 746.833,553.5 747.167,553.5 747.5,553.5C 747.315,554.17 746.981,554.17 746.5,553.5 Z"/></g>
<g><path style="opacity:0.004" fill="#a27a39" d="M 638.5,554.5 C 638.833,554.5 639.167,554.5 639.5,554.5C 639.315,555.17 638.981,555.17 638.5,554.5 Z"/></g>
<g><path style="opacity:0.004" fill="#a27a39" d="M 529.5,555.5 C 530.833,556.167 530.833,556.167 529.5,555.5 Z"/></g>
<g><path style="opacity:0.004" fill="#a27a39" d="M 528.5,556.5 C 528.833,556.5 529.167,556.5 529.5,556.5C 529.315,557.17 528.981,557.17 528.5,556.5 Z"/></g>
<g><path style="opacity:0.004" fill="#a27a39" d="M 640.5,557.5 C 639.833,556.167 639.833,556.167 640.5,557.5 Z"/></g>
<g><path style="opacity:0.004" fill="#160000" d="M 640.5,557.5 C 640.833,557.5 641.167,557.5 641.5,557.5C 641.315,558.17 640.981,558.17 640.5,557.5 Z"/></g>
<g><path style="opacity:0.004" fill="#a27a39" d="M 429.5,559.5 C 430.833,560.167 430.833,560.167 429.5,559.5 Z"/></g>
<g><path style="opacity:0.004" fill="#6f4b16" d="M 738.5,559.5 C 739.833,560.167 739.833,560.167 738.5,559.5 Z"/></g>
<g><path style="opacity:1" fill="#5c380a" d="M 506.5,542.5 C 506.369,543.239 506.536,543.906 507,544.5C 507.725,542.842 508.892,542.342 510.5,543C 509.549,543.718 509.383,544.551 510,545.5C 510.986,544.829 512.153,544.829 513.5,545.5C 513.426,547.411 512.426,548.578 510.5,549C 510.833,549.333 511.167,549.667 511.5,550C 510.262,549.923 509.262,550.089 508.5,550.5C 509.59,552.003 510.757,552.336 512,551.5C 512.749,552.635 512.583,553.635 511.5,554.5C 510.914,554.291 510.414,553.957 510,553.5C 509.026,555.878 508.359,555.544 508,552.5C 505.942,553.109 505.109,554.109 505.5,555.5C 503.854,554.221 502.687,552.555 502,550.5C 500.959,553.761 500.126,556.761 499.5,559.5C 498.186,558.687 497.019,557.687 496,556.5C 495.692,557.308 495.192,557.975 494.5,558.5C 492.902,557.515 491.235,557.349 489.5,558C 490.91,558.368 491.91,559.201 492.5,560.5C 490.329,562.84 488.662,565.506 487.5,568.5C 486.289,567.726 486.289,566.893 487.5,566C 485.37,564.436 483.37,564.436 481.5,566C 482.308,566.308 482.975,566.808 483.5,567.5C 482.27,571.715 481.103,572.048 480,568.5C 478.26,569.716 477.26,571.382 477,573.5C 476.259,572.359 475.425,572.359 474.5,573.5C 473.289,572.726 473.289,571.893 474.5,571C 472.208,568.976 471.541,569.31 472.5,572C 471.833,572.333 471.167,572.667 470.5,573C 472.878,573.974 472.544,574.641 469.5,575C 470.756,575.417 471.423,576.25 471.5,577.5C 463.333,574.89 455.333,571.89 447.5,568.5C 447.5,568.167 447.5,567.833 447.5,567.5C 448.091,566.849 448.757,566.182 449.5,565.5C 448.263,564.719 447.263,563.719 446.5,562.5C 446.833,562.167 447.167,561.833 447.5,561.5C 450.067,562.604 452.233,561.937 454,559.5C 455.113,560.711 456.28,560.711 457.5,559.5C 458.251,560.376 458.751,561.376 459,562.5C 460.113,561.289 461.28,561.289 462.5,562.5C 463.696,562.154 463.696,561.654 462.5,561C 461.376,560.751 460.376,560.251 459.5,559.5C 461.343,559.245 463.343,559.078 465.5,559C 466.397,556.873 467.731,556.373 469.5,557.5C 468.339,559.224 468.505,560.89 470,562.5C 472.612,560.963 473.112,558.963 471.5,556.5C 481.128,558.795 490.128,557.461 498.5,552.5C 501.547,549.455 504.213,546.122 506.5,542.5 Z"/></g>
<g><path style="opacity:0.004" fill="#4c2c00" d="M 520.5,565.5 C 521.833,566.167 521.833,566.167 520.5,565.5 Z"/></g>
<g><path style="opacity:0.004" fill="#a27a39" d="M 519.5,566.5 C 519.833,566.5 520.167,566.5 520.5,566.5C 520.315,567.17 519.981,567.17 519.5,566.5 Z"/></g>
<g><path style="opacity:0.004" fill="#a27a39" d="M 649.5,566.5 C 649.5,566.833 649.5,567.167 649.5,567.5C 648.83,567.019 648.83,566.685 649.5,566.5 Z"/></g>
<g><path style="opacity:0.004" fill="#593607" d="M 445.5,567.5 C 444.833,568.167 444.833,568.167 445.5,567.5 Z"/></g>
<g><path style="opacity:0.004" fill="#a27a39" d="M 519.5,567.5 C 518.833,568.167 518.833,568.167 519.5,567.5 Z"/></g>
<g><path style="opacity:0.004" fill="#a27a39" d="M 649.5,567.5 C 650.833,568.167 650.833,568.167 649.5,567.5 Z"/></g>
<g><path style="opacity:0.004" fill="#452200" d="M 723.5,567.5 C 724.833,568.167 724.833,568.167 723.5,567.5 Z"/></g>
<g><path style="opacity:0.008" fill="#583606" d="M 447.5,568.5 C 446.833,569.167 446.833,569.167 447.5,568.5 Z"/></g>
<g><path style="opacity:0.012" fill="#1b0000" d="M 516.5,568.5 C 517.833,569.167 517.833,569.167 516.5,568.5 Z"/></g>
<g><path style="opacity:1" fill="#573406" d="M 676.5,555.5 C 684.455,558.078 692.455,558.078 700.5,555.5C 702.202,559.531 705.202,562.198 709.5,563.5C 708.494,564.396 708.494,565.062 709.5,565.5C 710.251,564.624 710.751,563.624 711,562.5C 712.085,563.293 713.252,563.96 714.5,564.5C 712.705,556.567 714.705,555.734 720.5,562C 719.132,565.665 717.132,568.832 714.5,571.5C 700.222,578.159 685.222,580.326 669.5,578C 663.668,575.92 658.335,573.087 653.5,569.5C 652.738,567.738 651.404,566.738 649.5,566.5C 646.805,563.474 644.138,560.474 641.5,557.5C 641.5,557.167 641.5,556.833 641.5,556.5C 643.39,554.958 645.39,553.458 647.5,552C 646.453,549.769 645.619,547.602 645,545.5C 647,546.167 649,546.833 651,547.5C 651.689,546.643 652.522,545.977 653.5,545.5C 654.81,548.561 657.143,549.894 660.5,549.5C 660.5,550.833 660.5,552.167 660.5,553.5C 664.281,553.093 667.281,554.426 669.5,557.5C 672.137,554.584 674.303,554.917 676,558.5C 676.483,557.552 676.649,556.552 676.5,555.5 Z"/></g>
<g><path style="opacity:0.004" fill="#5d3b0a" d="M 721.5,568.5 C 722.833,569.167 722.833,569.167 721.5,568.5 Z"/></g>
<g><path style="opacity:0.008" fill="#a27a39" d="M 448.5,569.5 C 449.833,570.167 449.833,570.167 448.5,569.5 Z"/></g>
<g><path style="opacity:0.02" fill="#593707" d="M 515.5,569.5 C 515.833,569.5 516.167,569.5 516.5,569.5C 516.315,570.17 515.981,570.17 515.5,569.5 Z"/></g>
<g><path style="opacity:0.016" fill="#5a3809" d="M 653.5,569.5 C 653.5,569.833 653.5,570.167 653.5,570.5C 652.83,570.019 652.83,569.685 653.5,569.5 Z"/></g>
<g><path style="opacity:0.008" fill="#553405" d="M 719.5,569.5 C 720.833,570.167 720.833,570.167 719.5,569.5 Z"/></g>
<g><path style="opacity:0.004" fill="#a27a39" d="M 450.5,570.5 C 451.833,571.167 451.833,571.167 450.5,570.5 Z"/></g>
<g><path style="opacity:0.012" fill="#5a3908" d="M 514.5,570.5 C 514.833,570.5 515.167,570.5 515.5,570.5C 515.315,571.17 514.981,571.17 514.5,570.5 Z"/></g>
<g><path style="opacity:0.004" fill="#a27a39" d="M 653.5,570.5 C 654.167,570.5 654.5,570.833 654.5,571.5C 654.167,571.167 653.833,570.833 653.5,570.5 Z"/></g>
<g><path style="opacity:0.004" fill="#a27a39" d="M 717.5,570.5 C 718.833,571.167 718.833,571.167 717.5,570.5 Z"/></g>
<g><path style="opacity:0.004" fill="#a27a39" d="M 513.5,571.5 C 513.833,571.5 514.167,571.5 514.5,571.5C 514.315,572.17 513.981,572.17 513.5,571.5 Z"/></g>
<g><path style="opacity:0.004" fill="#a27a39" d="M 654.5,571.5 C 655.833,572.167 655.833,572.167 654.5,571.5 Z"/></g>
</svg>
