<svg width="84" height="112" viewBox="0 0 84 112" fill="none" xmlns="http://www.w3.org/2000/svg">
<path d="M26.0022 69.3487C25.9166 78.197 33.0062 85.4235 41.8529 85.5091C50.7012 85.5947 57.9277 78.5066 58.0133 69.6584C58.0547 65.3737 56.4307 61.3503 53.4306 58.2917L62.7192 64.2229C67.6841 69.2848 70.5227 79.6362 70.4541 86.7277C70.3125 101.37 56.2518 110.961 41.6081 110.819C26.966 110.677 13.0934 100.816 13.235 86.1743C13.3036 79.0828 16.3419 68.7882 21.4038 63.8233L30.8053 58.0729C27.7467 61.0729 26.0436 65.0641 26.0022 69.3487Z" fill="#333"/>
<path d="M19.9029 33.312L13.9248 39.177L11.5021 36.707C1.53505 26.5453 1.4201 10.3945 11.0396 0.0930703L27.7083 17.0857C27.1054 23.0295 24.5011 28.8034 19.9029 33.312Z" fill="#333"/>
<mask id="mask0_221_1284" style="mask-type:luminance" maskUnits="userSpaceOnUse" x="3" y="0" width="19" height="40">
<path d="M21.4905 39.2516L21.8682 0.199219L4.09798 0.0273506L3.72028 39.0798L21.4905 39.2516Z" fill="url(#paint0_linear_221_1284)"/>
</mask>
<g mask="url(#mask0_221_1284)">
<path d="M19.9022 33.3134L13.9241 39.1785L11.5015 36.7084C1.5344 26.5467 1.41944 10.3959 11.039 0.094482C11.039 0.094482 8.58135 16.3082 21.5652 31.527C21.0436 32.1411 20.4893 32.7376 19.9022 33.3134Z" fill="#333"/>
</g>
<path d="M23.3239 65.4104C18.262 70.3753 15.4459 76.9826 15.3773 84.0725C15.2357 98.7162 26.9674 110.677 41.6095 110.819C18.793 110.598 0.47451 91.9217 0.6952 69.1036C0.80556 57.693 5.53177 47.4069 13.0826 40.0023L13.926 39.1766L19.9041 33.3115C24.5023 28.8029 27.1066 23.029 27.7095 17.0853L31.169 20.6108C31.4453 20.894 31.7152 21.1803 31.9757 21.4712C41.3973 31.9568 40.9684 48.1039 30.8067 58.0725L23.3239 65.4104Z" fill="#F0006D"/>
<path d="M60.769 65.7734C65.7339 70.8353 68.4232 77.4958 68.3547 84.5857C68.213 99.2293 56.2522 110.961 41.6085 110.819C64.4266 111.04 83.1028 92.7216 83.3235 69.9036C83.4339 58.493 78.9075 48.1174 71.5013 40.5681L70.674 39.7263L64.8105 33.7467C60.3003 29.15 57.8082 23.3268 57.3203 17.3725L53.7933 20.8304C53.5117 21.1082 53.2362 21.3893 52.9686 21.6751C43.3475 31.9765 43.464 48.1288 53.431 58.2921L60.769 65.7734Z" fill="#F0006D"/>
<path d="M64.8106 33.7456L70.6741 39.7252L73.1441 37.3025C83.3059 27.3355 83.7332 11.1899 74.3147 0.704351L57.3204 17.3714C57.8083 23.3257 60.3004 29.1489 64.8106 33.7456Z" fill="#333"/>
<mask id="mask1_221_1284" style="mask-type:luminance" maskUnits="userSpaceOnUse" x="9" y="16" width="19" height="24">
<path d="M27.655 39.4723L27.873 16.9238L10.059 16.7515L9.84088 39.3L27.655 39.4723Z" fill="url(#paint1_linear_221_1284)"/>
</mask>
<g mask="url(#mask1_221_1284)">
<path fill-rule="evenodd" clip-rule="evenodd" d="M13.9245 39.1753L19.9025 33.3102C24.5008 28.8016 27.1051 23.0277 27.708 17.084C26.329 21.7601 23.3728 25.9977 19.0062 28.9224L13.3286 32.7263L12.5272 33.2624C11.6722 33.8356 10.8434 34.4467 10.0441 35.0941C10.5042 35.6455 10.9896 36.1831 11.5018 36.7053L13.9245 39.1753Z" fill="#F4F5FC"/>
</g>
<mask id="mask2_221_1284" style="mask-type:luminance" maskUnits="userSpaceOnUse" x="56" y="17" width="19" height="23">
<path d="M74.7556 39.9294L74.9736 17.3809L57.1596 17.2086L56.9415 39.7571L74.7556 39.9294Z" fill="url(#paint2_linear_221_1284)"/>
</mask>
<g mask="url(#mask2_221_1284)">
<path fill-rule="evenodd" clip-rule="evenodd" d="M70.6751 39.7256L64.8116 33.746C60.3014 29.1493 57.8093 23.3261 57.3215 17.3719C58.6082 22.0737 61.4835 26.3678 65.7927 29.3764L71.3957 33.2894L72.185 33.8409C73.0287 34.4305 73.8455 35.0575 74.6337 35.7202C74.163 36.2627 73.6673 36.7908 73.1452 37.3029L70.6751 39.7256Z" fill="#333"/>
</g>
<mask id="mask3_221_1284" style="mask-type:luminance" maskUnits="userSpaceOnUse" x="41" y="17" width="38" height="95">
<path d="M77.5721 111.328L78.4805 17.4121L42.3524 17.0627L41.4441 110.979L77.5721 111.328Z" fill="url(#paint3_linear_221_1284)"/>
</mask>
<g mask="url(#mask3_221_1284)">
<path fill-rule="evenodd" clip-rule="evenodd" d="M69.5307 61.1532C74.8774 66.6028 77.7719 73.7747 77.698 81.4099C77.643 87.1019 75.929 92.3844 73.0196 96.8059C65.3591 105.499 54.1048 110.939 41.6082 110.818C56.2518 110.96 68.2127 99.228 68.3543 84.5843C68.4229 77.4944 65.7335 70.8339 60.7686 65.772L53.4307 58.2908C43.4636 48.1275 43.3471 31.9751 52.9682 21.6737C53.2359 21.3879 53.5113 21.1069 53.793 20.829L57.32 17.3712C57.3537 17.7759 57.3952 18.1791 57.4462 18.5824C51.0077 29.4333 52.3763 43.6637 61.6294 53.0976L69.5307 61.1532Z" fill="#BC2783"/>
</g>
<mask id="mask4_221_1284" style="mask-type:luminance" maskUnits="userSpaceOnUse" x="63" y="0" width="19" height="40">
<path d="M80.8782 39.8259L81.2559 0.773438L63.4841 0.601554L63.1064 39.654L80.8782 39.8259Z" fill="url(#paint4_linear_221_1284)"/>
</mask>
<g mask="url(#mask4_221_1284)">
<path d="M64.8106 33.7475L70.6741 39.7272L73.1441 37.3045C83.3059 27.3374 83.7332 11.1919 74.3147 0.706304C74.3147 0.706304 76.4583 16.9645 63.1809 31.9294C63.6921 32.5534 64.2348 33.1605 64.8106 33.7475Z" fill="#333"/>
</g>
<defs>
<linearGradient id="paint0_linear_221_1284" x1="-33.1144" y1="-5.36836" x2="15.0136" y2="41.7547" gradientUnits="userSpaceOnUse">
<stop stop-color="#333"/>
<stop offset="1" stop-color="#333" stop-opacity="0"/>
</linearGradient>
<linearGradient id="paint1_linear_221_1284" x1="31.6904" y1="12.1256" x2="8.09454" y2="39.6609" gradientUnits="userSpaceOnUse">
<stop stop-color="#333"/>
<stop offset="1" stop-color="#333" stop-opacity="0"/>
</linearGradient>
<linearGradient id="paint2_linear_221_1284" x1="53.4357" y1="12.3374" x2="76.493" y2="40.3239" gradientUnits="userSpaceOnUse">
<stop stop-color="#333"/>
<stop offset="1" stop-color="#333" stop-opacity="0"/>
</linearGradient>
<linearGradient id="paint3_linear_221_1284" x1="123.092" y1="146.137" x2="16.093" y2="37.0491" gradientUnits="userSpaceOnUse">
<stop stop-color="#333"/>
<stop offset="1" stop-color="#333" stop-opacity="0"/>
</linearGradient>
<linearGradient id="paint4_linear_221_1284" x1="118.566" y1="-3.90151" x2="69.5336" y2="42.2818" gradientUnits="userSpaceOnUse">
<stop stop-color="#333"/>
<stop offset="1" stop-color="#333" stop-opacity="0"/>
</linearGradient>
</defs>
</svg>
