<svg width="154" height="158" viewBox="0 0 154 158" fill="none" xmlns="http://www.w3.org/2000/svg">
<path d="M148.69 72H149.455V87H148.69V72Z" fill="black"/>
<path d="M141.688 99.9626L151.674 103.207L151.331 104.263L141.345 101.018L141.688 99.9626Z" fill="black"/>
<path d="M134.3 115.821L142.795 121.993L142.257 122.733L130.62 123.234L130.903 122.846L138.281 128.206L137.637 129.092L129.143 122.921L129.68 122.18L141.308 121.692L141.026 122.08L133.648 116.719L134.3 115.821Z" fill="black"/>
<path d="M115.801 134.751C116.44 134.287 117.107 133.963 117.802 133.779C118.502 133.604 119.192 133.566 119.871 133.667C120.549 133.767 121.193 133.998 121.801 134.359C122.402 134.726 122.928 135.221 123.381 135.844C123.833 136.467 124.142 137.121 124.305 137.806C124.461 138.496 124.481 139.179 124.367 139.856C124.245 140.538 123.989 141.181 123.6 141.785C123.216 142.398 122.705 142.936 122.066 143.4C121.451 143.847 120.796 144.162 120.101 144.346C119.412 144.537 118.732 144.562 118.06 144.42L118.216 143.435C118.823 143.538 119.392 143.514 119.924 143.362C120.463 143.218 120.974 142.97 121.46 142.617C121.97 142.247 122.378 141.814 122.686 141.318C122.999 140.831 123.2 140.308 123.289 139.749C123.383 139.199 123.367 138.641 123.242 138.077C123.114 137.527 122.865 136.998 122.495 136.488C122.125 135.978 121.695 135.574 121.205 135.274C120.714 134.989 120.188 134.802 119.63 134.713C119.077 134.633 118.517 134.662 117.951 134.802C117.391 134.949 116.856 135.208 116.346 135.578C115.861 135.931 115.466 136.341 115.163 136.809C114.86 137.276 114.664 137.814 114.575 138.423L113.59 138.267C113.662 137.584 113.893 136.94 114.282 136.336C114.672 135.732 115.178 135.204 115.801 134.751Z" fill="black"/>
<path d="M102.622 142.174L101.302 153.644L100.26 153.982L92.4504 145.479L93.5632 145.118L100.803 153.128L100.375 153.267L101.524 142.531L102.622 142.174ZM101.691 145.426L101.656 146.384L95.8494 148.271L95.2574 147.517L101.691 145.426Z" fill="black"/>
<path d="M80.21 147V157.5H76.28C75.39 157.5 74.625 157.355 73.985 157.065C73.345 156.785 72.855 156.375 72.515 155.835C72.165 155.305 71.99 154.66 71.99 153.9C71.99 153.16 72.165 152.52 72.515 151.98C72.855 151.45 73.345 151.04 73.985 150.75C74.625 150.47 75.39 150.33 76.28 150.33H79.595L79.1 150.84V147H80.21ZM73.04 147L75.74 150.81H74.54L71.825 147H73.04ZM79.1 150.75L79.595 151.275H76.31C75.26 151.275 74.465 151.505 73.925 151.965C73.375 152.425 73.1 153.07 73.1 153.9C73.1 154.74 73.375 155.39 73.925 155.85C74.465 156.31 75.26 156.54 76.31 156.54H79.595L79.1 157.065V150.75Z" fill="black"/>
<path d="M59.6875 144.874L56.4428 154.86L55.5726 154.578L51.5005 143.665L51.957 143.813L49.1387 152.487L48.0973 152.149L51.342 142.163L52.2122 142.445L56.2701 153.353L55.8136 153.205L58.6318 144.531L59.6875 144.874Z" fill="black"/>
<path d="M40.9511 136.862L30.8961 142.535L30.0102 141.891L32.2987 130.575L33.2452 131.263L31.0204 141.828L30.6563 141.563L40.0167 136.183L40.9511 136.862ZM37.7733 138.02L36.9774 138.554L32.0383 134.966L32.3003 134.044L37.7733 138.02Z" fill="black"/>
<path d="M22.0202 119.015L14.3022 124.623L16.4711 127.608L15.6944 128.172L10.7041 121.304L11.4808 120.739L13.6497 123.725L21.3677 118.117L22.0202 119.015Z" fill="black"/>
<path d="M7.36883 103.535L5.65378 98.2568L6.55253 97.9648L8.26757 103.243L7.36883 103.535ZM11.9396 101.924L9.98817 95.9179L10.9012 95.6213L13.1956 102.683L3.20954 105.928L0.984619 99.0799L1.89763 98.7833L3.77955 104.575L11.9396 101.924Z" fill="black"/>
<path d="M5.31004 86H4.54504V71H5.31004V86Z" fill="black"/>
<path d="M12.3118 58.0374L2.32567 54.7927L2.66868 53.7371L12.6548 56.9818L12.3118 58.0374Z" fill="black"/>
<path d="M19.6998 42.1785L11.2051 36.0068L11.7429 35.2665L23.3796 34.7658L23.0975 35.1542L15.7193 29.7935L16.3629 28.9077L24.8576 35.0794L24.3198 35.8197L12.6918 36.3083L12.974 35.9199L20.3522 41.2805L19.6998 42.1785Z" fill="black"/>
<path d="M38.1995 23.2489C37.5604 23.7132 36.8934 24.0371 36.1985 24.2206C35.4978 24.396 34.8081 24.4335 34.1296 24.3332C33.451 24.2329 32.8074 24.0021 32.1988 23.6408C31.5983 23.2737 31.0718 22.7786 30.6192 22.1557C30.1666 21.5327 29.8585 20.879 29.6949 20.1944C29.5393 19.504 29.5187 18.8206 29.633 18.1442C29.7554 17.462 30.0112 16.8188 30.4004 16.2147C30.7837 15.6024 31.295 15.0641 31.9341 14.5998C32.5489 14.153 33.2038 13.838 33.8987 13.6545C34.5876 13.4629 35.2681 13.4382 35.94 13.5805L35.784 14.5652C35.1775 14.462 34.6081 14.4863 34.0757 14.6383C33.5375 14.7821 33.0257 15.0304 32.5403 15.3831C32.0306 15.7534 31.622 16.1862 31.3144 16.6816C31.001 17.1689 30.8 17.6919 30.7115 18.2506C30.6171 18.8013 30.6327 19.3586 30.7581 19.9225C30.8858 20.4725 31.1348 21.0024 31.5051 21.512C31.8754 22.0217 32.3053 22.4263 32.7948 22.7258C33.2865 23.0113 33.8117 23.1983 34.3705 23.2868C34.9233 23.3672 35.4828 23.3376 36.049 23.1982C36.6093 23.0507 37.1443 22.7918 37.654 22.4215C38.1394 22.0688 38.5337 21.6588 38.8368 21.1913C39.1399 20.7239 39.3361 20.1858 39.4254 19.5771L40.4101 19.733C40.3377 20.416 40.1069 21.0596 39.7177 21.6637C39.3285 22.2679 38.8224 22.7963 38.1995 23.2489Z" fill="black"/>
<path d="M51.3781 15.8257L52.6985 4.35628L53.7399 4.0179L61.5496 12.5207L60.4369 12.8823L53.1974 4.87237L53.6254 4.73331L52.4766 15.4687L51.3781 15.8257ZM52.3088 12.5739L52.3445 11.616L58.1507 9.72942L58.7427 10.4834L52.3088 12.5739Z" fill="black"/>
<path d="M73.7901 11V0.5H77.7201C78.6101 0.5 79.3751 0.645 80.0151 0.935001C80.6551 1.215 81.1451 1.625 81.4851 2.165C81.8351 2.695 82.0101 3.34 82.0101 4.1C82.0101 4.84 81.8351 5.48 81.4851 6.02C81.1451 6.55 80.6551 6.96 80.0151 7.25C79.3751 7.53 78.6101 7.67 77.7201 7.67H74.4051L74.9001 7.16V11H73.7901ZM80.9601 11L78.2601 7.19H79.4601L82.1751 11H80.9601ZM74.9001 7.25L74.4051 6.725H77.6901C78.7401 6.725 79.5351 6.495 80.0751 6.035C80.6251 5.575 80.9001 4.93 80.9001 4.1C80.9001 3.26 80.6251 2.61 80.0751 2.15C79.5351 1.69 78.7401 1.46 77.6901 1.46H74.4051L74.9001 0.935001V7.25Z" fill="black"/>
<path d="M94.3126 13.1258L97.5573 3.13966L98.4275 3.42241L102.5 14.3349L102.043 14.1866L104.861 5.51291L105.903 5.85129L102.658 15.8374L101.788 15.5546L97.73 4.6468L98.1865 4.79513L95.3682 13.4688L94.3126 13.1258Z" fill="black"/>
<path d="M113.049 21.1385L123.104 15.4651L123.99 16.1088L121.701 27.4248L120.755 26.7371L122.98 16.1721L123.344 16.4366L113.983 21.8173L113.049 21.1385ZM116.227 19.9801L117.023 19.4459L121.962 23.0344L121.7 23.9564L116.227 19.9801Z" fill="black"/>
<path d="M131.98 38.9848L139.698 33.3773L137.529 30.392L138.306 29.8278L143.296 36.6963L142.519 37.2606L140.35 34.2753L132.632 39.8828L131.98 38.9848Z" fill="black"/>
<path d="M146.631 54.4648L148.346 59.7432L147.448 60.0352L145.733 54.7569L146.631 54.4648ZM142.06 56.0762L144.012 62.0821L143.099 62.3787L140.804 55.3171L150.791 52.0725L153.015 58.9201L152.102 59.2167L150.221 53.4248L142.06 56.0762Z" fill="black"/>
</svg>
