<svg width="158" height="158" viewBox="0 0 158 158" fill="none" xmlns="http://www.w3.org/2000/svg">
<path d="M68.5007 149.853L68.3392 150.769L64.4689 150.087L64.6304 149.171L68.5007 149.853Z" fill="#787878"/>
<path d="M45.0461 137.916L39.7961 147.01L38.8348 146.455L44.0848 137.361L45.0461 137.916Z" fill="#787878"/>
<path d="M38.2712 133.592L31.5219 141.636L30.821 141.047L31.1332 129.404L31.5009 129.713L25.6387 136.699L24.7999 135.995L31.5491 127.952L32.2501 128.54L31.9263 140.174L31.5586 139.865L37.4209 132.879L38.2712 133.592Z" fill="#787878"/>
<path d="M26.0913 121.595C26.5991 122.2 26.9687 122.843 27.2002 123.523C27.4241 124.21 27.5096 124.896 27.4569 125.579C27.4041 126.263 27.2188 126.921 26.9008 127.554C26.5765 128.178 26.1194 128.738 25.5295 129.233C24.9396 129.728 24.309 130.081 23.6375 130.292C22.9596 130.495 22.2793 130.564 21.5966 130.497C20.9075 130.422 20.2481 130.212 19.6182 129.866C18.9807 129.526 18.4081 129.054 17.9003 128.449C17.4118 127.866 17.0518 127.235 16.8203 126.555C16.5811 125.881 16.509 125.204 16.604 124.523L17.5972 124.61C17.5366 125.223 17.6006 125.789 17.7893 126.309C17.9704 126.836 18.2537 127.33 18.6394 127.789C19.0443 128.272 19.5046 128.649 20.0203 128.921C20.5282 129.2 21.064 129.364 21.6275 129.413C22.1834 129.469 22.7383 129.415 23.2921 129.25C23.8319 129.085 24.343 128.799 24.8256 128.394C25.3083 127.989 25.6819 127.532 25.9464 127.023C26.1969 126.513 26.3469 125.976 26.3962 125.412C26.4378 124.855 26.3693 124.299 26.1908 123.744C26.0045 123.195 25.7089 122.68 25.304 122.197C24.9183 121.737 24.4817 121.373 23.9943 121.103C23.5068 120.833 22.9564 120.675 22.3429 120.628L22.4298 119.635C23.1162 119.66 23.7743 119.845 24.4041 120.191C25.0339 120.537 25.5963 121.005 26.0913 121.595Z" fill="#787878"/>
<path d="M22.5333 117.197L11.04 118.29L10.4925 117.342L17.1858 107.935L17.7708 108.948L11.4411 117.695L11.2161 117.305L21.9558 116.196L22.5333 117.197ZM19.1591 116.962L18.2146 117.127L15.1621 111.84L15.7766 111.104L19.1591 116.962Z" fill="#787878"/>
<path d="M16.1988 105.274L6.33199 108.865L4.98785 105.172C4.68346 104.336 4.55807 103.567 4.61168 102.867C4.65591 102.169 4.87359 101.569 5.26474 101.065C5.64307 100.554 6.18931 100.169 6.90348 99.9094C7.59885 99.6563 8.26011 99.6018 8.88725 99.746C9.50158 99.8843 10.0544 100.204 10.5458 100.707C11.0278 101.212 11.4211 101.883 11.7255 102.72L12.8592 105.835L12.2107 105.544L15.8191 104.231L16.1988 105.274ZM13.7465 98.5361L11.0897 102.376L10.6793 101.249L13.3309 97.3944L13.7465 98.5361ZM12.2953 105.513L11.9712 106.158L10.8477 103.071C10.4886 102.084 10.0005 101.416 9.38359 101.066C8.76323 100.706 8.06307 100.669 7.28312 100.952C6.49378 101.24 5.97704 101.72 5.73289 102.395C5.48532 103.059 5.5411 103.885 5.90022 104.872L7.02376 107.959L6.36112 107.673L12.2953 105.513Z" fill="#787878"/>
<path d="M12.7088 94.64L2.36827 96.4633L2.20939 95.5622L9.93275 86.8436L10.0161 87.3163L1.03466 88.9L0.844512 87.8216L11.185 85.9983L11.3439 86.8994L3.61791 95.6033L3.53456 95.1306L12.516 93.5469L12.7088 94.64Z" fill="#787878"/>
<path d="M11 83.846L0.5 79.046V77.951L11 73.151V74.321L1.145 78.731V78.281L11 82.691V83.846ZM8.195 81.956L7.295 81.626V75.521L8.195 75.191V81.956Z" fill="#787878"/>
<path d="M12.0232 67.2477L2.62818 65.5911L1.98742 69.225L1.042 69.0583L2.51627 60.6973L3.46169 60.864L2.82093 64.498L12.216 66.1546L12.0232 67.2477Z" fill="#787878"/>
<path d="M9.02451 55.4647L10.9227 50.2494L11.8107 50.5726L9.91252 55.7879L9.02451 55.4647ZM13.6184 57.009L15.7782 51.0749L16.6803 51.4032L14.1408 58.3804L4.27405 54.7892L6.7366 48.0234L7.6387 48.3518L5.5558 54.0745L13.6184 57.009Z" fill="#787878"/>
<path d="M22.8889 34.4807L22.1765 33.8829L24.7027 30.8724L25.4151 31.4702L22.8889 34.4807Z" fill="#787878"/>
<path d="M44.9539 20.1369L39.7039 11.0436L40.6652 10.4886L45.9152 19.5819L44.9539 20.1369Z" fill="#787878"/>
<path d="M52.0862 16.4317L48.495 6.56496L49.3548 6.25201L59.2821 12.3441L58.8311 12.5082L55.7118 3.93824L56.7408 3.56373L60.332 13.4305L59.4722 13.7435L49.559 7.64626L50.0101 7.48209L53.1293 16.0521L52.0862 16.4317Z" fill="#787878"/>
<path d="M68.566 11.8822C67.788 12.0194 67.0465 12.0181 66.3415 11.8784C65.6348 11.7288 64.9985 11.4603 64.4326 11.0726C63.8667 10.685 63.3894 10.1955 63.0008 9.60395C62.622 9.01071 62.3658 8.33494 62.2321 7.57664C62.0984 6.81833 62.108 6.09568 62.2611 5.40867C62.4239 4.71992 62.705 4.09665 63.1042 3.53886C63.5132 2.97932 64.0251 2.51336 64.6398 2.14097C65.2527 1.75872 65.9482 1.49901 66.7262 1.36183C67.4746 1.22986 68.2013 1.23372 68.9063 1.37343C69.6095 1.50329 70.2319 1.7794 70.7735 2.20178L70.2017 3.01849C69.7018 2.65984 69.1793 2.43211 68.6342 2.33529C68.0874 2.22863 67.5185 2.22739 66.9276 2.33158C66.3072 2.44098 65.7502 2.65089 65.2566 2.96132C64.7613 3.2619 64.3514 3.64388 64.0269 4.10726C63.7007 4.5608 63.4704 5.06851 63.3359 5.63039C63.2095 6.1807 63.2011 6.76606 63.3105 7.38649C63.4199 8.00692 63.6289 8.55901 63.9376 9.04275C64.2544 9.51491 64.6445 9.91323 65.1079 10.2377C65.5695 10.5523 66.0853 10.7711 66.6553 10.8939C67.2236 11.007 67.8179 11.0088 68.4384 10.8994C69.0293 10.7952 69.5634 10.5995 70.0408 10.3122C70.5181 10.025 70.9303 9.62736 71.2774 9.11937L72.0941 9.69124C71.7297 10.2734 71.2401 10.7506 70.6254 11.123C70.0108 11.4954 69.3243 11.7485 68.566 11.8822Z" fill="#787878"/>
<path d="M74.154 11L78.954 0.5H80.049L84.849 11H83.679L79.269 1.145H79.719L75.309 11H74.154ZM76.044 8.195L76.374 7.295H82.479L82.809 8.195H76.044Z" fill="#787878"/>
<path d="M87.6469 11.4757L89.4702 1.1352L93.3405 1.81763C94.217 1.97218 94.9452 2.24782 95.5251 2.64455C96.1068 3.03143 96.5181 3.52029 96.7592 4.11112C97.0118 4.69385 97.0722 5.35944 96.9402 6.10789C96.8117 6.83665 96.5282 7.43654 96.0898 7.90756C95.6629 8.37047 95.1092 8.68915 94.4285 8.86361C93.7496 9.02822 92.9719 9.03325 92.0955 8.87871L88.8308 8.30306L89.4069 7.88677L88.7401 11.6684L87.6469 11.4757ZM94.708 12.7207L92.7106 8.49977L93.8924 8.70815L95.9045 12.9317L94.708 12.7207ZM89.3912 7.9754L88.9949 7.37242L92.23 7.94285C93.2641 8.12518 94.0869 8.03673 94.6986 7.67749C95.3201 7.31998 95.7029 6.73253 95.8471 5.91514C95.9929 5.0879 95.835 4.40003 95.3732 3.85151C94.9213 3.30473 94.1783 2.94017 93.1443 2.75784L89.9092 2.18741L90.4878 1.75634L89.3912 7.9754Z" fill="#787878"/>
<path d="M98.601 13.7701L102.192 3.9033L103.052 4.21625L106.741 15.2642L106.29 15.1L109.409 6.53002L110.438 6.90453L106.847 16.7713L105.987 16.4584L102.312 5.41555L102.763 5.57972L99.644 14.1497L98.601 13.7701Z" fill="#787878"/>
<path d="M108.803 17.6873L118.21 10.994L119.158 11.5415L118.065 23.0348L117.052 22.4498L118.16 11.7101L118.55 11.9351L109.804 18.2648L108.803 17.6873ZM111.843 16.2031L112.578 15.5887L117.865 18.6412L117.701 19.5856L111.843 16.2031Z" fill="#787878"/>
<path d="M122.666 26.8726L128.798 19.5645L125.972 17.1926L126.589 16.4572L133.092 21.9145L132.475 22.6499L129.649 20.278L123.516 27.5861L122.666 26.8726Z" fill="#787878"/>
<path d="M134.37 30.1671L137.937 34.4186L137.213 35.0261L133.646 30.7745L134.37 30.1671ZM130.736 33.3733L134.795 38.2109L134.059 38.828L129.287 33.1401L137.33 26.3908L141.958 31.9063L141.223 32.5234L137.308 27.8582L130.736 33.3733Z" fill="#787878"/>
<path d="M145.61 52.666L146.484 52.3479L147.828 56.0409L146.954 56.359L145.61 52.666Z" fill="#787878"/>
<path d="M147 78.9468H157.5V80.0568H147V78.9468Z" fill="#787878"/>
<path d="M146.643 86.9761L156.983 88.7994L156.824 89.7005L146.585 95.2518L146.668 94.7791L155.649 96.3627L155.459 97.4411L145.119 95.6178L145.278 94.7167L155.515 89.1802L155.431 89.6529L146.45 88.0693L146.643 86.9761Z" fill="#787878"/>
<path d="M142.343 103.523C142.613 102.78 142.985 102.139 143.458 101.598C143.941 101.061 144.492 100.644 145.111 100.348C145.729 100.052 146.392 99.8831 147.098 99.8423C147.801 99.8109 148.515 99.9269 149.238 100.19C149.962 100.454 150.583 100.823 151.101 101.299C151.616 101.785 152.016 102.34 152.299 102.964C152.579 103.598 152.727 104.275 152.742 104.993C152.767 105.715 152.644 106.447 152.374 107.19C152.114 107.904 151.747 108.531 151.273 109.072C150.809 109.616 150.259 110.017 149.622 110.275L149.201 109.371C149.762 109.118 150.22 108.779 150.576 108.355C150.942 107.935 151.228 107.443 151.433 106.879C151.648 106.287 151.745 105.7 151.723 105.117C151.71 104.538 151.585 103.992 151.346 103.479C151.116 102.97 150.791 102.517 150.372 102.119C149.959 101.735 149.456 101.435 148.864 101.219C148.272 101.004 147.689 100.909 147.116 100.934C146.549 100.972 146.009 101.111 145.496 101.35C144.993 101.593 144.545 101.93 144.154 102.362C143.772 102.798 143.473 103.312 143.258 103.904C143.052 104.467 142.955 105.028 142.965 105.585C142.975 106.142 143.113 106.698 143.38 107.252L142.476 107.674C142.154 107.067 141.986 106.404 141.97 105.686C141.955 104.967 142.079 104.246 142.343 103.523Z" fill="#787878"/>
<path d="M140.313 108.803L147.006 118.21L146.458 119.158L134.965 118.065L135.55 117.052L146.29 118.16L146.065 118.55L139.735 109.804L140.313 108.803ZM141.797 111.843L142.411 112.578L139.359 117.865L138.414 117.701L141.797 111.843Z" fill="#787878"/>
<path d="M133.154 120.251L141.198 127L138.672 130.01C138.1 130.692 137.497 131.185 136.863 131.489C136.237 131.799 135.608 131.911 134.976 131.824C134.345 131.752 133.739 131.471 133.156 130.983C132.589 130.507 132.212 129.962 132.023 129.346C131.836 128.745 131.836 128.106 132.026 127.43C132.223 126.759 132.607 126.083 133.179 125.402L135.31 122.862L135.382 123.569L132.441 121.101L133.154 120.251ZM128.546 125.743L133.2 126.124L132.428 127.043L127.765 126.674L128.546 125.743ZM135.313 123.511L136.034 123.47L133.922 125.986C133.247 126.79 132.913 127.547 132.918 128.257C132.917 128.974 133.234 129.599 133.87 130.132C134.513 130.672 135.188 130.88 135.894 130.754C136.593 130.636 137.281 130.175 137.956 129.37L140.067 126.854L140.151 127.571L135.313 123.511Z" fill="#787878"/>
<path d="M125.69 128.59L132.44 136.633L131.739 137.222L120.326 134.892L120.694 134.584L126.556 141.57L125.718 142.274L118.968 134.23L119.669 133.642L131.07 135.981L130.702 136.29L124.84 129.303L125.69 128.59Z" fill="#787878"/>
<path d="M117.197 135.467L118.29 146.96L117.342 147.508L107.935 140.814L108.948 140.229L117.695 146.559L117.305 146.784L116.196 136.044L117.197 135.467ZM116.962 138.841L117.127 139.785L111.84 142.838L111.104 142.223L116.962 138.841Z" fill="#787878"/>
<path d="M102.311 142.88L105.573 151.844L109.041 150.582L109.369 151.484L101.391 154.388L101.063 153.486L104.53 152.224L101.268 143.259L102.311 142.88Z" fill="#787878"/>
<path d="M93.6056 151.368L88.1399 152.332L87.9758 151.401L93.4415 150.438L93.6056 151.368ZM92.6461 146.618L86.427 147.714L86.2603 146.769L93.5725 145.479L95.3958 155.82L88.3052 157.07L88.1385 156.125L94.136 155.067L92.6461 146.618Z" fill="#787878"/>
</svg>
