<?xml version="1.0" standalone="no"?>
<!DOCTYPE svg PUBLIC "-//W3C//DTD SVG 20010904//EN"
 "http://www.w3.org/TR/2001/REC-SVG-20010904/DTD/svg10.dtd">
<svg version="1.0" xmlns="http://www.w3.org/2000/svg"
 width="317.000000pt" height="317.000000pt" viewBox="0 0 317.000000 317.000000"
 preserveAspectRatio="xMidYMid meet">
<metadata>
Created by potrace 1.14, written by Peter Selinger 2001-2017
</metadata>
<g transform="translate(0.000000,317.000000) scale(0.100000,-0.100000)"
fill="#000000" stroke="none">
<path d="M2788 3150 c-34 -26 -71 -103 -63 -130 13 -42 72 -14 106 51 37 74
11 122 -43 79z"/>
<path d="M2627 2959 c-10 -6 -62 -70 -116 -142 -55 -73 -115 -150 -135 -172
l-37 -40 6 68 c3 37 4 67 1 67 -15 0 -784 -1037 -797 -1077 -7 -21 -13 -64
-13 -95 l-1 -57 -19 32 c-11 18 -45 70 -76 117 -151 227 -155 231 -206 220
-22 -4 -92 -15 -156 -25 -86 -13 -118 -22 -118 -32 0 -7 44 -82 97 -166 53
-84 112 -181 131 -217 30 -58 33 -71 28 -122 -3 -32 -13 -74 -24 -95 -20 -43
-292 -404 -543 -723 -188 -239 -219 -284 -219 -321 0 -78 71 -47 205 90 97 99
237 221 255 221 25 0 12 -37 -41 -116 -59 -89 -69 -114 -47 -114 30 0 136 133
473 595 33 45 74 100 92 121 68 83 175 230 195 268 15 29 22 61 22 108 1 38 2
68 2 68 1 0 71 -112 155 -250 85 -137 161 -251 169 -253 8 -1 58 8 110 20 99
24 102 25 162 37 45 10 54 29 29 64 -43 62 -285 460 -296 487 -16 41 -10 126
13 177 11 24 84 129 162 233 166 220 220 295 220 306 0 4 -14 3 -31 -3 -36
-12 -49 -1 -42 36 3 13 97 146 210 297 113 151 212 289 221 307 12 23 13 39 6
59 -11 31 -22 36 -47 22z"/>
<path d="M2411 2860 c-33 -35 -44 -87 -15 -76 9 3 17 6 19 6 2 0 13 16 25 35
15 24 19 39 12 51 -8 15 -13 13 -41 -16z"/>
<path d="M2435 2438 c-34 -26 -85 -105 -85 -130 0 -49 76 7 114 84 35 69 23
87 -29 46z"/>
<path d="M729 207 c-15 -11 -49 -68 -49 -82 0 -17 42 -1 58 23 41 57 35 93 -9
59z"/>
<path d="M330 65 c-24 -39 -20 -55 15 -55 32 0 55 25 55 61 0 44 -41 41 -70
-6z"/>
</g>
</svg>
