<svg id="Layer_1" data-name="Layer 1" xmlns="http://www.w3.org/2000/svg" viewBox="0 0 1190.55 1190.55"><defs><style>.cls-1{fill:#fff;}.cls-2{fill:gray;}.cls-3{fill:#999;}.cls-4{fill:#b3b3b3;}</style></defs><title>mouthArtboard 1</title><path class="cls-1" d="M632.68,773.06s-65,3.63-95.59-21.74c0,0-6.06,42.23,33.91,50.12S632.68,773.06,632.68,773.06Z"/><path d="M591.73,788.77c-5.15-.65-10.27-1.53-15.32-2.64A167.51,167.51,0,0,1,555.2,780,154.48,154.48,0,0,1,538.66,773l.4-.54a154,154,0,0,0,16.45,7,165.31,165.31,0,0,0,21.1,6.06,174,174,0,0,0,23.8,3.49,144,144,0,0,0,17.07.36l0,.64a148.17,148.17,0,0,1-17.18-.36C597.47,789.43,594.6,789.13,591.73,788.77Z"/><polygon points="593.63 801.56 592.94 801.28 609.71 772.71 610.4 772.98 593.63 801.56"/><polygon points="569.79 801.22 569.08 801 583.52 769.81 584.24 770.03 569.79 801.22"/><polygon points="551.61 792.55 550.87 792.39 560.1 763.86 560.84 764.02 551.61 792.55"/><path class="cls-2" d="M592.35,780.54c-1.59-.21-3.17-.42-4.73-.65-2.68-.4-5.27-.83-7.69-1.28s-4.89-1-7.22-1.51c-3.12-.71-6.09-1.47-8.84-2.27-2.21-.64-4.34-1.32-6.34-2-2.65-.91-5.2-1.88-7.59-2.9a83.75,83.75,0,0,1-8.05-3.93,55.33,55.33,0,0,1-5.17-3.25l.27-.27.07-.36h.13l.09.07a54.38,54.38,0,0,0,5.1,3.2,81.88,81.88,0,0,0,8,3.88c2.37,1,4.9,2,7.53,2.89,2,.68,4.1,1.35,6.29,2,2.73.79,5.68,1.55,8.78,2.26,2.32.53,4.74,1,7.18,1.49s5,.88,7.65,1.28c3,.44,6.06.83,9.1,1.16,2.61.29,5.36.54,8.17.75,1.87.15,3.84.28,6,.4,3.11.18,6.21.3,9.22.37,2,0,3.6.08,5.15.09v.72c-1.56,0-3.2,0-5.17-.09-3-.07-6.13-.19-9.24-.37-2.2-.12-4.19-.25-6.06-.4-2.82-.21-5.59-.47-8.21-.76C595.29,780.9,593.82,780.72,592.35,780.54Z"/><path class="cls-3" d="M570.41,780.07l-4.77-1.22a1.72,1.72,0,0,1-1.4-2.19l.89-2.38a2.21,2.21,0,0,1,2.65-1.16l4.77,1.21a1.73,1.73,0,0,1,1.4,2.2l-.89,2.38A2.21,2.21,0,0,1,570.41,780.07Z"/><path class="cls-3" d="M547.59,772.23,543,770.57a1.65,1.65,0,0,1-1.09-2.31l1.22-2.29a2.31,2.31,0,0,1,2.79-.9l4.57,1.67a1.65,1.65,0,0,1,1.09,2.31l-1.22,2.28A2.3,2.3,0,0,1,547.59,772.23Z"/><path class="cls-3" d="M594.73,784.41l-4.91-.77a1.81,1.81,0,0,1-1.69-2l.57-2.45a2.12,2.12,0,0,1,2.47-1.39l4.91.77a1.79,1.79,0,0,1,1.68,2.05L597.2,783A2.13,2.13,0,0,1,594.73,784.41Z"/><path class="cls-3" d="M618.43,786.52l-5-.44a1.87,1.87,0,0,1-1.87-1.94l.32-2.48a2.06,2.06,0,0,1,2.34-1.55l5,.45a1.87,1.87,0,0,1,1.88,1.93l-.33,2.48A2.05,2.05,0,0,1,618.43,786.52Z"/><path class="cls-4" d="M569.68,779.25,564.91,778a1.73,1.73,0,0,1-1.4-2.19l.89-2.38a2.22,2.22,0,0,1,2.65-1.16l4.77,1.21a1.72,1.72,0,0,1,1.4,2.19l-.89,2.39A2.23,2.23,0,0,1,569.68,779.25Z"/><path class="cls-4" d="M546.86,771.41l-4.57-1.66a1.65,1.65,0,0,1-1.08-2.32l1.21-2.28a2.3,2.3,0,0,1,2.79-.9l4.57,1.67a1.65,1.65,0,0,1,1.09,2.31l-1.22,2.28A2.3,2.3,0,0,1,546.86,771.41Z"/><path class="cls-4" d="M594,783.59l-4.91-.77a1.8,1.8,0,0,1-1.68-2.05l.56-2.45a2.12,2.12,0,0,1,2.47-1.4l4.91.77a1.8,1.8,0,0,1,1.68,2l-.56,2.45A2.12,2.12,0,0,1,594,783.59Z"/><path class="cls-4" d="M617.7,785.7l-5-.45a1.86,1.86,0,0,1-1.87-1.93l.32-2.48a2.06,2.06,0,0,1,2.34-1.55l5,.44a1.88,1.88,0,0,1,1.88,1.94l-.33,2.48A2.06,2.06,0,0,1,617.7,785.7Z"/></svg>