<svg id="Layer_1" data-name="Layer 1" xmlns="http://www.w3.org/2000/svg" viewBox="0 0 1190.55 1190.55"><title>mouthArtboard 2 copy</title><path d="M578.8,794c-1.27-.47-2.59-.64-3.86-1a37.26,37.26,0,0,1-3.77-1.38,17.94,17.94,0,0,0-3.84-1.14,18.64,18.64,0,0,0-3.94-.36,14.81,14.81,0,0,0-7.67,2.35l0,.22c2.61-.14,5.12-.21,7.64-.13,1.26,0,2.52,0,3.79.08l3.83.22a11.78,11.78,0,0,1,3.79.86,25.44,25.44,0,0,1,3.53,2.1c1.16.72,2.34,1.32,3.52,2s2.36,1.31,3.6,1.93l.09-.19a14.75,14.75,0,0,0-3.13-3.34A14.1,14.1,0,0,0,578.8,794Z"/><path d="M634.66,763.83a26.62,26.62,0,0,0,1.76,8.86A47.84,47.84,0,0,1,625.65,778a95,95,0,0,1-12.58,3.48,148.5,148.5,0,0,1-52.58.89,96.36,96.36,0,0,1-12.89-3.1,49.56,49.56,0,0,1-12-5.53,49.7,49.7,0,0,0,11.85,6.07,96.82,96.82,0,0,0,12.86,3.68,151.09,151.09,0,0,0,53.43,1.36,97.05,97.05,0,0,0,13.23-3.06,52.58,52.58,0,0,0,11.84-5.21,9.34,9.34,0,0,0,7.34,3.25S640.91,775,634.66,763.83Z"/></svg>