<svg id="Layer_1" data-name="Layer 1" xmlns="http://www.w3.org/2000/svg" viewBox="0 0 1190.55 1190.55"><title>mouthArtboard 3 copy</title><path d="M531.23,779.45a10.42,10.42,0,0,0,3.94,6.64,7.87,7.87,0,0,0,3.45,1.23,13.54,13.54,0,0,0,3.8-.17,22.93,22.93,0,0,0,3.81-1,38.56,38.56,0,0,0,3.74-1.52l3.7-1.84c1.25-.62,2.53-1.2,3.8-1.8,2.56-1.17,5.15-2.27,7.78-3.32s5.26-2.08,7.93-3a50.92,50.92,0,0,1,8.21-2.29c.71-.1,1.41-.23,2.13-.3l2.16-.15a26.36,26.36,0,0,1,4.35.3,26.85,26.85,0,0,1,8.31,2.71c1.36.63,2.5,1.33,3.74,2s2.46,1.26,3.71,1.87c5,2.41,10.12,4.51,15.28,6.48a116.59,116.59,0,0,0,15.77,4.95c1.34.3,2.68.56,4,.77.68.07,1.36.19,2,.24l1,.1,1,0a20.3,20.3,0,0,0,4-.2,12.09,12.09,0,0,0,3.89-1.23l.2.29a11.47,11.47,0,0,1-3.81,2.07,19.4,19.4,0,0,1-4.27.88,37.8,37.8,0,0,1-8.64-.21,68.09,68.09,0,0,1-8.42-1.65c-2.77-.69-5.49-1.55-8.17-2.51a111.08,111.08,0,0,1-15.51-7.05c-1.25-.69-2.49-1.38-3.71-2.11l-3.57-2.2c-.59-.34-1.15-.74-1.75-1l-1.8-.92c-.61-.3-1.25-.49-1.87-.75-.31-.12-.63-.25-.95-.36l-1-.25a19.78,19.78,0,0,0-8.08-.56,15.93,15.93,0,0,0-2,.34,17.28,17.28,0,0,0-2,.48c-.67.19-1.33.38-2,.6l-1.95.75c-5.17,2.08-9.87,5.18-14.78,7.89-1.23.67-2.45,1.37-3.7,2-.62.33-1.24.64-1.88,1s-1.31.61-2,.9a29.09,29.09,0,0,1-8.47,2.42,13.89,13.89,0,0,1-4.58-.2,8.91,8.91,0,0,1-6.7-5.89,11.39,11.39,0,0,1-.62-4.31Z"/></svg>