<svg id="Layer_1" data-name="Layer 1" xmlns="http://www.w3.org/2000/svg" viewBox="0 0 1190.55 1190.55"><defs><style>.cls-1{fill:#fff;}</style></defs><title>mouthArtboard 3</title><path class="cls-1" d="M528.88,753.36s77,27.16,124.67,9c0,0-10.58,50.35-62.2,45.22S528.88,753.36,528.88,753.36Z"/><path d="M571.7,785.74q-5.44-.9-10.8-2A192,192,0,0,1,540,778l.39-.6A191.57,191.57,0,0,0,561.1,783a234.15,234.15,0,0,0,30.19,4.43,226.8,226.8,0,0,0,28,.55,213.38,213.38,0,0,0,22.82-2.19l.41.68a216.31,216.31,0,0,1-23,2.2,228.11,228.11,0,0,1-28.23-.55C584.76,787.63,578.19,786.82,571.7,785.74Z"/><polygon points="563.9 799.67 555.76 761.11 556.84 761.13 564.99 799.69 563.9 799.67"/><polygon points="592.84 807.73 588.6 767.01 589.69 767.08 593.93 807.8 592.84 807.73"/><polygon points="618.48 804.28 619.42 768.44 620.51 768.57 619.57 804.41 618.48 804.28"/></svg>