<svg id="Layer_1" data-name="Layer 1" xmlns="http://www.w3.org/2000/svg" viewBox="0 0 1190.55 1190.55"><title>mouthArtboard 4</title><path d="M620.17,773.1c-.78-.32-1.55-.61-2.34-.9-1.53-.54-3.07-1-4.64-1.46a65.64,65.64,0,0,0-9.49-1.91,63.56,63.56,0,0,0-19.23.39,61.11,61.11,0,0,0-18.05,6.2,72.67,72.67,0,0,0-15.36,11.09,71.78,71.78,0,0,1,15.8-10.19,59.73,59.73,0,0,1,17.9-5.12,61.23,61.23,0,0,1,18.48.59,65,65,0,0,1,8.93,2.29c1.46.48,2.9,1,4.31,1.62,1,.41,2,.87,2.94,1.35a41.86,41.86,0,0,0,1.78,15.55c3.83-20.25,9.26-30.39,9.26-30.39A15.25,15.25,0,0,0,620.17,773.1Z"/></svg>