<svg id="Layer_1" data-name="Layer 1" xmlns="http://www.w3.org/2000/svg" xmlns:xlink="http://www.w3.org/1999/xlink" viewBox="0 0 1190.55 1190.55"><defs><style>.cls-1{fill:url(#linear-gradient);}</style><linearGradient id="linear-gradient" x1="284.63" y1="674.65" x2="871.51" y2="674.65" gradientUnits="userSpaceOnUse"><stop offset="0.2" stop-color="#71a600"/><stop offset="0.45" stop-color="#639500"/><stop offset="0.95" stop-color="#406a00"/><stop offset="1" stop-color="#3c6500"/></linearGradient></defs><title>9 -green-behind</title><path class="cls-1" d="M852.63,730.51c41.15-57,6.25-116.94-21.48-185.83S767.33,296.45,642.67,280.05s-149.81,31.71-149.81,31.71-91.85,5.47-119.19,105-32.8,138.87-27.34,179.33,3.77,118.81-1.9,143.25c-5.2,22.42-10.13,32.54-10.13,32.54l-10.93,28.7S216.2,981,358.36,1063c0,0-30.34-70.8-9-129.85,0,0-32.8,152.54,103.34,138.6,0,0-70.89-45.93,5.15-214,0,0-65.45,142.7,40.56,161.56,0,0-13.73-57.41,7.59-83.65,0,0-36.63,116.18,74.36,102.24l50.85,2.73s166.21,6.57,129.58-133.68c0,0,27.85,55.5,16.68,93.5-9.5,32.3-40.19,66.43-76.27,37.72,0,0,31.16,68.89,96,1.64,0,0-13.12,23.79-23,28.71,0,0,78.73,9.84,71.35-63.15s-14.85-77.09-21.78-96.78S787.56,820.66,852.63,730.51Z"/></svg>