<?xml version="1.0" encoding="utf-8"?>
<!-- Generator: Adobe Illustrator 27.4.0, SVG Export Plug-In . SVG Version: 6.00 Build 0)  -->
<svg version="1.1" id="Layer_1" xmlns="http://www.w3.org/2000/svg" xmlns:xlink="http://www.w3.org/1999/xlink" x="0px" y="0px"
	 viewBox="0 0 1190.6 1190.6" style="enable-background:new 0 0 1190.6 1190.6;" xml:space="preserve">
<style type="text/css">
	.st0{fill:#000044;}
	.st1{fill:#0134A6;}
	.st2{fill:#FFFFFF;}
	.st3{fill:#D9CC7D;}
</style>
<path class="st0" d="M650.7,283.3c-27-13.2-58.5-13.2-85.5,0l-17.2-35.1c37.8-18.5,82.1-18.5,119.9,0L650.7,283.3z"/>
<g>
	<path class="st1" d="M650.7,283.3c-27-13.2-58.5-13.2-85.5,0l-17.2-35.1c37.8-18.5,82.1-18.5,119.9,0L650.7,283.3z"/>
</g>
<path class="st0" d="M457.6,275.5c0,0-29.2,4.9-24.6,64.1c0.4,4.9,9.8-6.8,23.6-8c39.9-3.3,141.1-18.5,116.2-75.5
	C542.9,187.6,457.6,275.5,457.6,275.5z"/>
<g>
	<path class="st1" d="M457.6,275.5c0,0-29.2,4.9-24.6,64.1c0.4,4.9,9.8-6.8,23.6-8c39.9-3.3,141.1-18.5,116.2-75.5
		C542.9,187.6,457.6,275.5,457.6,275.5z"/>
</g>
<path class="st1" d="M447.1,250.1l6.1,34.1c4,17.1,44.2,24.8,77.3,17.1c33-7.7,46.4-28,42.4-45.1l-6.1-34.1L447.1,250.1z"/>
<g>
	<path class="st0" d="M447.1,250.1l6.1,34.1c4,17.1,44.2,24.8,77.3,17.1c33-7.7,46.4-28,42.4-45.1l-6.1-34.1L447.1,250.1z"/>
</g>
<path class="st0" d="M565.6,237.7c-4.6,12.4-18.1,24-41.3,29.4c-23.7,5.5-51,3.2-66.1-4.9c-6-3.2-10-7.3-11.2-12.2
	c-4-17.1,19.5-37.3,52.5-45s63.1-0.1,67.1,17C567.9,227.3,567.5,232.7,565.6,237.7z"/>
<g>
	<path class="st1" d="M565.6,237.7c-4.6,12.4-18.1,24-41.3,29.4c-23.7,5.5-51,3.2-66.1-4.9c-6-3.2-10-7.3-11.2-12.2
		c-4-17.1,19.5-37.3,52.5-45s63.1-0.1,67.1,17C567.9,227.3,567.5,232.7,565.6,237.7z"/>
</g>
<path class="st2" d="M565.6,237.7c-4.6,12.4-18.1,24-41.3,29.4c-23.7,5.5-51,3.2-66.1-4.9c-0.7-0.9-1.3-2-1.6-3.1
	c-2.8-12.1,19.8-29.9,49.2-36.8s56.6,0.9,59.4,13C565.4,236.1,565.6,236.9,565.6,237.7z"/>
<g>
	<path class="st3" d="M565.6,237.7c-4.6,12.4-18.1,24-41.3,29.4c-23.7,5.5-51,3.2-66.1-4.9c-0.7-0.9-1.3-2-1.6-3.1
		c-2.8-12.1,19.8-29.9,49.2-36.8s56.6,0.9,59.4,13C565.4,236.1,565.6,236.9,565.6,237.7z"/>
</g>
<path class="st0" d="M754.5,275.5c0,0,29.2,4.9,24.6,64.1c-0.4,4.9-9.8-6.8-23.6-8c-39.9-3.3-141.1-18.5-116.2-75.5
	C669.1,187.6,754.5,275.5,754.5,275.5z"/>
<g>
	<path class="st1" d="M754.5,275.5c0,0,29.2,4.9,24.6,64.1c-0.4,4.9-9.8-6.8-23.6-8c-39.9-3.3-141.1-18.5-116.2-75.5
		C669.1,187.6,754.5,275.5,754.5,275.5z"/>
</g>
<path class="st1" d="M765,250.1l-6.1,34.1c-4,17.1-44.2,24.8-77.3,17.1c-33-7.7-46.4-28-42.4-45.1l6.1-34.1L765,250.1z"/>
<g>
	<path class="st0" d="M765,250.1l-6.1,34.1c-4,17.1-44.2,24.8-77.3,17.1c-33-7.7-46.4-28-42.4-45.1l6.1-34.1L765,250.1z"/>
</g>
<path class="st0" d="M646.5,237.7c4.6,12.4,18.1,24,41.3,29.4c23.7,5.5,51,3.2,66.1-4.9c6-3.2,10-7.3,11.2-12.2
	c4-17.1-19.5-37.3-52.5-45s-63.1-0.1-67.1,17C644.1,227.3,644.5,232.7,646.5,237.7z"/>
<g>
	<path class="st1" d="M646.5,237.7c4.6,12.4,18.1,24,41.3,29.4c23.7,5.5,51,3.2,66.1-4.9c6-3.2,10-7.3,11.2-12.2
		c4-17.1-19.5-37.3-52.5-45s-63.1-0.1-67.1,17C644.1,227.3,644.5,232.7,646.5,237.7z"/>
</g>
<path class="st2" d="M646.5,237.7c4.6,12.4,18.1,24,41.3,29.4c23.7,5.5,51,3.2,66.1-4.9c0.7-0.9,1.3-2,1.6-3.1
	c2.8-12.1-19.8-29.9-49.2-36.8c-29.3-6.9-56.6,0.9-59.4,13C646.6,236.1,646.5,236.9,646.5,237.7z"/>
<g>
	<path class="st3" d="M646.5,237.7c4.6,12.4,18.1,24,41.3,29.4c23.7,5.5,51,3.2,66.1-4.9c0.7-0.9,1.3-2,1.6-3.1
		c2.8-12.1-19.8-29.9-49.2-36.8c-29.3-6.9-56.6,0.9-59.4,13C646.6,236.1,646.5,236.9,646.5,237.7z"/>
</g>
</svg>
