<?xml version="1.0" encoding="UTF-8"?>
<!DOCTYPE svg PUBLIC "-//W3C//DTD SVG 1.1//EN" "http://www.w3.org/Graphics/SVG/1.1/DTD/svg11.dtd">
<svg xmlns="http://www.w3.org/2000/svg" version="1.1" width="1191px" height="1191px" style="shape-rendering:geometricPrecision; text-rendering:geometricPrecision; image-rendering:optimizeQuality; fill-rule:evenodd; clip-rule:evenodd" xmlns:xlink="http://www.w3.org/1999/xlink">
<g><path style="opacity:1" fill="#a26237" d="M 403.5,186.5 C 400.895,189.253 398.895,191.92 397.5,194.5C 396.596,193.791 396.263,192.791 396.5,191.5C 393.67,191.694 391.004,192.361 388.5,193.5C 388.775,198.22 387.941,198.554 386,194.5C 385.028,196.768 383.695,198.768 382,200.5C 381.05,199.978 380.216,199.311 379.5,198.5C 378.376,200.369 377.543,202.369 377,204.5C 372.862,208.533 368.362,212.033 363.5,215C 361.448,218.038 359.614,220.538 358,222.5C 357.282,221.549 356.449,221.383 355.5,222C 355.116,222.951 354.783,223.784 354.5,224.5C 352.952,224.179 352.285,223.179 352.5,221.5C 354.983,219.931 357.483,218.265 360,216.5C 360.819,211.014 363.985,208.514 369.5,209C 367.311,208.323 366.978,207.156 368.5,205.5C 369.689,204.571 371.022,204.238 372.5,204.5C 372.36,202.876 373.027,201.71 374.5,201C 369.321,198.913 369.655,197.247 375.5,196C 376.833,195.333 376.833,194.667 375.5,194C 379.169,192.98 382.503,191.313 385.5,189C 387.764,188.764 389.931,188.264 392,187.5C 392.519,188.516 393.353,189.182 394.5,189.5C 396.147,188.722 397.48,187.556 398.5,186C 400.387,185.22 402.054,185.387 403.5,186.5 Z"/></g>
<g><path style="opacity:1" fill="#9a582c" d="M 826.5,185.5 C 827.028,186.721 827.695,187.887 828.5,189C 828.167,189.333 827.833,189.667 827.5,190C 828.931,190.465 830.097,191.299 831,192.5C 834.269,191.182 837.435,191.182 840.5,192.5C 841.028,193.721 841.695,194.887 842.5,196C 841.939,197.566 842.606,198.899 844.5,200C 846.025,201.009 847.692,201.509 849.5,201.5C 849.643,203.262 849.309,204.929 848.5,206.5C 850.738,207.853 852.071,209.853 852.5,212.5C 852.833,212.833 853.167,213.167 853.5,213.5C 854.167,212.833 854.833,212.167 855.5,211.5C 858.039,213.542 860.039,216.042 861.5,219C 860.291,222.301 860.958,225.301 863.5,228C 862.906,228.464 862.239,228.631 861.5,228.5C 859.859,225.858 858.525,222.858 857.5,219.5C 857.608,218.558 857.941,217.725 858.5,217C 857.069,216.535 855.903,215.701 855,214.5C 853.956,215.623 853.29,216.956 853,218.5C 851.341,213.009 847.841,209.342 842.5,207.5C 841.117,210.076 840.283,209.742 840,206.5C 839.29,207.973 838.124,208.64 836.5,208.5C 837.142,205.086 838.809,202.253 841.5,200C 840.216,199.316 839.049,199.483 838,200.5C 837,197.833 836,197.833 835,200.5C 834.333,199.833 833.667,199.167 833,198.5C 830.867,199.255 829.2,200.588 828,202.5C 826.615,201.449 825.615,200.116 825,198.5C 824.311,199.357 823.478,200.023 822.5,200.5C 821.41,199.273 820.076,198.44 818.5,198C 820.929,197.549 821.096,196.715 819,195.5C 818.667,195.833 818.333,196.167 818,196.5C 816.933,195.809 815.766,195.309 814.5,195C 815.696,194.346 815.696,193.846 814.5,193.5C 813.386,194.723 813.219,196.056 814,197.5C 822.757,201.869 822.591,205.202 813.5,207.5C 812.833,207.5 812.5,207.167 812.5,206.5C 811.924,204.624 812.591,202.957 814.5,201.5C 813.455,199.795 812.122,198.295 810.5,197C 811.308,194.912 812.308,192.912 813.5,191C 812.572,190.612 811.905,189.945 811.5,189C 812.992,187.115 814.992,186.115 817.5,186C 820.482,185.502 823.482,185.335 826.5,185.5 Z"/></g>
<g><path style="opacity:0.973" fill="#ae6f45" d="M 416.5,186.5 C 412.069,186.231 407.735,186.564 403.5,187.5C 403.5,187.167 403.5,186.833 403.5,186.5C 402.054,185.387 400.387,185.22 398.5,186C 397.48,187.556 396.147,188.722 394.5,189.5C 393.353,189.182 392.519,188.516 392,187.5C 389.931,188.264 387.764,188.764 385.5,189C 382.503,191.313 379.169,192.98 375.5,194C 376.833,194.667 376.833,195.333 375.5,196C 369.655,197.247 369.321,198.913 374.5,201C 373.027,201.71 372.36,202.876 372.5,204.5C 371.022,204.238 369.689,204.571 368.5,205.5C 366.978,207.156 367.311,208.323 369.5,209C 363.985,208.514 360.819,211.014 360,216.5C 357.483,218.265 354.983,219.931 352.5,221.5C 351.448,221.351 350.448,221.517 349.5,222C 348.624,224.376 346.958,225.876 344.5,226.5C 344.833,227.167 345.167,227.833 345.5,228.5C 343.343,230.412 341.009,232.079 338.5,233.5C 339.531,234.7 340.365,236.034 341,237.5C 343.391,236.398 343.891,237.064 342.5,239.5C 342.977,240.478 343.643,241.311 344.5,242C 342.772,241.647 341.106,241.481 339.5,241.5C 338.41,242.391 338.41,243.391 339.5,244.5C 338.675,245.386 337.675,245.719 336.5,245.5C 336.715,247.179 336.048,248.179 334.5,248.5C 334.336,245.813 334.503,243.146 335,240.5C 336.264,234.755 338.43,229.422 341.5,224.5C 342.447,222.545 343.781,222.211 345.5,223.5C 347.211,220.097 349.544,217.263 352.5,215C 353.449,214.383 354.282,214.549 355,215.5C 355.483,214.552 355.649,213.552 355.5,212.5C 359.252,210.788 362.919,208.788 366.5,206.5C 366.291,205.914 365.957,205.414 365.5,205C 367.213,203.622 368.547,201.955 369.5,200C 367.956,199.71 366.623,199.044 365.5,198C 366.931,197.535 368.097,196.701 369,195.5C 370.84,196.833 371.34,196.666 370.5,195C 371.167,193.667 371.833,192.333 372.5,191C 375.85,189.514 379.184,188.347 382.5,187.5C 393.906,184.241 405.239,183.908 416.5,186.5 Z"/></g>
<g><path style="opacity:1" fill="#985528" d="M 403.5,186.5 C 403.5,186.833 403.5,187.167 403.5,187.5C 404.166,189.673 405.333,190.007 407,188.5C 411.236,189.317 411.402,190.317 407.5,191.5C 407.667,191.833 407.833,192.167 408,192.5C 410.444,190.105 413.444,188.438 417,187.5C 417.915,188.328 418.581,189.328 419,190.5C 421.399,187.999 423.899,187.999 426.5,190.5C 426.291,191.086 425.957,191.586 425.5,192C 428.044,193.092 430.711,193.759 433.5,194C 435.455,196.168 436.121,198.502 435.5,201C 439.313,206.084 443.647,211.25 448.5,216.5C 448,216.833 447.5,217.167 447,217.5C 444.953,216.391 442.787,215.724 440.5,215.5C 440.969,218.643 442.636,220.977 445.5,222.5C 446.833,224.5 448.167,226.5 449.5,228.5C 448.833,228.5 448.167,228.5 447.5,228.5C 446.833,227.167 445.833,226.167 444.5,225.5C 442.525,223.863 440.525,222.196 438.5,220.5C 431.91,215.188 424.577,211.188 416.5,208.5C 419.579,206.455 422.912,204.622 426.5,203C 422.924,201.253 419.258,199.753 415.5,198.5C 413.143,199.095 410.977,200.095 409,201.5C 406.91,200.209 405.576,200.876 405,203.5C 404.275,202.941 403.442,202.608 402.5,202.5C 397.573,204.857 392.573,204.857 387.5,202.5C 387.238,201.022 387.571,199.689 388.5,198.5C 390.5,198.5 392.5,198.5 394.5,198.5C 395.524,197.148 396.524,195.815 397.5,194.5C 398.895,191.92 400.895,189.253 403.5,186.5 Z"/></g>
<g><path style="opacity:0.999" fill="#aa602f" d="M 826.5,185.5 C 823.482,185.335 820.482,185.502 817.5,186C 814.992,186.115 812.992,187.115 811.5,189C 811.905,189.945 812.572,190.612 813.5,191C 812.308,192.912 811.308,194.912 810.5,197C 812.122,198.295 813.455,199.795 814.5,201.5C 812.591,202.957 811.924,204.624 812.5,206.5C 811.167,206.5 809.833,206.5 808.5,206.5C 808.737,207.791 808.404,208.791 807.5,209.5C 807.5,208.5 807.5,207.5 807.5,206.5C 804.506,205.846 801.506,205.179 798.5,204.5C 794.5,205 790.5,205.5 786.5,206C 780.817,207.874 775.484,210.374 770.5,213.5C 774.45,208.328 779.784,204.828 786.5,203C 784.012,201.315 784.345,199.981 787.5,199C 786.696,197.229 785.529,195.729 784,194.5C 782.644,195.38 781.144,195.714 779.5,195.5C 794.349,187.868 810.016,184.534 826.5,185.5 Z"/></g>
<g><path style="opacity:1" fill="#914e21" d="M 861.5,228.5 C 860.321,230.507 860.821,230.84 863,229.5C 866.022,230.643 866.188,231.977 863.5,233.5C 861.38,232.128 860.38,232.795 860.5,235.5C 854.729,222.243 844.729,213.743 830.5,210C 824.89,208.697 819.223,207.864 813.5,207.5C 822.591,205.202 822.757,201.869 814,197.5C 813.219,196.056 813.386,194.723 814.5,193.5C 815.696,193.846 815.696,194.346 814.5,195C 815.766,195.309 816.933,195.809 818,196.5C 818.333,196.167 818.667,195.833 819,195.5C 821.096,196.715 820.929,197.549 818.5,198C 820.076,198.44 821.41,199.273 822.5,200.5C 823.478,200.023 824.311,199.357 825,198.5C 825.615,200.116 826.615,201.449 828,202.5C 829.2,200.588 830.867,199.255 833,198.5C 833.667,199.167 834.333,199.833 835,200.5C 836,197.833 837,197.833 838,200.5C 839.049,199.483 840.216,199.316 841.5,200C 838.809,202.253 837.142,205.086 836.5,208.5C 838.124,208.64 839.29,207.973 840,206.5C 840.283,209.742 841.117,210.076 842.5,207.5C 847.841,209.342 851.341,213.009 853,218.5C 853.29,216.956 853.956,215.623 855,214.5C 855.903,215.701 857.069,216.535 858.5,217C 857.941,217.725 857.608,218.558 857.5,219.5C 858.525,222.858 859.859,225.858 861.5,228.5 Z"/></g>
<g><path style="opacity:1" fill="#a36339" d="M 826.5,185.5 C 831.613,185.431 836.613,186.097 841.5,187.5C 844.607,188.124 847.607,189.124 850.5,190.5C 851.789,193.58 853.455,196.414 855.5,199C 854.483,200.049 854.316,201.216 855,202.5C 858.106,201.8 860.94,202.634 863.5,205C 863.043,205.414 862.709,205.914 862.5,206.5C 863.808,209.415 865.808,211.748 868.5,213.5C 867.926,215.059 867.26,216.559 866.5,218C 869.317,220.811 871.484,220.644 873,217.5C 874.252,219.001 875.252,220.668 876,222.5C 877.362,223.925 878.862,224.758 880.5,225C 880.167,225.333 879.833,225.667 879.5,226C 880.308,226.308 880.975,226.808 881.5,227.5C 880.051,228.172 878.718,228.839 877.5,229.5C 876.5,229.5 875.5,229.5 874.5,229.5C 874.657,228.127 874.49,226.793 874,225.5C 872.612,225.786 871.112,225.452 869.5,224.5C 869.918,223.778 870.584,223.278 871.5,223C 868.183,221.282 865.183,219.115 862.5,216.5C 861.691,214.929 861.357,213.262 861.5,211.5C 859.202,210.69 856.868,209.856 854.5,209C 854.957,208.586 855.291,208.086 855.5,207.5C 854.726,206.289 853.893,206.289 853,207.5C 852.384,204.213 850.884,201.379 848.5,199C 848.833,198.667 849.167,198.333 849.5,198C 847.367,196.598 845.7,194.765 844.5,192.5C 843.274,193.363 841.94,193.363 840.5,192.5C 837.435,191.182 834.269,191.182 831,192.5C 830.097,191.299 828.931,190.465 827.5,190C 827.833,189.667 828.167,189.333 828.5,189C 827.695,187.887 827.028,186.721 826.5,185.5 Z"/></g>
<g><path style="opacity:0.99" fill="#a35b2a" d="M 770.5,213.5 C 762.809,217.684 755.809,222.851 749.5,229C 748.552,229.483 747.552,229.649 746.5,229.5C 747.511,225.144 749.344,221.144 752,217.5C 754.696,213.639 757.863,210.306 761.5,207.5C 766.679,202.331 772.679,198.331 779.5,195.5C 781.144,195.714 782.644,195.38 784,194.5C 785.529,195.729 786.696,197.229 787.5,199C 784.345,199.981 784.012,201.315 786.5,203C 779.784,204.828 774.45,208.328 770.5,213.5 Z"/></g>
<g><path style="opacity:0.977" fill="#b3764d" d="M 382.5,187.5 C 379.184,188.347 375.85,189.514 372.5,191C 371.833,192.333 371.167,193.667 370.5,195C 371.34,196.666 370.84,196.833 369,195.5C 368.097,196.701 366.931,197.535 365.5,198C 366.623,199.044 367.956,199.71 369.5,200C 368.547,201.955 367.213,203.622 365.5,205C 365.957,205.414 366.291,205.914 366.5,206.5C 362.919,208.788 359.252,210.788 355.5,212.5C 355.649,213.552 355.483,214.552 355,215.5C 354.282,214.549 353.449,214.383 352.5,215C 349.544,217.263 347.211,220.097 345.5,223.5C 343.781,222.211 342.447,222.545 341.5,224.5C 343.552,216.516 347.218,209.349 352.5,203C 359.211,195.959 367.211,190.959 376.5,188C 378.473,187.505 380.473,187.338 382.5,187.5 Z"/></g>
<g><path style="opacity:1" fill="#a15a2b" d="M 416.5,186.5 C 440.886,189.603 460.719,200.603 476,219.5C 479.009,224.514 481.176,229.848 482.5,235.5C 481.778,235.918 481.278,236.584 481,237.5C 478.692,236.009 476.192,235.009 473.5,234.5C 472.684,231.326 471.351,228.326 469.5,225.5C 465.97,222.805 462.304,220.305 458.5,218C 459.711,217.107 459.711,216.274 458.5,215.5C 456.418,217.715 454.585,220.048 453,222.5C 450.084,223.557 447.584,223.557 445.5,222.5C 442.636,220.977 440.969,218.643 440.5,215.5C 442.787,215.724 444.953,216.391 447,217.5C 447.5,217.167 448,216.833 448.5,216.5C 443.647,211.25 439.313,206.084 435.5,201C 436.121,198.502 435.455,196.168 433.5,194C 430.711,193.759 428.044,193.092 425.5,192C 425.957,191.586 426.291,191.086 426.5,190.5C 423.899,187.999 421.399,187.999 419,190.5C 418.581,189.328 417.915,188.328 417,187.5C 413.444,188.438 410.444,190.105 408,192.5C 407.833,192.167 407.667,191.833 407.5,191.5C 411.402,190.317 411.236,189.317 407,188.5C 405.333,190.007 404.166,189.673 403.5,187.5C 407.735,186.564 412.069,186.231 416.5,186.5 Z"/></g>
<g><path style="opacity:1" fill="#ae6f46" d="M 841.5,187.5 C 841.56,186.957 841.893,186.624 842.5,186.5C 859.79,190.294 872.623,199.961 881,215.5C 882.018,218.588 883.185,221.588 884.5,224.5C 881.875,225.458 881.875,226.624 884.5,228C 883.663,229.011 883.33,230.178 883.5,231.5C 884.5,231.5 885.5,231.5 886.5,231.5C 886.33,232.822 886.663,233.989 887.5,235C 886.299,235.903 885.465,237.069 885,238.5C 883.89,236.963 882.39,236.297 880.5,236.5C 878.922,235.934 877.588,234.934 876.5,233.5C 878.506,233.868 880.506,233.368 882.5,232C 881.1,230.562 879.433,229.729 877.5,229.5C 878.718,228.839 880.051,228.172 881.5,227.5C 880.975,226.808 880.308,226.308 879.5,226C 879.833,225.667 880.167,225.333 880.5,225C 878.862,224.758 877.362,223.925 876,222.5C 875.252,220.668 874.252,219.001 873,217.5C 871.484,220.644 869.317,220.811 866.5,218C 867.26,216.559 867.926,215.059 868.5,213.5C 865.808,211.748 863.808,209.415 862.5,206.5C 862.709,205.914 863.043,205.414 863.5,205C 860.94,202.634 858.106,201.8 855,202.5C 854.316,201.216 854.483,200.049 855.5,199C 853.455,196.414 851.789,193.58 850.5,190.5C 847.607,189.124 844.607,188.124 841.5,187.5 Z"/></g>
<g><path style="opacity:1" fill="#9c5b2f" d="M 840.5,192.5 C 841.94,193.363 843.274,193.363 844.5,192.5C 845.7,194.765 847.367,196.598 849.5,198C 849.167,198.333 848.833,198.667 848.5,199C 850.884,201.379 852.384,204.213 853,207.5C 853.893,206.289 854.726,206.289 855.5,207.5C 855.291,208.086 854.957,208.586 854.5,209C 856.868,209.856 859.202,210.69 861.5,211.5C 861.357,213.262 861.691,214.929 862.5,216.5C 865.183,219.115 868.183,221.282 871.5,223C 870.584,223.278 869.918,223.778 869.5,224.5C 870.857,226.499 870.19,227.665 867.5,228C 869.384,228.216 871.051,228.883 872.5,230C 871.833,230.333 871.167,230.667 870.5,231C 873.015,231.939 873.682,233.439 872.5,235.5C 871.132,236.306 869.799,237.306 868.5,238.5C 867.808,237.975 867.308,237.308 867,236.5C 864.745,237.868 863.245,239.201 862.5,240.5C 862.598,238.447 861.931,236.78 860.5,235.5C 860.38,232.795 861.38,232.128 863.5,233.5C 866.188,231.977 866.022,230.643 863,229.5C 860.821,230.84 860.321,230.507 861.5,228.5C 862.239,228.631 862.906,228.464 863.5,228C 860.958,225.301 860.291,222.301 861.5,219C 860.039,216.042 858.039,213.542 855.5,211.5C 854.833,212.167 854.167,212.833 853.5,213.5C 853.167,213.167 852.833,212.833 852.5,212.5C 852.071,209.853 850.738,207.853 848.5,206.5C 849.309,204.929 849.643,203.262 849.5,201.5C 847.692,201.509 846.025,201.009 844.5,200C 842.606,198.899 841.939,197.566 842.5,196C 841.695,194.887 841.028,193.721 840.5,192.5 Z"/></g>
<g><path style="opacity:1" fill="#935024" d="M 416.5,208.5 C 408.83,206.801 401.497,207.468 394.5,210.5C 389.629,211.602 384.962,213.269 380.5,215.5C 379.234,214.91 377.901,214.41 376.5,214C 377.646,213.355 378.646,212.522 379.5,211.5C 380.086,211.709 380.586,212.043 381,212.5C 381,211.167 381,209.833 381,208.5C 382.507,209.535 384.007,209.368 385.5,208C 384.529,206.796 383.529,206.296 382.5,206.5C 383.025,205.808 383.692,205.308 384.5,205C 383.85,203.391 384.35,201.891 386,200.5C 386.278,201.416 386.778,202.082 387.5,202.5C 392.573,204.857 397.573,204.857 402.5,202.5C 403.442,202.608 404.275,202.941 405,203.5C 405.576,200.876 406.91,200.209 409,201.5C 410.977,200.095 413.143,199.095 415.5,198.5C 419.258,199.753 422.924,201.253 426.5,203C 422.912,204.622 419.579,206.455 416.5,208.5 Z"/></g>
<g><path style="opacity:1" fill="#502d16" d="M 829.5,224.5 C 829.565,224.938 829.399,225.272 829,225.5C 827.622,223.787 825.955,222.453 824,221.5C 822.312,222.325 822.145,223.325 823.5,224.5C 822.91,225.799 821.91,226.632 820.5,227C 822.167,227.333 823.833,227.667 825.5,228C 822.876,228.576 822.209,229.91 823.5,232C 821.687,231.954 820.021,232.12 818.5,232.5C 817.526,234.743 817.192,237.076 817.5,239.5C 815.836,240.743 814.669,242.41 814,244.5C 813.581,243.328 812.915,242.328 812,241.5C 810.414,242.376 808.914,243.376 807.5,244.5C 806.712,243.23 805.712,242.23 804.5,241.5C 803.07,241.579 801.736,241.246 800.5,240.5C 799.943,238.668 798.943,237.335 797.5,236.5C 797.034,234.799 797.034,233.299 797.5,232C 793.148,231.581 792.815,230.914 796.5,230C 795.167,228.667 793.833,227.333 792.5,226C 792.957,225.586 793.291,225.086 793.5,224.5C 792.5,223.667 791.5,222.833 790.5,222C 790.833,221.667 791.167,221.333 791.5,221C 790.256,220.544 789.423,221.044 789,222.5C 787.494,220.826 785.661,219.826 783.5,219.5C 783.833,218.833 784.167,218.167 784.5,217.5C 786.062,217.267 787.395,216.6 788.5,215.5C 796.482,213.131 804.649,211.465 813,210.5C 815.343,210.682 817.176,211.682 818.5,213.5C 819.281,212.271 819.781,210.938 820,209.5C 820.465,210.931 821.299,212.097 822.5,213C 821.446,214.388 821.28,215.888 822,217.5C 822.333,217.167 822.667,216.833 823,216.5C 824.171,217.893 825.671,218.727 827.5,219C 828.244,220.815 828.911,222.648 829.5,224.5 Z"/></g>
<g><path style="opacity:1" fill="#583219" d="M 812.5,206.5 C 812.5,207.167 812.833,207.5 813.5,207.5C 819.223,207.864 824.89,208.697 830.5,210C 844.729,213.743 854.729,222.243 860.5,235.5C 861.931,236.78 862.598,238.447 862.5,240.5C 862.167,240.5 861.833,240.5 861.5,240.5C 861.489,238.983 860.823,237.816 859.5,237C 856.377,234.896 853.211,232.729 850,230.5C 850.138,232.49 850.638,234.49 851.5,236.5C 851.333,237.167 851.167,237.833 851,238.5C 850.333,237.167 849.667,237.167 849,238.5C 847.318,237.135 847.151,235.635 848.5,234C 842.77,233.186 842.436,232.019 847.5,230.5C 845.955,227.803 846.621,225.803 849.5,224.5C 848.092,223.757 846.759,222.923 845.5,222C 845.833,221.667 846.167,221.333 846.5,221C 845.216,220.316 844.049,220.483 843,221.5C 841.925,219.17 840.425,217.837 838.5,217.5C 838.527,218.86 838.527,220.193 838.5,221.5C 836.179,221.771 834.179,221.104 832.5,219.5C 831.304,221.145 830.304,222.811 829.5,224.5C 828.911,222.648 828.244,220.815 827.5,219C 825.671,218.727 824.171,217.893 823,216.5C 822.667,216.833 822.333,217.167 822,217.5C 821.28,215.888 821.446,214.388 822.5,213C 821.299,212.097 820.465,210.931 820,209.5C 819.781,210.938 819.281,212.271 818.5,213.5C 817.176,211.682 815.343,210.682 813,210.5C 804.649,211.465 796.482,213.131 788.5,215.5C 794.457,212.752 800.79,210.752 807.5,209.5C 808.404,208.791 808.737,207.791 808.5,206.5C 809.833,206.5 811.167,206.5 812.5,206.5 Z"/></g>
<g><path style="opacity:1" fill="#c3713a" d="M 807.5,209.5 C 800.79,210.752 794.457,212.752 788.5,215.5C 787.395,216.6 786.062,217.267 784.5,217.5C 783.687,216.347 782.687,216.347 781.5,217.5C 780.833,216.833 780.167,216.167 779.5,215.5C 777.174,218.418 774.341,220.751 771,222.5C 769.377,221.079 768.21,219.412 767.5,217.5C 768.5,216.167 769.5,214.833 770.5,213.5C 775.484,210.374 780.817,207.874 786.5,206C 790.5,205.5 794.5,205 798.5,204.5C 801.506,205.179 804.506,205.846 807.5,206.5C 807.5,207.5 807.5,208.5 807.5,209.5 Z"/></g>
<g><path style="opacity:1" fill="#4c2a14" d="M 416.5,208.5 C 424.577,211.188 431.91,215.188 438.5,220.5C 436.533,220.261 434.699,220.594 433,221.5C 432.235,217.638 430.068,216.638 426.5,218.5C 426.167,219.167 425.833,219.833 425.5,220.5C 426.167,220.833 426.833,221.167 427.5,221.5C 425.033,223.79 425.033,225.957 427.5,228C 425.423,228.192 423.423,228.692 421.5,229.5C 420.754,230.736 420.421,232.07 420.5,233.5C 422.912,233.244 424.579,234.244 425.5,236.5C 423.865,237.681 422.198,237.681 420.5,236.5C 419.5,237.833 418.5,239.167 417.5,240.5C 416.451,237.92 415.784,235.254 415.5,232.5C 414.448,232.649 413.448,232.483 412.5,232C 414.167,231.667 415.833,231.333 417.5,231C 416.944,230.617 416.611,230.117 416.5,229.5C 418.942,228.101 421.276,226.434 423.5,224.5C 423.167,224.167 422.833,223.833 422.5,223.5C 421.086,224.624 419.586,225.624 418,226.5C 417.552,224.591 418.385,223.424 420.5,223C 418.623,220.749 417.123,218.249 416,215.5C 414.989,214.663 413.822,214.33 412.5,214.5C 412.64,216.124 411.973,217.29 410.5,218C 410.833,218.333 411.167,218.667 411.5,219C 410.584,219.374 409.75,219.874 409,220.5C 408.023,217.898 406.856,215.398 405.5,213C 404.551,212.383 403.718,212.549 403,213.5C 401.667,212.167 400.333,210.833 399,209.5C 398.667,210.167 398.333,210.833 398,211.5C 396.989,210.663 395.822,210.33 394.5,210.5C 401.497,207.468 408.83,206.801 416.5,208.5 Z"/></g>
<g><path style="opacity:1" fill="#af6331" d="M 473.5,234.5 C 473.217,235.289 472.717,235.956 472,236.5C 470.306,232.604 469.14,232.938 468.5,237.5C 467.304,237.154 467.304,236.654 468.5,236C 467.551,235.383 466.718,235.549 466,236.5C 465.667,235.833 465.333,235.167 465,234.5C 464.751,235.624 464.251,236.624 463.5,237.5C 462.61,235.174 462.443,232.841 463,230.5C 462.085,231.328 461.419,232.328 461,233.5C 459.556,231.845 457.722,231.178 455.5,231.5C 454.132,230.694 452.799,229.694 451.5,228.5C 450.893,228.624 450.56,228.957 450.5,229.5C 449.833,229.5 449.5,229.167 449.5,228.5C 448.167,226.5 446.833,224.5 445.5,222.5C 447.584,223.557 450.084,223.557 453,222.5C 454.585,220.048 456.418,217.715 458.5,215.5C 459.711,216.274 459.711,217.107 458.5,218C 462.304,220.305 465.97,222.805 469.5,225.5C 471.351,228.326 472.684,231.326 473.5,234.5 Z"/></g>
<g><path style="opacity:1" fill="#482812" d="M 416.5,229.5 C 415.295,228.328 415.295,226.995 416.5,225.5C 413.358,223.079 410.025,222.912 406.5,225C 407.833,226 407.833,227 406.5,228C 410.278,229.64 410.278,230.807 406.5,231.5C 404.766,229.91 403.6,227.91 403,225.5C 401.716,226.572 401.383,227.905 402,229.5C 401.586,229.043 401.086,228.709 400.5,228.5C 399.833,229.833 399.167,231.167 398.5,232.5C 397.402,228.639 396.569,228.639 396,232.5C 395.333,231.167 395.333,229.833 396,228.5C 398.775,227.864 400.941,226.364 402.5,224C 401.004,223.493 399.837,223.993 399,225.5C 398.722,224.584 398.222,223.918 397.5,223.5C 397.665,219.818 397.499,216.152 397,212.5C 396.005,211.934 395.172,211.267 394.5,210.5C 395.822,210.33 396.989,210.663 398,211.5C 398.333,210.833 398.667,210.167 399,209.5C 400.333,210.833 401.667,212.167 403,213.5C 403.718,212.549 404.551,212.383 405.5,213C 406.856,215.398 408.023,217.898 409,220.5C 409.75,219.874 410.584,219.374 411.5,219C 411.167,218.667 410.833,218.333 410.5,218C 411.973,217.29 412.64,216.124 412.5,214.5C 413.822,214.33 414.989,214.663 416,215.5C 417.123,218.249 418.623,220.749 420.5,223C 418.385,223.424 417.552,224.591 418,226.5C 419.586,225.624 421.086,224.624 422.5,223.5C 422.833,223.833 423.167,224.167 423.5,224.5C 421.276,226.434 418.942,228.101 416.5,229.5 Z"/></g>
<g><path style="opacity:1" fill="#543018" d="M 838.5,221.5 C 839.058,222.79 840.058,223.623 841.5,224C 841.167,224.333 840.833,224.667 840.5,225C 842.044,225.29 843.377,225.956 844.5,227C 841.833,227.333 839.167,227.667 836.5,228C 837.624,228.249 838.624,228.749 839.5,229.5C 838.109,231.89 836.109,233.557 833.5,234.5C 831.803,233.636 830.637,232.303 830,230.5C 829.333,231.833 828.667,231.833 828,230.5C 827.689,231.742 828.189,232.742 829.5,233.5C 828.926,235.059 828.26,236.559 827.5,238C 828.765,239.337 829.265,240.837 829,242.5C 826.117,240.318 823.117,238.318 820,236.5C 818.174,237.01 818.007,237.844 819.5,239C 818.906,239.464 818.239,239.631 817.5,239.5C 817.192,237.076 817.526,234.743 818.5,232.5C 820.021,232.12 821.687,231.954 823.5,232C 822.209,229.91 822.876,228.576 825.5,228C 823.833,227.667 822.167,227.333 820.5,227C 821.91,226.632 822.91,225.799 823.5,224.5C 822.145,223.325 822.312,222.325 824,221.5C 825.955,222.453 827.622,223.787 829,225.5C 829.399,225.272 829.565,224.938 829.5,224.5C 830.304,222.811 831.304,221.145 832.5,219.5C 834.179,221.104 836.179,221.771 838.5,221.5 Z"/></g>
<g><path style="opacity:1" fill="#4e2c15" d="M 397.5,223.5 C 398.222,223.918 398.722,224.584 399,225.5C 399.837,223.993 401.004,223.493 402.5,224C 400.941,226.364 398.775,227.864 396,228.5C 395.333,229.833 395.333,231.167 396,232.5C 396.569,228.639 397.402,228.639 398.5,232.5C 399.167,231.167 399.833,229.833 400.5,228.5C 401.086,228.709 401.586,229.043 402,229.5C 401.383,227.905 401.716,226.572 403,225.5C 403.6,227.91 404.766,229.91 406.5,231.5C 406.196,232.15 405.863,232.817 405.5,233.5C 408.871,235.602 409.704,238.269 408,241.5C 406.423,241.528 404.756,242.195 403,243.5C 401.744,243.352 400.577,243.018 399.5,242.5C 399.646,240.058 398.813,239.391 397,240.5C 396.517,239.552 396.351,238.552 396.5,237.5C 394.857,237.48 393.524,238.147 392.5,239.5C 390.929,238.691 389.262,238.357 387.5,238.5C 388.666,236.834 388.666,235.167 387.5,233.5C 386.391,234.59 385.391,234.59 384.5,233.5C 386.353,232.24 388.186,232.24 390,233.5C 390.492,232.451 390.326,231.451 389.5,230.5C 391.338,229.811 393.005,229.478 394.5,229.5C 392.729,228.012 391.396,226.179 390.5,224C 392,221.833 393.167,222 394,224.5C 395.011,223.663 396.178,223.33 397.5,223.5 Z"/></g>
<g><path style="opacity:1" fill="#99572b" d="M 397.5,194.5 C 396.524,195.815 395.524,197.148 394.5,198.5C 392.5,198.5 390.5,198.5 388.5,198.5C 387.571,199.689 387.238,201.022 387.5,202.5C 386.778,202.082 386.278,201.416 386,200.5C 384.35,201.891 383.85,203.391 384.5,205C 383.692,205.308 383.025,205.808 382.5,206.5C 383.529,206.296 384.529,206.796 385.5,208C 384.007,209.368 382.507,209.535 381,208.5C 381,209.833 381,211.167 381,212.5C 380.586,212.043 380.086,211.709 379.5,211.5C 378.646,212.522 377.646,213.355 376.5,214C 377.901,214.41 379.234,214.91 380.5,215.5C 380.027,216.906 379.027,217.573 377.5,217.5C 376.504,217.414 375.671,217.748 375,218.5C 374.544,217.256 375.044,216.423 376.5,216C 371.652,213.37 368.819,215.203 368,221.5C 367.667,221.167 367.333,220.833 367,220.5C 365.434,222.822 363.267,224.322 360.5,225C 362.286,225.196 363.619,226.029 364.5,227.5C 364.154,228.696 363.654,228.696 363,227.5C 361.887,228.76 361.72,229.927 362.5,231C 362.002,232.158 361.169,232.991 360,233.5C 358.348,233.14 356.682,232.807 355,232.5C 356.093,237.825 354.26,241.992 349.5,245C 349.728,245.399 350.062,245.565 350.5,245.5C 349.892,246.8 349.225,248.133 348.5,249.5C 348.919,250.672 349.585,251.672 350.5,252.5C 349.147,253.524 348.48,254.857 348.5,256.5C 354.784,255.319 355.118,256.653 349.5,260.5C 348.252,259.96 347.085,259.293 346,258.5C 345.768,259.737 345.268,260.737 344.5,261.5C 343.19,257.691 343.523,254.024 345.5,250.5C 345.291,249.006 344.624,247.839 343.5,247C 345.246,246.529 346.913,245.862 348.5,245C 346.545,242.832 345.879,240.498 346.5,238C 347.328,237.085 348.328,236.419 349.5,236C 349.043,235.586 348.709,235.086 348.5,234.5C 350.637,232.764 351.304,230.764 350.5,228.5C 352.369,227.376 354.369,226.543 356.5,226C 355.584,225.722 354.918,225.222 354.5,224.5C 354.783,223.784 355.116,222.951 355.5,222C 356.449,221.383 357.282,221.549 358,222.5C 359.614,220.538 361.448,218.038 363.5,215C 368.362,212.033 372.862,208.533 377,204.5C 377.543,202.369 378.376,200.369 379.5,198.5C 380.216,199.311 381.05,199.978 382,200.5C 383.695,198.768 385.028,196.768 386,194.5C 387.941,198.554 388.775,198.22 388.5,193.5C 391.004,192.361 393.67,191.694 396.5,191.5C 396.263,192.791 396.596,193.791 397.5,194.5 Z"/></g>
<g><path style="opacity:1" fill="#502d16" d="M 861.5,240.5 C 856.386,238.615 853.053,240.282 851.5,245.5C 846.904,244.283 844.737,246.283 845,251.5C 844.768,247.25 843.268,246.583 840.5,249.5C 841.506,250.396 841.506,251.062 840.5,251.5C 839.155,250.653 838.155,249.487 837.5,248C 839.789,246.477 840.956,244.644 841,242.5C 844.031,243.226 843.864,242.559 840.5,240.5C 836.939,242.83 835.272,246.164 835.5,250.5C 831.776,250.95 829.609,249.283 829,245.5C 828.5,246.5 828,247.5 827.5,248.5C 828.811,249.258 829.311,250.258 829,251.5C 827.415,250.624 826.415,249.291 826,247.5C 824.782,249.019 823.282,250.186 821.5,251C 824.062,252.268 824.728,254.102 823.5,256.5C 822.304,256.154 822.304,255.654 823.5,255C 821.179,254.163 818.845,253.83 816.5,254C 817.647,255.281 817.313,255.614 815.5,255C 812.588,253.248 810.255,251.082 808.5,248.5C 807.952,246.468 806.619,245.468 804.5,245.5C 804.5,244.167 804.5,242.833 804.5,241.5C 805.712,242.23 806.712,243.23 807.5,244.5C 808.914,243.376 810.414,242.376 812,241.5C 812.915,242.328 813.581,243.328 814,244.5C 814.669,242.41 815.836,240.743 817.5,239.5C 818.239,239.631 818.906,239.464 819.5,239C 818.007,237.844 818.174,237.01 820,236.5C 823.117,238.318 826.117,240.318 829,242.5C 829.265,240.837 828.765,239.337 827.5,238C 828.26,236.559 828.926,235.059 829.5,233.5C 828.189,232.742 827.689,231.742 828,230.5C 828.667,231.833 829.333,231.833 830,230.5C 830.637,232.303 831.803,233.636 833.5,234.5C 836.109,233.557 838.109,231.89 839.5,229.5C 838.624,228.749 837.624,228.249 836.5,228C 839.167,227.667 841.833,227.333 844.5,227C 843.377,225.956 842.044,225.29 840.5,225C 840.833,224.667 841.167,224.333 841.5,224C 840.058,223.623 839.058,222.79 838.5,221.5C 838.527,220.193 838.527,218.86 838.5,217.5C 840.425,217.837 841.925,219.17 843,221.5C 844.049,220.483 845.216,220.316 846.5,221C 846.167,221.333 845.833,221.667 845.5,222C 846.759,222.923 848.092,223.757 849.5,224.5C 846.621,225.803 845.955,227.803 847.5,230.5C 842.436,232.019 842.77,233.186 848.5,234C 847.151,235.635 847.318,237.135 849,238.5C 849.667,237.167 850.333,237.167 851,238.5C 851.167,237.833 851.333,237.167 851.5,236.5C 850.638,234.49 850.138,232.49 850,230.5C 853.211,232.729 856.377,234.896 859.5,237C 860.823,237.816 861.489,238.983 861.5,240.5 Z"/></g>
<g><path style="opacity:1" fill="#462611" d="M 438.5,220.5 C 440.525,222.196 442.525,223.863 444.5,225.5C 443.178,225.67 442.011,225.337 441,224.5C 439.587,226.414 437.753,227.747 435.5,228.5C 435.653,231.816 434.986,235.15 433.5,238.5C 431.801,238.527 430.467,239.194 429.5,240.5C 425.549,241.698 422.049,243.698 419,246.5C 418.667,245.833 418.333,245.167 418,244.5C 417.368,246.965 415.868,248.631 413.5,249.5C 412.304,249.154 412.304,248.654 413.5,248C 412.175,248.148 411.008,247.982 410,247.5C 408.164,249.131 408.664,249.798 411.5,249.5C 411.649,250.552 411.483,251.552 411,252.5C 410.333,251.167 409.667,251.167 409,252.5C 408.667,251.833 408.333,251.167 408,250.5C 407.015,251.814 405.848,252.814 404.5,253.5C 403.178,253.67 402.011,253.337 401,252.5C 401.035,256.245 400.035,256.912 398,254.5C 397.667,254.833 397.333,255.167 397,255.5C 396.365,254.034 395.531,252.7 394.5,251.5C 395.651,250.269 396.817,250.269 398,251.5C 399.824,250.251 399.657,249.085 397.5,248C 398.109,246.052 398.776,244.218 399.5,242.5C 400.577,243.018 401.744,243.352 403,243.5C 404.756,242.195 406.423,241.528 408,241.5C 409.704,238.269 408.871,235.602 405.5,233.5C 405.863,232.817 406.196,232.15 406.5,231.5C 410.278,230.807 410.278,229.64 406.5,228C 407.833,227 407.833,226 406.5,225C 410.025,222.912 413.358,223.079 416.5,225.5C 415.295,226.995 415.295,228.328 416.5,229.5C 416.611,230.117 416.944,230.617 417.5,231C 415.833,231.333 414.167,231.667 412.5,232C 413.448,232.483 414.448,232.649 415.5,232.5C 415.784,235.254 416.451,237.92 417.5,240.5C 418.5,239.167 419.5,237.833 420.5,236.5C 422.198,237.681 423.865,237.681 425.5,236.5C 424.579,234.244 422.912,233.244 420.5,233.5C 420.421,232.07 420.754,230.736 421.5,229.5C 423.423,228.692 425.423,228.192 427.5,228C 425.033,225.957 425.033,223.79 427.5,221.5C 426.833,221.167 426.167,220.833 425.5,220.5C 425.833,219.833 426.167,219.167 426.5,218.5C 430.068,216.638 432.235,217.638 433,221.5C 434.699,220.594 436.533,220.261 438.5,220.5 Z"/></g>
<g><path style="opacity:1" fill="#1e0f04" d="M 775.5,228.5 C 777.179,228.892 778.846,229.392 780.5,230C 779.663,231.011 779.33,232.178 779.5,233.5C 783.267,233.968 786.434,235.634 789,238.5C 789.604,234.667 790.437,234.667 791.5,238.5C 791.66,240.199 791.494,241.866 791,243.5C 789.697,244.112 788.53,244.446 787.5,244.5C 788.313,245.814 789.313,246.981 790.5,248C 789.833,249.667 789.167,251.333 788.5,253C 788.61,261.089 789.277,269.256 790.5,277.5C 789.167,277.5 787.833,277.5 786.5,277.5C 786.799,275.396 786.466,273.396 785.5,271.5C 784.276,273.828 784.276,276.161 785.5,278.5C 784.5,279.5 783.5,280.5 782.5,281.5C 779.294,281.256 775.961,281.589 772.5,282.5C 769.966,277.095 768.299,271.429 767.5,265.5C 768.931,267.268 770.597,267.935 772.5,267.5C 769.571,268.649 769.071,270.315 771,272.5C 773.081,271.667 775.248,271.667 777.5,272.5C 777.5,273.5 777.5,274.5 777.5,275.5C 778.822,275.33 779.989,275.663 781,276.5C 782.022,275.646 782.855,274.646 783.5,273.5C 782.314,271.492 780.98,269.659 779.5,268C 780.022,267.05 780.689,266.216 781.5,265.5C 780.391,264.035 780.891,263.035 783,262.5C 783.333,260.167 783.667,257.833 784,255.5C 784.333,255.833 784.667,256.167 785,256.5C 785.638,255.391 786.138,254.225 786.5,253C 784.972,246.544 781.972,240.877 777.5,236C 777.957,235.586 778.291,235.086 778.5,234.5C 774.843,231.429 772.843,232.429 772.5,237.5C 771.817,237.137 771.15,236.804 770.5,236.5C 770.975,234.216 771.975,232.216 773.5,230.5C 773.833,229.5 774.5,228.833 775.5,228.5 Z"/></g>
<g><path style="opacity:1" fill="#4d2b14" d="M 394.5,210.5 C 395.172,211.267 396.005,211.934 397,212.5C 397.499,216.152 397.665,219.818 397.5,223.5C 396.178,223.33 395.011,223.663 394,224.5C 393.167,222 392,221.833 390.5,224C 391.396,226.179 392.729,228.012 394.5,229.5C 393.005,229.478 391.338,229.811 389.5,230.5C 390.326,231.451 390.492,232.451 390,233.5C 388.186,232.24 386.353,232.24 384.5,233.5C 385.391,234.59 386.391,234.59 387.5,233.5C 388.666,235.167 388.666,236.834 387.5,238.5C 384.673,239.974 382.173,239.64 380,237.5C 379.5,238 379,238.5 378.5,239C 381.539,241.076 384.206,243.576 386.5,246.5C 387.086,246.291 387.586,245.957 388,245.5C 386.537,248.402 386.037,251.402 386.5,254.5C 384.549,254.227 383.049,254.893 382,256.5C 381.506,254.866 381.34,253.199 381.5,251.5C 379.833,251.5 378.167,251.5 376.5,251.5C 376.286,253.144 376.62,254.644 377.5,256C 375.423,256.192 373.423,256.692 371.5,257.5C 372,258.5 372.5,259.5 373,260.5C 374.845,258.65 376.845,258.317 379,259.5C 379.333,258.833 379.667,258.167 380,257.5C 380.49,258.793 380.657,260.127 380.5,261.5C 381.873,261.343 383.207,261.51 384.5,262C 382.567,262.251 380.734,262.751 379,263.5C 378.577,262.044 377.744,261.544 376.5,262C 376.833,263 377.167,264 377.5,265C 377,265.5 376.5,266 376,266.5C 375.51,265.207 375.343,263.873 375.5,262.5C 374.178,262.67 373.011,262.337 372,261.5C 370.675,265.428 370.342,269.428 371,273.5C 374.097,272.711 374.264,271.544 371.5,270C 373.076,269.56 374.41,268.727 375.5,267.5C 376.816,270.028 377.983,270.028 379,267.5C 379.579,268.928 379.412,270.262 378.5,271.5C 377.549,272.919 377.216,274.585 377.5,276.5C 374.223,275.577 370.89,274.744 367.5,274C 368.167,273.667 368.833,273.333 369.5,273C 367.436,272.347 365.769,271.18 364.5,269.5C 363.614,270.325 363.281,271.325 363.5,272.5C 362.5,272.5 361.5,272.5 360.5,272.5C 358.403,266.618 358.07,260.618 359.5,254.5C 360.971,239.893 366.971,227.56 377.5,217.5C 379.027,217.573 380.027,216.906 380.5,215.5C 384.962,213.269 389.629,211.602 394.5,210.5 Z"/></g>
<g><path style="opacity:1" fill="#b86a36" d="M 761.5,207.5 C 757.863,210.306 754.696,213.639 752,217.5C 749.344,221.144 747.511,225.144 746.5,229.5C 747.552,229.649 748.552,229.483 749.5,229C 755.809,222.851 762.809,217.684 770.5,213.5C 769.5,214.833 768.5,216.167 767.5,217.5C 765.238,221.763 762.572,225.763 759.5,229.5C 760.101,232.243 758.767,233.576 755.5,233.5C 753.361,241.393 751.527,249.393 750,257.5C 749,256.167 748,254.833 747,253.5C 746.501,248.177 746.334,242.844 746.5,237.5C 745.5,237.5 744.5,237.5 743.5,237.5C 742.955,241.172 742.622,240.838 742.5,236.5C 744.636,223.848 750.969,214.181 761.5,207.5 Z"/></g>
<g><path style="opacity:1" fill="#914e22" d="M 377.5,217.5 C 366.971,227.56 360.971,239.893 359.5,254.5C 358.448,254.649 357.448,254.483 356.5,254C 354.765,250.91 352.765,248.077 350.5,245.5C 350.062,245.565 349.728,245.399 349.5,245C 354.26,241.992 356.093,237.825 355,232.5C 356.682,232.807 358.348,233.14 360,233.5C 361.169,232.991 362.002,232.158 362.5,231C 361.72,229.927 361.887,228.76 363,227.5C 363.654,228.696 364.154,228.696 364.5,227.5C 363.619,226.029 362.286,225.196 360.5,225C 363.267,224.322 365.434,222.822 367,220.5C 367.333,220.833 367.667,221.167 368,221.5C 368.819,215.203 371.652,213.37 376.5,216C 375.044,216.423 374.544,217.256 375,218.5C 375.671,217.748 376.504,217.414 377.5,217.5 Z"/></g>
<g><path style="opacity:1" fill="#180c03" d="M 767.5,265.5 C 764.341,255.428 765.341,245.761 770.5,236.5C 771.15,236.804 771.817,237.137 772.5,237.5C 772.843,232.429 774.843,231.429 778.5,234.5C 778.291,235.086 777.957,235.586 777.5,236C 781.972,240.877 784.972,246.544 786.5,253C 786.138,254.225 785.638,255.391 785,256.5C 784.667,256.167 784.333,255.833 784,255.5C 783.667,257.833 783.333,260.167 783,262.5C 780.891,263.035 780.391,264.035 781.5,265.5C 780.689,266.216 780.022,267.05 779.5,268C 780.98,269.659 782.314,271.492 783.5,273.5C 782.855,274.646 782.022,275.646 781,276.5C 779.989,275.663 778.822,275.33 777.5,275.5C 777.5,274.5 777.5,273.5 777.5,272.5C 775.248,271.667 773.081,271.667 771,272.5C 769.071,270.315 769.571,268.649 772.5,267.5C 770.597,267.935 768.931,267.268 767.5,265.5 Z"/></g>
<g><path style="opacity:1" fill="#1f0f03" d="M 452.5,236.5 C 451.527,236.987 450.527,237.487 449.5,238C 450.833,239 450.833,240 449.5,241C 452.544,241.359 452.878,242.026 450.5,243C 451.956,243.423 452.456,244.256 452,245.5C 451.282,244.549 450.449,244.383 449.5,245C 448.018,248.131 446.185,250.965 444,253.5C 443.667,252.833 443.333,252.167 443,251.5C 442.837,253.676 442.004,255.509 440.5,257C 441.328,257.915 442.328,258.581 443.5,259C 442.273,260.587 442.606,261.921 444.5,263C 443.833,265.333 443.167,267.667 442.5,270C 444.134,270.494 445.801,270.66 447.5,270.5C 447.329,267.203 447.995,266.869 449.5,269.5C 449.291,270.086 448.957,270.586 448.5,271C 451.224,272.335 453.89,272.502 456.5,271.5C 455.369,274.889 454.036,278.222 452.5,281.5C 452.709,282.086 453.043,282.586 453.5,283C 447.971,287.699 442.638,292.532 437.5,297.5C 437.167,297.5 436.833,297.5 436.5,297.5C 436.808,295.076 436.474,292.743 435.5,290.5C 433.591,291.348 431.591,291.682 429.5,291.5C 429.17,288.891 427.67,287.224 425,286.5C 425.148,285.175 424.982,284.008 424.5,283C 427.62,276.317 431.12,269.817 435,263.5C 435.23,260.105 434.397,256.939 432.5,254C 434.105,252.64 435.605,251.14 437,249.5C 437.684,248.216 437.517,247.049 436.5,246C 439.943,245.779 440.276,244.779 437.5,243C 438.5,241.333 439.833,240 441.5,239C 441.499,237.601 441.165,236.101 440.5,234.5C 442.452,234.531 444.285,233.531 446,231.5C 447.333,232.833 448.667,232.833 450,231.5C 450.785,233.249 451.618,234.916 452.5,236.5 Z"/></g>
<g><path style="opacity:1" fill="#cf7a42" d="M 784.5,217.5 C 784.167,218.167 783.833,218.833 783.5,219.5C 781.5,220.833 779.833,222.5 778.5,224.5C 776.738,225.262 775.738,226.596 775.5,228.5C 774.5,228.833 773.833,229.5 773.5,230.5C 772.504,230.414 771.671,230.748 771,231.5C 767.805,235.364 765.472,239.697 764,244.5C 763.273,251.856 763.44,259.189 764.5,266.5C 764.004,269.721 763.004,272.721 761.5,275.5C 754.143,270.396 746.643,265.396 739,260.5C 737.407,252.11 738.574,244.11 742.5,236.5C 742.622,240.838 742.955,241.172 743.5,237.5C 744.5,237.5 745.5,237.5 746.5,237.5C 746.334,242.844 746.501,248.177 747,253.5C 748,254.833 749,256.167 750,257.5C 751.527,249.393 753.361,241.393 755.5,233.5C 758.767,233.576 760.101,232.243 759.5,229.5C 762.572,225.763 765.238,221.763 767.5,217.5C 768.21,219.412 769.377,221.079 771,222.5C 774.341,220.751 777.174,218.418 779.5,215.5C 780.167,216.167 780.833,216.833 781.5,217.5C 782.687,216.347 783.687,216.347 784.5,217.5 Z"/></g>
<g><path style="opacity:1" fill="#a05f34" d="M 869.5,224.5 C 871.112,225.452 872.612,225.786 874,225.5C 874.49,226.793 874.657,228.127 874.5,229.5C 875.5,229.5 876.5,229.5 877.5,229.5C 879.433,229.729 881.1,230.562 882.5,232C 880.506,233.368 878.506,233.868 876.5,233.5C 877.588,234.934 878.922,235.934 880.5,236.5C 881.72,238.282 882.386,240.282 882.5,242.5C 884.199,242.34 885.866,242.506 887.5,243C 886.5,243.333 885.5,243.667 884.5,244C 885.641,244.741 885.641,245.575 884.5,246.5C 885.381,247.971 886.714,248.804 888.5,249C 886.009,249.626 886.009,250.459 888.5,251.5C 887.333,253.167 886.167,254.833 885,256.5C 883.989,255.663 882.822,255.33 881.5,255.5C 881.719,254.325 881.386,253.325 880.5,252.5C 877.219,255.855 877.886,257.689 882.5,258C 880.993,258.837 880.493,260.004 881,261.5C 884.235,259.787 887.235,257.787 890,255.5C 889.852,256.825 890.018,257.992 890.5,259C 887.438,260.609 885.438,263.109 884.5,266.5C 883.808,265.975 883.308,265.308 883,264.5C 881.513,266.985 879.679,269.152 877.5,271C 878.858,272.832 879.192,274.665 878.5,276.5C 880.555,277.187 882.221,278.354 883.5,280C 882.551,280.617 881.718,280.451 881,279.5C 880.544,280.744 881.044,281.577 882.5,282C 880.348,283.413 878.014,284.246 875.5,284.5C 876.768,283.213 876.435,282.213 874.5,281.5C 875.479,279.721 875.146,278.055 873.5,276.5C 875.362,275.052 876.028,273.385 875.5,271.5C 874.5,270.667 873.5,269.833 872.5,269C 874.095,269.617 875.428,269.284 876.5,268C 876.043,267.586 875.709,267.086 875.5,266.5C 877.964,263.926 877.964,261.26 875.5,258.5C 877.098,256.017 876.598,254.017 874,252.5C 873.465,254.271 872.631,254.604 871.5,253.5C 872.32,251.889 873.654,251.222 875.5,251.5C 875.33,250.178 875.663,249.011 876.5,248C 875.551,247.383 874.718,247.549 874,248.5C 873.626,247.584 873.126,246.75 872.5,246C 874.154,243.704 875.821,241.371 877.5,239C 876.491,236.828 874.824,235.662 872.5,235.5C 873.682,233.439 873.015,231.939 870.5,231C 871.167,230.667 871.833,230.333 872.5,230C 871.051,228.883 869.384,228.216 867.5,228C 870.19,227.665 870.857,226.499 869.5,224.5 Z"/></g>
<g><path style="opacity:1" fill="#a6653a" d="M 352.5,221.5 C 352.285,223.179 352.952,224.179 354.5,224.5C 354.918,225.222 355.584,225.722 356.5,226C 354.369,226.543 352.369,227.376 350.5,228.5C 351.304,230.764 350.637,232.764 348.5,234.5C 348.709,235.086 349.043,235.586 349.5,236C 348.328,236.419 347.328,237.085 346.5,238C 345.879,240.498 346.545,242.832 348.5,245C 346.913,245.862 345.246,246.529 343.5,247C 344.624,247.839 345.291,249.006 345.5,250.5C 343.523,254.024 343.19,257.691 344.5,261.5C 344.5,261.833 344.5,262.167 344.5,262.5C 344.631,263.239 344.464,263.906 344,264.5C 343.275,262.842 342.108,262.342 340.5,263C 341.8,264.579 341.466,265.745 339.5,266.5C 338.527,266.013 337.527,265.513 336.5,265C 336.835,263.133 337.335,260.966 338,258.5C 338.654,259.696 339.154,259.696 339.5,258.5C 338.817,255.539 337.984,255.205 337,257.5C 335.764,256.601 334.93,255.434 334.5,254C 335.795,253.298 337.128,252.631 338.5,252C 337.264,250.915 335.931,250.082 334.5,249.5C 334.5,249.167 334.5,248.833 334.5,248.5C 336.048,248.179 336.715,247.179 336.5,245.5C 337.675,245.719 338.675,245.386 339.5,244.5C 338.41,243.391 338.41,242.391 339.5,241.5C 341.106,241.481 342.772,241.647 344.5,242C 343.643,241.311 342.977,240.478 342.5,239.5C 343.891,237.064 343.391,236.398 341,237.5C 340.365,236.034 339.531,234.7 338.5,233.5C 341.009,232.079 343.343,230.412 345.5,228.5C 345.167,227.833 344.833,227.167 344.5,226.5C 346.958,225.876 348.624,224.376 349.5,222C 350.448,221.517 351.448,221.351 352.5,221.5 Z"/></g>
<g><path style="opacity:1" fill="#190c03" d="M 452.5,236.5 C 453.222,237.551 454.222,238.218 455.5,238.5C 457.438,242.981 458.771,247.648 459.5,252.5C 459.507,258.8 458.507,265.133 456.5,271.5C 453.89,272.502 451.224,272.335 448.5,271C 448.957,270.586 449.291,270.086 449.5,269.5C 447.995,266.869 447.329,267.203 447.5,270.5C 445.801,270.66 444.134,270.494 442.5,270C 443.167,267.667 443.833,265.333 444.5,263C 442.606,261.921 442.273,260.587 443.5,259C 442.328,258.581 441.328,257.915 440.5,257C 442.004,255.509 442.837,253.676 443,251.5C 443.333,252.167 443.667,252.833 444,253.5C 446.185,250.965 448.018,248.131 449.5,245C 450.449,244.383 451.282,244.549 452,245.5C 452.456,244.256 451.956,243.423 450.5,243C 452.878,242.026 452.544,241.359 449.5,241C 450.833,240 450.833,239 449.5,238C 450.527,237.487 451.527,236.987 452.5,236.5 Z"/></g>
<g><path style="opacity:1" fill="#f89756" d="M 773.5,230.5 C 771.975,232.216 770.975,234.216 770.5,236.5C 765.341,245.761 764.341,255.428 767.5,265.5C 768.299,271.429 769.966,277.095 772.5,282.5C 772.062,282.435 771.728,282.601 771.5,283C 773.114,285.127 775.114,286.627 777.5,287.5C 781.36,290.939 785.027,294.605 788.5,298.5C 784.544,296.515 780.878,294.015 777.5,291C 773.447,286.281 768.781,282.281 763.5,279C 762.177,278.184 761.511,277.017 761.5,275.5C 763.004,272.721 764.004,269.721 764.5,266.5C 763.44,259.189 763.273,251.856 764,244.5C 765.472,239.697 767.805,235.364 771,231.5C 771.671,230.748 772.504,230.414 773.5,230.5 Z"/></g>
<g><path style="opacity:1" fill="#ba6b36" d="M 473.5,234.5 C 476.192,235.009 478.692,236.009 481,237.5C 481.278,236.584 481.778,235.918 482.5,235.5C 483.234,236.708 483.567,238.041 483.5,239.5C 483.511,241.547 483.844,243.547 484.5,245.5C 484.167,246.167 483.833,246.833 483.5,247.5C 482.571,246.311 482.238,244.978 482.5,243.5C 481.5,243.5 480.5,243.5 479.5,243.5C 480.101,239.091 478.434,237.758 474.5,239.5C 475.167,240.833 475.833,242.167 476.5,243.5C 475.593,245.256 475.593,247.089 476.5,249C 476.085,252.106 475.085,252.272 473.5,249.5C 473.167,250 472.833,250.5 472.5,251C 472.026,252.704 471.859,254.538 472,256.5C 470.615,257.551 469.615,258.884 469,260.5C 468.626,259.584 468.126,258.75 467.5,258C 468.051,256.602 468.384,255.268 468.5,254C 467.004,253.493 465.837,253.993 465,255.5C 464.493,254.004 464.993,252.837 466.5,252C 465.5,251.667 464.5,251.333 463.5,251C 464.833,249.667 466.167,248.333 467.5,247C 465.691,244.016 463.524,243.849 461,246.5C 460.437,240.972 458.604,235.972 455.5,231.5C 457.722,231.178 459.556,231.845 461,233.5C 461.419,232.328 462.085,231.328 463,230.5C 462.443,232.841 462.61,235.174 463.5,237.5C 464.251,236.624 464.751,235.624 465,234.5C 465.333,235.167 465.667,235.833 466,236.5C 466.718,235.549 467.551,235.383 468.5,236C 467.304,236.654 467.304,237.154 468.5,237.5C 469.14,232.938 470.306,232.604 472,236.5C 472.717,235.956 473.217,235.289 473.5,234.5 Z"/></g>
<g><path style="opacity:1" fill="#42240f" d="M 429.5,240.5 C 428.502,244.492 427.502,248.492 426.5,252.5C 424.518,254.117 422.518,254.95 420.5,255C 420.988,256.584 421.988,257.751 423.5,258.5C 422.738,258.911 421.738,259.077 420.5,259C 420.918,261.846 420.252,264.68 418.5,267.5C 419.718,268.803 419.385,269.803 417.5,270.5C 418.167,271.167 418.833,271.833 419.5,272.5C 417.833,273.833 416.167,275.167 414.5,276.5C 415.09,277.799 416.09,278.632 417.5,279C 416.084,281.265 414.084,282.431 411.5,282.5C 412.278,281.844 412.944,281.011 413.5,280C 412.144,278.433 411.477,276.6 411.5,274.5C 409.058,274.881 408.391,274.214 409.5,272.5C 408.559,272.511 407.892,272.011 407.5,271C 409.443,269.655 411.276,270.155 413,272.5C 413.5,271.333 414.333,270.5 415.5,270C 414.022,267.943 412.022,266.61 409.5,266C 410.191,264.933 410.691,263.766 411,262.5C 411.308,263.308 411.808,263.975 412.5,264.5C 413.48,261.914 413.813,259.247 413.5,256.5C 410.001,256.259 409.668,257.092 412.5,259C 410.833,259.333 409.167,259.667 407.5,260C 407.87,261.61 407.203,263.11 405.5,264.5C 404.41,263.273 403.076,262.44 401.5,262C 403.376,259.954 405.376,258.121 407.5,256.5C 407,255.5 406.5,254.5 406,253.5C 405.31,254.738 404.81,254.738 404.5,253.5C 405.848,252.814 407.015,251.814 408,250.5C 408.333,251.167 408.667,251.833 409,252.5C 409.667,251.167 410.333,251.167 411,252.5C 411.483,251.552 411.649,250.552 411.5,249.5C 408.664,249.798 408.164,249.131 410,247.5C 411.008,247.982 412.175,248.148 413.5,248C 412.304,248.654 412.304,249.154 413.5,249.5C 415.868,248.631 417.368,246.965 418,244.5C 418.333,245.167 418.667,245.833 419,246.5C 422.049,243.698 425.549,241.698 429.5,240.5 Z"/></g>
<g><path style="opacity:1" fill="#914e21" d="M 350.5,245.5 C 352.765,248.077 354.765,250.91 356.5,254C 357.448,254.483 358.448,254.649 359.5,254.5C 358.07,260.618 358.403,266.618 360.5,272.5C 361.867,278.236 364.533,283.236 368.5,287.5C 367.417,287.539 366.417,287.873 365.5,288.5C 363.142,286.976 361.309,284.976 360,282.5C 358.667,282.5 357.333,282.5 356,282.5C 355.333,279.833 354.667,279.833 354,282.5C 350.656,280.896 350.156,278.896 352.5,276.5C 351.116,271.945 349.283,267.612 347,263.5C 346.329,262.748 345.496,262.414 344.5,262.5C 344.5,262.167 344.5,261.833 344.5,261.5C 345.268,260.737 345.768,259.737 346,258.5C 347.085,259.293 348.252,259.96 349.5,260.5C 355.118,256.653 354.784,255.319 348.5,256.5C 348.48,254.857 349.147,253.524 350.5,252.5C 349.585,251.672 348.919,250.672 348.5,249.5C 349.225,248.133 349.892,246.8 350.5,245.5 Z"/></g>
<g><path style="opacity:0.741" fill="#ba784b" d="M 884.5,224.5 C 886.79,229.323 888.623,234.323 890,239.5C 895.512,260.597 891.345,279.43 877.5,296C 872.882,298.95 868.548,302.284 864.5,306C 861.929,307.454 859.262,308.62 856.5,309.5C 859.586,306.777 862.92,304.277 866.5,302C 864.271,298.866 863.271,295.366 863.5,291.5C 864.376,291.369 865.043,291.702 865.5,292.5C 864.41,293.609 864.41,294.609 865.5,295.5C 867.854,293.754 868.854,291.421 868.5,288.5C 870.942,288.646 871.609,287.813 870.5,286C 872.382,285.802 874.048,285.302 875.5,284.5C 878.014,284.246 880.348,283.413 882.5,282C 881.044,281.577 880.544,280.744 881,279.5C 881.718,280.451 882.551,280.617 883.5,280C 882.221,278.354 880.555,277.187 878.5,276.5C 879.192,274.665 878.858,272.832 877.5,271C 879.679,269.152 881.513,266.985 883,264.5C 883.308,265.308 883.808,265.975 884.5,266.5C 885.438,263.109 887.438,260.609 890.5,259C 890.018,257.992 889.852,256.825 890,255.5C 887.235,257.787 884.235,259.787 881,261.5C 880.493,260.004 880.993,258.837 882.5,258C 877.886,257.689 877.219,255.855 880.5,252.5C 881.386,253.325 881.719,254.325 881.5,255.5C 882.822,255.33 883.989,255.663 885,256.5C 886.167,254.833 887.333,253.167 888.5,251.5C 886.009,250.459 886.009,249.626 888.5,249C 886.714,248.804 885.381,247.971 884.5,246.5C 885.641,245.575 885.641,244.741 884.5,244C 885.5,243.667 886.5,243.333 887.5,243C 885.866,242.506 884.199,242.34 882.5,242.5C 882.386,240.282 881.72,238.282 880.5,236.5C 882.39,236.297 883.89,236.963 885,238.5C 885.465,237.069 886.299,235.903 887.5,235C 886.663,233.989 886.33,232.822 886.5,231.5C 885.5,231.5 884.5,231.5 883.5,231.5C 883.33,230.178 883.663,229.011 884.5,228C 881.875,226.624 881.875,225.458 884.5,224.5 Z"/></g>
<g><path style="opacity:1" fill="#945225" d="M 872.5,235.5 C 874.824,235.662 876.491,236.828 877.5,239C 875.821,241.371 874.154,243.704 872.5,246C 873.126,246.75 873.626,247.584 874,248.5C 874.718,247.549 875.551,247.383 876.5,248C 875.663,249.011 875.33,250.178 875.5,251.5C 873.654,251.222 872.32,251.889 871.5,253.5C 872.631,254.604 873.465,254.271 874,252.5C 876.598,254.017 877.098,256.017 875.5,258.5C 877.964,261.26 877.964,263.926 875.5,266.5C 875.709,267.086 876.043,267.586 876.5,268C 875.428,269.284 874.095,269.617 872.5,269C 873.5,269.833 874.5,270.667 875.5,271.5C 876.028,273.385 875.362,275.052 873.5,276.5C 875.146,278.055 875.479,279.721 874.5,281.5C 876.435,282.213 876.768,283.213 875.5,284.5C 874.048,285.302 872.382,285.802 870.5,286C 871.609,287.813 870.942,288.646 868.5,288.5C 868.854,291.421 867.854,293.754 865.5,295.5C 864.41,294.609 864.41,293.609 865.5,292.5C 865.043,291.702 864.376,291.369 863.5,291.5C 862.05,290.342 861.05,290.842 860.5,293C 861.167,293.333 861.833,293.667 862.5,294C 861.207,294.49 859.873,294.657 858.5,294.5C 856.455,293.077 855.455,291.077 855.5,288.5C 855.5,287.833 855.833,287.5 856.5,287.5C 865.753,276.419 868.586,263.752 865,249.5C 864.315,246.421 863.481,243.421 862.5,240.5C 863.245,239.201 864.745,237.868 867,236.5C 867.308,237.308 867.808,237.975 868.5,238.5C 869.799,237.306 871.132,236.306 872.5,235.5 Z"/></g>
<g><path style="opacity:1" fill="#4f2d15" d="M 861.5,240.5 C 861.833,240.5 862.167,240.5 862.5,240.5C 863.481,243.421 864.315,246.421 865,249.5C 868.586,263.752 865.753,276.419 856.5,287.5C 855.75,284.433 855.084,281.6 854.5,279C 855.991,277.586 857.325,276.086 858.5,274.5C 858.67,273.178 858.337,272.011 857.5,271C 860.885,268.481 862.218,265.315 861.5,261.5C 857.939,262.794 857.606,261.96 860.5,259C 859.23,258.1 858.23,256.934 857.5,255.5C 855.02,256.415 854.353,257.915 855.5,260C 854.333,260.5 853.5,261.333 853,262.5C 851.933,261.809 850.766,261.309 849.5,261C 850.622,259.387 850.122,258.22 848,257.5C 847.685,254.628 847.185,251.795 846.5,249C 846.645,248.228 846.978,247.561 847.5,247C 849.058,246.79 850.391,246.29 851.5,245.5C 853.053,240.282 856.386,238.615 861.5,240.5 Z"/></g>
<g><path style="opacity:1" fill="#231104" d="M 791.5,238.5 C 792.239,238.369 792.906,238.536 793.5,239C 792.167,241.667 792.167,244.333 793.5,247C 792.833,248 792.167,249 791.5,250C 793.125,252.11 794.458,254.443 795.5,257C 793.193,257.354 792.859,258.354 794.5,260C 792.568,262.412 792.568,265.079 794.5,268C 793.015,273.914 795.015,278.914 800.5,283C 800.645,283.772 800.978,284.439 801.5,285C 800.262,284.923 799.262,285.089 798.5,285.5C 800.188,286.521 801.521,287.855 802.5,289.5C 800.244,289.602 797.911,289.268 795.5,288.5C 795.662,290.527 795.495,292.527 795,294.5C 793.951,292.893 792.451,292.227 790.5,292.5C 790.5,291.5 790.5,290.5 790.5,289.5C 788.408,289.561 786.908,290.561 786,292.5C 785.075,291.953 784.242,291.287 783.5,290.5C 784.655,289.05 786.155,288.05 788,287.5C 789.301,285.598 789.968,283.598 790,281.5C 788.814,283.677 786.981,284.677 784.5,284.5C 784.741,287.999 783.908,288.332 782,285.5C 782.977,291.448 782.143,291.781 779.5,286.5C 778.817,286.863 778.15,287.196 777.5,287.5C 775.114,286.627 773.114,285.127 771.5,283C 771.728,282.601 772.062,282.435 772.5,282.5C 775.961,281.589 779.294,281.256 782.5,281.5C 783.5,280.5 784.5,279.5 785.5,278.5C 784.276,276.161 784.276,273.828 785.5,271.5C 786.466,273.396 786.799,275.396 786.5,277.5C 787.833,277.5 789.167,277.5 790.5,277.5C 789.277,269.256 788.61,261.089 788.5,253C 789.167,251.333 789.833,249.667 790.5,248C 789.313,246.981 788.313,245.814 787.5,244.5C 788.53,244.446 789.697,244.112 791,243.5C 791.494,241.866 791.66,240.199 791.5,238.5 Z"/></g>
<g><path style="opacity:1" fill="#361d0c" d="M 444.5,225.5 C 445.833,226.167 446.833,227.167 447.5,228.5C 445.345,228.372 443.345,228.872 441.5,230C 442.5,230.333 443.5,230.667 444.5,231C 442.5,231.333 440.5,231.667 438.5,232C 438.589,233.716 438.256,235.549 437.5,237.5C 436.675,238.386 435.675,238.719 434.5,238.5C 433.411,243.935 431.077,248.768 427.5,253C 429.513,253.875 429.513,255.209 427.5,257C 428.833,257.667 428.833,258.333 427.5,259C 430.167,259.667 430.167,260.333 427.5,261C 429.344,267.107 428.011,272.44 423.5,277C 424.056,277.383 424.389,277.883 424.5,278.5C 422.57,279.763 420.903,281.43 419.5,283.5C 415.629,282.021 413.129,283.354 412,287.5C 411.536,286.906 411.369,286.239 411.5,285.5C 412.625,284.652 412.625,283.652 411.5,282.5C 414.084,282.431 416.084,281.265 417.5,279C 416.09,278.632 415.09,277.799 414.5,276.5C 416.167,275.167 417.833,273.833 419.5,272.5C 418.833,271.833 418.167,271.167 417.5,270.5C 419.385,269.803 419.718,268.803 418.5,267.5C 420.252,264.68 420.918,261.846 420.5,259C 421.738,259.077 422.738,258.911 423.5,258.5C 421.988,257.751 420.988,256.584 420.5,255C 422.518,254.95 424.518,254.117 426.5,252.5C 427.502,248.492 428.502,244.492 429.5,240.5C 430.467,239.194 431.801,238.527 433.5,238.5C 434.986,235.15 435.653,231.816 435.5,228.5C 437.753,227.747 439.587,226.414 441,224.5C 442.011,225.337 443.178,225.67 444.5,225.5 Z"/></g>
<g><path style="opacity:1" fill="#472712" d="M 387.5,238.5 C 389.262,238.357 390.929,238.691 392.5,239.5C 393.524,238.147 394.857,237.48 396.5,237.5C 396.351,238.552 396.517,239.552 397,240.5C 398.813,239.391 399.646,240.058 399.5,242.5C 398.776,244.218 398.109,246.052 397.5,248C 399.657,249.085 399.824,250.251 398,251.5C 396.817,250.269 395.651,250.269 394.5,251.5C 395.531,252.7 396.365,254.034 397,255.5C 397.333,255.167 397.667,254.833 398,254.5C 400.035,256.912 401.035,256.245 401,252.5C 402.011,253.337 403.178,253.67 404.5,253.5C 404.81,254.738 405.31,254.738 406,253.5C 406.5,254.5 407,255.5 407.5,256.5C 405.376,258.121 403.376,259.954 401.5,262C 403.076,262.44 404.41,263.273 405.5,264.5C 407.203,263.11 407.87,261.61 407.5,260C 409.167,259.667 410.833,259.333 412.5,259C 409.668,257.092 410.001,256.259 413.5,256.5C 413.813,259.247 413.48,261.914 412.5,264.5C 411.808,263.975 411.308,263.308 411,262.5C 410.691,263.766 410.191,264.933 409.5,266C 412.022,266.61 414.022,267.943 415.5,270C 414.333,270.5 413.5,271.333 413,272.5C 411.276,270.155 409.443,269.655 407.5,271C 407.892,272.011 408.559,272.511 409.5,272.5C 408.391,274.214 409.058,274.881 411.5,274.5C 411.477,276.6 412.144,278.433 413.5,280C 412.944,281.011 412.278,281.844 411.5,282.5C 410.139,280.164 408.139,278.498 405.5,277.5C 406.641,276.575 406.641,275.741 405.5,275C 404.234,274.691 403.067,274.191 402,273.5C 401.667,273.833 401.333,274.167 401,274.5C 400.682,272.939 399.849,271.772 398.5,271C 399.851,269.383 401.518,268.216 403.5,267.5C 402.68,265.889 401.346,265.222 399.5,265.5C 399.674,263.139 400.007,260.806 400.5,258.5C 397.848,258.41 395.515,259.076 393.5,260.5C 392.761,260.631 392.094,260.464 391.5,260C 392.782,257.21 391.948,255.043 389,253.5C 388.329,254.252 387.496,254.586 386.5,254.5C 386.037,251.402 386.537,248.402 388,245.5C 387.586,245.957 387.086,246.291 386.5,246.5C 384.206,243.576 381.539,241.076 378.5,239C 379,238.5 379.5,238 380,237.5C 382.173,239.64 384.673,239.974 387.5,238.5 Z"/></g>
<g><path style="opacity:1" fill="#432410" d="M 411.5,282.5 C 412.625,283.652 412.625,284.652 411.5,285.5C 409.833,285.5 408.167,285.5 406.5,285.5C 406.281,286.675 406.614,287.675 407.5,288.5C 408.451,287.674 409.451,287.508 410.5,288C 409.853,289.609 409.02,291.109 408,292.5C 407.092,290.561 405.592,289.561 403.5,289.5C 403.719,288.325 403.386,287.325 402.5,286.5C 400.566,286.901 399.066,287.901 398,289.5C 396.372,288.038 396.205,286.372 397.5,284.5C 399.668,282.822 400.002,280.822 398.5,278.5C 398.267,277.068 397.6,276.568 396.5,277C 395.672,277.915 394.672,278.581 393.5,279C 396.028,279.669 396.028,280.502 393.5,281.5C 390.833,279.5 390.833,277.5 393.5,275.5C 393.137,274.817 392.804,274.15 392.5,273.5C 395.838,272.807 396.338,271.14 394,268.5C 391.457,267.793 389.291,266.46 387.5,264.5C 389.543,260.58 391.043,260.913 392,265.5C 393.269,264.095 393.769,262.429 393.5,260.5C 395.515,259.076 397.848,258.41 400.5,258.5C 400.007,260.806 399.674,263.139 399.5,265.5C 401.346,265.222 402.68,265.889 403.5,267.5C 401.518,268.216 399.851,269.383 398.5,271C 399.849,271.772 400.682,272.939 401,274.5C 401.333,274.167 401.667,273.833 402,273.5C 403.067,274.191 404.234,274.691 405.5,275C 406.641,275.741 406.641,276.575 405.5,277.5C 408.139,278.498 410.139,280.164 411.5,282.5 Z"/></g>
<g><path style="opacity:1" fill="#ca7740" d="M 455.5,231.5 C 458.604,235.972 460.437,240.972 461,246.5C 463.524,243.849 465.691,244.016 467.5,247C 466.167,248.333 464.833,249.667 463.5,251C 464.5,251.333 465.5,251.667 466.5,252C 464.993,252.837 464.493,254.004 465,255.5C 465.837,253.993 467.004,253.493 468.5,254C 468.384,255.268 468.051,256.602 467.5,258C 468.126,258.75 468.626,259.584 469,260.5C 469.615,258.884 470.615,257.551 472,256.5C 471.859,254.538 472.026,252.704 472.5,251C 472.833,250.5 473.167,250 473.5,249.5C 475.085,252.272 476.085,252.106 476.5,249C 475.593,247.089 475.593,245.256 476.5,243.5C 475.833,242.167 475.167,240.833 474.5,239.5C 478.434,237.758 480.101,239.091 479.5,243.5C 480.5,243.5 481.5,243.5 482.5,243.5C 482.238,244.978 482.571,246.311 483.5,247.5C 483.833,246.833 484.167,246.167 484.5,245.5C 483.844,243.547 483.511,241.547 483.5,239.5C 484.67,241.65 485.67,243.984 486.5,246.5C 486.46,251.055 486.293,255.722 486,260.5C 477.37,265.977 469.203,271.977 461.5,278.5C 460.313,276.26 459.646,273.76 459.5,271C 460.699,264.675 460.699,258.508 459.5,252.5C 458.771,247.648 457.438,242.981 455.5,238.5C 454.087,235.339 452.42,232.339 450.5,229.5C 450.56,228.957 450.893,228.624 451.5,228.5C 452.799,229.694 454.132,230.694 455.5,231.5 Z"/></g>
<g><path style="opacity:1" fill="#4a2913" d="M 851.5,245.5 C 850.391,246.29 849.058,246.79 847.5,247C 846.978,247.561 846.645,248.228 846.5,249C 847.185,251.795 847.685,254.628 848,257.5C 850.122,258.22 850.622,259.387 849.5,261C 850.766,261.309 851.933,261.809 853,262.5C 853.5,261.333 854.333,260.5 855.5,260C 854.353,257.915 855.02,256.415 857.5,255.5C 858.23,256.934 859.23,258.1 860.5,259C 857.606,261.96 857.939,262.794 861.5,261.5C 862.218,265.315 860.885,268.481 857.5,271C 858.337,272.011 858.67,273.178 858.5,274.5C 856.683,272.99 854.683,271.657 852.5,270.5C 851.28,271.711 850.113,271.711 849,270.5C 848.717,273.742 847.883,274.076 846.5,271.5C 845.186,272.313 844.019,273.313 843,274.5C 842.598,273.128 842.098,271.795 841.5,270.5C 843.385,269.803 843.718,268.803 842.5,267.5C 844.743,266.526 847.076,266.192 849.5,266.5C 849.762,265.022 849.429,263.689 848.5,262.5C 846.705,264.703 844.371,265.869 841.5,266C 840.107,267.171 839.273,268.671 839,270.5C 837.837,268.715 837.17,266.715 837,264.5C 836.503,266.81 836.337,269.143 836.5,271.5C 835.448,271.649 834.448,271.483 833.5,271C 834.28,269.927 834.113,268.76 833,267.5C 831.221,270.276 830.221,269.943 830,266.5C 829.667,266.833 829.333,267.167 829,267.5C 826.632,265.146 823.965,263.146 821,261.5C 819.019,263.657 816.686,265.324 814,266.5C 813.508,265.451 813.674,264.451 814.5,263.5C 811.348,261.716 810.348,259.216 811.5,256C 810.119,253.636 809.119,251.136 808.5,248.5C 810.255,251.082 812.588,253.248 815.5,255C 817.313,255.614 817.647,255.281 816.5,254C 818.845,253.83 821.179,254.163 823.5,255C 822.304,255.654 822.304,256.154 823.5,256.5C 824.728,254.102 824.062,252.268 821.5,251C 823.282,250.186 824.782,249.019 826,247.5C 826.415,249.291 827.415,250.624 829,251.5C 829.311,250.258 828.811,249.258 827.5,248.5C 828,247.5 828.5,246.5 829,245.5C 829.609,249.283 831.776,250.95 835.5,250.5C 835.272,246.164 836.939,242.83 840.5,240.5C 843.864,242.559 844.031,243.226 841,242.5C 840.956,244.644 839.789,246.477 837.5,248C 838.155,249.487 839.155,250.653 840.5,251.5C 841.506,251.062 841.506,250.396 840.5,249.5C 843.268,246.583 844.768,247.25 845,251.5C 844.737,246.283 846.904,244.283 851.5,245.5 Z"/></g>
<g><path style="opacity:1" fill="#452511" d="M 797.5,236.5 C 798.943,237.335 799.943,238.668 800.5,240.5C 801.736,241.246 803.07,241.579 804.5,241.5C 804.5,242.833 804.5,244.167 804.5,245.5C 806.619,245.468 807.952,246.468 808.5,248.5C 809.119,251.136 810.119,253.636 811.5,256C 810.348,259.216 811.348,261.716 814.5,263.5C 813.674,264.451 813.508,265.451 814,266.5C 816.686,265.324 819.019,263.657 821,261.5C 823.965,263.146 826.632,265.146 829,267.5C 829.333,267.167 829.667,266.833 830,266.5C 830.221,269.943 831.221,270.276 833,267.5C 834.113,268.76 834.28,269.927 833.5,271C 834.448,271.483 835.448,271.649 836.5,271.5C 836.337,269.143 836.503,266.81 837,264.5C 837.17,266.715 837.837,268.715 839,270.5C 839.273,268.671 840.107,267.171 841.5,266C 844.371,265.869 846.705,264.703 848.5,262.5C 849.429,263.689 849.762,265.022 849.5,266.5C 847.076,266.192 844.743,266.526 842.5,267.5C 843.718,268.803 843.385,269.803 841.5,270.5C 842.098,271.795 842.598,273.128 843,274.5C 844.019,273.313 845.186,272.313 846.5,271.5C 847.883,274.076 848.717,273.742 849,270.5C 850.113,271.711 851.28,271.711 852.5,270.5C 854.683,271.657 856.683,272.99 858.5,274.5C 857.325,276.086 855.991,277.586 854.5,279C 855.084,281.6 855.75,284.433 856.5,287.5C 855.833,287.5 855.5,287.833 855.5,288.5C 850.017,294.243 843.35,297.91 835.5,299.5C 835.918,298.778 836.584,298.278 837.5,298C 836.109,296.98 834.609,296.147 833,295.5C 832.51,294.207 832.343,292.873 832.5,291.5C 836.544,291.435 838.544,293.101 838.5,296.5C 839.5,295.167 840.5,293.833 841.5,292.5C 839.713,290.142 838.713,287.475 838.5,284.5C 836.856,284.714 835.356,284.38 834,283.5C 832.456,286.264 831.289,286.097 830.5,283C 829.551,282.383 828.718,282.549 828,283.5C 827.667,282.833 827.333,282.167 827,281.5C 824.902,282.567 822.735,283.067 820.5,283C 819.359,282.259 819.359,281.425 820.5,280.5C 818.615,279.803 818.282,278.803 819.5,277.5C 816.877,275.448 815.21,272.781 814.5,269.5C 813.086,268.376 811.586,267.376 810,266.5C 809.932,263.681 808.766,261.514 806.5,260C 807.308,259.692 807.975,259.192 808.5,258.5C 806.896,256.821 806.229,254.821 806.5,252.5C 804.5,252.5 802.5,252.5 800.5,252.5C 800.229,250.179 800.896,248.179 802.5,246.5C 800.521,243.336 798.855,240.003 797.5,236.5 Z"/></g>
<g><path style="opacity:1" fill="#442510" d="M 386.5,254.5 C 387.496,254.586 388.329,254.252 389,253.5C 391.948,255.043 392.782,257.21 391.5,260C 392.094,260.464 392.761,260.631 393.5,260.5C 393.769,262.429 393.269,264.095 392,265.5C 391.043,260.913 389.543,260.58 387.5,264.5C 389.291,266.46 391.457,267.793 394,268.5C 396.338,271.14 395.838,272.807 392.5,273.5C 391.883,273.611 391.383,273.944 391,274.5C 390.751,273.376 390.251,272.376 389.5,271.5C 387.273,272.053 384.939,272.053 382.5,271.5C 381.226,272.189 381.226,273.023 382.5,274C 380.055,274.91 378.722,274.076 378.5,271.5C 379.412,270.262 379.579,268.928 379,267.5C 377.983,270.028 376.816,270.028 375.5,267.5C 374.41,268.727 373.076,269.56 371.5,270C 374.264,271.544 374.097,272.711 371,273.5C 370.342,269.428 370.675,265.428 372,261.5C 373.011,262.337 374.178,262.67 375.5,262.5C 375.343,263.873 375.51,265.207 376,266.5C 376.5,266 377,265.5 377.5,265C 377.167,264 376.833,263 376.5,262C 377.744,261.544 378.577,262.044 379,263.5C 380.734,262.751 382.567,262.251 384.5,262C 383.207,261.51 381.873,261.343 380.5,261.5C 380.657,260.127 380.49,258.793 380,257.5C 379.667,258.167 379.333,258.833 379,259.5C 376.845,258.317 374.845,258.65 373,260.5C 372.5,259.5 372,258.5 371.5,257.5C 373.423,256.692 375.423,256.192 377.5,256C 376.62,254.644 376.286,253.144 376.5,251.5C 378.167,251.5 379.833,251.5 381.5,251.5C 381.34,253.199 381.506,254.866 382,256.5C 383.049,254.893 384.549,254.227 386.5,254.5 Z"/></g>
<g><path style="opacity:1" fill="#3d210e" d="M 783.5,219.5 C 785.661,219.826 787.494,220.826 789,222.5C 789.423,221.044 790.256,220.544 791.5,221C 791.167,221.333 790.833,221.667 790.5,222C 791.5,222.833 792.5,223.667 793.5,224.5C 793.291,225.086 792.957,225.586 792.5,226C 793.833,227.333 795.167,228.667 796.5,230C 792.815,230.914 793.148,231.581 797.5,232C 797.034,233.299 797.034,234.799 797.5,236.5C 798.855,240.003 800.521,243.336 802.5,246.5C 800.896,248.179 800.229,250.179 800.5,252.5C 802.5,252.5 804.5,252.5 806.5,252.5C 806.229,254.821 806.896,256.821 808.5,258.5C 807.975,259.192 807.308,259.692 806.5,260C 808.766,261.514 809.932,263.681 810,266.5C 811.586,267.376 813.086,268.376 814.5,269.5C 815.21,272.781 816.877,275.448 819.5,277.5C 818.282,278.803 818.615,279.803 820.5,280.5C 819.359,281.425 819.359,282.259 820.5,283C 822.735,283.067 824.902,282.567 827,281.5C 827.333,282.167 827.667,282.833 828,283.5C 828.718,282.549 829.551,282.383 830.5,283C 831.289,286.097 832.456,286.264 834,283.5C 835.356,284.38 836.856,284.714 838.5,284.5C 838.713,287.475 839.713,290.142 841.5,292.5C 840.5,293.833 839.5,295.167 838.5,296.5C 838.544,293.101 836.544,291.435 832.5,291.5C 832.343,292.873 832.51,294.207 833,295.5C 834.609,296.147 836.109,296.98 837.5,298C 836.584,298.278 835.918,298.778 835.5,299.5C 831.338,300.776 827.338,302.443 823.5,304.5C 822.013,301.788 822.679,299.621 825.5,298C 824.584,297.626 823.75,297.126 823,296.5C 822.06,294.058 820.894,291.725 819.5,289.5C 818.239,292.82 816.572,293.154 814.5,290.5C 814.833,289.833 815.167,289.167 815.5,288.5C 811.505,287.838 809.171,285.505 808.5,281.5C 809.325,280.614 810.325,280.281 811.5,280.5C 811.719,279.325 811.386,278.325 810.5,277.5C 809.549,278.326 808.549,278.492 807.5,278C 806.237,276.295 805.903,274.628 806.5,273C 804.789,271.867 804.289,270.367 805,268.5C 805.333,269.167 805.667,269.833 806,270.5C 807.205,266.787 806.205,265.787 803,267.5C 801.373,267.375 799.873,266.875 798.5,266C 799.624,265.751 800.624,265.251 801.5,264.5C 798.94,262.326 798.94,260.159 801.5,258C 800.69,255.358 799.023,253.524 796.5,252.5C 795.711,252.217 795.044,251.717 794.5,251C 798.821,249.864 799.655,248.031 797,245.5C 796.612,241.781 795.945,238.114 795,234.5C 791.324,230.281 786.99,226.948 782,224.5C 781.055,224.905 780.388,225.572 780,226.5C 779.722,225.584 779.222,224.918 778.5,224.5C 779.833,222.5 781.5,220.833 783.5,219.5 Z"/></g>
<g><path style="opacity:1" fill="#462611" d="M 378.5,271.5 C 378.722,274.076 380.055,274.91 382.5,274C 381.226,273.023 381.226,272.189 382.5,271.5C 384.519,272.933 386.686,274.267 389,275.5C 388.503,277.198 388.67,278.865 389.5,280.5C 386.45,282.517 383.117,283.517 379.5,283.5C 379.5,284.833 379.5,286.167 379.5,287.5C 381.942,287.354 382.609,288.187 381.5,290C 385.717,291.624 387.384,294.457 386.5,298.5C 384.421,298.029 382.421,297.363 380.5,296.5C 375.934,294.269 371.934,291.269 368.5,287.5C 364.533,283.236 361.867,278.236 360.5,272.5C 361.5,272.5 362.5,272.5 363.5,272.5C 363.281,271.325 363.614,270.325 364.5,269.5C 365.769,271.18 367.436,272.347 369.5,273C 368.833,273.333 368.167,273.667 367.5,274C 370.89,274.744 374.223,275.577 377.5,276.5C 377.216,274.585 377.549,272.919 378.5,271.5 Z"/></g>
<g><path style="opacity:0.914" fill="#be7b4e" d="M 334.5,249.5 C 335.931,250.082 337.264,250.915 338.5,252C 337.128,252.631 335.795,253.298 334.5,254C 334.93,255.434 335.764,256.601 337,257.5C 337.984,255.205 338.817,255.539 339.5,258.5C 339.154,259.696 338.654,259.696 338,258.5C 337.335,260.966 336.835,263.133 336.5,265C 337.527,265.513 338.527,266.013 339.5,266.5C 339.369,267.376 339.702,268.043 340.5,268.5C 341.842,266.995 343.508,266.328 345.5,266.5C 345.36,268.124 346.027,269.29 347.5,270C 345.602,270.9 343.936,272.066 342.5,273.5C 343.59,275.003 344.757,275.336 346,274.5C 346.483,275.448 346.649,276.448 346.5,277.5C 345.022,277.238 343.689,277.571 342.5,278.5C 342.846,279.696 343.346,279.696 344,278.5C 344.249,279.624 344.749,280.624 345.5,281.5C 346.396,280.494 347.062,280.494 347.5,281.5C 346.15,283.02 344.817,283.687 343.5,283.5C 344.906,285.026 346.072,286.693 347,288.5C 348.297,287.216 349.464,287.383 350.5,289C 348.714,290.293 347.047,290.793 345.5,290.5C 346.242,291.287 347.075,291.953 348,292.5C 350.066,289.702 351.566,290.035 352.5,293.5C 351.572,294.768 351.405,296.101 352,297.5C 354.991,298.659 357.158,300.659 358.5,303.5C 348.362,298.265 341.195,290.265 337,279.5C 334.621,273.157 333.121,266.49 332.5,259.5C 333.097,256.029 333.764,252.695 334.5,249.5 Z"/></g>
<g><path style="opacity:1" fill="#2c1708" d="M 778.5,224.5 C 779.222,224.918 779.722,225.584 780,226.5C 780.388,225.572 781.055,224.905 782,224.5C 786.99,226.948 791.324,230.281 795,234.5C 795.945,238.114 796.612,241.781 797,245.5C 799.655,248.031 798.821,249.864 794.5,251C 795.044,251.717 795.711,252.217 796.5,252.5C 796.387,255.049 797.054,257.382 798.5,259.5C 797.306,261.54 796.64,263.873 796.5,266.5C 800.229,269.373 802.896,273.04 804.5,277.5C 802.945,279.819 803.612,281.319 806.5,282C 805.944,282.383 805.611,282.883 805.5,283.5C 805.421,284.93 805.754,286.264 806.5,287.5C 805.234,288.362 803.901,289.029 802.5,289.5C 801.521,287.855 800.188,286.521 798.5,285.5C 799.262,285.089 800.262,284.923 801.5,285C 800.978,284.439 800.645,283.772 800.5,283C 795.015,278.914 793.015,273.914 794.5,268C 792.568,265.079 792.568,262.412 794.5,260C 792.859,258.354 793.193,257.354 795.5,257C 794.458,254.443 793.125,252.11 791.5,250C 792.167,249 792.833,248 793.5,247C 792.167,244.333 792.167,241.667 793.5,239C 792.906,238.536 792.239,238.369 791.5,238.5C 790.437,234.667 789.604,234.667 789,238.5C 786.434,235.634 783.267,233.968 779.5,233.5C 779.33,232.178 779.663,231.011 780.5,230C 778.846,229.392 777.179,228.892 775.5,228.5C 775.738,226.596 776.738,225.262 778.5,224.5 Z"/></g>
<g><path style="opacity:0.08" fill="#f89656" d="M 459.5,252.5 C 460.699,258.508 460.699,264.675 459.5,271C 459.646,273.76 460.313,276.26 461.5,278.5C 455.279,283.972 448.946,289.472 442.5,295C 440.922,296.094 439.255,296.928 437.5,297.5C 442.638,292.532 447.971,287.699 453.5,283C 453.043,282.586 452.709,282.086 452.5,281.5C 454.036,278.222 455.369,274.889 456.5,271.5C 458.507,265.133 459.507,258.8 459.5,252.5 Z"/></g>
<g><path style="opacity:1" fill="#9b592c" d="M 344.5,262.5 C 345.496,262.414 346.329,262.748 347,263.5C 349.283,267.612 351.116,271.945 352.5,276.5C 350.156,278.896 350.656,280.896 354,282.5C 354.667,279.833 355.333,279.833 356,282.5C 357.333,282.5 358.667,282.5 360,282.5C 361.309,284.976 363.142,286.976 365.5,288.5C 366.417,287.873 367.417,287.539 368.5,287.5C 368.461,288.583 368.127,289.583 367.5,290.5C 368.025,291.192 368.692,291.692 369.5,292C 367.388,292.906 366.555,294.406 367,296.5C 367.667,297.833 368.333,297.833 369,296.5C 369.996,298.744 371.496,300.577 373.5,302C 371.884,302.615 370.551,303.615 369.5,305C 372.689,305.981 373.022,307.314 370.5,309C 371.025,309.692 371.692,310.192 372.5,310.5C 377.391,308.541 379.057,309.875 377.5,314.5C 372.148,311.205 366.481,308.371 360.5,306C 359.619,305.292 358.953,304.458 358.5,303.5C 357.158,300.659 354.991,298.659 352,297.5C 351.405,296.101 351.572,294.768 352.5,293.5C 351.566,290.035 350.066,289.702 348,292.5C 347.075,291.953 346.242,291.287 345.5,290.5C 347.047,290.793 348.714,290.293 350.5,289C 349.464,287.383 348.297,287.216 347,288.5C 346.072,286.693 344.906,285.026 343.5,283.5C 344.817,283.687 346.15,283.02 347.5,281.5C 347.062,280.494 346.396,280.494 345.5,281.5C 344.749,280.624 344.249,279.624 344,278.5C 343.346,279.696 342.846,279.696 342.5,278.5C 343.689,277.571 345.022,277.238 346.5,277.5C 346.649,276.448 346.483,275.448 346,274.5C 344.757,275.336 343.59,275.003 342.5,273.5C 343.936,272.066 345.602,270.9 347.5,270C 346.027,269.29 345.36,268.124 345.5,266.5C 343.508,266.328 341.842,266.995 340.5,268.5C 339.702,268.043 339.369,267.376 339.5,266.5C 341.466,265.745 341.8,264.579 340.5,263C 342.108,262.342 343.275,262.842 344,264.5C 344.464,263.906 344.631,263.239 344.5,262.5 Z"/></g>
<g><path style="opacity:1" fill="#3d200d" d="M 382.5,271.5 C 384.939,272.053 387.273,272.053 389.5,271.5C 390.251,272.376 390.751,273.376 391,274.5C 391.383,273.944 391.883,273.611 392.5,273.5C 392.804,274.15 393.137,274.817 393.5,275.5C 390.833,277.5 390.833,279.5 393.5,281.5C 396.028,280.502 396.028,279.669 393.5,279C 394.672,278.581 395.672,277.915 396.5,277C 397.6,276.568 398.267,277.068 398.5,278.5C 400.002,280.822 399.668,282.822 397.5,284.5C 396.074,285.802 394.741,287.302 393.5,289C 397.081,290.1 397.747,291.767 395.5,294C 397.916,295.474 398.916,297.64 398.5,300.5C 400.606,300.679 402.272,301.679 403.5,303.5C 403.376,304.107 403.043,304.44 402.5,304.5C 397.158,302.278 391.825,300.278 386.5,298.5C 387.384,294.457 385.717,291.624 381.5,290C 382.609,288.187 381.942,287.354 379.5,287.5C 379.5,286.167 379.5,284.833 379.5,283.5C 383.117,283.517 386.45,282.517 389.5,280.5C 388.67,278.865 388.503,277.198 389,275.5C 386.686,274.267 384.519,272.933 382.5,271.5 Z"/></g>
<g><path style="opacity:0.994" fill="#2a1406" d="M 447.5,228.5 C 448.167,228.5 448.833,228.5 449.5,228.5C 449.5,229.167 449.833,229.5 450.5,229.5C 452.42,232.339 454.087,235.339 455.5,238.5C 454.222,238.218 453.222,237.551 452.5,236.5C 451.618,234.916 450.785,233.249 450,231.5C 448.667,232.833 447.333,232.833 446,231.5C 444.285,233.531 442.452,234.531 440.5,234.5C 441.165,236.101 441.499,237.601 441.5,239C 439.833,240 438.5,241.333 437.5,243C 440.276,244.779 439.943,245.779 436.5,246C 437.517,247.049 437.684,248.216 437,249.5C 435.605,251.14 434.105,252.64 432.5,254C 434.397,256.939 435.23,260.105 435,263.5C 431.12,269.817 427.62,276.317 424.5,283C 424.982,284.008 425.148,285.175 425,286.5C 427.67,287.224 429.17,288.891 429.5,291.5C 431.591,291.682 433.591,291.348 435.5,290.5C 436.474,292.743 436.808,295.076 436.5,297.5C 435.833,298.5 435.167,299.5 434.5,300.5C 431.5,301.5 429.5,303.5 428.5,306.5C 428.167,307.5 427.5,308.167 426.5,308.5C 424.858,310.081 422.858,310.747 420.5,310.5C 416.235,308.902 413.235,305.902 411.5,301.5C 410.5,302.833 409.5,304.167 408.5,305.5C 408.15,303.35 408.817,301.183 410.5,299C 409.826,297.249 409.493,295.583 409.5,294C 410.141,291.143 411.807,289.81 414.5,290C 411.7,292.419 411.867,294.586 415,296.5C 415.5,294.667 416.667,293.5 418.5,293C 417.391,291.187 418.058,290.354 420.5,290.5C 421.052,288.669 421.052,287.003 420.5,285.5C 421.998,283.146 423.332,280.813 424.5,278.5C 424.389,277.883 424.056,277.383 423.5,277C 428.011,272.44 429.344,267.107 427.5,261C 430.167,260.333 430.167,259.667 427.5,259C 428.833,258.333 428.833,257.667 427.5,257C 429.513,255.209 429.513,253.875 427.5,253C 431.077,248.768 433.411,243.935 434.5,238.5C 435.675,238.719 436.675,238.386 437.5,237.5C 438.256,235.549 438.589,233.716 438.5,232C 440.5,231.667 442.5,231.333 444.5,231C 443.5,230.667 442.5,230.333 441.5,230C 443.345,228.872 445.345,228.372 447.5,228.5 Z"/></g>
<g><path style="opacity:0.997" fill="#2a1304" d="M 802.5,289.5 C 803.901,289.029 805.234,288.362 806.5,287.5C 805.754,286.264 805.421,284.93 805.5,283.5C 806.552,283.351 807.552,283.517 808.5,284C 808.167,284.333 807.833,284.667 807.5,285C 808.5,286.667 809.833,288 811.5,289C 811.217,292.102 811.217,295.102 811.5,298C 810.643,298.689 809.977,299.522 809.5,300.5C 809.92,302.326 809.92,304.326 809.5,306.5C 811.355,306.272 812.188,306.939 812,308.5C 809.702,307.554 807.868,308.221 806.5,310.5C 803.763,310.599 801.096,310.265 798.5,309.5C 798.167,308.833 797.833,308.167 797.5,307.5C 796.145,304.145 793.811,301.811 790.5,300.5C 789.5,300.167 788.833,299.5 788.5,298.5C 785.027,294.605 781.36,290.939 777.5,287.5C 778.15,287.196 778.817,286.863 779.5,286.5C 782.143,291.781 782.977,291.448 782,285.5C 783.908,288.332 784.741,287.999 784.5,284.5C 786.981,284.677 788.814,283.677 790,281.5C 789.968,283.598 789.301,285.598 788,287.5C 786.155,288.05 784.655,289.05 783.5,290.5C 784.242,291.287 785.075,291.953 786,292.5C 786.908,290.561 788.408,289.561 790.5,289.5C 790.5,290.5 790.5,291.5 790.5,292.5C 792.451,292.227 793.951,292.893 795,294.5C 795.495,292.527 795.662,290.527 795.5,288.5C 797.911,289.268 800.244,289.602 802.5,289.5 Z"/></g>
<g><path style="opacity:1" fill="#301707" d="M 796.5,252.5 C 799.023,253.524 800.69,255.358 801.5,258C 798.94,260.159 798.94,262.326 801.5,264.5C 800.624,265.251 799.624,265.751 798.5,266C 799.873,266.875 801.373,267.375 803,267.5C 806.205,265.787 807.205,266.787 806,270.5C 805.667,269.833 805.333,269.167 805,268.5C 804.289,270.367 804.789,271.867 806.5,273C 805.903,274.628 806.237,276.295 807.5,278C 808.549,278.492 809.549,278.326 810.5,277.5C 811.386,278.325 811.719,279.325 811.5,280.5C 810.325,280.281 809.325,280.614 808.5,281.5C 809.171,285.505 811.505,287.838 815.5,288.5C 815.167,289.167 814.833,289.833 814.5,290.5C 816.572,293.154 818.239,292.82 819.5,289.5C 820.894,291.725 822.06,294.058 823,296.5C 823.75,297.126 824.584,297.626 825.5,298C 822.679,299.621 822.013,301.788 823.5,304.5C 818.138,307.347 812.471,309.347 806.5,310.5C 807.868,308.221 809.702,307.554 812,308.5C 812.188,306.939 811.355,306.272 809.5,306.5C 809.92,304.326 809.92,302.326 809.5,300.5C 809.977,299.522 810.643,298.689 811.5,298C 811.217,295.102 811.217,292.102 811.5,289C 809.833,288 808.5,286.667 807.5,285C 807.833,284.667 808.167,284.333 808.5,284C 807.552,283.517 806.552,283.351 805.5,283.5C 805.611,282.883 805.944,282.383 806.5,282C 803.612,281.319 802.945,279.819 804.5,277.5C 802.896,273.04 800.229,269.373 796.5,266.5C 796.64,263.873 797.306,261.54 798.5,259.5C 797.054,257.382 796.387,255.049 796.5,252.5 Z"/></g>
<g><path style="opacity:1" fill="#341a09" d="M 424.5,278.5 C 423.332,280.813 421.998,283.146 420.5,285.5C 421.052,287.003 421.052,288.669 420.5,290.5C 418.058,290.354 417.391,291.187 418.5,293C 416.667,293.5 415.5,294.667 415,296.5C 411.867,294.586 411.7,292.419 414.5,290C 411.807,289.81 410.141,291.143 409.5,294C 409.493,295.583 409.826,297.249 410.5,299C 408.817,301.183 408.15,303.35 408.5,305.5C 409.5,304.167 410.5,302.833 411.5,301.5C 413.235,305.902 416.235,308.902 420.5,310.5C 419.833,310.5 419.167,310.5 418.5,310.5C 412.681,309.582 407.347,307.582 402.5,304.5C 403.043,304.44 403.376,304.107 403.5,303.5C 402.272,301.679 400.606,300.679 398.5,300.5C 398.916,297.64 397.916,295.474 395.5,294C 397.747,291.767 397.081,290.1 393.5,289C 394.741,287.302 396.074,285.802 397.5,284.5C 396.205,286.372 396.372,288.038 398,289.5C 399.066,287.901 400.566,286.901 402.5,286.5C 403.386,287.325 403.719,288.325 403.5,289.5C 405.592,289.561 407.092,290.561 408,292.5C 409.02,291.109 409.853,289.609 410.5,288C 409.451,287.508 408.451,287.674 407.5,288.5C 406.614,287.675 406.281,286.675 406.5,285.5C 408.167,285.5 409.833,285.5 411.5,285.5C 411.369,286.239 411.536,286.906 412,287.5C 413.129,283.354 415.629,282.021 419.5,283.5C 420.903,281.43 422.57,279.763 424.5,278.5 Z"/></g>
<g><path style="opacity:0.999" fill="#8e4a1d" d="M 855.5,288.5 C 855.455,291.077 856.455,293.077 858.5,294.5C 858.586,295.496 858.252,296.329 857.5,297C 858.167,297.333 858.833,297.667 859.5,298C 858.862,299.707 858.862,301.54 859.5,303.5C 857.323,303.586 855.323,304.253 853.5,305.5C 852.5,304.167 851.5,302.833 850.5,301.5C 850.894,303.424 850.227,305.257 848.5,307C 847.256,307.456 846.423,306.956 846,305.5C 845.683,307.301 845.016,307.634 844,306.5C 844.592,310.107 843.759,310.274 841.5,307C 839.095,306.719 839.095,307.385 841.5,309C 838.942,310.38 838.942,311.88 841.5,313.5C 841.192,314.308 840.692,314.975 840,315.5C 839.333,314.167 838.667,312.833 838,311.5C 837.333,314.167 836.667,314.167 836,311.5C 835.278,316.968 832.111,318.968 826.5,317.5C 823.235,315.443 819.902,315.776 816.5,318.5C 814.047,316.08 811.047,314.914 807.5,315C 807.088,313.436 806.755,311.936 806.5,310.5C 812.471,309.347 818.138,307.347 823.5,304.5C 827.338,302.443 831.338,300.776 835.5,299.5C 843.35,297.91 850.017,294.243 855.5,288.5 Z"/></g>
<g><path style="opacity:0.997" fill="#965326" d="M 368.5,287.5 C 371.934,291.269 375.934,294.269 380.5,296.5C 379.943,300.634 380.943,304.301 383.5,307.5C 384.386,306.675 384.719,305.675 384.5,304.5C 388.584,303.945 389.251,304.945 386.5,307.5C 388.76,307.233 391.093,307.733 393.5,309C 390.972,309.998 390.972,310.831 393.5,311.5C 395.055,311.278 396.389,310.611 397.5,309.5C 397.833,309.833 398.167,310.167 398.5,310.5C 397.737,311.719 396.737,312.719 395.5,313.5C 395.833,314.167 396.167,314.833 396.5,315.5C 400.639,316.067 404.639,317.067 408.5,318.5C 410.953,316.08 413.953,314.914 417.5,315C 417.912,313.436 418.245,311.936 418.5,310.5C 419.167,310.5 419.833,310.5 420.5,310.5C 422.858,310.747 424.858,310.081 426.5,308.5C 426.489,310.017 425.823,311.184 424.5,312C 421.813,312.341 419.813,313.674 418.5,316C 414.93,316.408 411.763,317.575 409,319.5C 406.54,318.687 404.04,318.02 401.5,317.5C 393.044,319.257 385.044,318.257 377.5,314.5C 379.057,309.875 377.391,308.541 372.5,310.5C 371.692,310.192 371.025,309.692 370.5,309C 373.022,307.314 372.689,305.981 369.5,305C 370.551,303.615 371.884,302.615 373.5,302C 371.496,300.577 369.996,298.744 369,296.5C 368.333,297.833 367.667,297.833 367,296.5C 366.555,294.406 367.388,292.906 369.5,292C 368.692,291.692 368.025,291.192 367.5,290.5C 368.127,289.583 368.461,288.583 368.5,287.5 Z"/></g>
<g><path style="opacity:0.999" fill="#8e4a1c" d="M 380.5,296.5 C 382.421,297.363 384.421,298.029 386.5,298.5C 391.825,300.278 397.158,302.278 402.5,304.5C 407.347,307.582 412.681,309.582 418.5,310.5C 418.245,311.936 417.912,313.436 417.5,315C 413.953,314.914 410.953,316.08 408.5,318.5C 404.639,317.067 400.639,316.067 396.5,315.5C 396.167,314.833 395.833,314.167 395.5,313.5C 396.737,312.719 397.737,311.719 398.5,310.5C 398.167,310.167 397.833,309.833 397.5,309.5C 396.389,310.611 395.055,311.278 393.5,311.5C 390.972,310.831 390.972,309.998 393.5,309C 391.093,307.733 388.76,307.233 386.5,307.5C 389.251,304.945 388.584,303.945 384.5,304.5C 384.719,305.675 384.386,306.675 383.5,307.5C 380.943,304.301 379.943,300.634 380.5,296.5 Z"/></g>
<g><path style="opacity:0.004" fill="#f59554" d="M 436.5,297.5 C 436.833,297.5 437.167,297.5 437.5,297.5C 437.5,299.5 436.5,300.5 434.5,300.5C 435.167,299.5 435.833,298.5 436.5,297.5 Z"/></g>
<g><path style="opacity:0.537" fill="#bd7140" d="M 790.5,300.5 C 793.811,301.811 796.145,304.145 797.5,307.5C 794.882,305.548 792.548,303.215 790.5,300.5 Z"/></g>
<g><path style="opacity:0.996" fill="#9b582b" d="M 863.5,291.5 C 863.271,295.366 864.271,298.866 866.5,302C 862.92,304.277 859.586,306.777 856.5,309.5C 847.517,316.502 837.517,319.169 826.5,317.5C 832.111,318.968 835.278,316.968 836,311.5C 836.667,314.167 837.333,314.167 838,311.5C 838.667,312.833 839.333,314.167 840,315.5C 840.692,314.975 841.192,314.308 841.5,313.5C 838.942,311.88 838.942,310.38 841.5,309C 839.095,307.385 839.095,306.719 841.5,307C 843.759,310.274 844.592,310.107 844,306.5C 845.016,307.634 845.683,307.301 846,305.5C 846.423,306.956 847.256,307.456 848.5,307C 850.227,305.257 850.894,303.424 850.5,301.5C 851.5,302.833 852.5,304.167 853.5,305.5C 855.323,304.253 857.323,303.586 859.5,303.5C 858.862,301.54 858.862,299.707 859.5,298C 858.833,297.667 858.167,297.333 857.5,297C 858.252,296.329 858.586,295.496 858.5,294.5C 859.873,294.657 861.207,294.49 862.5,294C 861.833,293.667 861.167,293.333 860.5,293C 861.05,290.842 862.05,290.342 863.5,291.5 Z"/></g>
<g><path style="opacity:0.055" fill="#c47642" d="M 434.5,300.5 C 432.833,302.833 430.833,304.833 428.5,306.5C 429.5,303.5 431.5,301.5 434.5,300.5 Z"/></g>
<g><path style="opacity:0.24" fill="#ae734c" d="M 798.5,309.5 C 801.096,310.265 803.763,310.599 806.5,310.5C 806.755,311.936 807.088,313.436 807.5,315C 811.047,314.914 814.047,316.08 816.5,318.5C 819.902,315.776 823.235,315.443 826.5,317.5C 822.987,317.307 819.654,317.974 816.5,319.5C 813.25,317.224 809.584,315.89 805.5,315.5C 804.614,314.675 804.281,313.675 804.5,312.5C 801.687,312.975 799.687,311.975 798.5,309.5 Z"/></g>
</svg>
